%TF.GenerationSoftware,KiCad,Pcbnew,7.0.7*%
%TF.CreationDate,2024-05-14T17:55:08+07:00*%
%TF.ProjectId,frankii round 2,6672616e-6b69-4692-9072-6f756e642032,rev?*%
%TF.SameCoordinates,Original*%
%TF.FileFunction,Drillmap*%
%TF.FilePolarity,Positive*%
%FSLAX45Y45*%
G04 Gerber Fmt 4.5, Leading zero omitted, Abs format (unit mm)*
G04 Created by KiCad (PCBNEW 7.0.7) date 2024-05-14 17:55:08*
%MOMM*%
%LPD*%
G01*
G04 APERTURE LIST*
%ADD10C,0.100000*%
%ADD11C,0.200000*%
%ADD12C,0.033000*%
%ADD13C,0.040000*%
%ADD14C,0.078740*%
%ADD15C,0.099060*%
%ADD16C,0.120000*%
%ADD17C,0.149860*%
G04 APERTURE END LIST*
D10*
X13323607Y-10000000D02*
G75*
G03*
X13323607Y-10000000I-223607J0D01*
G01*
X13323607Y-5500000D02*
G75*
G03*
X13323607Y-5500000I-223607J0D01*
G01*
X22200000Y-5500000D02*
G75*
G03*
X22200000Y-5500000I-223607J0D01*
G01*
X22200000Y-10000000D02*
G75*
G03*
X22200000Y-10000000I-223607J0D01*
G01*
X12700000Y-5080000D02*
X22352000Y-5080000D01*
X22352000Y-10414000D01*
X12700000Y-10414000D01*
X12700000Y-5080000D01*
D11*
D12*
X15817400Y-9350000D02*
X15850400Y-9383000D01*
X15850400Y-9350000D02*
X15817400Y-9383000D01*
X15817400Y-9480000D02*
X15850400Y-9513000D01*
X15850400Y-9480000D02*
X15817400Y-9513000D01*
X15947400Y-9350000D02*
X15980400Y-9383000D01*
X15980400Y-9350000D02*
X15947400Y-9383000D01*
X15947400Y-9480000D02*
X15980400Y-9513000D01*
X15980400Y-9480000D02*
X15947400Y-9513000D01*
X16077400Y-9350000D02*
X16110400Y-9383000D01*
X16110400Y-9350000D02*
X16077400Y-9383000D01*
X16077400Y-9480000D02*
X16110400Y-9513000D01*
X16110400Y-9480000D02*
X16077400Y-9513000D01*
X19932200Y-9342690D02*
X19965200Y-9375690D01*
X19965200Y-9342690D02*
X19932200Y-9375690D01*
X19932200Y-9472690D02*
X19965200Y-9505690D01*
X19965200Y-9472690D02*
X19932200Y-9505690D01*
X20062200Y-9342690D02*
X20095200Y-9375690D01*
X20095200Y-9342690D02*
X20062200Y-9375690D01*
X20062200Y-9472690D02*
X20095200Y-9505690D01*
X20095200Y-9472690D02*
X20062200Y-9505690D01*
X20192200Y-9342690D02*
X20225200Y-9375690D01*
X20225200Y-9342690D02*
X20192200Y-9375690D01*
X20192200Y-9472690D02*
X20225200Y-9505690D01*
X20225200Y-9472690D02*
X20192200Y-9505690D01*
D13*
X16047400Y-9906000D02*
G75*
G03*
X16047400Y-9906000I-20000J0D01*
G01*
X20162200Y-9906000D02*
G75*
G03*
X20162200Y-9906000I-20000J0D01*
G01*
D14*
X21517000Y-6158230D02*
X21517000Y-6236970D01*
X21477630Y-6197600D02*
X21556370Y-6197600D01*
X21717000Y-6158230D02*
X21717000Y-6236970D01*
X21677630Y-6197600D02*
X21756370Y-6197600D01*
X21917000Y-6158230D02*
X21917000Y-6236970D01*
X21877630Y-6197600D02*
X21956370Y-6197600D01*
D15*
X14255203Y-5673823D02*
X14255203Y-5603777D01*
X14185157Y-5603777D01*
X14185157Y-5673823D01*
X14255203Y-5673823D01*
X14255203Y-5923823D02*
X14255203Y-5853777D01*
X14185157Y-5853777D01*
X14185157Y-5923823D01*
X14255203Y-5923823D01*
X14255203Y-6173823D02*
X14255203Y-6103777D01*
X14185157Y-6103777D01*
X14185157Y-6173823D01*
X14255203Y-6173823D01*
X15155203Y-5673823D02*
X15155203Y-5603777D01*
X15085157Y-5603777D01*
X15085157Y-5673823D01*
X15155203Y-5673823D01*
X15155203Y-5923823D02*
X15155203Y-5853777D01*
X15085157Y-5853777D01*
X15085157Y-5923823D01*
X15155203Y-5923823D01*
X15155203Y-6173823D02*
X15155203Y-6103777D01*
X15085157Y-6103777D01*
X15085157Y-6173823D01*
X15155203Y-6173823D01*
X16055203Y-5673823D02*
X16055203Y-5603777D01*
X15985157Y-5603777D01*
X15985157Y-5673823D01*
X16055203Y-5673823D01*
X16055203Y-5923823D02*
X16055203Y-5853777D01*
X15985157Y-5853777D01*
X15985157Y-5923823D01*
X16055203Y-5923823D01*
X16055203Y-6173823D02*
X16055203Y-6103777D01*
X15985157Y-6103777D01*
X15985157Y-6173823D01*
X16055203Y-6173823D01*
X17002223Y-5673823D02*
X17002223Y-5603777D01*
X16932177Y-5603777D01*
X16932177Y-5673823D01*
X17002223Y-5673823D01*
X17002223Y-5923823D02*
X17002223Y-5853777D01*
X16932177Y-5853777D01*
X16932177Y-5923823D01*
X17002223Y-5923823D01*
X17002223Y-6173823D02*
X17002223Y-6103777D01*
X16932177Y-6103777D01*
X16932177Y-6173823D01*
X17002223Y-6173823D01*
X17938203Y-5681823D02*
X17938203Y-5611777D01*
X17868157Y-5611777D01*
X17868157Y-5681823D01*
X17938203Y-5681823D01*
X17938203Y-5931823D02*
X17938203Y-5861777D01*
X17868157Y-5861777D01*
X17868157Y-5931823D01*
X17938203Y-5931823D01*
X17938203Y-6181823D02*
X17938203Y-6111777D01*
X17868157Y-6111777D01*
X17868157Y-6181823D01*
X17938203Y-6181823D01*
X18838203Y-5681823D02*
X18838203Y-5611777D01*
X18768157Y-5611777D01*
X18768157Y-5681823D01*
X18838203Y-5681823D01*
X18838203Y-5931823D02*
X18838203Y-5861777D01*
X18768157Y-5861777D01*
X18768157Y-5931823D01*
X18838203Y-5931823D01*
X18838203Y-6181823D02*
X18838203Y-6111777D01*
X18768157Y-6111777D01*
X18768157Y-6181823D01*
X18838203Y-6181823D01*
X19738203Y-5681823D02*
X19738203Y-5611777D01*
X19668157Y-5611777D01*
X19668157Y-5681823D01*
X19738203Y-5681823D01*
X19738203Y-5931823D02*
X19738203Y-5861777D01*
X19668157Y-5861777D01*
X19668157Y-5931823D01*
X19738203Y-5931823D01*
X19738203Y-6181823D02*
X19738203Y-6111777D01*
X19668157Y-6111777D01*
X19668157Y-6181823D01*
X19738203Y-6181823D01*
X20685223Y-5681823D02*
X20685223Y-5611777D01*
X20615177Y-5611777D01*
X20615177Y-5681823D01*
X20685223Y-5681823D01*
X20685223Y-5931823D02*
X20685223Y-5861777D01*
X20615177Y-5861777D01*
X20615177Y-5931823D01*
X20685223Y-5931823D01*
X20685223Y-6181823D02*
X20685223Y-6111777D01*
X20615177Y-6111777D01*
X20615177Y-6181823D01*
X20685223Y-6181823D01*
D10*
X14681200Y-9194000D02*
X14731200Y-9144000D01*
X14681200Y-9094000D01*
X14631200Y-9144000D01*
X14681200Y-9194000D01*
X15900400Y-10116250D02*
X15950400Y-10066250D01*
X15900400Y-10016250D01*
X15850400Y-10066250D01*
X15900400Y-10116250D01*
X16154400Y-10210000D02*
X16204400Y-10160000D01*
X16154400Y-10110000D01*
X16104400Y-10160000D01*
X16154400Y-10210000D01*
X18796000Y-9194000D02*
X18846000Y-9144000D01*
X18796000Y-9094000D01*
X18746000Y-9144000D01*
X18796000Y-9194000D01*
X20015200Y-10260800D02*
X20065200Y-10210800D01*
X20015200Y-10160800D01*
X19965200Y-10210800D01*
X20015200Y-10260800D01*
X20269200Y-10116250D02*
X20319200Y-10066250D01*
X20269200Y-10016250D01*
X20219200Y-10066250D01*
X20269200Y-10116250D01*
X20980400Y-8305000D02*
X21030400Y-8255000D01*
X20980400Y-8205000D01*
X20930400Y-8255000D01*
X20980400Y-8305000D01*
X15139200Y-6857800D02*
X15239200Y-6957800D01*
X15239200Y-6857800D02*
X15139200Y-6957800D01*
X15239200Y-6907800D02*
G75*
G03*
X15239200Y-6907800I-50000J0D01*
G01*
X15139200Y-8381800D02*
X15239200Y-8481800D01*
X15239200Y-8381800D02*
X15139200Y-8481800D01*
X15239200Y-8431800D02*
G75*
G03*
X15239200Y-8431800I-50000J0D01*
G01*
X15393200Y-6857800D02*
X15493200Y-6957800D01*
X15493200Y-6857800D02*
X15393200Y-6957800D01*
X15493200Y-6907800D02*
G75*
G03*
X15493200Y-6907800I-50000J0D01*
G01*
X15393200Y-8381800D02*
X15493200Y-8481800D01*
X15493200Y-8381800D02*
X15393200Y-8481800D01*
X15493200Y-8431800D02*
G75*
G03*
X15493200Y-8431800I-50000J0D01*
G01*
X15647200Y-6857800D02*
X15747200Y-6957800D01*
X15747200Y-6857800D02*
X15647200Y-6957800D01*
X15747200Y-6907800D02*
G75*
G03*
X15747200Y-6907800I-50000J0D01*
G01*
X15647200Y-8381800D02*
X15747200Y-8481800D01*
X15747200Y-8381800D02*
X15647200Y-8481800D01*
X15747200Y-8431800D02*
G75*
G03*
X15747200Y-8431800I-50000J0D01*
G01*
X15901200Y-6857800D02*
X16001200Y-6957800D01*
X16001200Y-6857800D02*
X15901200Y-6957800D01*
X16001200Y-6907800D02*
G75*
G03*
X16001200Y-6907800I-50000J0D01*
G01*
X15901200Y-8381800D02*
X16001200Y-8481800D01*
X16001200Y-8381800D02*
X15901200Y-8481800D01*
X16001200Y-8431800D02*
G75*
G03*
X16001200Y-8431800I-50000J0D01*
G01*
X16155200Y-6857800D02*
X16255200Y-6957800D01*
X16255200Y-6857800D02*
X16155200Y-6957800D01*
X16255200Y-6907800D02*
G75*
G03*
X16255200Y-6907800I-50000J0D01*
G01*
X16155200Y-8381800D02*
X16255200Y-8481800D01*
X16255200Y-8381800D02*
X16155200Y-8481800D01*
X16255200Y-8431800D02*
G75*
G03*
X16255200Y-8431800I-50000J0D01*
G01*
X16409200Y-6857800D02*
X16509200Y-6957800D01*
X16509200Y-6857800D02*
X16409200Y-6957800D01*
X16509200Y-6907800D02*
G75*
G03*
X16509200Y-6907800I-50000J0D01*
G01*
X16409200Y-8381800D02*
X16509200Y-8481800D01*
X16509200Y-8381800D02*
X16409200Y-8481800D01*
X16509200Y-8431800D02*
G75*
G03*
X16509200Y-8431800I-50000J0D01*
G01*
X16663200Y-6857800D02*
X16763200Y-6957800D01*
X16763200Y-6857800D02*
X16663200Y-6957800D01*
X16763200Y-6907800D02*
G75*
G03*
X16763200Y-6907800I-50000J0D01*
G01*
X16663200Y-8381800D02*
X16763200Y-8481800D01*
X16763200Y-8381800D02*
X16663200Y-8481800D01*
X16763200Y-8431800D02*
G75*
G03*
X16763200Y-8431800I-50000J0D01*
G01*
X16917200Y-6857800D02*
X17017200Y-6957800D01*
X17017200Y-6857800D02*
X16917200Y-6957800D01*
X17017200Y-6907800D02*
G75*
G03*
X17017200Y-6907800I-50000J0D01*
G01*
X16917200Y-8381800D02*
X17017200Y-8481800D01*
X17017200Y-8381800D02*
X16917200Y-8481800D01*
X17017200Y-8431800D02*
G75*
G03*
X17017200Y-8431800I-50000J0D01*
G01*
X17171200Y-6857800D02*
X17271200Y-6957800D01*
X17271200Y-6857800D02*
X17171200Y-6957800D01*
X17271200Y-6907800D02*
G75*
G03*
X17271200Y-6907800I-50000J0D01*
G01*
X17171200Y-8381800D02*
X17271200Y-8481800D01*
X17271200Y-8381800D02*
X17171200Y-8481800D01*
X17271200Y-8431800D02*
G75*
G03*
X17271200Y-8431800I-50000J0D01*
G01*
X17425200Y-6857800D02*
X17525200Y-6957800D01*
X17525200Y-6857800D02*
X17425200Y-6957800D01*
X17525200Y-6907800D02*
G75*
G03*
X17525200Y-6907800I-50000J0D01*
G01*
X17425200Y-8381800D02*
X17525200Y-8481800D01*
X17525200Y-8381800D02*
X17425200Y-8481800D01*
X17525200Y-8431800D02*
G75*
G03*
X17525200Y-8431800I-50000J0D01*
G01*
X17679200Y-6857800D02*
X17779200Y-6957800D01*
X17779200Y-6857800D02*
X17679200Y-6957800D01*
X17779200Y-6907800D02*
G75*
G03*
X17779200Y-6907800I-50000J0D01*
G01*
X17679200Y-8381800D02*
X17779200Y-8481800D01*
X17779200Y-8381800D02*
X17679200Y-8481800D01*
X17779200Y-8431800D02*
G75*
G03*
X17779200Y-8431800I-50000J0D01*
G01*
X17933200Y-6857800D02*
X18033200Y-6957800D01*
X18033200Y-6857800D02*
X17933200Y-6957800D01*
X18033200Y-6907800D02*
G75*
G03*
X18033200Y-6907800I-50000J0D01*
G01*
X17933200Y-8381800D02*
X18033200Y-8481800D01*
X18033200Y-8381800D02*
X17933200Y-8481800D01*
X18033200Y-8431800D02*
G75*
G03*
X18033200Y-8431800I-50000J0D01*
G01*
X18187200Y-6857800D02*
X18287200Y-6957800D01*
X18287200Y-6857800D02*
X18187200Y-6957800D01*
X18287200Y-6907800D02*
G75*
G03*
X18287200Y-6907800I-50000J0D01*
G01*
X18187200Y-8381800D02*
X18287200Y-8481800D01*
X18287200Y-8381800D02*
X18187200Y-8481800D01*
X18287200Y-8431800D02*
G75*
G03*
X18287200Y-8431800I-50000J0D01*
G01*
X18441200Y-6857800D02*
X18541200Y-6957800D01*
X18541200Y-6857800D02*
X18441200Y-6957800D01*
X18541200Y-6907800D02*
G75*
G03*
X18541200Y-6907800I-50000J0D01*
G01*
X18441200Y-8381800D02*
X18541200Y-8481800D01*
X18541200Y-8381800D02*
X18441200Y-8481800D01*
X18541200Y-8431800D02*
G75*
G03*
X18541200Y-8431800I-50000J0D01*
G01*
X18695200Y-6857800D02*
X18795200Y-6957800D01*
X18795200Y-6857800D02*
X18695200Y-6957800D01*
X18795200Y-6907800D02*
G75*
G03*
X18795200Y-6907800I-50000J0D01*
G01*
X18695200Y-8381800D02*
X18795200Y-8481800D01*
X18795200Y-8381800D02*
X18695200Y-8481800D01*
X18795200Y-8431800D02*
G75*
G03*
X18795200Y-8431800I-50000J0D01*
G01*
D16*
X13884600Y-9886000D02*
X14004600Y-10006000D01*
X14004600Y-9886000D02*
X13884600Y-10006000D01*
X13944600Y-9886000D02*
X13944600Y-10006000D01*
X13884600Y-9946000D02*
X14004600Y-9946000D01*
X14234600Y-9886000D02*
X14354600Y-10006000D01*
X14354600Y-9886000D02*
X14234600Y-10006000D01*
X14294600Y-9886000D02*
X14294600Y-10006000D01*
X14234600Y-9946000D02*
X14354600Y-9946000D01*
X20971200Y-9842000D02*
X21091200Y-9962000D01*
X21091200Y-9842000D02*
X20971200Y-9962000D01*
X21031200Y-9842000D02*
X21031200Y-9962000D01*
X20971200Y-9902000D02*
X21091200Y-9902000D01*
X21321200Y-9842000D02*
X21441200Y-9962000D01*
X21441200Y-9842000D02*
X21321200Y-9962000D01*
X21381200Y-9842000D02*
X21381200Y-9962000D01*
X21321200Y-9902000D02*
X21441200Y-9902000D01*
X21648600Y-6645600D02*
X21768600Y-6765600D01*
X21768600Y-6645600D02*
X21648600Y-6765600D01*
X21708600Y-6645600D02*
X21708600Y-6765600D01*
X21648600Y-6705600D02*
X21768600Y-6705600D01*
X21648600Y-6995600D02*
X21768600Y-7115600D01*
X21768600Y-6995600D02*
X21648600Y-7115600D01*
X21708600Y-6995600D02*
X21708600Y-7115600D01*
X21648600Y-7055600D02*
X21768600Y-7055600D01*
D17*
X21232070Y-6122670D02*
X21381930Y-6272530D01*
X21381930Y-6122670D02*
X21232070Y-6272530D01*
X21359984Y-6250584D02*
X21359984Y-6144616D01*
X21254016Y-6144616D01*
X21254016Y-6250584D01*
X21359984Y-6250584D01*
X22052070Y-6122670D02*
X22201930Y-6272530D01*
X22201930Y-6122670D02*
X22052070Y-6272530D01*
X22179984Y-6250584D02*
X22179984Y-6144616D01*
X22074016Y-6144616D01*
X22074016Y-6250584D01*
X22179984Y-6250584D01*
D11*
X12955777Y-10730484D02*
X12955777Y-10530484D01*
X12955777Y-10530484D02*
X13003396Y-10530484D01*
X13003396Y-10530484D02*
X13031967Y-10540008D01*
X13031967Y-10540008D02*
X13051015Y-10559055D01*
X13051015Y-10559055D02*
X13060539Y-10578103D01*
X13060539Y-10578103D02*
X13070062Y-10616198D01*
X13070062Y-10616198D02*
X13070062Y-10644770D01*
X13070062Y-10644770D02*
X13060539Y-10682865D01*
X13060539Y-10682865D02*
X13051015Y-10701912D01*
X13051015Y-10701912D02*
X13031967Y-10720960D01*
X13031967Y-10720960D02*
X13003396Y-10730484D01*
X13003396Y-10730484D02*
X12955777Y-10730484D01*
X13155777Y-10730484D02*
X13155777Y-10597150D01*
X13155777Y-10635246D02*
X13165301Y-10616198D01*
X13165301Y-10616198D02*
X13174824Y-10606674D01*
X13174824Y-10606674D02*
X13193872Y-10597150D01*
X13193872Y-10597150D02*
X13212920Y-10597150D01*
X13279586Y-10730484D02*
X13279586Y-10597150D01*
X13279586Y-10530484D02*
X13270062Y-10540008D01*
X13270062Y-10540008D02*
X13279586Y-10549531D01*
X13279586Y-10549531D02*
X13289110Y-10540008D01*
X13289110Y-10540008D02*
X13279586Y-10530484D01*
X13279586Y-10530484D02*
X13279586Y-10549531D01*
X13403396Y-10730484D02*
X13384348Y-10720960D01*
X13384348Y-10720960D02*
X13374824Y-10701912D01*
X13374824Y-10701912D02*
X13374824Y-10530484D01*
X13508158Y-10730484D02*
X13489110Y-10720960D01*
X13489110Y-10720960D02*
X13479586Y-10701912D01*
X13479586Y-10701912D02*
X13479586Y-10530484D01*
X13736729Y-10730484D02*
X13736729Y-10530484D01*
X13736729Y-10530484D02*
X13803396Y-10673341D01*
X13803396Y-10673341D02*
X13870062Y-10530484D01*
X13870062Y-10530484D02*
X13870062Y-10730484D01*
X14051015Y-10730484D02*
X14051015Y-10625722D01*
X14051015Y-10625722D02*
X14041491Y-10606674D01*
X14041491Y-10606674D02*
X14022443Y-10597150D01*
X14022443Y-10597150D02*
X13984348Y-10597150D01*
X13984348Y-10597150D02*
X13965301Y-10606674D01*
X14051015Y-10720960D02*
X14031967Y-10730484D01*
X14031967Y-10730484D02*
X13984348Y-10730484D01*
X13984348Y-10730484D02*
X13965301Y-10720960D01*
X13965301Y-10720960D02*
X13955777Y-10701912D01*
X13955777Y-10701912D02*
X13955777Y-10682865D01*
X13955777Y-10682865D02*
X13965301Y-10663817D01*
X13965301Y-10663817D02*
X13984348Y-10654293D01*
X13984348Y-10654293D02*
X14031967Y-10654293D01*
X14031967Y-10654293D02*
X14051015Y-10644770D01*
X14146253Y-10597150D02*
X14146253Y-10797150D01*
X14146253Y-10606674D02*
X14165301Y-10597150D01*
X14165301Y-10597150D02*
X14203396Y-10597150D01*
X14203396Y-10597150D02*
X14222443Y-10606674D01*
X14222443Y-10606674D02*
X14231967Y-10616198D01*
X14231967Y-10616198D02*
X14241491Y-10635246D01*
X14241491Y-10635246D02*
X14241491Y-10692389D01*
X14241491Y-10692389D02*
X14231967Y-10711436D01*
X14231967Y-10711436D02*
X14222443Y-10720960D01*
X14222443Y-10720960D02*
X14203396Y-10730484D01*
X14203396Y-10730484D02*
X14165301Y-10730484D01*
X14165301Y-10730484D02*
X14146253Y-10720960D01*
X14327205Y-10711436D02*
X14336729Y-10720960D01*
X14336729Y-10720960D02*
X14327205Y-10730484D01*
X14327205Y-10730484D02*
X14317682Y-10720960D01*
X14317682Y-10720960D02*
X14327205Y-10711436D01*
X14327205Y-10711436D02*
X14327205Y-10730484D01*
X14327205Y-10606674D02*
X14336729Y-10616198D01*
X14336729Y-10616198D02*
X14327205Y-10625722D01*
X14327205Y-10625722D02*
X14317682Y-10616198D01*
X14317682Y-10616198D02*
X14327205Y-10606674D01*
X14327205Y-10606674D02*
X14327205Y-10625722D01*
D12*
X12662000Y-11042500D02*
X12695000Y-11075500D01*
X12695000Y-11042500D02*
X12662000Y-11075500D01*
D11*
X12993872Y-10950484D02*
X13012920Y-10950484D01*
X13012920Y-10950484D02*
X13031967Y-10960008D01*
X13031967Y-10960008D02*
X13041491Y-10969531D01*
X13041491Y-10969531D02*
X13051015Y-10988579D01*
X13051015Y-10988579D02*
X13060539Y-11026674D01*
X13060539Y-11026674D02*
X13060539Y-11074293D01*
X13060539Y-11074293D02*
X13051015Y-11112389D01*
X13051015Y-11112389D02*
X13041491Y-11131436D01*
X13041491Y-11131436D02*
X13031967Y-11140960D01*
X13031967Y-11140960D02*
X13012920Y-11150484D01*
X13012920Y-11150484D02*
X12993872Y-11150484D01*
X12993872Y-11150484D02*
X12974824Y-11140960D01*
X12974824Y-11140960D02*
X12965301Y-11131436D01*
X12965301Y-11131436D02*
X12955777Y-11112389D01*
X12955777Y-11112389D02*
X12946253Y-11074293D01*
X12946253Y-11074293D02*
X12946253Y-11026674D01*
X12946253Y-11026674D02*
X12955777Y-10988579D01*
X12955777Y-10988579D02*
X12965301Y-10969531D01*
X12965301Y-10969531D02*
X12974824Y-10960008D01*
X12974824Y-10960008D02*
X12993872Y-10950484D01*
X13146253Y-11131436D02*
X13155777Y-11140960D01*
X13155777Y-11140960D02*
X13146253Y-11150484D01*
X13146253Y-11150484D02*
X13136729Y-11140960D01*
X13136729Y-11140960D02*
X13146253Y-11131436D01*
X13146253Y-11131436D02*
X13146253Y-11150484D01*
X13222443Y-10950484D02*
X13346253Y-10950484D01*
X13346253Y-10950484D02*
X13279586Y-11026674D01*
X13279586Y-11026674D02*
X13308158Y-11026674D01*
X13308158Y-11026674D02*
X13327205Y-11036198D01*
X13327205Y-11036198D02*
X13336729Y-11045722D01*
X13336729Y-11045722D02*
X13346253Y-11064770D01*
X13346253Y-11064770D02*
X13346253Y-11112389D01*
X13346253Y-11112389D02*
X13336729Y-11131436D01*
X13336729Y-11131436D02*
X13327205Y-11140960D01*
X13327205Y-11140960D02*
X13308158Y-11150484D01*
X13308158Y-11150484D02*
X13251015Y-11150484D01*
X13251015Y-11150484D02*
X13231967Y-11140960D01*
X13231967Y-11140960D02*
X13222443Y-11131436D01*
X13412920Y-10950484D02*
X13536729Y-10950484D01*
X13536729Y-10950484D02*
X13470062Y-11026674D01*
X13470062Y-11026674D02*
X13498634Y-11026674D01*
X13498634Y-11026674D02*
X13517682Y-11036198D01*
X13517682Y-11036198D02*
X13527205Y-11045722D01*
X13527205Y-11045722D02*
X13536729Y-11064770D01*
X13536729Y-11064770D02*
X13536729Y-11112389D01*
X13536729Y-11112389D02*
X13527205Y-11131436D01*
X13527205Y-11131436D02*
X13517682Y-11140960D01*
X13517682Y-11140960D02*
X13498634Y-11150484D01*
X13498634Y-11150484D02*
X13441491Y-11150484D01*
X13441491Y-11150484D02*
X13422443Y-11140960D01*
X13422443Y-11140960D02*
X13412920Y-11131436D01*
X13660539Y-10950484D02*
X13679586Y-10950484D01*
X13679586Y-10950484D02*
X13698634Y-10960008D01*
X13698634Y-10960008D02*
X13708158Y-10969531D01*
X13708158Y-10969531D02*
X13717682Y-10988579D01*
X13717682Y-10988579D02*
X13727205Y-11026674D01*
X13727205Y-11026674D02*
X13727205Y-11074293D01*
X13727205Y-11074293D02*
X13717682Y-11112389D01*
X13717682Y-11112389D02*
X13708158Y-11131436D01*
X13708158Y-11131436D02*
X13698634Y-11140960D01*
X13698634Y-11140960D02*
X13679586Y-11150484D01*
X13679586Y-11150484D02*
X13660539Y-11150484D01*
X13660539Y-11150484D02*
X13641491Y-11140960D01*
X13641491Y-11140960D02*
X13631967Y-11131436D01*
X13631967Y-11131436D02*
X13622443Y-11112389D01*
X13622443Y-11112389D02*
X13612920Y-11074293D01*
X13612920Y-11074293D02*
X13612920Y-11026674D01*
X13612920Y-11026674D02*
X13622443Y-10988579D01*
X13622443Y-10988579D02*
X13631967Y-10969531D01*
X13631967Y-10969531D02*
X13641491Y-10960008D01*
X13641491Y-10960008D02*
X13660539Y-10950484D01*
X13812920Y-11150484D02*
X13812920Y-11017150D01*
X13812920Y-11036198D02*
X13822443Y-11026674D01*
X13822443Y-11026674D02*
X13841491Y-11017150D01*
X13841491Y-11017150D02*
X13870063Y-11017150D01*
X13870063Y-11017150D02*
X13889110Y-11026674D01*
X13889110Y-11026674D02*
X13898634Y-11045722D01*
X13898634Y-11045722D02*
X13898634Y-11150484D01*
X13898634Y-11045722D02*
X13908158Y-11026674D01*
X13908158Y-11026674D02*
X13927205Y-11017150D01*
X13927205Y-11017150D02*
X13955777Y-11017150D01*
X13955777Y-11017150D02*
X13974824Y-11026674D01*
X13974824Y-11026674D02*
X13984348Y-11045722D01*
X13984348Y-11045722D02*
X13984348Y-11150484D01*
X14079586Y-11150484D02*
X14079586Y-11017150D01*
X14079586Y-11036198D02*
X14089110Y-11026674D01*
X14089110Y-11026674D02*
X14108158Y-11017150D01*
X14108158Y-11017150D02*
X14136729Y-11017150D01*
X14136729Y-11017150D02*
X14155777Y-11026674D01*
X14155777Y-11026674D02*
X14165301Y-11045722D01*
X14165301Y-11045722D02*
X14165301Y-11150484D01*
X14165301Y-11045722D02*
X14174824Y-11026674D01*
X14174824Y-11026674D02*
X14193872Y-11017150D01*
X14193872Y-11017150D02*
X14222443Y-11017150D01*
X14222443Y-11017150D02*
X14241491Y-11026674D01*
X14241491Y-11026674D02*
X14251015Y-11045722D01*
X14251015Y-11045722D02*
X14251015Y-11150484D01*
X14641491Y-10940960D02*
X14470063Y-11198103D01*
X14898634Y-10950484D02*
X14917682Y-10950484D01*
X14917682Y-10950484D02*
X14936729Y-10960008D01*
X14936729Y-10960008D02*
X14946253Y-10969531D01*
X14946253Y-10969531D02*
X14955777Y-10988579D01*
X14955777Y-10988579D02*
X14965301Y-11026674D01*
X14965301Y-11026674D02*
X14965301Y-11074293D01*
X14965301Y-11074293D02*
X14955777Y-11112389D01*
X14955777Y-11112389D02*
X14946253Y-11131436D01*
X14946253Y-11131436D02*
X14936729Y-11140960D01*
X14936729Y-11140960D02*
X14917682Y-11150484D01*
X14917682Y-11150484D02*
X14898634Y-11150484D01*
X14898634Y-11150484D02*
X14879586Y-11140960D01*
X14879586Y-11140960D02*
X14870063Y-11131436D01*
X14870063Y-11131436D02*
X14860539Y-11112389D01*
X14860539Y-11112389D02*
X14851015Y-11074293D01*
X14851015Y-11074293D02*
X14851015Y-11026674D01*
X14851015Y-11026674D02*
X14860539Y-10988579D01*
X14860539Y-10988579D02*
X14870063Y-10969531D01*
X14870063Y-10969531D02*
X14879586Y-10960008D01*
X14879586Y-10960008D02*
X14898634Y-10950484D01*
X15051015Y-11131436D02*
X15060539Y-11140960D01*
X15060539Y-11140960D02*
X15051015Y-11150484D01*
X15051015Y-11150484D02*
X15041491Y-11140960D01*
X15041491Y-11140960D02*
X15051015Y-11131436D01*
X15051015Y-11131436D02*
X15051015Y-11150484D01*
X15184348Y-10950484D02*
X15203396Y-10950484D01*
X15203396Y-10950484D02*
X15222444Y-10960008D01*
X15222444Y-10960008D02*
X15231967Y-10969531D01*
X15231967Y-10969531D02*
X15241491Y-10988579D01*
X15241491Y-10988579D02*
X15251015Y-11026674D01*
X15251015Y-11026674D02*
X15251015Y-11074293D01*
X15251015Y-11074293D02*
X15241491Y-11112389D01*
X15241491Y-11112389D02*
X15231967Y-11131436D01*
X15231967Y-11131436D02*
X15222444Y-11140960D01*
X15222444Y-11140960D02*
X15203396Y-11150484D01*
X15203396Y-11150484D02*
X15184348Y-11150484D01*
X15184348Y-11150484D02*
X15165301Y-11140960D01*
X15165301Y-11140960D02*
X15155777Y-11131436D01*
X15155777Y-11131436D02*
X15146253Y-11112389D01*
X15146253Y-11112389D02*
X15136729Y-11074293D01*
X15136729Y-11074293D02*
X15136729Y-11026674D01*
X15136729Y-11026674D02*
X15146253Y-10988579D01*
X15146253Y-10988579D02*
X15155777Y-10969531D01*
X15155777Y-10969531D02*
X15165301Y-10960008D01*
X15165301Y-10960008D02*
X15184348Y-10950484D01*
X15441491Y-11150484D02*
X15327206Y-11150484D01*
X15384348Y-11150484D02*
X15384348Y-10950484D01*
X15384348Y-10950484D02*
X15365301Y-10979055D01*
X15365301Y-10979055D02*
X15346253Y-10998103D01*
X15346253Y-10998103D02*
X15327206Y-11007627D01*
X15508158Y-10950484D02*
X15631967Y-10950484D01*
X15631967Y-10950484D02*
X15565301Y-11026674D01*
X15565301Y-11026674D02*
X15593872Y-11026674D01*
X15593872Y-11026674D02*
X15612920Y-11036198D01*
X15612920Y-11036198D02*
X15622444Y-11045722D01*
X15622444Y-11045722D02*
X15631967Y-11064770D01*
X15631967Y-11064770D02*
X15631967Y-11112389D01*
X15631967Y-11112389D02*
X15622444Y-11131436D01*
X15622444Y-11131436D02*
X15612920Y-11140960D01*
X15612920Y-11140960D02*
X15593872Y-11150484D01*
X15593872Y-11150484D02*
X15536729Y-11150484D01*
X15536729Y-11150484D02*
X15517682Y-11140960D01*
X15517682Y-11140960D02*
X15508158Y-11131436D01*
X15755777Y-10950484D02*
X15774825Y-10950484D01*
X15774825Y-10950484D02*
X15793872Y-10960008D01*
X15793872Y-10960008D02*
X15803396Y-10969531D01*
X15803396Y-10969531D02*
X15812920Y-10988579D01*
X15812920Y-10988579D02*
X15822444Y-11026674D01*
X15822444Y-11026674D02*
X15822444Y-11074293D01*
X15822444Y-11074293D02*
X15812920Y-11112389D01*
X15812920Y-11112389D02*
X15803396Y-11131436D01*
X15803396Y-11131436D02*
X15793872Y-11140960D01*
X15793872Y-11140960D02*
X15774825Y-11150484D01*
X15774825Y-11150484D02*
X15755777Y-11150484D01*
X15755777Y-11150484D02*
X15736729Y-11140960D01*
X15736729Y-11140960D02*
X15727206Y-11131436D01*
X15727206Y-11131436D02*
X15717682Y-11112389D01*
X15717682Y-11112389D02*
X15708158Y-11074293D01*
X15708158Y-11074293D02*
X15708158Y-11026674D01*
X15708158Y-11026674D02*
X15717682Y-10988579D01*
X15717682Y-10988579D02*
X15727206Y-10969531D01*
X15727206Y-10969531D02*
X15736729Y-10960008D01*
X15736729Y-10960008D02*
X15755777Y-10950484D01*
X15898634Y-10950484D02*
X15898634Y-10988579D01*
X15974825Y-10950484D02*
X15974825Y-10988579D01*
X16270063Y-11226674D02*
X16260539Y-11217150D01*
X16260539Y-11217150D02*
X16241491Y-11188579D01*
X16241491Y-11188579D02*
X16231968Y-11169531D01*
X16231968Y-11169531D02*
X16222444Y-11140960D01*
X16222444Y-11140960D02*
X16212920Y-11093341D01*
X16212920Y-11093341D02*
X16212920Y-11055246D01*
X16212920Y-11055246D02*
X16222444Y-11007627D01*
X16222444Y-11007627D02*
X16231968Y-10979055D01*
X16231968Y-10979055D02*
X16241491Y-10960008D01*
X16241491Y-10960008D02*
X16260539Y-10931436D01*
X16260539Y-10931436D02*
X16270063Y-10921912D01*
X16451015Y-11150484D02*
X16336729Y-11150484D01*
X16393872Y-11150484D02*
X16393872Y-10950484D01*
X16393872Y-10950484D02*
X16374825Y-10979055D01*
X16374825Y-10979055D02*
X16355777Y-10998103D01*
X16355777Y-10998103D02*
X16336729Y-11007627D01*
X16527206Y-10969531D02*
X16536729Y-10960008D01*
X16536729Y-10960008D02*
X16555777Y-10950484D01*
X16555777Y-10950484D02*
X16603396Y-10950484D01*
X16603396Y-10950484D02*
X16622444Y-10960008D01*
X16622444Y-10960008D02*
X16631968Y-10969531D01*
X16631968Y-10969531D02*
X16641491Y-10988579D01*
X16641491Y-10988579D02*
X16641491Y-11007627D01*
X16641491Y-11007627D02*
X16631968Y-11036198D01*
X16631968Y-11036198D02*
X16517682Y-11150484D01*
X16517682Y-11150484D02*
X16641491Y-11150484D01*
X16879587Y-11150484D02*
X16879587Y-10950484D01*
X16965301Y-11150484D02*
X16965301Y-11045722D01*
X16965301Y-11045722D02*
X16955777Y-11026674D01*
X16955777Y-11026674D02*
X16936730Y-11017150D01*
X16936730Y-11017150D02*
X16908158Y-11017150D01*
X16908158Y-11017150D02*
X16889111Y-11026674D01*
X16889111Y-11026674D02*
X16879587Y-11036198D01*
X17089111Y-11150484D02*
X17070063Y-11140960D01*
X17070063Y-11140960D02*
X17060539Y-11131436D01*
X17060539Y-11131436D02*
X17051015Y-11112389D01*
X17051015Y-11112389D02*
X17051015Y-11055246D01*
X17051015Y-11055246D02*
X17060539Y-11036198D01*
X17060539Y-11036198D02*
X17070063Y-11026674D01*
X17070063Y-11026674D02*
X17089111Y-11017150D01*
X17089111Y-11017150D02*
X17117682Y-11017150D01*
X17117682Y-11017150D02*
X17136730Y-11026674D01*
X17136730Y-11026674D02*
X17146253Y-11036198D01*
X17146253Y-11036198D02*
X17155777Y-11055246D01*
X17155777Y-11055246D02*
X17155777Y-11112389D01*
X17155777Y-11112389D02*
X17146253Y-11131436D01*
X17146253Y-11131436D02*
X17136730Y-11140960D01*
X17136730Y-11140960D02*
X17117682Y-11150484D01*
X17117682Y-11150484D02*
X17089111Y-11150484D01*
X17270063Y-11150484D02*
X17251015Y-11140960D01*
X17251015Y-11140960D02*
X17241492Y-11121912D01*
X17241492Y-11121912D02*
X17241492Y-10950484D01*
X17422444Y-11140960D02*
X17403396Y-11150484D01*
X17403396Y-11150484D02*
X17365301Y-11150484D01*
X17365301Y-11150484D02*
X17346253Y-11140960D01*
X17346253Y-11140960D02*
X17336730Y-11121912D01*
X17336730Y-11121912D02*
X17336730Y-11045722D01*
X17336730Y-11045722D02*
X17346253Y-11026674D01*
X17346253Y-11026674D02*
X17365301Y-11017150D01*
X17365301Y-11017150D02*
X17403396Y-11017150D01*
X17403396Y-11017150D02*
X17422444Y-11026674D01*
X17422444Y-11026674D02*
X17431968Y-11045722D01*
X17431968Y-11045722D02*
X17431968Y-11064770D01*
X17431968Y-11064770D02*
X17336730Y-11083817D01*
X17508158Y-11140960D02*
X17527206Y-11150484D01*
X17527206Y-11150484D02*
X17565301Y-11150484D01*
X17565301Y-11150484D02*
X17584349Y-11140960D01*
X17584349Y-11140960D02*
X17593873Y-11121912D01*
X17593873Y-11121912D02*
X17593873Y-11112389D01*
X17593873Y-11112389D02*
X17584349Y-11093341D01*
X17584349Y-11093341D02*
X17565301Y-11083817D01*
X17565301Y-11083817D02*
X17536730Y-11083817D01*
X17536730Y-11083817D02*
X17517682Y-11074293D01*
X17517682Y-11074293D02*
X17508158Y-11055246D01*
X17508158Y-11055246D02*
X17508158Y-11045722D01*
X17508158Y-11045722D02*
X17517682Y-11026674D01*
X17517682Y-11026674D02*
X17536730Y-11017150D01*
X17536730Y-11017150D02*
X17565301Y-11017150D01*
X17565301Y-11017150D02*
X17584349Y-11026674D01*
X17660539Y-11226674D02*
X17670063Y-11217150D01*
X17670063Y-11217150D02*
X17689111Y-11188579D01*
X17689111Y-11188579D02*
X17698634Y-11169531D01*
X17698634Y-11169531D02*
X17708158Y-11140960D01*
X17708158Y-11140960D02*
X17717682Y-11093341D01*
X17717682Y-11093341D02*
X17717682Y-11055246D01*
X17717682Y-11055246D02*
X17708158Y-11007627D01*
X17708158Y-11007627D02*
X17698634Y-10979055D01*
X17698634Y-10979055D02*
X17689111Y-10960008D01*
X17689111Y-10960008D02*
X17670063Y-10931436D01*
X17670063Y-10931436D02*
X17660539Y-10921912D01*
D13*
X12695000Y-11323000D02*
G75*
G03*
X12695000Y-11323000I-20000J0D01*
G01*
D11*
X12993872Y-11214484D02*
X13012920Y-11214484D01*
X13012920Y-11214484D02*
X13031967Y-11224008D01*
X13031967Y-11224008D02*
X13041491Y-11233531D01*
X13041491Y-11233531D02*
X13051015Y-11252579D01*
X13051015Y-11252579D02*
X13060539Y-11290674D01*
X13060539Y-11290674D02*
X13060539Y-11338293D01*
X13060539Y-11338293D02*
X13051015Y-11376388D01*
X13051015Y-11376388D02*
X13041491Y-11395436D01*
X13041491Y-11395436D02*
X13031967Y-11404960D01*
X13031967Y-11404960D02*
X13012920Y-11414484D01*
X13012920Y-11414484D02*
X12993872Y-11414484D01*
X12993872Y-11414484D02*
X12974824Y-11404960D01*
X12974824Y-11404960D02*
X12965301Y-11395436D01*
X12965301Y-11395436D02*
X12955777Y-11376388D01*
X12955777Y-11376388D02*
X12946253Y-11338293D01*
X12946253Y-11338293D02*
X12946253Y-11290674D01*
X12946253Y-11290674D02*
X12955777Y-11252579D01*
X12955777Y-11252579D02*
X12965301Y-11233531D01*
X12965301Y-11233531D02*
X12974824Y-11224008D01*
X12974824Y-11224008D02*
X12993872Y-11214484D01*
X13146253Y-11395436D02*
X13155777Y-11404960D01*
X13155777Y-11404960D02*
X13146253Y-11414484D01*
X13146253Y-11414484D02*
X13136729Y-11404960D01*
X13136729Y-11404960D02*
X13146253Y-11395436D01*
X13146253Y-11395436D02*
X13146253Y-11414484D01*
X13327205Y-11281150D02*
X13327205Y-11414484D01*
X13279586Y-11204960D02*
X13231967Y-11347817D01*
X13231967Y-11347817D02*
X13355777Y-11347817D01*
X13470062Y-11214484D02*
X13489110Y-11214484D01*
X13489110Y-11214484D02*
X13508158Y-11224008D01*
X13508158Y-11224008D02*
X13517682Y-11233531D01*
X13517682Y-11233531D02*
X13527205Y-11252579D01*
X13527205Y-11252579D02*
X13536729Y-11290674D01*
X13536729Y-11290674D02*
X13536729Y-11338293D01*
X13536729Y-11338293D02*
X13527205Y-11376388D01*
X13527205Y-11376388D02*
X13517682Y-11395436D01*
X13517682Y-11395436D02*
X13508158Y-11404960D01*
X13508158Y-11404960D02*
X13489110Y-11414484D01*
X13489110Y-11414484D02*
X13470062Y-11414484D01*
X13470062Y-11414484D02*
X13451015Y-11404960D01*
X13451015Y-11404960D02*
X13441491Y-11395436D01*
X13441491Y-11395436D02*
X13431967Y-11376388D01*
X13431967Y-11376388D02*
X13422443Y-11338293D01*
X13422443Y-11338293D02*
X13422443Y-11290674D01*
X13422443Y-11290674D02*
X13431967Y-11252579D01*
X13431967Y-11252579D02*
X13441491Y-11233531D01*
X13441491Y-11233531D02*
X13451015Y-11224008D01*
X13451015Y-11224008D02*
X13470062Y-11214484D01*
X13660539Y-11214484D02*
X13679586Y-11214484D01*
X13679586Y-11214484D02*
X13698634Y-11224008D01*
X13698634Y-11224008D02*
X13708158Y-11233531D01*
X13708158Y-11233531D02*
X13717682Y-11252579D01*
X13717682Y-11252579D02*
X13727205Y-11290674D01*
X13727205Y-11290674D02*
X13727205Y-11338293D01*
X13727205Y-11338293D02*
X13717682Y-11376388D01*
X13717682Y-11376388D02*
X13708158Y-11395436D01*
X13708158Y-11395436D02*
X13698634Y-11404960D01*
X13698634Y-11404960D02*
X13679586Y-11414484D01*
X13679586Y-11414484D02*
X13660539Y-11414484D01*
X13660539Y-11414484D02*
X13641491Y-11404960D01*
X13641491Y-11404960D02*
X13631967Y-11395436D01*
X13631967Y-11395436D02*
X13622443Y-11376388D01*
X13622443Y-11376388D02*
X13612920Y-11338293D01*
X13612920Y-11338293D02*
X13612920Y-11290674D01*
X13612920Y-11290674D02*
X13622443Y-11252579D01*
X13622443Y-11252579D02*
X13631967Y-11233531D01*
X13631967Y-11233531D02*
X13641491Y-11224008D01*
X13641491Y-11224008D02*
X13660539Y-11214484D01*
X13812920Y-11414484D02*
X13812920Y-11281150D01*
X13812920Y-11300198D02*
X13822443Y-11290674D01*
X13822443Y-11290674D02*
X13841491Y-11281150D01*
X13841491Y-11281150D02*
X13870063Y-11281150D01*
X13870063Y-11281150D02*
X13889110Y-11290674D01*
X13889110Y-11290674D02*
X13898634Y-11309722D01*
X13898634Y-11309722D02*
X13898634Y-11414484D01*
X13898634Y-11309722D02*
X13908158Y-11290674D01*
X13908158Y-11290674D02*
X13927205Y-11281150D01*
X13927205Y-11281150D02*
X13955777Y-11281150D01*
X13955777Y-11281150D02*
X13974824Y-11290674D01*
X13974824Y-11290674D02*
X13984348Y-11309722D01*
X13984348Y-11309722D02*
X13984348Y-11414484D01*
X14079586Y-11414484D02*
X14079586Y-11281150D01*
X14079586Y-11300198D02*
X14089110Y-11290674D01*
X14089110Y-11290674D02*
X14108158Y-11281150D01*
X14108158Y-11281150D02*
X14136729Y-11281150D01*
X14136729Y-11281150D02*
X14155777Y-11290674D01*
X14155777Y-11290674D02*
X14165301Y-11309722D01*
X14165301Y-11309722D02*
X14165301Y-11414484D01*
X14165301Y-11309722D02*
X14174824Y-11290674D01*
X14174824Y-11290674D02*
X14193872Y-11281150D01*
X14193872Y-11281150D02*
X14222443Y-11281150D01*
X14222443Y-11281150D02*
X14241491Y-11290674D01*
X14241491Y-11290674D02*
X14251015Y-11309722D01*
X14251015Y-11309722D02*
X14251015Y-11414484D01*
X14641491Y-11204960D02*
X14470063Y-11462103D01*
X14898634Y-11214484D02*
X14917682Y-11214484D01*
X14917682Y-11214484D02*
X14936729Y-11224008D01*
X14936729Y-11224008D02*
X14946253Y-11233531D01*
X14946253Y-11233531D02*
X14955777Y-11252579D01*
X14955777Y-11252579D02*
X14965301Y-11290674D01*
X14965301Y-11290674D02*
X14965301Y-11338293D01*
X14965301Y-11338293D02*
X14955777Y-11376388D01*
X14955777Y-11376388D02*
X14946253Y-11395436D01*
X14946253Y-11395436D02*
X14936729Y-11404960D01*
X14936729Y-11404960D02*
X14917682Y-11414484D01*
X14917682Y-11414484D02*
X14898634Y-11414484D01*
X14898634Y-11414484D02*
X14879586Y-11404960D01*
X14879586Y-11404960D02*
X14870063Y-11395436D01*
X14870063Y-11395436D02*
X14860539Y-11376388D01*
X14860539Y-11376388D02*
X14851015Y-11338293D01*
X14851015Y-11338293D02*
X14851015Y-11290674D01*
X14851015Y-11290674D02*
X14860539Y-11252579D01*
X14860539Y-11252579D02*
X14870063Y-11233531D01*
X14870063Y-11233531D02*
X14879586Y-11224008D01*
X14879586Y-11224008D02*
X14898634Y-11214484D01*
X15051015Y-11395436D02*
X15060539Y-11404960D01*
X15060539Y-11404960D02*
X15051015Y-11414484D01*
X15051015Y-11414484D02*
X15041491Y-11404960D01*
X15041491Y-11404960D02*
X15051015Y-11395436D01*
X15051015Y-11395436D02*
X15051015Y-11414484D01*
X15184348Y-11214484D02*
X15203396Y-11214484D01*
X15203396Y-11214484D02*
X15222444Y-11224008D01*
X15222444Y-11224008D02*
X15231967Y-11233531D01*
X15231967Y-11233531D02*
X15241491Y-11252579D01*
X15241491Y-11252579D02*
X15251015Y-11290674D01*
X15251015Y-11290674D02*
X15251015Y-11338293D01*
X15251015Y-11338293D02*
X15241491Y-11376388D01*
X15241491Y-11376388D02*
X15231967Y-11395436D01*
X15231967Y-11395436D02*
X15222444Y-11404960D01*
X15222444Y-11404960D02*
X15203396Y-11414484D01*
X15203396Y-11414484D02*
X15184348Y-11414484D01*
X15184348Y-11414484D02*
X15165301Y-11404960D01*
X15165301Y-11404960D02*
X15155777Y-11395436D01*
X15155777Y-11395436D02*
X15146253Y-11376388D01*
X15146253Y-11376388D02*
X15136729Y-11338293D01*
X15136729Y-11338293D02*
X15136729Y-11290674D01*
X15136729Y-11290674D02*
X15146253Y-11252579D01*
X15146253Y-11252579D02*
X15155777Y-11233531D01*
X15155777Y-11233531D02*
X15165301Y-11224008D01*
X15165301Y-11224008D02*
X15184348Y-11214484D01*
X15441491Y-11414484D02*
X15327206Y-11414484D01*
X15384348Y-11414484D02*
X15384348Y-11214484D01*
X15384348Y-11214484D02*
X15365301Y-11243055D01*
X15365301Y-11243055D02*
X15346253Y-11262103D01*
X15346253Y-11262103D02*
X15327206Y-11271627D01*
X15622444Y-11214484D02*
X15527206Y-11214484D01*
X15527206Y-11214484D02*
X15517682Y-11309722D01*
X15517682Y-11309722D02*
X15527206Y-11300198D01*
X15527206Y-11300198D02*
X15546253Y-11290674D01*
X15546253Y-11290674D02*
X15593872Y-11290674D01*
X15593872Y-11290674D02*
X15612920Y-11300198D01*
X15612920Y-11300198D02*
X15622444Y-11309722D01*
X15622444Y-11309722D02*
X15631967Y-11328769D01*
X15631967Y-11328769D02*
X15631967Y-11376388D01*
X15631967Y-11376388D02*
X15622444Y-11395436D01*
X15622444Y-11395436D02*
X15612920Y-11404960D01*
X15612920Y-11404960D02*
X15593872Y-11414484D01*
X15593872Y-11414484D02*
X15546253Y-11414484D01*
X15546253Y-11414484D02*
X15527206Y-11404960D01*
X15527206Y-11404960D02*
X15517682Y-11395436D01*
X15698634Y-11214484D02*
X15831967Y-11214484D01*
X15831967Y-11214484D02*
X15746253Y-11414484D01*
X15898634Y-11214484D02*
X15898634Y-11252579D01*
X15974825Y-11214484D02*
X15974825Y-11252579D01*
X16270063Y-11490674D02*
X16260539Y-11481150D01*
X16260539Y-11481150D02*
X16241491Y-11452579D01*
X16241491Y-11452579D02*
X16231968Y-11433531D01*
X16231968Y-11433531D02*
X16222444Y-11404960D01*
X16222444Y-11404960D02*
X16212920Y-11357341D01*
X16212920Y-11357341D02*
X16212920Y-11319246D01*
X16212920Y-11319246D02*
X16222444Y-11271627D01*
X16222444Y-11271627D02*
X16231968Y-11243055D01*
X16231968Y-11243055D02*
X16241491Y-11224008D01*
X16241491Y-11224008D02*
X16260539Y-11195436D01*
X16260539Y-11195436D02*
X16270063Y-11185912D01*
X16336729Y-11233531D02*
X16346253Y-11224008D01*
X16346253Y-11224008D02*
X16365301Y-11214484D01*
X16365301Y-11214484D02*
X16412920Y-11214484D01*
X16412920Y-11214484D02*
X16431968Y-11224008D01*
X16431968Y-11224008D02*
X16441491Y-11233531D01*
X16441491Y-11233531D02*
X16451015Y-11252579D01*
X16451015Y-11252579D02*
X16451015Y-11271627D01*
X16451015Y-11271627D02*
X16441491Y-11300198D01*
X16441491Y-11300198D02*
X16327206Y-11414484D01*
X16327206Y-11414484D02*
X16451015Y-11414484D01*
X16689110Y-11414484D02*
X16689110Y-11214484D01*
X16774825Y-11414484D02*
X16774825Y-11309722D01*
X16774825Y-11309722D02*
X16765301Y-11290674D01*
X16765301Y-11290674D02*
X16746253Y-11281150D01*
X16746253Y-11281150D02*
X16717682Y-11281150D01*
X16717682Y-11281150D02*
X16698634Y-11290674D01*
X16698634Y-11290674D02*
X16689110Y-11300198D01*
X16898634Y-11414484D02*
X16879587Y-11404960D01*
X16879587Y-11404960D02*
X16870063Y-11395436D01*
X16870063Y-11395436D02*
X16860539Y-11376388D01*
X16860539Y-11376388D02*
X16860539Y-11319246D01*
X16860539Y-11319246D02*
X16870063Y-11300198D01*
X16870063Y-11300198D02*
X16879587Y-11290674D01*
X16879587Y-11290674D02*
X16898634Y-11281150D01*
X16898634Y-11281150D02*
X16927206Y-11281150D01*
X16927206Y-11281150D02*
X16946253Y-11290674D01*
X16946253Y-11290674D02*
X16955777Y-11300198D01*
X16955777Y-11300198D02*
X16965301Y-11319246D01*
X16965301Y-11319246D02*
X16965301Y-11376388D01*
X16965301Y-11376388D02*
X16955777Y-11395436D01*
X16955777Y-11395436D02*
X16946253Y-11404960D01*
X16946253Y-11404960D02*
X16927206Y-11414484D01*
X16927206Y-11414484D02*
X16898634Y-11414484D01*
X17079587Y-11414484D02*
X17060539Y-11404960D01*
X17060539Y-11404960D02*
X17051015Y-11385912D01*
X17051015Y-11385912D02*
X17051015Y-11214484D01*
X17231968Y-11404960D02*
X17212920Y-11414484D01*
X17212920Y-11414484D02*
X17174825Y-11414484D01*
X17174825Y-11414484D02*
X17155777Y-11404960D01*
X17155777Y-11404960D02*
X17146253Y-11385912D01*
X17146253Y-11385912D02*
X17146253Y-11309722D01*
X17146253Y-11309722D02*
X17155777Y-11290674D01*
X17155777Y-11290674D02*
X17174825Y-11281150D01*
X17174825Y-11281150D02*
X17212920Y-11281150D01*
X17212920Y-11281150D02*
X17231968Y-11290674D01*
X17231968Y-11290674D02*
X17241492Y-11309722D01*
X17241492Y-11309722D02*
X17241492Y-11328769D01*
X17241492Y-11328769D02*
X17146253Y-11347817D01*
X17317682Y-11404960D02*
X17336730Y-11414484D01*
X17336730Y-11414484D02*
X17374825Y-11414484D01*
X17374825Y-11414484D02*
X17393873Y-11404960D01*
X17393873Y-11404960D02*
X17403396Y-11385912D01*
X17403396Y-11385912D02*
X17403396Y-11376388D01*
X17403396Y-11376388D02*
X17393873Y-11357341D01*
X17393873Y-11357341D02*
X17374825Y-11347817D01*
X17374825Y-11347817D02*
X17346253Y-11347817D01*
X17346253Y-11347817D02*
X17327206Y-11338293D01*
X17327206Y-11338293D02*
X17317682Y-11319246D01*
X17317682Y-11319246D02*
X17317682Y-11309722D01*
X17317682Y-11309722D02*
X17327206Y-11290674D01*
X17327206Y-11290674D02*
X17346253Y-11281150D01*
X17346253Y-11281150D02*
X17374825Y-11281150D01*
X17374825Y-11281150D02*
X17393873Y-11290674D01*
X17470063Y-11490674D02*
X17479587Y-11481150D01*
X17479587Y-11481150D02*
X17498634Y-11452579D01*
X17498634Y-11452579D02*
X17508158Y-11433531D01*
X17508158Y-11433531D02*
X17517682Y-11404960D01*
X17517682Y-11404960D02*
X17527206Y-11357341D01*
X17527206Y-11357341D02*
X17527206Y-11319246D01*
X17527206Y-11319246D02*
X17517682Y-11271627D01*
X17517682Y-11271627D02*
X17508158Y-11243055D01*
X17508158Y-11243055D02*
X17498634Y-11224008D01*
X17498634Y-11224008D02*
X17479587Y-11195436D01*
X17479587Y-11195436D02*
X17470063Y-11185912D01*
D14*
X12655630Y-11547630D02*
X12655630Y-11626370D01*
X12616260Y-11587000D02*
X12695000Y-11587000D01*
D11*
X12993872Y-11478484D02*
X13012920Y-11478484D01*
X13012920Y-11478484D02*
X13031967Y-11488008D01*
X13031967Y-11488008D02*
X13041491Y-11497531D01*
X13041491Y-11497531D02*
X13051015Y-11516579D01*
X13051015Y-11516579D02*
X13060539Y-11554674D01*
X13060539Y-11554674D02*
X13060539Y-11602293D01*
X13060539Y-11602293D02*
X13051015Y-11640388D01*
X13051015Y-11640388D02*
X13041491Y-11659436D01*
X13041491Y-11659436D02*
X13031967Y-11668960D01*
X13031967Y-11668960D02*
X13012920Y-11678484D01*
X13012920Y-11678484D02*
X12993872Y-11678484D01*
X12993872Y-11678484D02*
X12974824Y-11668960D01*
X12974824Y-11668960D02*
X12965301Y-11659436D01*
X12965301Y-11659436D02*
X12955777Y-11640388D01*
X12955777Y-11640388D02*
X12946253Y-11602293D01*
X12946253Y-11602293D02*
X12946253Y-11554674D01*
X12946253Y-11554674D02*
X12955777Y-11516579D01*
X12955777Y-11516579D02*
X12965301Y-11497531D01*
X12965301Y-11497531D02*
X12974824Y-11488008D01*
X12974824Y-11488008D02*
X12993872Y-11478484D01*
X13146253Y-11659436D02*
X13155777Y-11668960D01*
X13155777Y-11668960D02*
X13146253Y-11678484D01*
X13146253Y-11678484D02*
X13136729Y-11668960D01*
X13136729Y-11668960D02*
X13146253Y-11659436D01*
X13146253Y-11659436D02*
X13146253Y-11678484D01*
X13222443Y-11478484D02*
X13355777Y-11478484D01*
X13355777Y-11478484D02*
X13270062Y-11678484D01*
X13460539Y-11564198D02*
X13441491Y-11554674D01*
X13441491Y-11554674D02*
X13431967Y-11545150D01*
X13431967Y-11545150D02*
X13422443Y-11526103D01*
X13422443Y-11526103D02*
X13422443Y-11516579D01*
X13422443Y-11516579D02*
X13431967Y-11497531D01*
X13431967Y-11497531D02*
X13441491Y-11488008D01*
X13441491Y-11488008D02*
X13460539Y-11478484D01*
X13460539Y-11478484D02*
X13498634Y-11478484D01*
X13498634Y-11478484D02*
X13517682Y-11488008D01*
X13517682Y-11488008D02*
X13527205Y-11497531D01*
X13527205Y-11497531D02*
X13536729Y-11516579D01*
X13536729Y-11516579D02*
X13536729Y-11526103D01*
X13536729Y-11526103D02*
X13527205Y-11545150D01*
X13527205Y-11545150D02*
X13517682Y-11554674D01*
X13517682Y-11554674D02*
X13498634Y-11564198D01*
X13498634Y-11564198D02*
X13460539Y-11564198D01*
X13460539Y-11564198D02*
X13441491Y-11573722D01*
X13441491Y-11573722D02*
X13431967Y-11583246D01*
X13431967Y-11583246D02*
X13422443Y-11602293D01*
X13422443Y-11602293D02*
X13422443Y-11640388D01*
X13422443Y-11640388D02*
X13431967Y-11659436D01*
X13431967Y-11659436D02*
X13441491Y-11668960D01*
X13441491Y-11668960D02*
X13460539Y-11678484D01*
X13460539Y-11678484D02*
X13498634Y-11678484D01*
X13498634Y-11678484D02*
X13517682Y-11668960D01*
X13517682Y-11668960D02*
X13527205Y-11659436D01*
X13527205Y-11659436D02*
X13536729Y-11640388D01*
X13536729Y-11640388D02*
X13536729Y-11602293D01*
X13536729Y-11602293D02*
X13527205Y-11583246D01*
X13527205Y-11583246D02*
X13517682Y-11573722D01*
X13517682Y-11573722D02*
X13498634Y-11564198D01*
X13603396Y-11478484D02*
X13736729Y-11478484D01*
X13736729Y-11478484D02*
X13651015Y-11678484D01*
X13812920Y-11678484D02*
X13812920Y-11545150D01*
X13812920Y-11564198D02*
X13822443Y-11554674D01*
X13822443Y-11554674D02*
X13841491Y-11545150D01*
X13841491Y-11545150D02*
X13870063Y-11545150D01*
X13870063Y-11545150D02*
X13889110Y-11554674D01*
X13889110Y-11554674D02*
X13898634Y-11573722D01*
X13898634Y-11573722D02*
X13898634Y-11678484D01*
X13898634Y-11573722D02*
X13908158Y-11554674D01*
X13908158Y-11554674D02*
X13927205Y-11545150D01*
X13927205Y-11545150D02*
X13955777Y-11545150D01*
X13955777Y-11545150D02*
X13974824Y-11554674D01*
X13974824Y-11554674D02*
X13984348Y-11573722D01*
X13984348Y-11573722D02*
X13984348Y-11678484D01*
X14079586Y-11678484D02*
X14079586Y-11545150D01*
X14079586Y-11564198D02*
X14089110Y-11554674D01*
X14089110Y-11554674D02*
X14108158Y-11545150D01*
X14108158Y-11545150D02*
X14136729Y-11545150D01*
X14136729Y-11545150D02*
X14155777Y-11554674D01*
X14155777Y-11554674D02*
X14165301Y-11573722D01*
X14165301Y-11573722D02*
X14165301Y-11678484D01*
X14165301Y-11573722D02*
X14174824Y-11554674D01*
X14174824Y-11554674D02*
X14193872Y-11545150D01*
X14193872Y-11545150D02*
X14222443Y-11545150D01*
X14222443Y-11545150D02*
X14241491Y-11554674D01*
X14241491Y-11554674D02*
X14251015Y-11573722D01*
X14251015Y-11573722D02*
X14251015Y-11678484D01*
X14641491Y-11468960D02*
X14470063Y-11726103D01*
X14898634Y-11478484D02*
X14917682Y-11478484D01*
X14917682Y-11478484D02*
X14936729Y-11488008D01*
X14936729Y-11488008D02*
X14946253Y-11497531D01*
X14946253Y-11497531D02*
X14955777Y-11516579D01*
X14955777Y-11516579D02*
X14965301Y-11554674D01*
X14965301Y-11554674D02*
X14965301Y-11602293D01*
X14965301Y-11602293D02*
X14955777Y-11640388D01*
X14955777Y-11640388D02*
X14946253Y-11659436D01*
X14946253Y-11659436D02*
X14936729Y-11668960D01*
X14936729Y-11668960D02*
X14917682Y-11678484D01*
X14917682Y-11678484D02*
X14898634Y-11678484D01*
X14898634Y-11678484D02*
X14879586Y-11668960D01*
X14879586Y-11668960D02*
X14870063Y-11659436D01*
X14870063Y-11659436D02*
X14860539Y-11640388D01*
X14860539Y-11640388D02*
X14851015Y-11602293D01*
X14851015Y-11602293D02*
X14851015Y-11554674D01*
X14851015Y-11554674D02*
X14860539Y-11516579D01*
X14860539Y-11516579D02*
X14870063Y-11497531D01*
X14870063Y-11497531D02*
X14879586Y-11488008D01*
X14879586Y-11488008D02*
X14898634Y-11478484D01*
X15051015Y-11659436D02*
X15060539Y-11668960D01*
X15060539Y-11668960D02*
X15051015Y-11678484D01*
X15051015Y-11678484D02*
X15041491Y-11668960D01*
X15041491Y-11668960D02*
X15051015Y-11659436D01*
X15051015Y-11659436D02*
X15051015Y-11678484D01*
X15184348Y-11478484D02*
X15203396Y-11478484D01*
X15203396Y-11478484D02*
X15222444Y-11488008D01*
X15222444Y-11488008D02*
X15231967Y-11497531D01*
X15231967Y-11497531D02*
X15241491Y-11516579D01*
X15241491Y-11516579D02*
X15251015Y-11554674D01*
X15251015Y-11554674D02*
X15251015Y-11602293D01*
X15251015Y-11602293D02*
X15241491Y-11640388D01*
X15241491Y-11640388D02*
X15231967Y-11659436D01*
X15231967Y-11659436D02*
X15222444Y-11668960D01*
X15222444Y-11668960D02*
X15203396Y-11678484D01*
X15203396Y-11678484D02*
X15184348Y-11678484D01*
X15184348Y-11678484D02*
X15165301Y-11668960D01*
X15165301Y-11668960D02*
X15155777Y-11659436D01*
X15155777Y-11659436D02*
X15146253Y-11640388D01*
X15146253Y-11640388D02*
X15136729Y-11602293D01*
X15136729Y-11602293D02*
X15136729Y-11554674D01*
X15136729Y-11554674D02*
X15146253Y-11516579D01*
X15146253Y-11516579D02*
X15155777Y-11497531D01*
X15155777Y-11497531D02*
X15165301Y-11488008D01*
X15165301Y-11488008D02*
X15184348Y-11478484D01*
X15317682Y-11478484D02*
X15441491Y-11478484D01*
X15441491Y-11478484D02*
X15374825Y-11554674D01*
X15374825Y-11554674D02*
X15403396Y-11554674D01*
X15403396Y-11554674D02*
X15422444Y-11564198D01*
X15422444Y-11564198D02*
X15431967Y-11573722D01*
X15431967Y-11573722D02*
X15441491Y-11592769D01*
X15441491Y-11592769D02*
X15441491Y-11640388D01*
X15441491Y-11640388D02*
X15431967Y-11659436D01*
X15431967Y-11659436D02*
X15422444Y-11668960D01*
X15422444Y-11668960D02*
X15403396Y-11678484D01*
X15403396Y-11678484D02*
X15346253Y-11678484D01*
X15346253Y-11678484D02*
X15327206Y-11668960D01*
X15327206Y-11668960D02*
X15317682Y-11659436D01*
X15631967Y-11678484D02*
X15517682Y-11678484D01*
X15574825Y-11678484D02*
X15574825Y-11478484D01*
X15574825Y-11478484D02*
X15555777Y-11507055D01*
X15555777Y-11507055D02*
X15536729Y-11526103D01*
X15536729Y-11526103D02*
X15517682Y-11535627D01*
X15755777Y-11478484D02*
X15774825Y-11478484D01*
X15774825Y-11478484D02*
X15793872Y-11488008D01*
X15793872Y-11488008D02*
X15803396Y-11497531D01*
X15803396Y-11497531D02*
X15812920Y-11516579D01*
X15812920Y-11516579D02*
X15822444Y-11554674D01*
X15822444Y-11554674D02*
X15822444Y-11602293D01*
X15822444Y-11602293D02*
X15812920Y-11640388D01*
X15812920Y-11640388D02*
X15803396Y-11659436D01*
X15803396Y-11659436D02*
X15793872Y-11668960D01*
X15793872Y-11668960D02*
X15774825Y-11678484D01*
X15774825Y-11678484D02*
X15755777Y-11678484D01*
X15755777Y-11678484D02*
X15736729Y-11668960D01*
X15736729Y-11668960D02*
X15727206Y-11659436D01*
X15727206Y-11659436D02*
X15717682Y-11640388D01*
X15717682Y-11640388D02*
X15708158Y-11602293D01*
X15708158Y-11602293D02*
X15708158Y-11554674D01*
X15708158Y-11554674D02*
X15717682Y-11516579D01*
X15717682Y-11516579D02*
X15727206Y-11497531D01*
X15727206Y-11497531D02*
X15736729Y-11488008D01*
X15736729Y-11488008D02*
X15755777Y-11478484D01*
X15898634Y-11478484D02*
X15898634Y-11516579D01*
X15974825Y-11478484D02*
X15974825Y-11516579D01*
X16270063Y-11754674D02*
X16260539Y-11745150D01*
X16260539Y-11745150D02*
X16241491Y-11716579D01*
X16241491Y-11716579D02*
X16231968Y-11697531D01*
X16231968Y-11697531D02*
X16222444Y-11668960D01*
X16222444Y-11668960D02*
X16212920Y-11621341D01*
X16212920Y-11621341D02*
X16212920Y-11583246D01*
X16212920Y-11583246D02*
X16222444Y-11535627D01*
X16222444Y-11535627D02*
X16231968Y-11507055D01*
X16231968Y-11507055D02*
X16241491Y-11488008D01*
X16241491Y-11488008D02*
X16260539Y-11459436D01*
X16260539Y-11459436D02*
X16270063Y-11449912D01*
X16327206Y-11478484D02*
X16451015Y-11478484D01*
X16451015Y-11478484D02*
X16384348Y-11554674D01*
X16384348Y-11554674D02*
X16412920Y-11554674D01*
X16412920Y-11554674D02*
X16431968Y-11564198D01*
X16431968Y-11564198D02*
X16441491Y-11573722D01*
X16441491Y-11573722D02*
X16451015Y-11592769D01*
X16451015Y-11592769D02*
X16451015Y-11640388D01*
X16451015Y-11640388D02*
X16441491Y-11659436D01*
X16441491Y-11659436D02*
X16431968Y-11668960D01*
X16431968Y-11668960D02*
X16412920Y-11678484D01*
X16412920Y-11678484D02*
X16355777Y-11678484D01*
X16355777Y-11678484D02*
X16336729Y-11668960D01*
X16336729Y-11668960D02*
X16327206Y-11659436D01*
X16689110Y-11678484D02*
X16689110Y-11478484D01*
X16774825Y-11678484D02*
X16774825Y-11573722D01*
X16774825Y-11573722D02*
X16765301Y-11554674D01*
X16765301Y-11554674D02*
X16746253Y-11545150D01*
X16746253Y-11545150D02*
X16717682Y-11545150D01*
X16717682Y-11545150D02*
X16698634Y-11554674D01*
X16698634Y-11554674D02*
X16689110Y-11564198D01*
X16898634Y-11678484D02*
X16879587Y-11668960D01*
X16879587Y-11668960D02*
X16870063Y-11659436D01*
X16870063Y-11659436D02*
X16860539Y-11640388D01*
X16860539Y-11640388D02*
X16860539Y-11583246D01*
X16860539Y-11583246D02*
X16870063Y-11564198D01*
X16870063Y-11564198D02*
X16879587Y-11554674D01*
X16879587Y-11554674D02*
X16898634Y-11545150D01*
X16898634Y-11545150D02*
X16927206Y-11545150D01*
X16927206Y-11545150D02*
X16946253Y-11554674D01*
X16946253Y-11554674D02*
X16955777Y-11564198D01*
X16955777Y-11564198D02*
X16965301Y-11583246D01*
X16965301Y-11583246D02*
X16965301Y-11640388D01*
X16965301Y-11640388D02*
X16955777Y-11659436D01*
X16955777Y-11659436D02*
X16946253Y-11668960D01*
X16946253Y-11668960D02*
X16927206Y-11678484D01*
X16927206Y-11678484D02*
X16898634Y-11678484D01*
X17079587Y-11678484D02*
X17060539Y-11668960D01*
X17060539Y-11668960D02*
X17051015Y-11649912D01*
X17051015Y-11649912D02*
X17051015Y-11478484D01*
X17231968Y-11668960D02*
X17212920Y-11678484D01*
X17212920Y-11678484D02*
X17174825Y-11678484D01*
X17174825Y-11678484D02*
X17155777Y-11668960D01*
X17155777Y-11668960D02*
X17146253Y-11649912D01*
X17146253Y-11649912D02*
X17146253Y-11573722D01*
X17146253Y-11573722D02*
X17155777Y-11554674D01*
X17155777Y-11554674D02*
X17174825Y-11545150D01*
X17174825Y-11545150D02*
X17212920Y-11545150D01*
X17212920Y-11545150D02*
X17231968Y-11554674D01*
X17231968Y-11554674D02*
X17241492Y-11573722D01*
X17241492Y-11573722D02*
X17241492Y-11592769D01*
X17241492Y-11592769D02*
X17146253Y-11611817D01*
X17317682Y-11668960D02*
X17336730Y-11678484D01*
X17336730Y-11678484D02*
X17374825Y-11678484D01*
X17374825Y-11678484D02*
X17393873Y-11668960D01*
X17393873Y-11668960D02*
X17403396Y-11649912D01*
X17403396Y-11649912D02*
X17403396Y-11640388D01*
X17403396Y-11640388D02*
X17393873Y-11621341D01*
X17393873Y-11621341D02*
X17374825Y-11611817D01*
X17374825Y-11611817D02*
X17346253Y-11611817D01*
X17346253Y-11611817D02*
X17327206Y-11602293D01*
X17327206Y-11602293D02*
X17317682Y-11583246D01*
X17317682Y-11583246D02*
X17317682Y-11573722D01*
X17317682Y-11573722D02*
X17327206Y-11554674D01*
X17327206Y-11554674D02*
X17346253Y-11545150D01*
X17346253Y-11545150D02*
X17374825Y-11545150D01*
X17374825Y-11545150D02*
X17393873Y-11554674D01*
X17470063Y-11754674D02*
X17479587Y-11745150D01*
X17479587Y-11745150D02*
X17498634Y-11716579D01*
X17498634Y-11716579D02*
X17508158Y-11697531D01*
X17508158Y-11697531D02*
X17517682Y-11668960D01*
X17517682Y-11668960D02*
X17527206Y-11621341D01*
X17527206Y-11621341D02*
X17527206Y-11583246D01*
X17527206Y-11583246D02*
X17517682Y-11535627D01*
X17517682Y-11535627D02*
X17508158Y-11507055D01*
X17508158Y-11507055D02*
X17498634Y-11488008D01*
X17498634Y-11488008D02*
X17479587Y-11459436D01*
X17479587Y-11459436D02*
X17470063Y-11449912D01*
D15*
X12680493Y-11886023D02*
X12680493Y-11815977D01*
X12610447Y-11815977D01*
X12610447Y-11886023D01*
X12680493Y-11886023D01*
D11*
X12993872Y-11742484D02*
X13012920Y-11742484D01*
X13012920Y-11742484D02*
X13031967Y-11752008D01*
X13031967Y-11752008D02*
X13041491Y-11761531D01*
X13041491Y-11761531D02*
X13051015Y-11780579D01*
X13051015Y-11780579D02*
X13060539Y-11818674D01*
X13060539Y-11818674D02*
X13060539Y-11866293D01*
X13060539Y-11866293D02*
X13051015Y-11904388D01*
X13051015Y-11904388D02*
X13041491Y-11923436D01*
X13041491Y-11923436D02*
X13031967Y-11932960D01*
X13031967Y-11932960D02*
X13012920Y-11942484D01*
X13012920Y-11942484D02*
X12993872Y-11942484D01*
X12993872Y-11942484D02*
X12974824Y-11932960D01*
X12974824Y-11932960D02*
X12965301Y-11923436D01*
X12965301Y-11923436D02*
X12955777Y-11904388D01*
X12955777Y-11904388D02*
X12946253Y-11866293D01*
X12946253Y-11866293D02*
X12946253Y-11818674D01*
X12946253Y-11818674D02*
X12955777Y-11780579D01*
X12955777Y-11780579D02*
X12965301Y-11761531D01*
X12965301Y-11761531D02*
X12974824Y-11752008D01*
X12974824Y-11752008D02*
X12993872Y-11742484D01*
X13146253Y-11923436D02*
X13155777Y-11932960D01*
X13155777Y-11932960D02*
X13146253Y-11942484D01*
X13146253Y-11942484D02*
X13136729Y-11932960D01*
X13136729Y-11932960D02*
X13146253Y-11923436D01*
X13146253Y-11923436D02*
X13146253Y-11942484D01*
X13251015Y-11942484D02*
X13289110Y-11942484D01*
X13289110Y-11942484D02*
X13308158Y-11932960D01*
X13308158Y-11932960D02*
X13317682Y-11923436D01*
X13317682Y-11923436D02*
X13336729Y-11894865D01*
X13336729Y-11894865D02*
X13346253Y-11856769D01*
X13346253Y-11856769D02*
X13346253Y-11780579D01*
X13346253Y-11780579D02*
X13336729Y-11761531D01*
X13336729Y-11761531D02*
X13327205Y-11752008D01*
X13327205Y-11752008D02*
X13308158Y-11742484D01*
X13308158Y-11742484D02*
X13270062Y-11742484D01*
X13270062Y-11742484D02*
X13251015Y-11752008D01*
X13251015Y-11752008D02*
X13241491Y-11761531D01*
X13241491Y-11761531D02*
X13231967Y-11780579D01*
X13231967Y-11780579D02*
X13231967Y-11828198D01*
X13231967Y-11828198D02*
X13241491Y-11847246D01*
X13241491Y-11847246D02*
X13251015Y-11856769D01*
X13251015Y-11856769D02*
X13270062Y-11866293D01*
X13270062Y-11866293D02*
X13308158Y-11866293D01*
X13308158Y-11866293D02*
X13327205Y-11856769D01*
X13327205Y-11856769D02*
X13336729Y-11847246D01*
X13336729Y-11847246D02*
X13346253Y-11828198D01*
X13441491Y-11942484D02*
X13479586Y-11942484D01*
X13479586Y-11942484D02*
X13498634Y-11932960D01*
X13498634Y-11932960D02*
X13508158Y-11923436D01*
X13508158Y-11923436D02*
X13527205Y-11894865D01*
X13527205Y-11894865D02*
X13536729Y-11856769D01*
X13536729Y-11856769D02*
X13536729Y-11780579D01*
X13536729Y-11780579D02*
X13527205Y-11761531D01*
X13527205Y-11761531D02*
X13517682Y-11752008D01*
X13517682Y-11752008D02*
X13498634Y-11742484D01*
X13498634Y-11742484D02*
X13460539Y-11742484D01*
X13460539Y-11742484D02*
X13441491Y-11752008D01*
X13441491Y-11752008D02*
X13431967Y-11761531D01*
X13431967Y-11761531D02*
X13422443Y-11780579D01*
X13422443Y-11780579D02*
X13422443Y-11828198D01*
X13422443Y-11828198D02*
X13431967Y-11847246D01*
X13431967Y-11847246D02*
X13441491Y-11856769D01*
X13441491Y-11856769D02*
X13460539Y-11866293D01*
X13460539Y-11866293D02*
X13498634Y-11866293D01*
X13498634Y-11866293D02*
X13517682Y-11856769D01*
X13517682Y-11856769D02*
X13527205Y-11847246D01*
X13527205Y-11847246D02*
X13536729Y-11828198D01*
X13727205Y-11942484D02*
X13612920Y-11942484D01*
X13670062Y-11942484D02*
X13670062Y-11742484D01*
X13670062Y-11742484D02*
X13651015Y-11771055D01*
X13651015Y-11771055D02*
X13631967Y-11790103D01*
X13631967Y-11790103D02*
X13612920Y-11799627D01*
X13812920Y-11942484D02*
X13812920Y-11809150D01*
X13812920Y-11828198D02*
X13822443Y-11818674D01*
X13822443Y-11818674D02*
X13841491Y-11809150D01*
X13841491Y-11809150D02*
X13870063Y-11809150D01*
X13870063Y-11809150D02*
X13889110Y-11818674D01*
X13889110Y-11818674D02*
X13898634Y-11837722D01*
X13898634Y-11837722D02*
X13898634Y-11942484D01*
X13898634Y-11837722D02*
X13908158Y-11818674D01*
X13908158Y-11818674D02*
X13927205Y-11809150D01*
X13927205Y-11809150D02*
X13955777Y-11809150D01*
X13955777Y-11809150D02*
X13974824Y-11818674D01*
X13974824Y-11818674D02*
X13984348Y-11837722D01*
X13984348Y-11837722D02*
X13984348Y-11942484D01*
X14079586Y-11942484D02*
X14079586Y-11809150D01*
X14079586Y-11828198D02*
X14089110Y-11818674D01*
X14089110Y-11818674D02*
X14108158Y-11809150D01*
X14108158Y-11809150D02*
X14136729Y-11809150D01*
X14136729Y-11809150D02*
X14155777Y-11818674D01*
X14155777Y-11818674D02*
X14165301Y-11837722D01*
X14165301Y-11837722D02*
X14165301Y-11942484D01*
X14165301Y-11837722D02*
X14174824Y-11818674D01*
X14174824Y-11818674D02*
X14193872Y-11809150D01*
X14193872Y-11809150D02*
X14222443Y-11809150D01*
X14222443Y-11809150D02*
X14241491Y-11818674D01*
X14241491Y-11818674D02*
X14251015Y-11837722D01*
X14251015Y-11837722D02*
X14251015Y-11942484D01*
X14641491Y-11732960D02*
X14470063Y-11990103D01*
X14898634Y-11742484D02*
X14917682Y-11742484D01*
X14917682Y-11742484D02*
X14936729Y-11752008D01*
X14936729Y-11752008D02*
X14946253Y-11761531D01*
X14946253Y-11761531D02*
X14955777Y-11780579D01*
X14955777Y-11780579D02*
X14965301Y-11818674D01*
X14965301Y-11818674D02*
X14965301Y-11866293D01*
X14965301Y-11866293D02*
X14955777Y-11904388D01*
X14955777Y-11904388D02*
X14946253Y-11923436D01*
X14946253Y-11923436D02*
X14936729Y-11932960D01*
X14936729Y-11932960D02*
X14917682Y-11942484D01*
X14917682Y-11942484D02*
X14898634Y-11942484D01*
X14898634Y-11942484D02*
X14879586Y-11932960D01*
X14879586Y-11932960D02*
X14870063Y-11923436D01*
X14870063Y-11923436D02*
X14860539Y-11904388D01*
X14860539Y-11904388D02*
X14851015Y-11866293D01*
X14851015Y-11866293D02*
X14851015Y-11818674D01*
X14851015Y-11818674D02*
X14860539Y-11780579D01*
X14860539Y-11780579D02*
X14870063Y-11761531D01*
X14870063Y-11761531D02*
X14879586Y-11752008D01*
X14879586Y-11752008D02*
X14898634Y-11742484D01*
X15051015Y-11923436D02*
X15060539Y-11932960D01*
X15060539Y-11932960D02*
X15051015Y-11942484D01*
X15051015Y-11942484D02*
X15041491Y-11932960D01*
X15041491Y-11932960D02*
X15051015Y-11923436D01*
X15051015Y-11923436D02*
X15051015Y-11942484D01*
X15184348Y-11742484D02*
X15203396Y-11742484D01*
X15203396Y-11742484D02*
X15222444Y-11752008D01*
X15222444Y-11752008D02*
X15231967Y-11761531D01*
X15231967Y-11761531D02*
X15241491Y-11780579D01*
X15241491Y-11780579D02*
X15251015Y-11818674D01*
X15251015Y-11818674D02*
X15251015Y-11866293D01*
X15251015Y-11866293D02*
X15241491Y-11904388D01*
X15241491Y-11904388D02*
X15231967Y-11923436D01*
X15231967Y-11923436D02*
X15222444Y-11932960D01*
X15222444Y-11932960D02*
X15203396Y-11942484D01*
X15203396Y-11942484D02*
X15184348Y-11942484D01*
X15184348Y-11942484D02*
X15165301Y-11932960D01*
X15165301Y-11932960D02*
X15155777Y-11923436D01*
X15155777Y-11923436D02*
X15146253Y-11904388D01*
X15146253Y-11904388D02*
X15136729Y-11866293D01*
X15136729Y-11866293D02*
X15136729Y-11818674D01*
X15136729Y-11818674D02*
X15146253Y-11780579D01*
X15146253Y-11780579D02*
X15155777Y-11761531D01*
X15155777Y-11761531D02*
X15165301Y-11752008D01*
X15165301Y-11752008D02*
X15184348Y-11742484D01*
X15317682Y-11742484D02*
X15441491Y-11742484D01*
X15441491Y-11742484D02*
X15374825Y-11818674D01*
X15374825Y-11818674D02*
X15403396Y-11818674D01*
X15403396Y-11818674D02*
X15422444Y-11828198D01*
X15422444Y-11828198D02*
X15431967Y-11837722D01*
X15431967Y-11837722D02*
X15441491Y-11856769D01*
X15441491Y-11856769D02*
X15441491Y-11904388D01*
X15441491Y-11904388D02*
X15431967Y-11923436D01*
X15431967Y-11923436D02*
X15422444Y-11932960D01*
X15422444Y-11932960D02*
X15403396Y-11942484D01*
X15403396Y-11942484D02*
X15346253Y-11942484D01*
X15346253Y-11942484D02*
X15327206Y-11932960D01*
X15327206Y-11932960D02*
X15317682Y-11923436D01*
X15536729Y-11942484D02*
X15574825Y-11942484D01*
X15574825Y-11942484D02*
X15593872Y-11932960D01*
X15593872Y-11932960D02*
X15603396Y-11923436D01*
X15603396Y-11923436D02*
X15622444Y-11894865D01*
X15622444Y-11894865D02*
X15631967Y-11856769D01*
X15631967Y-11856769D02*
X15631967Y-11780579D01*
X15631967Y-11780579D02*
X15622444Y-11761531D01*
X15622444Y-11761531D02*
X15612920Y-11752008D01*
X15612920Y-11752008D02*
X15593872Y-11742484D01*
X15593872Y-11742484D02*
X15555777Y-11742484D01*
X15555777Y-11742484D02*
X15536729Y-11752008D01*
X15536729Y-11752008D02*
X15527206Y-11761531D01*
X15527206Y-11761531D02*
X15517682Y-11780579D01*
X15517682Y-11780579D02*
X15517682Y-11828198D01*
X15517682Y-11828198D02*
X15527206Y-11847246D01*
X15527206Y-11847246D02*
X15536729Y-11856769D01*
X15536729Y-11856769D02*
X15555777Y-11866293D01*
X15555777Y-11866293D02*
X15593872Y-11866293D01*
X15593872Y-11866293D02*
X15612920Y-11856769D01*
X15612920Y-11856769D02*
X15622444Y-11847246D01*
X15622444Y-11847246D02*
X15631967Y-11828198D01*
X15755777Y-11742484D02*
X15774825Y-11742484D01*
X15774825Y-11742484D02*
X15793872Y-11752008D01*
X15793872Y-11752008D02*
X15803396Y-11761531D01*
X15803396Y-11761531D02*
X15812920Y-11780579D01*
X15812920Y-11780579D02*
X15822444Y-11818674D01*
X15822444Y-11818674D02*
X15822444Y-11866293D01*
X15822444Y-11866293D02*
X15812920Y-11904388D01*
X15812920Y-11904388D02*
X15803396Y-11923436D01*
X15803396Y-11923436D02*
X15793872Y-11932960D01*
X15793872Y-11932960D02*
X15774825Y-11942484D01*
X15774825Y-11942484D02*
X15755777Y-11942484D01*
X15755777Y-11942484D02*
X15736729Y-11932960D01*
X15736729Y-11932960D02*
X15727206Y-11923436D01*
X15727206Y-11923436D02*
X15717682Y-11904388D01*
X15717682Y-11904388D02*
X15708158Y-11866293D01*
X15708158Y-11866293D02*
X15708158Y-11818674D01*
X15708158Y-11818674D02*
X15717682Y-11780579D01*
X15717682Y-11780579D02*
X15727206Y-11761531D01*
X15727206Y-11761531D02*
X15736729Y-11752008D01*
X15736729Y-11752008D02*
X15755777Y-11742484D01*
X15898634Y-11742484D02*
X15898634Y-11780579D01*
X15974825Y-11742484D02*
X15974825Y-11780579D01*
X16270063Y-12018674D02*
X16260539Y-12009150D01*
X16260539Y-12009150D02*
X16241491Y-11980579D01*
X16241491Y-11980579D02*
X16231968Y-11961531D01*
X16231968Y-11961531D02*
X16222444Y-11932960D01*
X16222444Y-11932960D02*
X16212920Y-11885341D01*
X16212920Y-11885341D02*
X16212920Y-11847246D01*
X16212920Y-11847246D02*
X16222444Y-11799627D01*
X16222444Y-11799627D02*
X16231968Y-11771055D01*
X16231968Y-11771055D02*
X16241491Y-11752008D01*
X16241491Y-11752008D02*
X16260539Y-11723436D01*
X16260539Y-11723436D02*
X16270063Y-11713912D01*
X16336729Y-11761531D02*
X16346253Y-11752008D01*
X16346253Y-11752008D02*
X16365301Y-11742484D01*
X16365301Y-11742484D02*
X16412920Y-11742484D01*
X16412920Y-11742484D02*
X16431968Y-11752008D01*
X16431968Y-11752008D02*
X16441491Y-11761531D01*
X16441491Y-11761531D02*
X16451015Y-11780579D01*
X16451015Y-11780579D02*
X16451015Y-11799627D01*
X16451015Y-11799627D02*
X16441491Y-11828198D01*
X16441491Y-11828198D02*
X16327206Y-11942484D01*
X16327206Y-11942484D02*
X16451015Y-11942484D01*
X16622444Y-11809150D02*
X16622444Y-11942484D01*
X16574825Y-11732960D02*
X16527206Y-11875817D01*
X16527206Y-11875817D02*
X16651015Y-11875817D01*
X16879587Y-11942484D02*
X16879587Y-11742484D01*
X16965301Y-11942484D02*
X16965301Y-11837722D01*
X16965301Y-11837722D02*
X16955777Y-11818674D01*
X16955777Y-11818674D02*
X16936730Y-11809150D01*
X16936730Y-11809150D02*
X16908158Y-11809150D01*
X16908158Y-11809150D02*
X16889111Y-11818674D01*
X16889111Y-11818674D02*
X16879587Y-11828198D01*
X17089111Y-11942484D02*
X17070063Y-11932960D01*
X17070063Y-11932960D02*
X17060539Y-11923436D01*
X17060539Y-11923436D02*
X17051015Y-11904388D01*
X17051015Y-11904388D02*
X17051015Y-11847246D01*
X17051015Y-11847246D02*
X17060539Y-11828198D01*
X17060539Y-11828198D02*
X17070063Y-11818674D01*
X17070063Y-11818674D02*
X17089111Y-11809150D01*
X17089111Y-11809150D02*
X17117682Y-11809150D01*
X17117682Y-11809150D02*
X17136730Y-11818674D01*
X17136730Y-11818674D02*
X17146253Y-11828198D01*
X17146253Y-11828198D02*
X17155777Y-11847246D01*
X17155777Y-11847246D02*
X17155777Y-11904388D01*
X17155777Y-11904388D02*
X17146253Y-11923436D01*
X17146253Y-11923436D02*
X17136730Y-11932960D01*
X17136730Y-11932960D02*
X17117682Y-11942484D01*
X17117682Y-11942484D02*
X17089111Y-11942484D01*
X17270063Y-11942484D02*
X17251015Y-11932960D01*
X17251015Y-11932960D02*
X17241492Y-11913912D01*
X17241492Y-11913912D02*
X17241492Y-11742484D01*
X17422444Y-11932960D02*
X17403396Y-11942484D01*
X17403396Y-11942484D02*
X17365301Y-11942484D01*
X17365301Y-11942484D02*
X17346253Y-11932960D01*
X17346253Y-11932960D02*
X17336730Y-11913912D01*
X17336730Y-11913912D02*
X17336730Y-11837722D01*
X17336730Y-11837722D02*
X17346253Y-11818674D01*
X17346253Y-11818674D02*
X17365301Y-11809150D01*
X17365301Y-11809150D02*
X17403396Y-11809150D01*
X17403396Y-11809150D02*
X17422444Y-11818674D01*
X17422444Y-11818674D02*
X17431968Y-11837722D01*
X17431968Y-11837722D02*
X17431968Y-11856769D01*
X17431968Y-11856769D02*
X17336730Y-11875817D01*
X17508158Y-11932960D02*
X17527206Y-11942484D01*
X17527206Y-11942484D02*
X17565301Y-11942484D01*
X17565301Y-11942484D02*
X17584349Y-11932960D01*
X17584349Y-11932960D02*
X17593873Y-11913912D01*
X17593873Y-11913912D02*
X17593873Y-11904388D01*
X17593873Y-11904388D02*
X17584349Y-11885341D01*
X17584349Y-11885341D02*
X17565301Y-11875817D01*
X17565301Y-11875817D02*
X17536730Y-11875817D01*
X17536730Y-11875817D02*
X17517682Y-11866293D01*
X17517682Y-11866293D02*
X17508158Y-11847246D01*
X17508158Y-11847246D02*
X17508158Y-11837722D01*
X17508158Y-11837722D02*
X17517682Y-11818674D01*
X17517682Y-11818674D02*
X17536730Y-11809150D01*
X17536730Y-11809150D02*
X17565301Y-11809150D01*
X17565301Y-11809150D02*
X17584349Y-11818674D01*
X17660539Y-12018674D02*
X17670063Y-12009150D01*
X17670063Y-12009150D02*
X17689111Y-11980579D01*
X17689111Y-11980579D02*
X17698634Y-11961531D01*
X17698634Y-11961531D02*
X17708158Y-11932960D01*
X17708158Y-11932960D02*
X17717682Y-11885341D01*
X17717682Y-11885341D02*
X17717682Y-11847246D01*
X17717682Y-11847246D02*
X17708158Y-11799627D01*
X17708158Y-11799627D02*
X17698634Y-11771055D01*
X17698634Y-11771055D02*
X17689111Y-11752008D01*
X17689111Y-11752008D02*
X17670063Y-11723436D01*
X17670063Y-11723436D02*
X17660539Y-11713912D01*
D10*
X12645000Y-12165000D02*
X12695000Y-12115000D01*
X12645000Y-12065000D01*
X12595000Y-12115000D01*
X12645000Y-12165000D01*
D11*
X13060539Y-12206484D02*
X12946253Y-12206484D01*
X13003396Y-12206484D02*
X13003396Y-12006484D01*
X13003396Y-12006484D02*
X12984348Y-12035055D01*
X12984348Y-12035055D02*
X12965301Y-12054103D01*
X12965301Y-12054103D02*
X12946253Y-12063627D01*
X13146253Y-12187436D02*
X13155777Y-12196960D01*
X13155777Y-12196960D02*
X13146253Y-12206484D01*
X13146253Y-12206484D02*
X13136729Y-12196960D01*
X13136729Y-12196960D02*
X13146253Y-12187436D01*
X13146253Y-12187436D02*
X13146253Y-12206484D01*
X13279586Y-12006484D02*
X13298634Y-12006484D01*
X13298634Y-12006484D02*
X13317682Y-12016008D01*
X13317682Y-12016008D02*
X13327205Y-12025531D01*
X13327205Y-12025531D02*
X13336729Y-12044579D01*
X13336729Y-12044579D02*
X13346253Y-12082674D01*
X13346253Y-12082674D02*
X13346253Y-12130293D01*
X13346253Y-12130293D02*
X13336729Y-12168388D01*
X13336729Y-12168388D02*
X13327205Y-12187436D01*
X13327205Y-12187436D02*
X13317682Y-12196960D01*
X13317682Y-12196960D02*
X13298634Y-12206484D01*
X13298634Y-12206484D02*
X13279586Y-12206484D01*
X13279586Y-12206484D02*
X13260539Y-12196960D01*
X13260539Y-12196960D02*
X13251015Y-12187436D01*
X13251015Y-12187436D02*
X13241491Y-12168388D01*
X13241491Y-12168388D02*
X13231967Y-12130293D01*
X13231967Y-12130293D02*
X13231967Y-12082674D01*
X13231967Y-12082674D02*
X13241491Y-12044579D01*
X13241491Y-12044579D02*
X13251015Y-12025531D01*
X13251015Y-12025531D02*
X13260539Y-12016008D01*
X13260539Y-12016008D02*
X13279586Y-12006484D01*
X13470062Y-12006484D02*
X13489110Y-12006484D01*
X13489110Y-12006484D02*
X13508158Y-12016008D01*
X13508158Y-12016008D02*
X13517682Y-12025531D01*
X13517682Y-12025531D02*
X13527205Y-12044579D01*
X13527205Y-12044579D02*
X13536729Y-12082674D01*
X13536729Y-12082674D02*
X13536729Y-12130293D01*
X13536729Y-12130293D02*
X13527205Y-12168388D01*
X13527205Y-12168388D02*
X13517682Y-12187436D01*
X13517682Y-12187436D02*
X13508158Y-12196960D01*
X13508158Y-12196960D02*
X13489110Y-12206484D01*
X13489110Y-12206484D02*
X13470062Y-12206484D01*
X13470062Y-12206484D02*
X13451015Y-12196960D01*
X13451015Y-12196960D02*
X13441491Y-12187436D01*
X13441491Y-12187436D02*
X13431967Y-12168388D01*
X13431967Y-12168388D02*
X13422443Y-12130293D01*
X13422443Y-12130293D02*
X13422443Y-12082674D01*
X13422443Y-12082674D02*
X13431967Y-12044579D01*
X13431967Y-12044579D02*
X13441491Y-12025531D01*
X13441491Y-12025531D02*
X13451015Y-12016008D01*
X13451015Y-12016008D02*
X13470062Y-12006484D01*
X13660539Y-12006484D02*
X13679586Y-12006484D01*
X13679586Y-12006484D02*
X13698634Y-12016008D01*
X13698634Y-12016008D02*
X13708158Y-12025531D01*
X13708158Y-12025531D02*
X13717682Y-12044579D01*
X13717682Y-12044579D02*
X13727205Y-12082674D01*
X13727205Y-12082674D02*
X13727205Y-12130293D01*
X13727205Y-12130293D02*
X13717682Y-12168388D01*
X13717682Y-12168388D02*
X13708158Y-12187436D01*
X13708158Y-12187436D02*
X13698634Y-12196960D01*
X13698634Y-12196960D02*
X13679586Y-12206484D01*
X13679586Y-12206484D02*
X13660539Y-12206484D01*
X13660539Y-12206484D02*
X13641491Y-12196960D01*
X13641491Y-12196960D02*
X13631967Y-12187436D01*
X13631967Y-12187436D02*
X13622443Y-12168388D01*
X13622443Y-12168388D02*
X13612920Y-12130293D01*
X13612920Y-12130293D02*
X13612920Y-12082674D01*
X13612920Y-12082674D02*
X13622443Y-12044579D01*
X13622443Y-12044579D02*
X13631967Y-12025531D01*
X13631967Y-12025531D02*
X13641491Y-12016008D01*
X13641491Y-12016008D02*
X13660539Y-12006484D01*
X13812920Y-12206484D02*
X13812920Y-12073150D01*
X13812920Y-12092198D02*
X13822443Y-12082674D01*
X13822443Y-12082674D02*
X13841491Y-12073150D01*
X13841491Y-12073150D02*
X13870063Y-12073150D01*
X13870063Y-12073150D02*
X13889110Y-12082674D01*
X13889110Y-12082674D02*
X13898634Y-12101722D01*
X13898634Y-12101722D02*
X13898634Y-12206484D01*
X13898634Y-12101722D02*
X13908158Y-12082674D01*
X13908158Y-12082674D02*
X13927205Y-12073150D01*
X13927205Y-12073150D02*
X13955777Y-12073150D01*
X13955777Y-12073150D02*
X13974824Y-12082674D01*
X13974824Y-12082674D02*
X13984348Y-12101722D01*
X13984348Y-12101722D02*
X13984348Y-12206484D01*
X14079586Y-12206484D02*
X14079586Y-12073150D01*
X14079586Y-12092198D02*
X14089110Y-12082674D01*
X14089110Y-12082674D02*
X14108158Y-12073150D01*
X14108158Y-12073150D02*
X14136729Y-12073150D01*
X14136729Y-12073150D02*
X14155777Y-12082674D01*
X14155777Y-12082674D02*
X14165301Y-12101722D01*
X14165301Y-12101722D02*
X14165301Y-12206484D01*
X14165301Y-12101722D02*
X14174824Y-12082674D01*
X14174824Y-12082674D02*
X14193872Y-12073150D01*
X14193872Y-12073150D02*
X14222443Y-12073150D01*
X14222443Y-12073150D02*
X14241491Y-12082674D01*
X14241491Y-12082674D02*
X14251015Y-12101722D01*
X14251015Y-12101722D02*
X14251015Y-12206484D01*
X14641491Y-11996960D02*
X14470063Y-12254103D01*
X14898634Y-12006484D02*
X14917682Y-12006484D01*
X14917682Y-12006484D02*
X14936729Y-12016008D01*
X14936729Y-12016008D02*
X14946253Y-12025531D01*
X14946253Y-12025531D02*
X14955777Y-12044579D01*
X14955777Y-12044579D02*
X14965301Y-12082674D01*
X14965301Y-12082674D02*
X14965301Y-12130293D01*
X14965301Y-12130293D02*
X14955777Y-12168388D01*
X14955777Y-12168388D02*
X14946253Y-12187436D01*
X14946253Y-12187436D02*
X14936729Y-12196960D01*
X14936729Y-12196960D02*
X14917682Y-12206484D01*
X14917682Y-12206484D02*
X14898634Y-12206484D01*
X14898634Y-12206484D02*
X14879586Y-12196960D01*
X14879586Y-12196960D02*
X14870063Y-12187436D01*
X14870063Y-12187436D02*
X14860539Y-12168388D01*
X14860539Y-12168388D02*
X14851015Y-12130293D01*
X14851015Y-12130293D02*
X14851015Y-12082674D01*
X14851015Y-12082674D02*
X14860539Y-12044579D01*
X14860539Y-12044579D02*
X14870063Y-12025531D01*
X14870063Y-12025531D02*
X14879586Y-12016008D01*
X14879586Y-12016008D02*
X14898634Y-12006484D01*
X15051015Y-12187436D02*
X15060539Y-12196960D01*
X15060539Y-12196960D02*
X15051015Y-12206484D01*
X15051015Y-12206484D02*
X15041491Y-12196960D01*
X15041491Y-12196960D02*
X15051015Y-12187436D01*
X15051015Y-12187436D02*
X15051015Y-12206484D01*
X15184348Y-12006484D02*
X15203396Y-12006484D01*
X15203396Y-12006484D02*
X15222444Y-12016008D01*
X15222444Y-12016008D02*
X15231967Y-12025531D01*
X15231967Y-12025531D02*
X15241491Y-12044579D01*
X15241491Y-12044579D02*
X15251015Y-12082674D01*
X15251015Y-12082674D02*
X15251015Y-12130293D01*
X15251015Y-12130293D02*
X15241491Y-12168388D01*
X15241491Y-12168388D02*
X15231967Y-12187436D01*
X15231967Y-12187436D02*
X15222444Y-12196960D01*
X15222444Y-12196960D02*
X15203396Y-12206484D01*
X15203396Y-12206484D02*
X15184348Y-12206484D01*
X15184348Y-12206484D02*
X15165301Y-12196960D01*
X15165301Y-12196960D02*
X15155777Y-12187436D01*
X15155777Y-12187436D02*
X15146253Y-12168388D01*
X15146253Y-12168388D02*
X15136729Y-12130293D01*
X15136729Y-12130293D02*
X15136729Y-12082674D01*
X15136729Y-12082674D02*
X15146253Y-12044579D01*
X15146253Y-12044579D02*
X15155777Y-12025531D01*
X15155777Y-12025531D02*
X15165301Y-12016008D01*
X15165301Y-12016008D02*
X15184348Y-12006484D01*
X15317682Y-12006484D02*
X15441491Y-12006484D01*
X15441491Y-12006484D02*
X15374825Y-12082674D01*
X15374825Y-12082674D02*
X15403396Y-12082674D01*
X15403396Y-12082674D02*
X15422444Y-12092198D01*
X15422444Y-12092198D02*
X15431967Y-12101722D01*
X15431967Y-12101722D02*
X15441491Y-12120769D01*
X15441491Y-12120769D02*
X15441491Y-12168388D01*
X15441491Y-12168388D02*
X15431967Y-12187436D01*
X15431967Y-12187436D02*
X15422444Y-12196960D01*
X15422444Y-12196960D02*
X15403396Y-12206484D01*
X15403396Y-12206484D02*
X15346253Y-12206484D01*
X15346253Y-12206484D02*
X15327206Y-12196960D01*
X15327206Y-12196960D02*
X15317682Y-12187436D01*
X15536729Y-12206484D02*
X15574825Y-12206484D01*
X15574825Y-12206484D02*
X15593872Y-12196960D01*
X15593872Y-12196960D02*
X15603396Y-12187436D01*
X15603396Y-12187436D02*
X15622444Y-12158865D01*
X15622444Y-12158865D02*
X15631967Y-12120769D01*
X15631967Y-12120769D02*
X15631967Y-12044579D01*
X15631967Y-12044579D02*
X15622444Y-12025531D01*
X15622444Y-12025531D02*
X15612920Y-12016008D01*
X15612920Y-12016008D02*
X15593872Y-12006484D01*
X15593872Y-12006484D02*
X15555777Y-12006484D01*
X15555777Y-12006484D02*
X15536729Y-12016008D01*
X15536729Y-12016008D02*
X15527206Y-12025531D01*
X15527206Y-12025531D02*
X15517682Y-12044579D01*
X15517682Y-12044579D02*
X15517682Y-12092198D01*
X15517682Y-12092198D02*
X15527206Y-12111246D01*
X15527206Y-12111246D02*
X15536729Y-12120769D01*
X15536729Y-12120769D02*
X15555777Y-12130293D01*
X15555777Y-12130293D02*
X15593872Y-12130293D01*
X15593872Y-12130293D02*
X15612920Y-12120769D01*
X15612920Y-12120769D02*
X15622444Y-12111246D01*
X15622444Y-12111246D02*
X15631967Y-12092198D01*
X15803396Y-12073150D02*
X15803396Y-12206484D01*
X15755777Y-11996960D02*
X15708158Y-12139817D01*
X15708158Y-12139817D02*
X15831967Y-12139817D01*
X15898634Y-12006484D02*
X15898634Y-12044579D01*
X15974825Y-12006484D02*
X15974825Y-12044579D01*
X16270063Y-12282674D02*
X16260539Y-12273150D01*
X16260539Y-12273150D02*
X16241491Y-12244579D01*
X16241491Y-12244579D02*
X16231968Y-12225531D01*
X16231968Y-12225531D02*
X16222444Y-12196960D01*
X16222444Y-12196960D02*
X16212920Y-12149341D01*
X16212920Y-12149341D02*
X16212920Y-12111246D01*
X16212920Y-12111246D02*
X16222444Y-12063627D01*
X16222444Y-12063627D02*
X16231968Y-12035055D01*
X16231968Y-12035055D02*
X16241491Y-12016008D01*
X16241491Y-12016008D02*
X16260539Y-11987436D01*
X16260539Y-11987436D02*
X16270063Y-11977912D01*
X16327206Y-12006484D02*
X16460539Y-12006484D01*
X16460539Y-12006484D02*
X16374825Y-12206484D01*
X16689110Y-12206484D02*
X16689110Y-12006484D01*
X16774825Y-12206484D02*
X16774825Y-12101722D01*
X16774825Y-12101722D02*
X16765301Y-12082674D01*
X16765301Y-12082674D02*
X16746253Y-12073150D01*
X16746253Y-12073150D02*
X16717682Y-12073150D01*
X16717682Y-12073150D02*
X16698634Y-12082674D01*
X16698634Y-12082674D02*
X16689110Y-12092198D01*
X16898634Y-12206484D02*
X16879587Y-12196960D01*
X16879587Y-12196960D02*
X16870063Y-12187436D01*
X16870063Y-12187436D02*
X16860539Y-12168388D01*
X16860539Y-12168388D02*
X16860539Y-12111246D01*
X16860539Y-12111246D02*
X16870063Y-12092198D01*
X16870063Y-12092198D02*
X16879587Y-12082674D01*
X16879587Y-12082674D02*
X16898634Y-12073150D01*
X16898634Y-12073150D02*
X16927206Y-12073150D01*
X16927206Y-12073150D02*
X16946253Y-12082674D01*
X16946253Y-12082674D02*
X16955777Y-12092198D01*
X16955777Y-12092198D02*
X16965301Y-12111246D01*
X16965301Y-12111246D02*
X16965301Y-12168388D01*
X16965301Y-12168388D02*
X16955777Y-12187436D01*
X16955777Y-12187436D02*
X16946253Y-12196960D01*
X16946253Y-12196960D02*
X16927206Y-12206484D01*
X16927206Y-12206484D02*
X16898634Y-12206484D01*
X17079587Y-12206484D02*
X17060539Y-12196960D01*
X17060539Y-12196960D02*
X17051015Y-12177912D01*
X17051015Y-12177912D02*
X17051015Y-12006484D01*
X17231968Y-12196960D02*
X17212920Y-12206484D01*
X17212920Y-12206484D02*
X17174825Y-12206484D01*
X17174825Y-12206484D02*
X17155777Y-12196960D01*
X17155777Y-12196960D02*
X17146253Y-12177912D01*
X17146253Y-12177912D02*
X17146253Y-12101722D01*
X17146253Y-12101722D02*
X17155777Y-12082674D01*
X17155777Y-12082674D02*
X17174825Y-12073150D01*
X17174825Y-12073150D02*
X17212920Y-12073150D01*
X17212920Y-12073150D02*
X17231968Y-12082674D01*
X17231968Y-12082674D02*
X17241492Y-12101722D01*
X17241492Y-12101722D02*
X17241492Y-12120769D01*
X17241492Y-12120769D02*
X17146253Y-12139817D01*
X17317682Y-12196960D02*
X17336730Y-12206484D01*
X17336730Y-12206484D02*
X17374825Y-12206484D01*
X17374825Y-12206484D02*
X17393873Y-12196960D01*
X17393873Y-12196960D02*
X17403396Y-12177912D01*
X17403396Y-12177912D02*
X17403396Y-12168388D01*
X17403396Y-12168388D02*
X17393873Y-12149341D01*
X17393873Y-12149341D02*
X17374825Y-12139817D01*
X17374825Y-12139817D02*
X17346253Y-12139817D01*
X17346253Y-12139817D02*
X17327206Y-12130293D01*
X17327206Y-12130293D02*
X17317682Y-12111246D01*
X17317682Y-12111246D02*
X17317682Y-12101722D01*
X17317682Y-12101722D02*
X17327206Y-12082674D01*
X17327206Y-12082674D02*
X17346253Y-12073150D01*
X17346253Y-12073150D02*
X17374825Y-12073150D01*
X17374825Y-12073150D02*
X17393873Y-12082674D01*
X17470063Y-12282674D02*
X17479587Y-12273150D01*
X17479587Y-12273150D02*
X17498634Y-12244579D01*
X17498634Y-12244579D02*
X17508158Y-12225531D01*
X17508158Y-12225531D02*
X17517682Y-12196960D01*
X17517682Y-12196960D02*
X17527206Y-12149341D01*
X17527206Y-12149341D02*
X17527206Y-12111246D01*
X17527206Y-12111246D02*
X17517682Y-12063627D01*
X17517682Y-12063627D02*
X17508158Y-12035055D01*
X17508158Y-12035055D02*
X17498634Y-12016008D01*
X17498634Y-12016008D02*
X17479587Y-11987436D01*
X17479587Y-11987436D02*
X17470063Y-11977912D01*
D10*
X12595000Y-12329000D02*
X12695000Y-12429000D01*
X12695000Y-12329000D02*
X12595000Y-12429000D01*
X12695000Y-12379000D02*
G75*
G03*
X12695000Y-12379000I-50000J0D01*
G01*
D11*
X13060539Y-12470484D02*
X12946253Y-12470484D01*
X13003396Y-12470484D02*
X13003396Y-12270484D01*
X13003396Y-12270484D02*
X12984348Y-12299055D01*
X12984348Y-12299055D02*
X12965301Y-12318103D01*
X12965301Y-12318103D02*
X12946253Y-12327627D01*
X13146253Y-12451436D02*
X13155777Y-12460960D01*
X13155777Y-12460960D02*
X13146253Y-12470484D01*
X13146253Y-12470484D02*
X13136729Y-12460960D01*
X13136729Y-12460960D02*
X13146253Y-12451436D01*
X13146253Y-12451436D02*
X13146253Y-12470484D01*
X13279586Y-12270484D02*
X13298634Y-12270484D01*
X13298634Y-12270484D02*
X13317682Y-12280008D01*
X13317682Y-12280008D02*
X13327205Y-12289531D01*
X13327205Y-12289531D02*
X13336729Y-12308579D01*
X13336729Y-12308579D02*
X13346253Y-12346674D01*
X13346253Y-12346674D02*
X13346253Y-12394293D01*
X13346253Y-12394293D02*
X13336729Y-12432388D01*
X13336729Y-12432388D02*
X13327205Y-12451436D01*
X13327205Y-12451436D02*
X13317682Y-12460960D01*
X13317682Y-12460960D02*
X13298634Y-12470484D01*
X13298634Y-12470484D02*
X13279586Y-12470484D01*
X13279586Y-12470484D02*
X13260539Y-12460960D01*
X13260539Y-12460960D02*
X13251015Y-12451436D01*
X13251015Y-12451436D02*
X13241491Y-12432388D01*
X13241491Y-12432388D02*
X13231967Y-12394293D01*
X13231967Y-12394293D02*
X13231967Y-12346674D01*
X13231967Y-12346674D02*
X13241491Y-12308579D01*
X13241491Y-12308579D02*
X13251015Y-12289531D01*
X13251015Y-12289531D02*
X13260539Y-12280008D01*
X13260539Y-12280008D02*
X13279586Y-12270484D01*
X13470062Y-12270484D02*
X13489110Y-12270484D01*
X13489110Y-12270484D02*
X13508158Y-12280008D01*
X13508158Y-12280008D02*
X13517682Y-12289531D01*
X13517682Y-12289531D02*
X13527205Y-12308579D01*
X13527205Y-12308579D02*
X13536729Y-12346674D01*
X13536729Y-12346674D02*
X13536729Y-12394293D01*
X13536729Y-12394293D02*
X13527205Y-12432388D01*
X13527205Y-12432388D02*
X13517682Y-12451436D01*
X13517682Y-12451436D02*
X13508158Y-12460960D01*
X13508158Y-12460960D02*
X13489110Y-12470484D01*
X13489110Y-12470484D02*
X13470062Y-12470484D01*
X13470062Y-12470484D02*
X13451015Y-12460960D01*
X13451015Y-12460960D02*
X13441491Y-12451436D01*
X13441491Y-12451436D02*
X13431967Y-12432388D01*
X13431967Y-12432388D02*
X13422443Y-12394293D01*
X13422443Y-12394293D02*
X13422443Y-12346674D01*
X13422443Y-12346674D02*
X13431967Y-12308579D01*
X13431967Y-12308579D02*
X13441491Y-12289531D01*
X13441491Y-12289531D02*
X13451015Y-12280008D01*
X13451015Y-12280008D02*
X13470062Y-12270484D01*
X13660539Y-12270484D02*
X13679586Y-12270484D01*
X13679586Y-12270484D02*
X13698634Y-12280008D01*
X13698634Y-12280008D02*
X13708158Y-12289531D01*
X13708158Y-12289531D02*
X13717682Y-12308579D01*
X13717682Y-12308579D02*
X13727205Y-12346674D01*
X13727205Y-12346674D02*
X13727205Y-12394293D01*
X13727205Y-12394293D02*
X13717682Y-12432388D01*
X13717682Y-12432388D02*
X13708158Y-12451436D01*
X13708158Y-12451436D02*
X13698634Y-12460960D01*
X13698634Y-12460960D02*
X13679586Y-12470484D01*
X13679586Y-12470484D02*
X13660539Y-12470484D01*
X13660539Y-12470484D02*
X13641491Y-12460960D01*
X13641491Y-12460960D02*
X13631967Y-12451436D01*
X13631967Y-12451436D02*
X13622443Y-12432388D01*
X13622443Y-12432388D02*
X13612920Y-12394293D01*
X13612920Y-12394293D02*
X13612920Y-12346674D01*
X13612920Y-12346674D02*
X13622443Y-12308579D01*
X13622443Y-12308579D02*
X13631967Y-12289531D01*
X13631967Y-12289531D02*
X13641491Y-12280008D01*
X13641491Y-12280008D02*
X13660539Y-12270484D01*
X13812920Y-12470484D02*
X13812920Y-12337150D01*
X13812920Y-12356198D02*
X13822443Y-12346674D01*
X13822443Y-12346674D02*
X13841491Y-12337150D01*
X13841491Y-12337150D02*
X13870063Y-12337150D01*
X13870063Y-12337150D02*
X13889110Y-12346674D01*
X13889110Y-12346674D02*
X13898634Y-12365722D01*
X13898634Y-12365722D02*
X13898634Y-12470484D01*
X13898634Y-12365722D02*
X13908158Y-12346674D01*
X13908158Y-12346674D02*
X13927205Y-12337150D01*
X13927205Y-12337150D02*
X13955777Y-12337150D01*
X13955777Y-12337150D02*
X13974824Y-12346674D01*
X13974824Y-12346674D02*
X13984348Y-12365722D01*
X13984348Y-12365722D02*
X13984348Y-12470484D01*
X14079586Y-12470484D02*
X14079586Y-12337150D01*
X14079586Y-12356198D02*
X14089110Y-12346674D01*
X14089110Y-12346674D02*
X14108158Y-12337150D01*
X14108158Y-12337150D02*
X14136729Y-12337150D01*
X14136729Y-12337150D02*
X14155777Y-12346674D01*
X14155777Y-12346674D02*
X14165301Y-12365722D01*
X14165301Y-12365722D02*
X14165301Y-12470484D01*
X14165301Y-12365722D02*
X14174824Y-12346674D01*
X14174824Y-12346674D02*
X14193872Y-12337150D01*
X14193872Y-12337150D02*
X14222443Y-12337150D01*
X14222443Y-12337150D02*
X14241491Y-12346674D01*
X14241491Y-12346674D02*
X14251015Y-12365722D01*
X14251015Y-12365722D02*
X14251015Y-12470484D01*
X14641491Y-12260960D02*
X14470063Y-12518103D01*
X14898634Y-12270484D02*
X14917682Y-12270484D01*
X14917682Y-12270484D02*
X14936729Y-12280008D01*
X14936729Y-12280008D02*
X14946253Y-12289531D01*
X14946253Y-12289531D02*
X14955777Y-12308579D01*
X14955777Y-12308579D02*
X14965301Y-12346674D01*
X14965301Y-12346674D02*
X14965301Y-12394293D01*
X14965301Y-12394293D02*
X14955777Y-12432388D01*
X14955777Y-12432388D02*
X14946253Y-12451436D01*
X14946253Y-12451436D02*
X14936729Y-12460960D01*
X14936729Y-12460960D02*
X14917682Y-12470484D01*
X14917682Y-12470484D02*
X14898634Y-12470484D01*
X14898634Y-12470484D02*
X14879586Y-12460960D01*
X14879586Y-12460960D02*
X14870063Y-12451436D01*
X14870063Y-12451436D02*
X14860539Y-12432388D01*
X14860539Y-12432388D02*
X14851015Y-12394293D01*
X14851015Y-12394293D02*
X14851015Y-12346674D01*
X14851015Y-12346674D02*
X14860539Y-12308579D01*
X14860539Y-12308579D02*
X14870063Y-12289531D01*
X14870063Y-12289531D02*
X14879586Y-12280008D01*
X14879586Y-12280008D02*
X14898634Y-12270484D01*
X15051015Y-12451436D02*
X15060539Y-12460960D01*
X15060539Y-12460960D02*
X15051015Y-12470484D01*
X15051015Y-12470484D02*
X15041491Y-12460960D01*
X15041491Y-12460960D02*
X15051015Y-12451436D01*
X15051015Y-12451436D02*
X15051015Y-12470484D01*
X15184348Y-12270484D02*
X15203396Y-12270484D01*
X15203396Y-12270484D02*
X15222444Y-12280008D01*
X15222444Y-12280008D02*
X15231967Y-12289531D01*
X15231967Y-12289531D02*
X15241491Y-12308579D01*
X15241491Y-12308579D02*
X15251015Y-12346674D01*
X15251015Y-12346674D02*
X15251015Y-12394293D01*
X15251015Y-12394293D02*
X15241491Y-12432388D01*
X15241491Y-12432388D02*
X15231967Y-12451436D01*
X15231967Y-12451436D02*
X15222444Y-12460960D01*
X15222444Y-12460960D02*
X15203396Y-12470484D01*
X15203396Y-12470484D02*
X15184348Y-12470484D01*
X15184348Y-12470484D02*
X15165301Y-12460960D01*
X15165301Y-12460960D02*
X15155777Y-12451436D01*
X15155777Y-12451436D02*
X15146253Y-12432388D01*
X15146253Y-12432388D02*
X15136729Y-12394293D01*
X15136729Y-12394293D02*
X15136729Y-12346674D01*
X15136729Y-12346674D02*
X15146253Y-12308579D01*
X15146253Y-12308579D02*
X15155777Y-12289531D01*
X15155777Y-12289531D02*
X15165301Y-12280008D01*
X15165301Y-12280008D02*
X15184348Y-12270484D01*
X15317682Y-12270484D02*
X15441491Y-12270484D01*
X15441491Y-12270484D02*
X15374825Y-12346674D01*
X15374825Y-12346674D02*
X15403396Y-12346674D01*
X15403396Y-12346674D02*
X15422444Y-12356198D01*
X15422444Y-12356198D02*
X15431967Y-12365722D01*
X15431967Y-12365722D02*
X15441491Y-12384769D01*
X15441491Y-12384769D02*
X15441491Y-12432388D01*
X15441491Y-12432388D02*
X15431967Y-12451436D01*
X15431967Y-12451436D02*
X15422444Y-12460960D01*
X15422444Y-12460960D02*
X15403396Y-12470484D01*
X15403396Y-12470484D02*
X15346253Y-12470484D01*
X15346253Y-12470484D02*
X15327206Y-12460960D01*
X15327206Y-12460960D02*
X15317682Y-12451436D01*
X15536729Y-12470484D02*
X15574825Y-12470484D01*
X15574825Y-12470484D02*
X15593872Y-12460960D01*
X15593872Y-12460960D02*
X15603396Y-12451436D01*
X15603396Y-12451436D02*
X15622444Y-12422865D01*
X15622444Y-12422865D02*
X15631967Y-12384769D01*
X15631967Y-12384769D02*
X15631967Y-12308579D01*
X15631967Y-12308579D02*
X15622444Y-12289531D01*
X15622444Y-12289531D02*
X15612920Y-12280008D01*
X15612920Y-12280008D02*
X15593872Y-12270484D01*
X15593872Y-12270484D02*
X15555777Y-12270484D01*
X15555777Y-12270484D02*
X15536729Y-12280008D01*
X15536729Y-12280008D02*
X15527206Y-12289531D01*
X15527206Y-12289531D02*
X15517682Y-12308579D01*
X15517682Y-12308579D02*
X15517682Y-12356198D01*
X15517682Y-12356198D02*
X15527206Y-12375246D01*
X15527206Y-12375246D02*
X15536729Y-12384769D01*
X15536729Y-12384769D02*
X15555777Y-12394293D01*
X15555777Y-12394293D02*
X15593872Y-12394293D01*
X15593872Y-12394293D02*
X15612920Y-12384769D01*
X15612920Y-12384769D02*
X15622444Y-12375246D01*
X15622444Y-12375246D02*
X15631967Y-12356198D01*
X15803396Y-12337150D02*
X15803396Y-12470484D01*
X15755777Y-12260960D02*
X15708158Y-12403817D01*
X15708158Y-12403817D02*
X15831967Y-12403817D01*
X15898634Y-12270484D02*
X15898634Y-12308579D01*
X15974825Y-12270484D02*
X15974825Y-12308579D01*
X16270063Y-12546674D02*
X16260539Y-12537150D01*
X16260539Y-12537150D02*
X16241491Y-12508579D01*
X16241491Y-12508579D02*
X16231968Y-12489531D01*
X16231968Y-12489531D02*
X16222444Y-12460960D01*
X16222444Y-12460960D02*
X16212920Y-12413341D01*
X16212920Y-12413341D02*
X16212920Y-12375246D01*
X16212920Y-12375246D02*
X16222444Y-12327627D01*
X16222444Y-12327627D02*
X16231968Y-12299055D01*
X16231968Y-12299055D02*
X16241491Y-12280008D01*
X16241491Y-12280008D02*
X16260539Y-12251436D01*
X16260539Y-12251436D02*
X16270063Y-12241912D01*
X16327206Y-12270484D02*
X16451015Y-12270484D01*
X16451015Y-12270484D02*
X16384348Y-12346674D01*
X16384348Y-12346674D02*
X16412920Y-12346674D01*
X16412920Y-12346674D02*
X16431968Y-12356198D01*
X16431968Y-12356198D02*
X16441491Y-12365722D01*
X16441491Y-12365722D02*
X16451015Y-12384769D01*
X16451015Y-12384769D02*
X16451015Y-12432388D01*
X16451015Y-12432388D02*
X16441491Y-12451436D01*
X16441491Y-12451436D02*
X16431968Y-12460960D01*
X16431968Y-12460960D02*
X16412920Y-12470484D01*
X16412920Y-12470484D02*
X16355777Y-12470484D01*
X16355777Y-12470484D02*
X16336729Y-12460960D01*
X16336729Y-12460960D02*
X16327206Y-12451436D01*
X16574825Y-12270484D02*
X16593872Y-12270484D01*
X16593872Y-12270484D02*
X16612920Y-12280008D01*
X16612920Y-12280008D02*
X16622444Y-12289531D01*
X16622444Y-12289531D02*
X16631968Y-12308579D01*
X16631968Y-12308579D02*
X16641491Y-12346674D01*
X16641491Y-12346674D02*
X16641491Y-12394293D01*
X16641491Y-12394293D02*
X16631968Y-12432388D01*
X16631968Y-12432388D02*
X16622444Y-12451436D01*
X16622444Y-12451436D02*
X16612920Y-12460960D01*
X16612920Y-12460960D02*
X16593872Y-12470484D01*
X16593872Y-12470484D02*
X16574825Y-12470484D01*
X16574825Y-12470484D02*
X16555777Y-12460960D01*
X16555777Y-12460960D02*
X16546253Y-12451436D01*
X16546253Y-12451436D02*
X16536729Y-12432388D01*
X16536729Y-12432388D02*
X16527206Y-12394293D01*
X16527206Y-12394293D02*
X16527206Y-12346674D01*
X16527206Y-12346674D02*
X16536729Y-12308579D01*
X16536729Y-12308579D02*
X16546253Y-12289531D01*
X16546253Y-12289531D02*
X16555777Y-12280008D01*
X16555777Y-12280008D02*
X16574825Y-12270484D01*
X16879587Y-12470484D02*
X16879587Y-12270484D01*
X16965301Y-12470484D02*
X16965301Y-12365722D01*
X16965301Y-12365722D02*
X16955777Y-12346674D01*
X16955777Y-12346674D02*
X16936730Y-12337150D01*
X16936730Y-12337150D02*
X16908158Y-12337150D01*
X16908158Y-12337150D02*
X16889111Y-12346674D01*
X16889111Y-12346674D02*
X16879587Y-12356198D01*
X17089111Y-12470484D02*
X17070063Y-12460960D01*
X17070063Y-12460960D02*
X17060539Y-12451436D01*
X17060539Y-12451436D02*
X17051015Y-12432388D01*
X17051015Y-12432388D02*
X17051015Y-12375246D01*
X17051015Y-12375246D02*
X17060539Y-12356198D01*
X17060539Y-12356198D02*
X17070063Y-12346674D01*
X17070063Y-12346674D02*
X17089111Y-12337150D01*
X17089111Y-12337150D02*
X17117682Y-12337150D01*
X17117682Y-12337150D02*
X17136730Y-12346674D01*
X17136730Y-12346674D02*
X17146253Y-12356198D01*
X17146253Y-12356198D02*
X17155777Y-12375246D01*
X17155777Y-12375246D02*
X17155777Y-12432388D01*
X17155777Y-12432388D02*
X17146253Y-12451436D01*
X17146253Y-12451436D02*
X17136730Y-12460960D01*
X17136730Y-12460960D02*
X17117682Y-12470484D01*
X17117682Y-12470484D02*
X17089111Y-12470484D01*
X17270063Y-12470484D02*
X17251015Y-12460960D01*
X17251015Y-12460960D02*
X17241492Y-12441912D01*
X17241492Y-12441912D02*
X17241492Y-12270484D01*
X17422444Y-12460960D02*
X17403396Y-12470484D01*
X17403396Y-12470484D02*
X17365301Y-12470484D01*
X17365301Y-12470484D02*
X17346253Y-12460960D01*
X17346253Y-12460960D02*
X17336730Y-12441912D01*
X17336730Y-12441912D02*
X17336730Y-12365722D01*
X17336730Y-12365722D02*
X17346253Y-12346674D01*
X17346253Y-12346674D02*
X17365301Y-12337150D01*
X17365301Y-12337150D02*
X17403396Y-12337150D01*
X17403396Y-12337150D02*
X17422444Y-12346674D01*
X17422444Y-12346674D02*
X17431968Y-12365722D01*
X17431968Y-12365722D02*
X17431968Y-12384769D01*
X17431968Y-12384769D02*
X17336730Y-12403817D01*
X17508158Y-12460960D02*
X17527206Y-12470484D01*
X17527206Y-12470484D02*
X17565301Y-12470484D01*
X17565301Y-12470484D02*
X17584349Y-12460960D01*
X17584349Y-12460960D02*
X17593873Y-12441912D01*
X17593873Y-12441912D02*
X17593873Y-12432388D01*
X17593873Y-12432388D02*
X17584349Y-12413341D01*
X17584349Y-12413341D02*
X17565301Y-12403817D01*
X17565301Y-12403817D02*
X17536730Y-12403817D01*
X17536730Y-12403817D02*
X17517682Y-12394293D01*
X17517682Y-12394293D02*
X17508158Y-12375246D01*
X17508158Y-12375246D02*
X17508158Y-12365722D01*
X17508158Y-12365722D02*
X17517682Y-12346674D01*
X17517682Y-12346674D02*
X17536730Y-12337150D01*
X17536730Y-12337150D02*
X17565301Y-12337150D01*
X17565301Y-12337150D02*
X17584349Y-12346674D01*
X17660539Y-12546674D02*
X17670063Y-12537150D01*
X17670063Y-12537150D02*
X17689111Y-12508579D01*
X17689111Y-12508579D02*
X17698634Y-12489531D01*
X17698634Y-12489531D02*
X17708158Y-12460960D01*
X17708158Y-12460960D02*
X17717682Y-12413341D01*
X17717682Y-12413341D02*
X17717682Y-12375246D01*
X17717682Y-12375246D02*
X17708158Y-12327627D01*
X17708158Y-12327627D02*
X17698634Y-12299055D01*
X17698634Y-12299055D02*
X17689111Y-12280008D01*
X17689111Y-12280008D02*
X17670063Y-12251436D01*
X17670063Y-12251436D02*
X17660539Y-12241912D01*
D16*
X12575000Y-12583000D02*
X12695000Y-12703000D01*
X12695000Y-12583000D02*
X12575000Y-12703000D01*
X12635000Y-12583000D02*
X12635000Y-12703000D01*
X12575000Y-12643000D02*
X12695000Y-12643000D01*
D11*
X13060539Y-12734484D02*
X12946253Y-12734484D01*
X13003396Y-12734484D02*
X13003396Y-12534484D01*
X13003396Y-12534484D02*
X12984348Y-12563055D01*
X12984348Y-12563055D02*
X12965301Y-12582103D01*
X12965301Y-12582103D02*
X12946253Y-12591627D01*
X13146253Y-12715436D02*
X13155777Y-12724960D01*
X13155777Y-12724960D02*
X13146253Y-12734484D01*
X13146253Y-12734484D02*
X13136729Y-12724960D01*
X13136729Y-12724960D02*
X13146253Y-12715436D01*
X13146253Y-12715436D02*
X13146253Y-12734484D01*
X13231967Y-12553531D02*
X13241491Y-12544008D01*
X13241491Y-12544008D02*
X13260539Y-12534484D01*
X13260539Y-12534484D02*
X13308158Y-12534484D01*
X13308158Y-12534484D02*
X13327205Y-12544008D01*
X13327205Y-12544008D02*
X13336729Y-12553531D01*
X13336729Y-12553531D02*
X13346253Y-12572579D01*
X13346253Y-12572579D02*
X13346253Y-12591627D01*
X13346253Y-12591627D02*
X13336729Y-12620198D01*
X13336729Y-12620198D02*
X13222443Y-12734484D01*
X13222443Y-12734484D02*
X13346253Y-12734484D01*
X13470062Y-12534484D02*
X13489110Y-12534484D01*
X13489110Y-12534484D02*
X13508158Y-12544008D01*
X13508158Y-12544008D02*
X13517682Y-12553531D01*
X13517682Y-12553531D02*
X13527205Y-12572579D01*
X13527205Y-12572579D02*
X13536729Y-12610674D01*
X13536729Y-12610674D02*
X13536729Y-12658293D01*
X13536729Y-12658293D02*
X13527205Y-12696388D01*
X13527205Y-12696388D02*
X13517682Y-12715436D01*
X13517682Y-12715436D02*
X13508158Y-12724960D01*
X13508158Y-12724960D02*
X13489110Y-12734484D01*
X13489110Y-12734484D02*
X13470062Y-12734484D01*
X13470062Y-12734484D02*
X13451015Y-12724960D01*
X13451015Y-12724960D02*
X13441491Y-12715436D01*
X13441491Y-12715436D02*
X13431967Y-12696388D01*
X13431967Y-12696388D02*
X13422443Y-12658293D01*
X13422443Y-12658293D02*
X13422443Y-12610674D01*
X13422443Y-12610674D02*
X13431967Y-12572579D01*
X13431967Y-12572579D02*
X13441491Y-12553531D01*
X13441491Y-12553531D02*
X13451015Y-12544008D01*
X13451015Y-12544008D02*
X13470062Y-12534484D01*
X13660539Y-12534484D02*
X13679586Y-12534484D01*
X13679586Y-12534484D02*
X13698634Y-12544008D01*
X13698634Y-12544008D02*
X13708158Y-12553531D01*
X13708158Y-12553531D02*
X13717682Y-12572579D01*
X13717682Y-12572579D02*
X13727205Y-12610674D01*
X13727205Y-12610674D02*
X13727205Y-12658293D01*
X13727205Y-12658293D02*
X13717682Y-12696388D01*
X13717682Y-12696388D02*
X13708158Y-12715436D01*
X13708158Y-12715436D02*
X13698634Y-12724960D01*
X13698634Y-12724960D02*
X13679586Y-12734484D01*
X13679586Y-12734484D02*
X13660539Y-12734484D01*
X13660539Y-12734484D02*
X13641491Y-12724960D01*
X13641491Y-12724960D02*
X13631967Y-12715436D01*
X13631967Y-12715436D02*
X13622443Y-12696388D01*
X13622443Y-12696388D02*
X13612920Y-12658293D01*
X13612920Y-12658293D02*
X13612920Y-12610674D01*
X13612920Y-12610674D02*
X13622443Y-12572579D01*
X13622443Y-12572579D02*
X13631967Y-12553531D01*
X13631967Y-12553531D02*
X13641491Y-12544008D01*
X13641491Y-12544008D02*
X13660539Y-12534484D01*
X13812920Y-12734484D02*
X13812920Y-12601150D01*
X13812920Y-12620198D02*
X13822443Y-12610674D01*
X13822443Y-12610674D02*
X13841491Y-12601150D01*
X13841491Y-12601150D02*
X13870063Y-12601150D01*
X13870063Y-12601150D02*
X13889110Y-12610674D01*
X13889110Y-12610674D02*
X13898634Y-12629722D01*
X13898634Y-12629722D02*
X13898634Y-12734484D01*
X13898634Y-12629722D02*
X13908158Y-12610674D01*
X13908158Y-12610674D02*
X13927205Y-12601150D01*
X13927205Y-12601150D02*
X13955777Y-12601150D01*
X13955777Y-12601150D02*
X13974824Y-12610674D01*
X13974824Y-12610674D02*
X13984348Y-12629722D01*
X13984348Y-12629722D02*
X13984348Y-12734484D01*
X14079586Y-12734484D02*
X14079586Y-12601150D01*
X14079586Y-12620198D02*
X14089110Y-12610674D01*
X14089110Y-12610674D02*
X14108158Y-12601150D01*
X14108158Y-12601150D02*
X14136729Y-12601150D01*
X14136729Y-12601150D02*
X14155777Y-12610674D01*
X14155777Y-12610674D02*
X14165301Y-12629722D01*
X14165301Y-12629722D02*
X14165301Y-12734484D01*
X14165301Y-12629722D02*
X14174824Y-12610674D01*
X14174824Y-12610674D02*
X14193872Y-12601150D01*
X14193872Y-12601150D02*
X14222443Y-12601150D01*
X14222443Y-12601150D02*
X14241491Y-12610674D01*
X14241491Y-12610674D02*
X14251015Y-12629722D01*
X14251015Y-12629722D02*
X14251015Y-12734484D01*
X14641491Y-12524960D02*
X14470063Y-12782103D01*
X14898634Y-12534484D02*
X14917682Y-12534484D01*
X14917682Y-12534484D02*
X14936729Y-12544008D01*
X14936729Y-12544008D02*
X14946253Y-12553531D01*
X14946253Y-12553531D02*
X14955777Y-12572579D01*
X14955777Y-12572579D02*
X14965301Y-12610674D01*
X14965301Y-12610674D02*
X14965301Y-12658293D01*
X14965301Y-12658293D02*
X14955777Y-12696388D01*
X14955777Y-12696388D02*
X14946253Y-12715436D01*
X14946253Y-12715436D02*
X14936729Y-12724960D01*
X14936729Y-12724960D02*
X14917682Y-12734484D01*
X14917682Y-12734484D02*
X14898634Y-12734484D01*
X14898634Y-12734484D02*
X14879586Y-12724960D01*
X14879586Y-12724960D02*
X14870063Y-12715436D01*
X14870063Y-12715436D02*
X14860539Y-12696388D01*
X14860539Y-12696388D02*
X14851015Y-12658293D01*
X14851015Y-12658293D02*
X14851015Y-12610674D01*
X14851015Y-12610674D02*
X14860539Y-12572579D01*
X14860539Y-12572579D02*
X14870063Y-12553531D01*
X14870063Y-12553531D02*
X14879586Y-12544008D01*
X14879586Y-12544008D02*
X14898634Y-12534484D01*
X15051015Y-12715436D02*
X15060539Y-12724960D01*
X15060539Y-12724960D02*
X15051015Y-12734484D01*
X15051015Y-12734484D02*
X15041491Y-12724960D01*
X15041491Y-12724960D02*
X15051015Y-12715436D01*
X15051015Y-12715436D02*
X15051015Y-12734484D01*
X15184348Y-12534484D02*
X15203396Y-12534484D01*
X15203396Y-12534484D02*
X15222444Y-12544008D01*
X15222444Y-12544008D02*
X15231967Y-12553531D01*
X15231967Y-12553531D02*
X15241491Y-12572579D01*
X15241491Y-12572579D02*
X15251015Y-12610674D01*
X15251015Y-12610674D02*
X15251015Y-12658293D01*
X15251015Y-12658293D02*
X15241491Y-12696388D01*
X15241491Y-12696388D02*
X15231967Y-12715436D01*
X15231967Y-12715436D02*
X15222444Y-12724960D01*
X15222444Y-12724960D02*
X15203396Y-12734484D01*
X15203396Y-12734484D02*
X15184348Y-12734484D01*
X15184348Y-12734484D02*
X15165301Y-12724960D01*
X15165301Y-12724960D02*
X15155777Y-12715436D01*
X15155777Y-12715436D02*
X15146253Y-12696388D01*
X15146253Y-12696388D02*
X15136729Y-12658293D01*
X15136729Y-12658293D02*
X15136729Y-12610674D01*
X15136729Y-12610674D02*
X15146253Y-12572579D01*
X15146253Y-12572579D02*
X15155777Y-12553531D01*
X15155777Y-12553531D02*
X15165301Y-12544008D01*
X15165301Y-12544008D02*
X15184348Y-12534484D01*
X15422444Y-12601150D02*
X15422444Y-12734484D01*
X15374825Y-12524960D02*
X15327206Y-12667817D01*
X15327206Y-12667817D02*
X15451015Y-12667817D01*
X15508158Y-12534484D02*
X15641491Y-12534484D01*
X15641491Y-12534484D02*
X15555777Y-12734484D01*
X15708158Y-12553531D02*
X15717682Y-12544008D01*
X15717682Y-12544008D02*
X15736729Y-12534484D01*
X15736729Y-12534484D02*
X15784348Y-12534484D01*
X15784348Y-12534484D02*
X15803396Y-12544008D01*
X15803396Y-12544008D02*
X15812920Y-12553531D01*
X15812920Y-12553531D02*
X15822444Y-12572579D01*
X15822444Y-12572579D02*
X15822444Y-12591627D01*
X15822444Y-12591627D02*
X15812920Y-12620198D01*
X15812920Y-12620198D02*
X15698634Y-12734484D01*
X15698634Y-12734484D02*
X15822444Y-12734484D01*
X15898634Y-12534484D02*
X15898634Y-12572579D01*
X15974825Y-12534484D02*
X15974825Y-12572579D01*
X16270063Y-12810674D02*
X16260539Y-12801150D01*
X16260539Y-12801150D02*
X16241491Y-12772579D01*
X16241491Y-12772579D02*
X16231968Y-12753531D01*
X16231968Y-12753531D02*
X16222444Y-12724960D01*
X16222444Y-12724960D02*
X16212920Y-12677341D01*
X16212920Y-12677341D02*
X16212920Y-12639246D01*
X16212920Y-12639246D02*
X16222444Y-12591627D01*
X16222444Y-12591627D02*
X16231968Y-12563055D01*
X16231968Y-12563055D02*
X16241491Y-12544008D01*
X16241491Y-12544008D02*
X16260539Y-12515436D01*
X16260539Y-12515436D02*
X16270063Y-12505912D01*
X16431968Y-12534484D02*
X16393872Y-12534484D01*
X16393872Y-12534484D02*
X16374825Y-12544008D01*
X16374825Y-12544008D02*
X16365301Y-12553531D01*
X16365301Y-12553531D02*
X16346253Y-12582103D01*
X16346253Y-12582103D02*
X16336729Y-12620198D01*
X16336729Y-12620198D02*
X16336729Y-12696388D01*
X16336729Y-12696388D02*
X16346253Y-12715436D01*
X16346253Y-12715436D02*
X16355777Y-12724960D01*
X16355777Y-12724960D02*
X16374825Y-12734484D01*
X16374825Y-12734484D02*
X16412920Y-12734484D01*
X16412920Y-12734484D02*
X16431968Y-12724960D01*
X16431968Y-12724960D02*
X16441491Y-12715436D01*
X16441491Y-12715436D02*
X16451015Y-12696388D01*
X16451015Y-12696388D02*
X16451015Y-12648769D01*
X16451015Y-12648769D02*
X16441491Y-12629722D01*
X16441491Y-12629722D02*
X16431968Y-12620198D01*
X16431968Y-12620198D02*
X16412920Y-12610674D01*
X16412920Y-12610674D02*
X16374825Y-12610674D01*
X16374825Y-12610674D02*
X16355777Y-12620198D01*
X16355777Y-12620198D02*
X16346253Y-12629722D01*
X16346253Y-12629722D02*
X16336729Y-12648769D01*
X16689110Y-12734484D02*
X16689110Y-12534484D01*
X16774825Y-12734484D02*
X16774825Y-12629722D01*
X16774825Y-12629722D02*
X16765301Y-12610674D01*
X16765301Y-12610674D02*
X16746253Y-12601150D01*
X16746253Y-12601150D02*
X16717682Y-12601150D01*
X16717682Y-12601150D02*
X16698634Y-12610674D01*
X16698634Y-12610674D02*
X16689110Y-12620198D01*
X16898634Y-12734484D02*
X16879587Y-12724960D01*
X16879587Y-12724960D02*
X16870063Y-12715436D01*
X16870063Y-12715436D02*
X16860539Y-12696388D01*
X16860539Y-12696388D02*
X16860539Y-12639246D01*
X16860539Y-12639246D02*
X16870063Y-12620198D01*
X16870063Y-12620198D02*
X16879587Y-12610674D01*
X16879587Y-12610674D02*
X16898634Y-12601150D01*
X16898634Y-12601150D02*
X16927206Y-12601150D01*
X16927206Y-12601150D02*
X16946253Y-12610674D01*
X16946253Y-12610674D02*
X16955777Y-12620198D01*
X16955777Y-12620198D02*
X16965301Y-12639246D01*
X16965301Y-12639246D02*
X16965301Y-12696388D01*
X16965301Y-12696388D02*
X16955777Y-12715436D01*
X16955777Y-12715436D02*
X16946253Y-12724960D01*
X16946253Y-12724960D02*
X16927206Y-12734484D01*
X16927206Y-12734484D02*
X16898634Y-12734484D01*
X17079587Y-12734484D02*
X17060539Y-12724960D01*
X17060539Y-12724960D02*
X17051015Y-12705912D01*
X17051015Y-12705912D02*
X17051015Y-12534484D01*
X17231968Y-12724960D02*
X17212920Y-12734484D01*
X17212920Y-12734484D02*
X17174825Y-12734484D01*
X17174825Y-12734484D02*
X17155777Y-12724960D01*
X17155777Y-12724960D02*
X17146253Y-12705912D01*
X17146253Y-12705912D02*
X17146253Y-12629722D01*
X17146253Y-12629722D02*
X17155777Y-12610674D01*
X17155777Y-12610674D02*
X17174825Y-12601150D01*
X17174825Y-12601150D02*
X17212920Y-12601150D01*
X17212920Y-12601150D02*
X17231968Y-12610674D01*
X17231968Y-12610674D02*
X17241492Y-12629722D01*
X17241492Y-12629722D02*
X17241492Y-12648769D01*
X17241492Y-12648769D02*
X17146253Y-12667817D01*
X17317682Y-12724960D02*
X17336730Y-12734484D01*
X17336730Y-12734484D02*
X17374825Y-12734484D01*
X17374825Y-12734484D02*
X17393873Y-12724960D01*
X17393873Y-12724960D02*
X17403396Y-12705912D01*
X17403396Y-12705912D02*
X17403396Y-12696388D01*
X17403396Y-12696388D02*
X17393873Y-12677341D01*
X17393873Y-12677341D02*
X17374825Y-12667817D01*
X17374825Y-12667817D02*
X17346253Y-12667817D01*
X17346253Y-12667817D02*
X17327206Y-12658293D01*
X17327206Y-12658293D02*
X17317682Y-12639246D01*
X17317682Y-12639246D02*
X17317682Y-12629722D01*
X17317682Y-12629722D02*
X17327206Y-12610674D01*
X17327206Y-12610674D02*
X17346253Y-12601150D01*
X17346253Y-12601150D02*
X17374825Y-12601150D01*
X17374825Y-12601150D02*
X17393873Y-12610674D01*
X17470063Y-12810674D02*
X17479587Y-12801150D01*
X17479587Y-12801150D02*
X17498634Y-12772579D01*
X17498634Y-12772579D02*
X17508158Y-12753531D01*
X17508158Y-12753531D02*
X17517682Y-12724960D01*
X17517682Y-12724960D02*
X17527206Y-12677341D01*
X17527206Y-12677341D02*
X17527206Y-12639246D01*
X17527206Y-12639246D02*
X17517682Y-12591627D01*
X17517682Y-12591627D02*
X17508158Y-12563055D01*
X17508158Y-12563055D02*
X17498634Y-12544008D01*
X17498634Y-12544008D02*
X17479587Y-12515436D01*
X17479587Y-12515436D02*
X17470063Y-12505912D01*
D17*
X12545140Y-12832070D02*
X12695000Y-12981930D01*
X12695000Y-12832070D02*
X12545140Y-12981930D01*
X12673054Y-12959984D02*
X12673054Y-12854016D01*
X12567086Y-12854016D01*
X12567086Y-12959984D01*
X12673054Y-12959984D01*
D11*
X13060539Y-12998484D02*
X12946253Y-12998484D01*
X13003396Y-12998484D02*
X13003396Y-12798484D01*
X13003396Y-12798484D02*
X12984348Y-12827055D01*
X12984348Y-12827055D02*
X12965301Y-12846103D01*
X12965301Y-12846103D02*
X12946253Y-12855627D01*
X13146253Y-12979436D02*
X13155777Y-12988960D01*
X13155777Y-12988960D02*
X13146253Y-12998484D01*
X13146253Y-12998484D02*
X13136729Y-12988960D01*
X13136729Y-12988960D02*
X13146253Y-12979436D01*
X13146253Y-12979436D02*
X13146253Y-12998484D01*
X13327205Y-12865150D02*
X13327205Y-12998484D01*
X13279586Y-12788960D02*
X13231967Y-12931817D01*
X13231967Y-12931817D02*
X13355777Y-12931817D01*
X13441491Y-12998484D02*
X13479586Y-12998484D01*
X13479586Y-12998484D02*
X13498634Y-12988960D01*
X13498634Y-12988960D02*
X13508158Y-12979436D01*
X13508158Y-12979436D02*
X13527205Y-12950865D01*
X13527205Y-12950865D02*
X13536729Y-12912769D01*
X13536729Y-12912769D02*
X13536729Y-12836579D01*
X13536729Y-12836579D02*
X13527205Y-12817531D01*
X13527205Y-12817531D02*
X13517682Y-12808008D01*
X13517682Y-12808008D02*
X13498634Y-12798484D01*
X13498634Y-12798484D02*
X13460539Y-12798484D01*
X13460539Y-12798484D02*
X13441491Y-12808008D01*
X13441491Y-12808008D02*
X13431967Y-12817531D01*
X13431967Y-12817531D02*
X13422443Y-12836579D01*
X13422443Y-12836579D02*
X13422443Y-12884198D01*
X13422443Y-12884198D02*
X13431967Y-12903246D01*
X13431967Y-12903246D02*
X13441491Y-12912769D01*
X13441491Y-12912769D02*
X13460539Y-12922293D01*
X13460539Y-12922293D02*
X13498634Y-12922293D01*
X13498634Y-12922293D02*
X13517682Y-12912769D01*
X13517682Y-12912769D02*
X13527205Y-12903246D01*
X13527205Y-12903246D02*
X13536729Y-12884198D01*
X13631967Y-12998484D02*
X13670062Y-12998484D01*
X13670062Y-12998484D02*
X13689110Y-12988960D01*
X13689110Y-12988960D02*
X13698634Y-12979436D01*
X13698634Y-12979436D02*
X13717682Y-12950865D01*
X13717682Y-12950865D02*
X13727205Y-12912769D01*
X13727205Y-12912769D02*
X13727205Y-12836579D01*
X13727205Y-12836579D02*
X13717682Y-12817531D01*
X13717682Y-12817531D02*
X13708158Y-12808008D01*
X13708158Y-12808008D02*
X13689110Y-12798484D01*
X13689110Y-12798484D02*
X13651015Y-12798484D01*
X13651015Y-12798484D02*
X13631967Y-12808008D01*
X13631967Y-12808008D02*
X13622443Y-12817531D01*
X13622443Y-12817531D02*
X13612920Y-12836579D01*
X13612920Y-12836579D02*
X13612920Y-12884198D01*
X13612920Y-12884198D02*
X13622443Y-12903246D01*
X13622443Y-12903246D02*
X13631967Y-12912769D01*
X13631967Y-12912769D02*
X13651015Y-12922293D01*
X13651015Y-12922293D02*
X13689110Y-12922293D01*
X13689110Y-12922293D02*
X13708158Y-12912769D01*
X13708158Y-12912769D02*
X13717682Y-12903246D01*
X13717682Y-12903246D02*
X13727205Y-12884198D01*
X13812920Y-12998484D02*
X13812920Y-12865150D01*
X13812920Y-12884198D02*
X13822443Y-12874674D01*
X13822443Y-12874674D02*
X13841491Y-12865150D01*
X13841491Y-12865150D02*
X13870063Y-12865150D01*
X13870063Y-12865150D02*
X13889110Y-12874674D01*
X13889110Y-12874674D02*
X13898634Y-12893722D01*
X13898634Y-12893722D02*
X13898634Y-12998484D01*
X13898634Y-12893722D02*
X13908158Y-12874674D01*
X13908158Y-12874674D02*
X13927205Y-12865150D01*
X13927205Y-12865150D02*
X13955777Y-12865150D01*
X13955777Y-12865150D02*
X13974824Y-12874674D01*
X13974824Y-12874674D02*
X13984348Y-12893722D01*
X13984348Y-12893722D02*
X13984348Y-12998484D01*
X14079586Y-12998484D02*
X14079586Y-12865150D01*
X14079586Y-12884198D02*
X14089110Y-12874674D01*
X14089110Y-12874674D02*
X14108158Y-12865150D01*
X14108158Y-12865150D02*
X14136729Y-12865150D01*
X14136729Y-12865150D02*
X14155777Y-12874674D01*
X14155777Y-12874674D02*
X14165301Y-12893722D01*
X14165301Y-12893722D02*
X14165301Y-12998484D01*
X14165301Y-12893722D02*
X14174824Y-12874674D01*
X14174824Y-12874674D02*
X14193872Y-12865150D01*
X14193872Y-12865150D02*
X14222443Y-12865150D01*
X14222443Y-12865150D02*
X14241491Y-12874674D01*
X14241491Y-12874674D02*
X14251015Y-12893722D01*
X14251015Y-12893722D02*
X14251015Y-12998484D01*
X14641491Y-12788960D02*
X14470063Y-13046103D01*
X14898634Y-12798484D02*
X14917682Y-12798484D01*
X14917682Y-12798484D02*
X14936729Y-12808008D01*
X14936729Y-12808008D02*
X14946253Y-12817531D01*
X14946253Y-12817531D02*
X14955777Y-12836579D01*
X14955777Y-12836579D02*
X14965301Y-12874674D01*
X14965301Y-12874674D02*
X14965301Y-12922293D01*
X14965301Y-12922293D02*
X14955777Y-12960388D01*
X14955777Y-12960388D02*
X14946253Y-12979436D01*
X14946253Y-12979436D02*
X14936729Y-12988960D01*
X14936729Y-12988960D02*
X14917682Y-12998484D01*
X14917682Y-12998484D02*
X14898634Y-12998484D01*
X14898634Y-12998484D02*
X14879586Y-12988960D01*
X14879586Y-12988960D02*
X14870063Y-12979436D01*
X14870063Y-12979436D02*
X14860539Y-12960388D01*
X14860539Y-12960388D02*
X14851015Y-12922293D01*
X14851015Y-12922293D02*
X14851015Y-12874674D01*
X14851015Y-12874674D02*
X14860539Y-12836579D01*
X14860539Y-12836579D02*
X14870063Y-12817531D01*
X14870063Y-12817531D02*
X14879586Y-12808008D01*
X14879586Y-12808008D02*
X14898634Y-12798484D01*
X15051015Y-12979436D02*
X15060539Y-12988960D01*
X15060539Y-12988960D02*
X15051015Y-12998484D01*
X15051015Y-12998484D02*
X15041491Y-12988960D01*
X15041491Y-12988960D02*
X15051015Y-12979436D01*
X15051015Y-12979436D02*
X15051015Y-12998484D01*
X15184348Y-12798484D02*
X15203396Y-12798484D01*
X15203396Y-12798484D02*
X15222444Y-12808008D01*
X15222444Y-12808008D02*
X15231967Y-12817531D01*
X15231967Y-12817531D02*
X15241491Y-12836579D01*
X15241491Y-12836579D02*
X15251015Y-12874674D01*
X15251015Y-12874674D02*
X15251015Y-12922293D01*
X15251015Y-12922293D02*
X15241491Y-12960388D01*
X15241491Y-12960388D02*
X15231967Y-12979436D01*
X15231967Y-12979436D02*
X15222444Y-12988960D01*
X15222444Y-12988960D02*
X15203396Y-12998484D01*
X15203396Y-12998484D02*
X15184348Y-12998484D01*
X15184348Y-12998484D02*
X15165301Y-12988960D01*
X15165301Y-12988960D02*
X15155777Y-12979436D01*
X15155777Y-12979436D02*
X15146253Y-12960388D01*
X15146253Y-12960388D02*
X15136729Y-12922293D01*
X15136729Y-12922293D02*
X15136729Y-12874674D01*
X15136729Y-12874674D02*
X15146253Y-12836579D01*
X15146253Y-12836579D02*
X15155777Y-12817531D01*
X15155777Y-12817531D02*
X15165301Y-12808008D01*
X15165301Y-12808008D02*
X15184348Y-12798484D01*
X15431967Y-12798484D02*
X15336729Y-12798484D01*
X15336729Y-12798484D02*
X15327206Y-12893722D01*
X15327206Y-12893722D02*
X15336729Y-12884198D01*
X15336729Y-12884198D02*
X15355777Y-12874674D01*
X15355777Y-12874674D02*
X15403396Y-12874674D01*
X15403396Y-12874674D02*
X15422444Y-12884198D01*
X15422444Y-12884198D02*
X15431967Y-12893722D01*
X15431967Y-12893722D02*
X15441491Y-12912769D01*
X15441491Y-12912769D02*
X15441491Y-12960388D01*
X15441491Y-12960388D02*
X15431967Y-12979436D01*
X15431967Y-12979436D02*
X15422444Y-12988960D01*
X15422444Y-12988960D02*
X15403396Y-12998484D01*
X15403396Y-12998484D02*
X15355777Y-12998484D01*
X15355777Y-12998484D02*
X15336729Y-12988960D01*
X15336729Y-12988960D02*
X15327206Y-12979436D01*
X15536729Y-12998484D02*
X15574825Y-12998484D01*
X15574825Y-12998484D02*
X15593872Y-12988960D01*
X15593872Y-12988960D02*
X15603396Y-12979436D01*
X15603396Y-12979436D02*
X15622444Y-12950865D01*
X15622444Y-12950865D02*
X15631967Y-12912769D01*
X15631967Y-12912769D02*
X15631967Y-12836579D01*
X15631967Y-12836579D02*
X15622444Y-12817531D01*
X15622444Y-12817531D02*
X15612920Y-12808008D01*
X15612920Y-12808008D02*
X15593872Y-12798484D01*
X15593872Y-12798484D02*
X15555777Y-12798484D01*
X15555777Y-12798484D02*
X15536729Y-12808008D01*
X15536729Y-12808008D02*
X15527206Y-12817531D01*
X15527206Y-12817531D02*
X15517682Y-12836579D01*
X15517682Y-12836579D02*
X15517682Y-12884198D01*
X15517682Y-12884198D02*
X15527206Y-12903246D01*
X15527206Y-12903246D02*
X15536729Y-12912769D01*
X15536729Y-12912769D02*
X15555777Y-12922293D01*
X15555777Y-12922293D02*
X15593872Y-12922293D01*
X15593872Y-12922293D02*
X15612920Y-12912769D01*
X15612920Y-12912769D02*
X15622444Y-12903246D01*
X15622444Y-12903246D02*
X15631967Y-12884198D01*
X15755777Y-12798484D02*
X15774825Y-12798484D01*
X15774825Y-12798484D02*
X15793872Y-12808008D01*
X15793872Y-12808008D02*
X15803396Y-12817531D01*
X15803396Y-12817531D02*
X15812920Y-12836579D01*
X15812920Y-12836579D02*
X15822444Y-12874674D01*
X15822444Y-12874674D02*
X15822444Y-12922293D01*
X15822444Y-12922293D02*
X15812920Y-12960388D01*
X15812920Y-12960388D02*
X15803396Y-12979436D01*
X15803396Y-12979436D02*
X15793872Y-12988960D01*
X15793872Y-12988960D02*
X15774825Y-12998484D01*
X15774825Y-12998484D02*
X15755777Y-12998484D01*
X15755777Y-12998484D02*
X15736729Y-12988960D01*
X15736729Y-12988960D02*
X15727206Y-12979436D01*
X15727206Y-12979436D02*
X15717682Y-12960388D01*
X15717682Y-12960388D02*
X15708158Y-12922293D01*
X15708158Y-12922293D02*
X15708158Y-12874674D01*
X15708158Y-12874674D02*
X15717682Y-12836579D01*
X15717682Y-12836579D02*
X15727206Y-12817531D01*
X15727206Y-12817531D02*
X15736729Y-12808008D01*
X15736729Y-12808008D02*
X15755777Y-12798484D01*
X15898634Y-12798484D02*
X15898634Y-12836579D01*
X15974825Y-12798484D02*
X15974825Y-12836579D01*
X16270063Y-13074674D02*
X16260539Y-13065150D01*
X16260539Y-13065150D02*
X16241491Y-13036579D01*
X16241491Y-13036579D02*
X16231968Y-13017531D01*
X16231968Y-13017531D02*
X16222444Y-12988960D01*
X16222444Y-12988960D02*
X16212920Y-12941341D01*
X16212920Y-12941341D02*
X16212920Y-12903246D01*
X16212920Y-12903246D02*
X16222444Y-12855627D01*
X16222444Y-12855627D02*
X16231968Y-12827055D01*
X16231968Y-12827055D02*
X16241491Y-12808008D01*
X16241491Y-12808008D02*
X16260539Y-12779436D01*
X16260539Y-12779436D02*
X16270063Y-12769912D01*
X16336729Y-12817531D02*
X16346253Y-12808008D01*
X16346253Y-12808008D02*
X16365301Y-12798484D01*
X16365301Y-12798484D02*
X16412920Y-12798484D01*
X16412920Y-12798484D02*
X16431968Y-12808008D01*
X16431968Y-12808008D02*
X16441491Y-12817531D01*
X16441491Y-12817531D02*
X16451015Y-12836579D01*
X16451015Y-12836579D02*
X16451015Y-12855627D01*
X16451015Y-12855627D02*
X16441491Y-12884198D01*
X16441491Y-12884198D02*
X16327206Y-12998484D01*
X16327206Y-12998484D02*
X16451015Y-12998484D01*
X16689110Y-12998484D02*
X16689110Y-12798484D01*
X16774825Y-12998484D02*
X16774825Y-12893722D01*
X16774825Y-12893722D02*
X16765301Y-12874674D01*
X16765301Y-12874674D02*
X16746253Y-12865150D01*
X16746253Y-12865150D02*
X16717682Y-12865150D01*
X16717682Y-12865150D02*
X16698634Y-12874674D01*
X16698634Y-12874674D02*
X16689110Y-12884198D01*
X16898634Y-12998484D02*
X16879587Y-12988960D01*
X16879587Y-12988960D02*
X16870063Y-12979436D01*
X16870063Y-12979436D02*
X16860539Y-12960388D01*
X16860539Y-12960388D02*
X16860539Y-12903246D01*
X16860539Y-12903246D02*
X16870063Y-12884198D01*
X16870063Y-12884198D02*
X16879587Y-12874674D01*
X16879587Y-12874674D02*
X16898634Y-12865150D01*
X16898634Y-12865150D02*
X16927206Y-12865150D01*
X16927206Y-12865150D02*
X16946253Y-12874674D01*
X16946253Y-12874674D02*
X16955777Y-12884198D01*
X16955777Y-12884198D02*
X16965301Y-12903246D01*
X16965301Y-12903246D02*
X16965301Y-12960388D01*
X16965301Y-12960388D02*
X16955777Y-12979436D01*
X16955777Y-12979436D02*
X16946253Y-12988960D01*
X16946253Y-12988960D02*
X16927206Y-12998484D01*
X16927206Y-12998484D02*
X16898634Y-12998484D01*
X17079587Y-12998484D02*
X17060539Y-12988960D01*
X17060539Y-12988960D02*
X17051015Y-12969912D01*
X17051015Y-12969912D02*
X17051015Y-12798484D01*
X17231968Y-12988960D02*
X17212920Y-12998484D01*
X17212920Y-12998484D02*
X17174825Y-12998484D01*
X17174825Y-12998484D02*
X17155777Y-12988960D01*
X17155777Y-12988960D02*
X17146253Y-12969912D01*
X17146253Y-12969912D02*
X17146253Y-12893722D01*
X17146253Y-12893722D02*
X17155777Y-12874674D01*
X17155777Y-12874674D02*
X17174825Y-12865150D01*
X17174825Y-12865150D02*
X17212920Y-12865150D01*
X17212920Y-12865150D02*
X17231968Y-12874674D01*
X17231968Y-12874674D02*
X17241492Y-12893722D01*
X17241492Y-12893722D02*
X17241492Y-12912769D01*
X17241492Y-12912769D02*
X17146253Y-12931817D01*
X17317682Y-12988960D02*
X17336730Y-12998484D01*
X17336730Y-12998484D02*
X17374825Y-12998484D01*
X17374825Y-12998484D02*
X17393873Y-12988960D01*
X17393873Y-12988960D02*
X17403396Y-12969912D01*
X17403396Y-12969912D02*
X17403396Y-12960388D01*
X17403396Y-12960388D02*
X17393873Y-12941341D01*
X17393873Y-12941341D02*
X17374825Y-12931817D01*
X17374825Y-12931817D02*
X17346253Y-12931817D01*
X17346253Y-12931817D02*
X17327206Y-12922293D01*
X17327206Y-12922293D02*
X17317682Y-12903246D01*
X17317682Y-12903246D02*
X17317682Y-12893722D01*
X17317682Y-12893722D02*
X17327206Y-12874674D01*
X17327206Y-12874674D02*
X17346253Y-12865150D01*
X17346253Y-12865150D02*
X17374825Y-12865150D01*
X17374825Y-12865150D02*
X17393873Y-12874674D01*
X17470063Y-13074674D02*
X17479587Y-13065150D01*
X17479587Y-13065150D02*
X17498634Y-13036579D01*
X17498634Y-13036579D02*
X17508158Y-13017531D01*
X17508158Y-13017531D02*
X17517682Y-12988960D01*
X17517682Y-12988960D02*
X17527206Y-12941341D01*
X17527206Y-12941341D02*
X17527206Y-12903246D01*
X17527206Y-12903246D02*
X17517682Y-12855627D01*
X17517682Y-12855627D02*
X17508158Y-12827055D01*
X17508158Y-12827055D02*
X17498634Y-12808008D01*
X17498634Y-12808008D02*
X17479587Y-12779436D01*
X17479587Y-12779436D02*
X17470063Y-12769912D01*
M02*
