G04 #@! TF.GenerationSoftware,KiCad,Pcbnew,7.0.7*
G04 #@! TF.CreationDate,2024-05-14T17:55:04+07:00*
G04 #@! TF.ProjectId,frankii round 2,6672616e-6b69-4692-9072-6f756e642032,rev?*
G04 #@! TF.SameCoordinates,Original*
G04 #@! TF.FileFunction,Paste,Top*
G04 #@! TF.FilePolarity,Positive*
%FSLAX46Y46*%
G04 Gerber Fmt 4.6, Leading zero omitted, Abs format (unit mm)*
G04 Created by KiCad (PCBNEW 7.0.7) date 2024-05-14 17:55:04*
%MOMM*%
%LPD*%
G01*
G04 APERTURE LIST*
G04 Aperture macros list*
%AMRoundRect*
0 Rectangle with rounded corners*
0 $1 Rounding radius*
0 $2 $3 $4 $5 $6 $7 $8 $9 X,Y pos of 4 corners*
0 Add a 4 corners polygon primitive as box body*
4,1,4,$2,$3,$4,$5,$6,$7,$8,$9,$2,$3,0*
0 Add four circle primitives for the rounded corners*
1,1,$1+$1,$2,$3*
1,1,$1+$1,$4,$5*
1,1,$1+$1,$6,$7*
1,1,$1+$1,$8,$9*
0 Add four rect primitives between the rounded corners*
20,1,$1+$1,$2,$3,$4,$5,0*
20,1,$1+$1,$4,$5,$6,$7,0*
20,1,$1+$1,$6,$7,$8,$9,0*
20,1,$1+$1,$8,$9,$2,$3,0*%
%AMOutline4P*
0 Free polygon, 4 corners , with rotation*
0 The origin of the aperture is its center*
0 number of corners: always 4*
0 $1 to $8 corner X, Y*
0 $9 Rotation angle, in degrees counterclockwise*
0 create outline with 4 corners*
4,1,4,$1,$2,$3,$4,$5,$6,$7,$8,$1,$2,$9*%
G04 Aperture macros list end*
%ADD10Outline4P,-2.150000X-1.800000X2.150000X-0.800000X2.150000X0.800000X-2.150000X1.800000X180.000000*%
%ADD11Outline4P,-2.150000X-1.800000X2.150000X-0.800000X2.150000X0.800000X-2.150000X1.800000X0.000000*%
%ADD12RoundRect,0.250000X-0.850000X-0.350000X0.850000X-0.350000X0.850000X0.350000X-0.850000X0.350000X0*%
%ADD13RoundRect,0.250000X-1.275000X-1.125000X1.275000X-1.125000X1.275000X1.125000X-1.275000X1.125000X0*%
%ADD14RoundRect,0.250000X-0.262500X-0.450000X0.262500X-0.450000X0.262500X0.450000X-0.262500X0.450000X0*%
%ADD15R,3.100000X2.400000*%
%ADD16R,0.500000X2.200000*%
%ADD17RoundRect,0.237500X0.237500X-0.300000X0.237500X0.300000X-0.237500X0.300000X-0.237500X-0.300000X0*%
%ADD18RoundRect,0.250000X0.375000X0.625000X-0.375000X0.625000X-0.375000X-0.625000X0.375000X-0.625000X0*%
%ADD19RoundRect,0.250000X0.262500X0.450000X-0.262500X0.450000X-0.262500X-0.450000X0.262500X-0.450000X0*%
%ADD20R,1.168400X2.616200*%
%ADD21RoundRect,0.250000X-0.475000X0.250000X-0.475000X-0.250000X0.475000X-0.250000X0.475000X0.250000X0*%
G04 APERTURE END LIST*
D10*
X218826000Y-76746000D03*
D11*
X212426000Y-76746000D03*
D12*
X213001000Y-86991000D03*
X213001000Y-89271000D03*
D13*
X217626000Y-87746000D03*
X217626000Y-90796000D03*
X220976000Y-87746000D03*
X220976000Y-90796000D03*
D12*
X213001000Y-91551000D03*
D14*
X155519501Y-88808000D03*
X157344501Y-88808000D03*
D15*
X200787000Y-94241900D03*
D16*
X202692000Y-91366900D03*
X201422000Y-91366900D03*
X200152000Y-91366900D03*
X198882000Y-91366900D03*
X198882000Y-97116900D03*
X200152000Y-97116900D03*
X201422000Y-97116900D03*
X202692000Y-97116900D03*
D17*
X146252000Y-58103100D03*
X146252000Y-56378100D03*
X201624001Y-58137100D03*
X201624001Y-56412100D03*
X196850000Y-96963400D03*
X196850000Y-95238400D03*
X209626000Y-91608500D03*
X209626000Y-89883500D03*
D18*
X219425999Y-82745999D03*
X216625999Y-82745999D03*
D19*
X198492500Y-88734900D03*
X196667500Y-88734900D03*
D20*
X192786000Y-97028001D03*
X192786000Y-92125801D03*
D17*
X137362000Y-58103100D03*
X137362000Y-56378100D03*
D15*
X159639001Y-94315000D03*
D16*
X161544001Y-91440000D03*
X160274001Y-91440000D03*
X159004001Y-91440000D03*
X157734001Y-91440000D03*
X157734001Y-97190000D03*
X159004001Y-97190000D03*
X160274001Y-97190000D03*
X161544001Y-97190000D03*
D20*
X151638001Y-96936001D03*
X151638001Y-92033801D03*
D21*
X209626000Y-85796000D03*
X209626000Y-87696000D03*
D17*
X164794000Y-58103100D03*
X164794000Y-56378100D03*
X192226000Y-58137100D03*
X192226000Y-56412100D03*
X155396000Y-58103100D03*
X155396000Y-56378100D03*
X174191999Y-58137100D03*
X174191999Y-56412100D03*
X155702001Y-97036501D03*
X155702001Y-95311501D03*
X183082000Y-58137100D03*
X183082000Y-56412100D03*
M02*
