M48
; DRILL file {KiCad 7.0.7} date Tue May 14 17:55:07 2024
; FORMAT={-:-/ absolute / metric / decimal}
; #@! TF.CreationDate,2024-05-14T17:55:07+07:00
; #@! TF.GenerationSoftware,Kicad,Pcbnew,7.0.7
; #@! TF.FileFunction,Plated,1,2,PTH
FMAT,2
METRIC
; #@! TA.AperFunction,Plated,PTH,ComponentDrill
T1C0.330
; #@! TA.AperFunction,Plated,PTH,ViaDrill
T2C0.400
; #@! TA.AperFunction,Plated,PTH,ComponentDrill
T3C0.787
; #@! TA.AperFunction,Plated,PTH,ComponentDrill
T4C0.991
; #@! TA.AperFunction,Plated,PTH,ViaDrill
T5C1.000
; #@! TA.AperFunction,Plated,PTH,ComponentDrill
T6C1.000
; #@! TA.AperFunction,Plated,PTH,ComponentDrill
T7C1.200
; #@! TA.AperFunction,Plated,PTH,ComponentDrill
T8C1.499
%
G90
G05
T1
X158.339Y-93.665
X158.339Y-94.965
X159.639Y-93.665
X159.639Y-94.965
X160.939Y-93.665
X160.939Y-94.965
X199.487Y-93.592
X199.487Y-94.892
X200.787Y-93.592
X200.787Y-94.892
X202.087Y-93.592
X202.087Y-94.892
T2
X160.274Y-99.06
X201.422Y-99.06
T3
X215.17Y-61.976
X217.17Y-61.976
X219.17Y-61.976
T4
X142.202Y-56.388
X142.202Y-58.888
X142.202Y-61.388
X151.202Y-56.388
X151.202Y-58.888
X151.202Y-61.388
X160.202Y-56.388
X160.202Y-58.888
X160.202Y-61.388
X169.672Y-56.388
X169.672Y-58.888
X169.672Y-61.388
X179.032Y-56.468
X179.032Y-58.968
X179.032Y-61.468
X188.032Y-56.468
X188.032Y-58.968
X188.032Y-61.468
X197.032Y-56.468
X197.032Y-58.968
X197.032Y-61.468
X206.502Y-56.468
X206.502Y-58.968
X206.502Y-61.468
T5
X146.812Y-91.44
X159.004Y-100.662
X161.544Y-101.6
X187.96Y-91.44
X200.152Y-102.108
X202.692Y-100.662
X209.804Y-82.55
T6
X151.892Y-69.078
X151.892Y-84.318
X154.432Y-69.078
X154.432Y-84.318
X156.972Y-69.078
X156.972Y-84.318
X159.512Y-69.078
X159.512Y-84.318
X162.052Y-69.078
X162.052Y-84.318
X164.592Y-69.078
X164.592Y-84.318
X167.132Y-69.078
X167.132Y-84.318
X169.672Y-69.078
X169.672Y-84.318
X172.212Y-69.078
X172.212Y-84.318
X174.752Y-69.078
X174.752Y-84.318
X177.292Y-69.078
X177.292Y-84.318
X179.832Y-69.078
X179.832Y-84.318
X182.372Y-69.078
X182.372Y-84.318
X184.912Y-69.078
X184.912Y-84.318
X187.452Y-69.078
X187.452Y-84.318
T7
X139.446Y-99.46
X142.946Y-99.46
X210.312Y-99.02
X213.812Y-99.02
X217.086Y-67.056
X217.086Y-70.556
T8
X213.07Y-61.976
X221.27Y-61.976
T0
M30
