G04 #@! TF.GenerationSoftware,KiCad,Pcbnew,7.0.7*
G04 #@! TF.CreationDate,2024-05-14T17:55:04+07:00*
G04 #@! TF.ProjectId,frankii round 2,6672616e-6b69-4692-9072-6f756e642032,rev?*
G04 #@! TF.SameCoordinates,Original*
G04 #@! TF.FileFunction,Copper,L2,Bot*
G04 #@! TF.FilePolarity,Positive*
%FSLAX46Y46*%
G04 Gerber Fmt 4.6, Leading zero omitted, Abs format (unit mm)*
G04 Created by KiCad (PCBNEW 7.0.7) date 2024-05-14 17:55:04*
%MOMM*%
%LPD*%
G01*
G04 APERTURE LIST*
G04 #@! TA.AperFunction,ComponentPad*
%ADD10R,2.400000X2.400000*%
G04 #@! TD*
G04 #@! TA.AperFunction,ComponentPad*
%ADD11C,2.400000*%
G04 #@! TD*
G04 #@! TA.AperFunction,ComponentPad*
%ADD12C,1.498600*%
G04 #@! TD*
G04 #@! TA.AperFunction,ComponentPad*
%ADD13C,0.630000*%
G04 #@! TD*
G04 #@! TA.AperFunction,SMDPad,CuDef*
%ADD14R,3.300000X2.600000*%
G04 #@! TD*
G04 #@! TA.AperFunction,ComponentPad*
%ADD15R,1.600000X1.600000*%
G04 #@! TD*
G04 #@! TA.AperFunction,ComponentPad*
%ADD16O,1.600000X1.600000*%
G04 #@! TD*
G04 #@! TA.AperFunction,ComponentPad*
%ADD17R,1.295400X1.295400*%
G04 #@! TD*
G04 #@! TA.AperFunction,ComponentPad*
%ADD18C,1.295400*%
G04 #@! TD*
G04 #@! TA.AperFunction,ViaPad*
%ADD19C,0.800000*%
G04 #@! TD*
G04 #@! TA.AperFunction,ViaPad*
%ADD20C,2.000000*%
G04 #@! TD*
G04 #@! TA.AperFunction,Conductor*
%ADD21C,1.000000*%
G04 #@! TD*
G04 APERTURE END LIST*
D10*
X139446000Y-99460000D03*
D11*
X142946000Y-99460000D03*
D12*
X151201801Y-56388000D03*
X151201801Y-58888000D03*
X151201801Y-61388000D03*
X206502000Y-56468000D03*
X206502000Y-58968000D03*
X206502000Y-61468000D03*
D13*
X202087000Y-93591900D03*
X200787000Y-93591900D03*
X199487000Y-93591900D03*
D14*
X200787000Y-94241900D03*
D13*
X202087000Y-94891900D03*
X200787000Y-94891900D03*
X199487000Y-94891900D03*
D12*
X142201801Y-56388000D03*
X142201801Y-58888000D03*
X142201801Y-61388000D03*
X160201801Y-56388000D03*
X160201801Y-58888000D03*
X160201801Y-61388000D03*
D15*
X151892000Y-84318000D03*
D16*
X154432000Y-84318000D03*
X156972000Y-84318000D03*
X159512000Y-84318000D03*
X162052000Y-84318000D03*
X164592000Y-84318000D03*
X167132000Y-84318000D03*
X169672000Y-84318000D03*
X172212000Y-84318000D03*
X174752000Y-84318000D03*
X177292000Y-84318000D03*
X179832000Y-84318000D03*
X182372000Y-84318000D03*
X184912000Y-84318000D03*
X187452000Y-84318000D03*
X187452000Y-69078000D03*
X184912000Y-69078000D03*
X182372000Y-69078000D03*
X179832000Y-69078000D03*
X177292000Y-69078000D03*
X174752000Y-69078000D03*
X172212000Y-69078000D03*
X169672000Y-69078000D03*
X167132000Y-69078000D03*
X164592000Y-69078000D03*
X162052000Y-69078000D03*
X159512000Y-69078000D03*
X156972000Y-69078000D03*
X154432000Y-69078000D03*
X151892000Y-69078000D03*
D17*
X215170001Y-61976000D03*
D18*
X217170001Y-61976000D03*
X219170002Y-61976000D03*
D12*
X213070000Y-61976000D03*
X221270001Y-61976000D03*
X179031801Y-56468000D03*
X179031801Y-58968000D03*
X179031801Y-61468000D03*
D13*
X160939001Y-93665000D03*
X159639001Y-93665000D03*
X158339001Y-93665000D03*
D14*
X159639001Y-94315000D03*
D13*
X160939001Y-94965000D03*
X159639001Y-94965000D03*
X158339001Y-94965000D03*
D10*
X217086000Y-70556000D03*
D11*
X217086000Y-67056000D03*
D12*
X169672000Y-56388000D03*
X169672000Y-58888000D03*
X169672000Y-61388000D03*
D10*
X210312000Y-99020000D03*
D11*
X213812000Y-99020000D03*
D12*
X188031801Y-56468000D03*
X188031801Y-58968000D03*
X188031801Y-61468000D03*
X197031801Y-56468000D03*
X197031801Y-58968000D03*
X197031801Y-61468000D03*
D19*
X201422000Y-99060000D03*
X160274000Y-99060000D03*
D20*
X146812000Y-91440000D03*
X187960000Y-91440000D03*
X209804000Y-82550000D03*
X200152000Y-102108000D03*
X159004000Y-100662500D03*
X202692000Y-100662500D03*
X161544000Y-101600000D03*
D21*
X204470000Y-90170000D02*
X204470000Y-87884000D01*
X203200000Y-91440000D02*
X204470000Y-90170000D01*
X187960000Y-91440000D02*
X146812000Y-91440000D01*
X187960000Y-91440000D02*
X203200000Y-91440000D01*
X204470000Y-87884000D02*
X209804000Y-82550000D01*
X209336000Y-99020000D02*
X210312000Y-99020000D01*
X200406000Y-102362000D02*
X205994000Y-102362000D01*
X205994000Y-102362000D02*
X209336000Y-99020000D01*
X200152000Y-102108000D02*
X200406000Y-102362000D01*
X147398500Y-100662500D02*
X143764000Y-97028000D01*
X139446000Y-98552000D02*
X139446000Y-99460000D01*
X140970000Y-97028000D02*
X139446000Y-98552000D01*
X143764000Y-97028000D02*
X140970000Y-97028000D01*
X159004000Y-100662500D02*
X147398500Y-100662500D01*
X205153500Y-100662500D02*
X209296000Y-96520000D01*
X213812000Y-98920000D02*
X213812000Y-99020000D01*
X209296000Y-96520000D02*
X211412000Y-96520000D01*
X211412000Y-96520000D02*
X213812000Y-98920000D01*
X202692000Y-100662500D02*
X205153500Y-100662500D01*
X160782000Y-102362000D02*
X145848000Y-102362000D01*
X145848000Y-102362000D02*
X142946000Y-99460000D01*
X161544000Y-101600000D02*
X160782000Y-102362000D01*
G04 #@! TA.AperFunction,Conductor*
G36*
X223462539Y-50820185D02*
G01*
X223508294Y-50872989D01*
X223519500Y-50924500D01*
X223519500Y-104015500D01*
X223499815Y-104082539D01*
X223447011Y-104128294D01*
X223395500Y-104139500D01*
X127124500Y-104139500D01*
X127057461Y-104119815D01*
X127011706Y-104067011D01*
X127000500Y-104015500D01*
X127000500Y-100000000D01*
X128758633Y-100000000D01*
X128777758Y-100291800D01*
X128777808Y-100292555D01*
X128777809Y-100292567D01*
X128835004Y-100580100D01*
X128835009Y-100580120D01*
X128929243Y-100857726D01*
X128929247Y-100857736D01*
X129058915Y-101120676D01*
X129058922Y-101120689D01*
X129119361Y-101211142D01*
X129219616Y-101361184D01*
X129221805Y-101364459D01*
X129415113Y-101584886D01*
X129568461Y-101719368D01*
X129635542Y-101778196D01*
X129879316Y-101941081D01*
X130021575Y-102011235D01*
X130142249Y-102070745D01*
X130142253Y-102070746D01*
X130142266Y-102070753D01*
X130190813Y-102087232D01*
X130196973Y-102089699D01*
X130230897Y-102105440D01*
X130254044Y-102108696D01*
X130419892Y-102164994D01*
X130474024Y-102175761D01*
X130480275Y-102177349D01*
X130515702Y-102188340D01*
X130538189Y-102188524D01*
X130707443Y-102222192D01*
X130751139Y-102225056D01*
X130766499Y-102226063D01*
X130772761Y-102226794D01*
X130808954Y-102232899D01*
X130830345Y-102230247D01*
X130932914Y-102236970D01*
X130999994Y-102241367D01*
X131000000Y-102241367D01*
X131000003Y-102241367D01*
X131005436Y-102241010D01*
X131063114Y-102237230D01*
X131069206Y-102237133D01*
X131105467Y-102238345D01*
X131125415Y-102233146D01*
X131292557Y-102222192D01*
X131358570Y-102209061D01*
X131364452Y-102208182D01*
X131400032Y-102204603D01*
X131418239Y-102197192D01*
X131580108Y-102164994D01*
X131647780Y-102142022D01*
X131653307Y-102140429D01*
X131663234Y-102138064D01*
X131663236Y-102138063D01*
X131664773Y-102137697D01*
X131664860Y-102137673D01*
X131687539Y-102132268D01*
X131703762Y-102123019D01*
X131857734Y-102070753D01*
X131925607Y-102037281D01*
X131930686Y-102035056D01*
X131942292Y-102030587D01*
X131942297Y-102030584D01*
X131943365Y-102030173D01*
X131943393Y-102030161D01*
X131962890Y-102022651D01*
X131976974Y-102011950D01*
X132120684Y-101941081D01*
X132187143Y-101896674D01*
X132191748Y-101893881D01*
X132204535Y-101886874D01*
X132204541Y-101886869D01*
X132219238Y-101878815D01*
X132228415Y-101869278D01*
X132229970Y-101868132D01*
X132232160Y-101866594D01*
X132364458Y-101778196D01*
X132427803Y-101722643D01*
X132431874Y-101719368D01*
X132445283Y-101709489D01*
X132445286Y-101709485D01*
X132446638Y-101708490D01*
X132446660Y-101708473D01*
X132456820Y-101700986D01*
X132463557Y-101691815D01*
X132468341Y-101687189D01*
X132470536Y-101685168D01*
X132584886Y-101584886D01*
X132643350Y-101518219D01*
X132646797Y-101514600D01*
X132660241Y-101501599D01*
X132660244Y-101501594D01*
X132661245Y-101500627D01*
X132661271Y-101500600D01*
X132668725Y-101493391D01*
X132673238Y-101485139D01*
X132680230Y-101476286D01*
X132682191Y-101473930D01*
X132778196Y-101364458D01*
X132829952Y-101286999D01*
X132832800Y-101283083D01*
X132845571Y-101266912D01*
X132845575Y-101266903D01*
X132845826Y-101266587D01*
X132845848Y-101266557D01*
X132851312Y-101259637D01*
X132853974Y-101252724D01*
X132861879Y-101239378D01*
X132863629Y-101236597D01*
X132941081Y-101120684D01*
X132984293Y-101033057D01*
X132986539Y-101028908D01*
X132997966Y-101009618D01*
X132997967Y-101009615D01*
X133001366Y-101003877D01*
X133002613Y-100998658D01*
X133010267Y-100980608D01*
X133011683Y-100977516D01*
X133070753Y-100857734D01*
X133103668Y-100760768D01*
X133105289Y-100756519D01*
X133114692Y-100734345D01*
X133114692Y-100734342D01*
X133114708Y-100734307D01*
X133114709Y-100734300D01*
X133116287Y-100730580D01*
X133116619Y-100727328D01*
X133121949Y-100707870D01*
X137745500Y-100707870D01*
X137745501Y-100707876D01*
X137751908Y-100767483D01*
X137802202Y-100902328D01*
X137802206Y-100902335D01*
X137888452Y-101017544D01*
X137888455Y-101017547D01*
X138003664Y-101103793D01*
X138003671Y-101103797D01*
X138138517Y-101154091D01*
X138138516Y-101154091D01*
X138145444Y-101154835D01*
X138198127Y-101160500D01*
X140693872Y-101160499D01*
X140753483Y-101154091D01*
X140888331Y-101103796D01*
X141003546Y-101017546D01*
X141089796Y-100902331D01*
X141140091Y-100767483D01*
X141146500Y-100707873D01*
X141146499Y-100184854D01*
X141166183Y-100117818D01*
X141218987Y-100072063D01*
X141288146Y-100062119D01*
X141351702Y-100091144D01*
X141385927Y-100139553D01*
X141409607Y-100199888D01*
X141537041Y-100420612D01*
X141695950Y-100619877D01*
X141882783Y-100793232D01*
X142093366Y-100936805D01*
X142093371Y-100936807D01*
X142093372Y-100936808D01*
X142093373Y-100936809D01*
X142177764Y-100977449D01*
X142322992Y-101047387D01*
X142322993Y-101047387D01*
X142322996Y-101047389D01*
X142566542Y-101122513D01*
X142818565Y-101160500D01*
X143073429Y-101160500D01*
X143073435Y-101160500D01*
X143148968Y-101149114D01*
X143218187Y-101158586D01*
X143255127Y-101184048D01*
X145131566Y-103060487D01*
X145192938Y-103125050D01*
X145192941Y-103125053D01*
X145243281Y-103160092D01*
X145247043Y-103162928D01*
X145294587Y-103201694D01*
X145294590Y-103201695D01*
X145294593Y-103201698D01*
X145325045Y-103217604D01*
X145331758Y-103221672D01*
X145359951Y-103241295D01*
X145416329Y-103265489D01*
X145420578Y-103267507D01*
X145474951Y-103295909D01*
X145502489Y-103303788D01*
X145507974Y-103305358D01*
X145515368Y-103307990D01*
X145546942Y-103321540D01*
X145546945Y-103321540D01*
X145546946Y-103321541D01*
X145607022Y-103333887D01*
X145611600Y-103335010D01*
X145613704Y-103335612D01*
X145670582Y-103351887D01*
X145704839Y-103354495D01*
X145712614Y-103355586D01*
X145746255Y-103362500D01*
X145746259Y-103362500D01*
X145807599Y-103362500D01*
X145812305Y-103362678D01*
X145839596Y-103364757D01*
X145873476Y-103367337D01*
X145873476Y-103367336D01*
X145873477Y-103367337D01*
X145907560Y-103362996D01*
X145915390Y-103362500D01*
X160769284Y-103362500D01*
X160858358Y-103364757D01*
X160858358Y-103364756D01*
X160858363Y-103364757D01*
X160918753Y-103353932D01*
X160923412Y-103353280D01*
X160965607Y-103348988D01*
X160984438Y-103347074D01*
X161017227Y-103336786D01*
X161024840Y-103334918D01*
X161058653Y-103328858D01*
X161115621Y-103306101D01*
X161120053Y-103304524D01*
X161178588Y-103286159D01*
X161208627Y-103269484D01*
X161215708Y-103266122D01*
X161247617Y-103253377D01*
X161298854Y-103219608D01*
X161302851Y-103217187D01*
X161356502Y-103187409D01*
X161382576Y-103165023D01*
X161388830Y-103160308D01*
X161417519Y-103141402D01*
X161422102Y-103136818D01*
X161483425Y-103103334D01*
X161509783Y-103100500D01*
X161668335Y-103100500D01*
X161913614Y-103059571D01*
X162148810Y-102978828D01*
X162367509Y-102860474D01*
X162563744Y-102707738D01*
X162732164Y-102524785D01*
X162868173Y-102316607D01*
X162959674Y-102108005D01*
X198646357Y-102108005D01*
X198666890Y-102355812D01*
X198666892Y-102355824D01*
X198727936Y-102596881D01*
X198827826Y-102824606D01*
X198963833Y-103032782D01*
X198963836Y-103032785D01*
X199132256Y-103215738D01*
X199328491Y-103368474D01*
X199547190Y-103486828D01*
X199782386Y-103567571D01*
X200027665Y-103608500D01*
X200276335Y-103608500D01*
X200521614Y-103567571D01*
X200756810Y-103486828D01*
X200958932Y-103377444D01*
X201017949Y-103362500D01*
X205981284Y-103362500D01*
X206070358Y-103364757D01*
X206070358Y-103364756D01*
X206070363Y-103364757D01*
X206130753Y-103353932D01*
X206135412Y-103353280D01*
X206177607Y-103348988D01*
X206196438Y-103347074D01*
X206229227Y-103336786D01*
X206236840Y-103334918D01*
X206270653Y-103328858D01*
X206327621Y-103306101D01*
X206332053Y-103304524D01*
X206390588Y-103286159D01*
X206420627Y-103269484D01*
X206427708Y-103266122D01*
X206459617Y-103253377D01*
X206510854Y-103219608D01*
X206514851Y-103217187D01*
X206568502Y-103187409D01*
X206594568Y-103165030D01*
X206600843Y-103160300D01*
X206601159Y-103160092D01*
X206629519Y-103141402D01*
X206672917Y-103098002D01*
X206676336Y-103094834D01*
X206722895Y-103054866D01*
X206743931Y-103027688D01*
X206749101Y-103021818D01*
X209014103Y-100756816D01*
X209075424Y-100723333D01*
X209101772Y-100720499D01*
X211559872Y-100720499D01*
X211619483Y-100714091D01*
X211754331Y-100663796D01*
X211869546Y-100577546D01*
X211955796Y-100462331D01*
X212006091Y-100327483D01*
X212012500Y-100267873D01*
X212012499Y-99744854D01*
X212032183Y-99677818D01*
X212084987Y-99632063D01*
X212154146Y-99622119D01*
X212217702Y-99651144D01*
X212251927Y-99699553D01*
X212275607Y-99759888D01*
X212403041Y-99980612D01*
X212561950Y-100179877D01*
X212748783Y-100353232D01*
X212959366Y-100496805D01*
X212959371Y-100496807D01*
X212959372Y-100496808D01*
X212959373Y-100496809D01*
X213009364Y-100520883D01*
X213188992Y-100607387D01*
X213188993Y-100607387D01*
X213188996Y-100607389D01*
X213432542Y-100682513D01*
X213684565Y-100720500D01*
X213939435Y-100720500D01*
X214191458Y-100682513D01*
X214435004Y-100607389D01*
X214664634Y-100496805D01*
X214875217Y-100353232D01*
X215062050Y-100179877D01*
X215205498Y-100000000D01*
X217522566Y-100000000D01*
X217541691Y-100291800D01*
X217541741Y-100292555D01*
X217541742Y-100292567D01*
X217598937Y-100580100D01*
X217598942Y-100580120D01*
X217693176Y-100857726D01*
X217693180Y-100857736D01*
X217822848Y-101120676D01*
X217822855Y-101120689D01*
X217883294Y-101211142D01*
X217983549Y-101361184D01*
X217985738Y-101364459D01*
X218179046Y-101584886D01*
X218332394Y-101719368D01*
X218399475Y-101778196D01*
X218643249Y-101941081D01*
X218785508Y-102011235D01*
X218906182Y-102070745D01*
X218906186Y-102070746D01*
X218906199Y-102070753D01*
X218954746Y-102087232D01*
X218960906Y-102089699D01*
X218994830Y-102105440D01*
X219017977Y-102108696D01*
X219183825Y-102164994D01*
X219237957Y-102175761D01*
X219244208Y-102177349D01*
X219279635Y-102188340D01*
X219302122Y-102188524D01*
X219471376Y-102222192D01*
X219515072Y-102225056D01*
X219530432Y-102226063D01*
X219536694Y-102226794D01*
X219572887Y-102232899D01*
X219594278Y-102230247D01*
X219696847Y-102236970D01*
X219763927Y-102241367D01*
X219763933Y-102241367D01*
X219763936Y-102241367D01*
X219769369Y-102241010D01*
X219827047Y-102237230D01*
X219833139Y-102237133D01*
X219869400Y-102238345D01*
X219889348Y-102233146D01*
X220056490Y-102222192D01*
X220122503Y-102209061D01*
X220128385Y-102208182D01*
X220163965Y-102204603D01*
X220182172Y-102197192D01*
X220344041Y-102164994D01*
X220411713Y-102142022D01*
X220417240Y-102140429D01*
X220427167Y-102138064D01*
X220427169Y-102138063D01*
X220428706Y-102137697D01*
X220428793Y-102137673D01*
X220451472Y-102132268D01*
X220467695Y-102123019D01*
X220621667Y-102070753D01*
X220689540Y-102037281D01*
X220694619Y-102035056D01*
X220706225Y-102030587D01*
X220706230Y-102030584D01*
X220707298Y-102030173D01*
X220707326Y-102030161D01*
X220726823Y-102022651D01*
X220740907Y-102011950D01*
X220884617Y-101941081D01*
X220951076Y-101896674D01*
X220955681Y-101893881D01*
X220968468Y-101886874D01*
X220968474Y-101886869D01*
X220983171Y-101878815D01*
X220992348Y-101869278D01*
X220993903Y-101868132D01*
X220996093Y-101866594D01*
X221128391Y-101778196D01*
X221191736Y-101722643D01*
X221195807Y-101719368D01*
X221209216Y-101709489D01*
X221209219Y-101709485D01*
X221210571Y-101708490D01*
X221210593Y-101708473D01*
X221220753Y-101700986D01*
X221227490Y-101691815D01*
X221232274Y-101687189D01*
X221234469Y-101685168D01*
X221348819Y-101584886D01*
X221407283Y-101518219D01*
X221410730Y-101514600D01*
X221424174Y-101501599D01*
X221424177Y-101501594D01*
X221425178Y-101500627D01*
X221425204Y-101500600D01*
X221432658Y-101493391D01*
X221437171Y-101485139D01*
X221444163Y-101476286D01*
X221446124Y-101473930D01*
X221542129Y-101364458D01*
X221593885Y-101286999D01*
X221596733Y-101283083D01*
X221609504Y-101266912D01*
X221609508Y-101266903D01*
X221609759Y-101266587D01*
X221609781Y-101266557D01*
X221615245Y-101259637D01*
X221617907Y-101252724D01*
X221625812Y-101239378D01*
X221627562Y-101236597D01*
X221705014Y-101120684D01*
X221748226Y-101033057D01*
X221750472Y-101028908D01*
X221761899Y-101009618D01*
X221761900Y-101009615D01*
X221765299Y-101003877D01*
X221766546Y-100998658D01*
X221774200Y-100980608D01*
X221775616Y-100977516D01*
X221834686Y-100857734D01*
X221867601Y-100760768D01*
X221869222Y-100756519D01*
X221878625Y-100734345D01*
X221878625Y-100734342D01*
X221878641Y-100734307D01*
X221878642Y-100734300D01*
X221880220Y-100730580D01*
X221880552Y-100727328D01*
X221886762Y-100704659D01*
X221887824Y-100701191D01*
X221928927Y-100580108D01*
X221949840Y-100474971D01*
X221950838Y-100470744D01*
X221957646Y-100445892D01*
X221957647Y-100445882D01*
X221957831Y-100445212D01*
X221957838Y-100445183D01*
X221958005Y-100444570D01*
X221957971Y-100443474D01*
X221961613Y-100416393D01*
X221962239Y-100412638D01*
X221986125Y-100292557D01*
X221993456Y-100180708D01*
X221993877Y-100176496D01*
X221997503Y-100149532D01*
X221997505Y-100149520D01*
X221998165Y-100109962D01*
X221998286Y-100106999D01*
X222005300Y-100000000D01*
X221998289Y-99893027D01*
X221998165Y-99890007D01*
X221998111Y-99886793D01*
X221997505Y-99850480D01*
X221994326Y-99826844D01*
X221993874Y-99823477D01*
X221993455Y-99819282D01*
X221986125Y-99707443D01*
X221962243Y-99587382D01*
X221961609Y-99583573D01*
X221957972Y-99556532D01*
X221958092Y-99555745D01*
X221958005Y-99555426D01*
X221957995Y-99555382D01*
X221954714Y-99543405D01*
X221950838Y-99529257D01*
X221949841Y-99525035D01*
X221928927Y-99419892D01*
X221887836Y-99298843D01*
X221886755Y-99295312D01*
X221880553Y-99272670D01*
X221880596Y-99270304D01*
X221869219Y-99243473D01*
X221867589Y-99239196D01*
X221855278Y-99202929D01*
X221834686Y-99142266D01*
X221775655Y-99022562D01*
X221774181Y-99019344D01*
X221766551Y-99001351D01*
X221766101Y-98997475D01*
X221750474Y-98971092D01*
X221748217Y-98966925D01*
X221705014Y-98879317D01*
X221691413Y-98858961D01*
X221627593Y-98763447D01*
X221625799Y-98760599D01*
X221617911Y-98747281D01*
X221616579Y-98742049D01*
X221611153Y-98735177D01*
X221611128Y-98735144D01*
X221596751Y-98716938D01*
X221593857Y-98712958D01*
X221542130Y-98635543D01*
X221446165Y-98526115D01*
X221444121Y-98523660D01*
X221437179Y-98514870D01*
X221434613Y-98508498D01*
X221424766Y-98498975D01*
X221424745Y-98498952D01*
X221410767Y-98485435D01*
X221407261Y-98481755D01*
X221379971Y-98450636D01*
X221348819Y-98415113D01*
X221237834Y-98317783D01*
X221234474Y-98314836D01*
X221232262Y-98312799D01*
X221227477Y-98308171D01*
X221223372Y-98300943D01*
X221210000Y-98291090D01*
X221209985Y-98291077D01*
X221195824Y-98280643D01*
X221191720Y-98277341D01*
X221128392Y-98221805D01*
X220996185Y-98133466D01*
X220993858Y-98131833D01*
X220992432Y-98130783D01*
X220986529Y-98123023D01*
X220955701Y-98106129D01*
X220951056Y-98103312D01*
X220884617Y-98058919D01*
X220800960Y-98017664D01*
X220740907Y-97988049D01*
X220731037Y-97978969D01*
X220694647Y-97964954D01*
X220689506Y-97962701D01*
X220621669Y-97929247D01*
X220621659Y-97929243D01*
X220467695Y-97876980D01*
X220456112Y-97868835D01*
X220429477Y-97862487D01*
X220429448Y-97862479D01*
X220417254Y-97859572D01*
X220411701Y-97857972D01*
X220344048Y-97835008D01*
X220344044Y-97835007D01*
X220344041Y-97835006D01*
X220323643Y-97830948D01*
X220182174Y-97802807D01*
X220168969Y-97795899D01*
X220128384Y-97791817D01*
X220122503Y-97790938D01*
X220092518Y-97784974D01*
X220056499Y-97777809D01*
X220056473Y-97777806D01*
X219889346Y-97766852D01*
X219874665Y-97761475D01*
X219833144Y-97762864D01*
X219827014Y-97762766D01*
X219763934Y-97758633D01*
X219763933Y-97758633D01*
X219750690Y-97759501D01*
X219594269Y-97769753D01*
X219578317Y-97766183D01*
X219536684Y-97773206D01*
X219530423Y-97773937D01*
X219471392Y-97777806D01*
X219471380Y-97777807D01*
X219471376Y-97777808D01*
X219471368Y-97777809D01*
X219471365Y-97777810D01*
X219302102Y-97811478D01*
X219285117Y-97809958D01*
X219244213Y-97822648D01*
X219237934Y-97824242D01*
X219183826Y-97835005D01*
X219017851Y-97891346D01*
X219000163Y-97892082D01*
X218960905Y-97910299D01*
X218954736Y-97912769D01*
X218906205Y-97929244D01*
X218906197Y-97929247D01*
X218643248Y-98058919D01*
X218399473Y-98221805D01*
X218179046Y-98415113D01*
X217985738Y-98635540D01*
X217822852Y-98879315D01*
X217693180Y-99142263D01*
X217693176Y-99142273D01*
X217598942Y-99419879D01*
X217598937Y-99419899D01*
X217541742Y-99707432D01*
X217541741Y-99707442D01*
X217541741Y-99707443D01*
X217522566Y-100000000D01*
X215205498Y-100000000D01*
X215220959Y-99980612D01*
X215348393Y-99759888D01*
X215441508Y-99522637D01*
X215498222Y-99274157D01*
X215517268Y-99020000D01*
X215515870Y-99001351D01*
X215498222Y-98765845D01*
X215491222Y-98735177D01*
X215441508Y-98517363D01*
X215348393Y-98280112D01*
X215220959Y-98059388D01*
X215062050Y-97860123D01*
X214875217Y-97686768D01*
X214664634Y-97543195D01*
X214664630Y-97543193D01*
X214664627Y-97543191D01*
X214664626Y-97543190D01*
X214435006Y-97432612D01*
X214435008Y-97432612D01*
X214191466Y-97357489D01*
X214191462Y-97357488D01*
X214191458Y-97357487D01*
X214070231Y-97339214D01*
X213939440Y-97319500D01*
X213939435Y-97319500D01*
X213684565Y-97319500D01*
X213679925Y-97319500D01*
X213679925Y-97317751D01*
X213618851Y-97304670D01*
X213590250Y-97283330D01*
X212128452Y-95821532D01*
X212067061Y-95756949D01*
X212067060Y-95756948D01*
X212067059Y-95756947D01*
X212017384Y-95722372D01*
X212016709Y-95721902D01*
X212012946Y-95719064D01*
X211965413Y-95680305D01*
X211965406Y-95680300D01*
X211934959Y-95664397D01*
X211928251Y-95660334D01*
X211900049Y-95640705D01*
X211900046Y-95640703D01*
X211900045Y-95640703D01*
X211900041Y-95640701D01*
X211843680Y-95616514D01*
X211839424Y-95614493D01*
X211785057Y-95586094D01*
X211785050Y-95586091D01*
X211785049Y-95586091D01*
X211779008Y-95584362D01*
X211752030Y-95576642D01*
X211744630Y-95574008D01*
X211713057Y-95560459D01*
X211713058Y-95560459D01*
X211652966Y-95548109D01*
X211648391Y-95546986D01*
X211589420Y-95530113D01*
X211589425Y-95530113D01*
X211555158Y-95527503D01*
X211547380Y-95526412D01*
X211513742Y-95519500D01*
X211513741Y-95519500D01*
X211452402Y-95519500D01*
X211447695Y-95519321D01*
X211442121Y-95518896D01*
X211386524Y-95514662D01*
X211366589Y-95517201D01*
X211352440Y-95519003D01*
X211344611Y-95519500D01*
X209308717Y-95519500D01*
X209219637Y-95517243D01*
X209219628Y-95517243D01*
X209159260Y-95528064D01*
X209154595Y-95528718D01*
X209093563Y-95534925D01*
X209093555Y-95534927D01*
X209060781Y-95545210D01*
X209053154Y-95547082D01*
X209019350Y-95553141D01*
X208962384Y-95575894D01*
X208957948Y-95577473D01*
X208899414Y-95595840D01*
X208899412Y-95595841D01*
X208869385Y-95612506D01*
X208862293Y-95615874D01*
X208830383Y-95628621D01*
X208779154Y-95662383D01*
X208775126Y-95664824D01*
X208721502Y-95694588D01*
X208721499Y-95694590D01*
X208695427Y-95716970D01*
X208689160Y-95721695D01*
X208660482Y-95740598D01*
X208660475Y-95740603D01*
X208617116Y-95783962D01*
X208613661Y-95787164D01*
X208567106Y-95827132D01*
X208567105Y-95827133D01*
X208546076Y-95854300D01*
X208540884Y-95860194D01*
X204775399Y-99625681D01*
X204714076Y-99659166D01*
X204687718Y-99662000D01*
X203864855Y-99662000D01*
X203797816Y-99642315D01*
X203773626Y-99621983D01*
X203711747Y-99554765D01*
X203711744Y-99554762D01*
X203538453Y-99419884D01*
X203515509Y-99402026D01*
X203515507Y-99402025D01*
X203515506Y-99402024D01*
X203296811Y-99283672D01*
X203296802Y-99283669D01*
X203061616Y-99202929D01*
X202816335Y-99162000D01*
X202567665Y-99162000D01*
X202322383Y-99202929D01*
X202087197Y-99283669D01*
X202087188Y-99283672D01*
X201868493Y-99402024D01*
X201672257Y-99554761D01*
X201503833Y-99737717D01*
X201367826Y-99945893D01*
X201267936Y-100173618D01*
X201206892Y-100414675D01*
X201206890Y-100414687D01*
X201186357Y-100662494D01*
X201186357Y-100662500D01*
X201190117Y-100707872D01*
X201193937Y-100753980D01*
X201179855Y-100822416D01*
X201131009Y-100872375D01*
X201062908Y-100887995D01*
X200997173Y-100864317D01*
X200994229Y-100862096D01*
X200975509Y-100847526D01*
X200975507Y-100847525D01*
X200975506Y-100847524D01*
X200756811Y-100729172D01*
X200756802Y-100729169D01*
X200521616Y-100648429D01*
X200276335Y-100607500D01*
X200027665Y-100607500D01*
X199782383Y-100648429D01*
X199547197Y-100729169D01*
X199547188Y-100729172D01*
X199328493Y-100847524D01*
X199132257Y-101000261D01*
X198963833Y-101183217D01*
X198827826Y-101391393D01*
X198727936Y-101619118D01*
X198666892Y-101860175D01*
X198666890Y-101860187D01*
X198646357Y-102107994D01*
X198646357Y-102108005D01*
X162959674Y-102108005D01*
X162968063Y-102088881D01*
X163029108Y-101847821D01*
X163034877Y-101778202D01*
X163049643Y-101600005D01*
X163049643Y-101599994D01*
X163029109Y-101352187D01*
X163029107Y-101352175D01*
X162968063Y-101111118D01*
X162868173Y-100883393D01*
X162732166Y-100675217D01*
X162669724Y-100607387D01*
X162563744Y-100492262D01*
X162367509Y-100339526D01*
X162367507Y-100339525D01*
X162367506Y-100339524D01*
X162148811Y-100221172D01*
X162148802Y-100221169D01*
X161913616Y-100140429D01*
X161668335Y-100099500D01*
X161419665Y-100099500D01*
X161174383Y-100140429D01*
X160939197Y-100221169D01*
X160939188Y-100221172D01*
X160735955Y-100331157D01*
X160720491Y-100339526D01*
X160707841Y-100349372D01*
X160661082Y-100385766D01*
X160596087Y-100411408D01*
X160527548Y-100397841D01*
X160477223Y-100349372D01*
X160464715Y-100318355D01*
X160428063Y-100173619D01*
X160328173Y-99945893D01*
X160248195Y-99823477D01*
X160192166Y-99737717D01*
X160170477Y-99714157D01*
X160023744Y-99554762D01*
X159827509Y-99402026D01*
X159827507Y-99402025D01*
X159827506Y-99402024D01*
X159608811Y-99283672D01*
X159608802Y-99283669D01*
X159373616Y-99202929D01*
X159128335Y-99162000D01*
X158879665Y-99162000D01*
X158634383Y-99202929D01*
X158399197Y-99283669D01*
X158399188Y-99283672D01*
X158180493Y-99402024D01*
X157984255Y-99554762D01*
X157984252Y-99554765D01*
X157922374Y-99621983D01*
X157862487Y-99657974D01*
X157831145Y-99662000D01*
X147864283Y-99662000D01*
X147797244Y-99642315D01*
X147776602Y-99625681D01*
X144480452Y-96329532D01*
X144419061Y-96264949D01*
X144419060Y-96264948D01*
X144419059Y-96264947D01*
X144391204Y-96245559D01*
X144368709Y-96229902D01*
X144364946Y-96227064D01*
X144317413Y-96188305D01*
X144317406Y-96188300D01*
X144286959Y-96172397D01*
X144280251Y-96168334D01*
X144252049Y-96148705D01*
X144252046Y-96148703D01*
X144252045Y-96148703D01*
X144252041Y-96148701D01*
X144195680Y-96124514D01*
X144191424Y-96122493D01*
X144137057Y-96094094D01*
X144137050Y-96094091D01*
X144137049Y-96094091D01*
X144131008Y-96092362D01*
X144104030Y-96084642D01*
X144096630Y-96082008D01*
X144065057Y-96068459D01*
X144065058Y-96068459D01*
X144004966Y-96056109D01*
X144000391Y-96054986D01*
X143941420Y-96038113D01*
X143941425Y-96038113D01*
X143907158Y-96035503D01*
X143899380Y-96034412D01*
X143865742Y-96027500D01*
X143865741Y-96027500D01*
X143804402Y-96027500D01*
X143799695Y-96027321D01*
X143794121Y-96026896D01*
X143738524Y-96022662D01*
X143718589Y-96025201D01*
X143704440Y-96027003D01*
X143696611Y-96027500D01*
X140982676Y-96027500D01*
X140938155Y-96026372D01*
X140893636Y-96025244D01*
X140893635Y-96025244D01*
X140893626Y-96025244D01*
X140833263Y-96036064D01*
X140828597Y-96036718D01*
X140767564Y-96042925D01*
X140734780Y-96053210D01*
X140727153Y-96055082D01*
X140693349Y-96061141D01*
X140636381Y-96083895D01*
X140631945Y-96085474D01*
X140573414Y-96103840D01*
X140573410Y-96103842D01*
X140543378Y-96120510D01*
X140536284Y-96123879D01*
X140504382Y-96136623D01*
X140504377Y-96136625D01*
X140453156Y-96170381D01*
X140449128Y-96172822D01*
X140395501Y-96202588D01*
X140369434Y-96224965D01*
X140363165Y-96229692D01*
X140334484Y-96248595D01*
X140334478Y-96248600D01*
X140291109Y-96291968D01*
X140287655Y-96295169D01*
X140241102Y-96335136D01*
X140220076Y-96362298D01*
X140214885Y-96368192D01*
X138859897Y-97723181D01*
X138798574Y-97756666D01*
X138772216Y-97759500D01*
X138198129Y-97759500D01*
X138198123Y-97759501D01*
X138138516Y-97765908D01*
X138003671Y-97816202D01*
X138003664Y-97816206D01*
X137888455Y-97902452D01*
X137888452Y-97902455D01*
X137802206Y-98017664D01*
X137802202Y-98017671D01*
X137751908Y-98152517D01*
X137745501Y-98212116D01*
X137745500Y-98212135D01*
X137745500Y-100707870D01*
X133121949Y-100707870D01*
X133122829Y-100704659D01*
X133123891Y-100701191D01*
X133164994Y-100580108D01*
X133185907Y-100474971D01*
X133186905Y-100470744D01*
X133193713Y-100445892D01*
X133193714Y-100445882D01*
X133193898Y-100445212D01*
X133193905Y-100445183D01*
X133194072Y-100444570D01*
X133194038Y-100443474D01*
X133197680Y-100416393D01*
X133198306Y-100412638D01*
X133222192Y-100292557D01*
X133229523Y-100180708D01*
X133229944Y-100176496D01*
X133233570Y-100149532D01*
X133233572Y-100149520D01*
X133234232Y-100109962D01*
X133234353Y-100106999D01*
X133241367Y-100000000D01*
X133234356Y-99893027D01*
X133234232Y-99890007D01*
X133234178Y-99886793D01*
X133233572Y-99850480D01*
X133230393Y-99826844D01*
X133229941Y-99823477D01*
X133229522Y-99819282D01*
X133222192Y-99707443D01*
X133198310Y-99587382D01*
X133197676Y-99583573D01*
X133194039Y-99556532D01*
X133194159Y-99555745D01*
X133194072Y-99555426D01*
X133194062Y-99555382D01*
X133190781Y-99543405D01*
X133186905Y-99529257D01*
X133185908Y-99525035D01*
X133164994Y-99419892D01*
X133123903Y-99298843D01*
X133122822Y-99295312D01*
X133116620Y-99272670D01*
X133116663Y-99270304D01*
X133105286Y-99243473D01*
X133103656Y-99239196D01*
X133091345Y-99202929D01*
X133070753Y-99142266D01*
X133011722Y-99022562D01*
X133010248Y-99019344D01*
X133002618Y-99001351D01*
X133002168Y-98997475D01*
X132986541Y-98971092D01*
X132984284Y-98966925D01*
X132941081Y-98879317D01*
X132927480Y-98858961D01*
X132863660Y-98763447D01*
X132861866Y-98760599D01*
X132853978Y-98747281D01*
X132852646Y-98742049D01*
X132847220Y-98735177D01*
X132847195Y-98735144D01*
X132832818Y-98716938D01*
X132829924Y-98712958D01*
X132778197Y-98635543D01*
X132682232Y-98526115D01*
X132680188Y-98523660D01*
X132673246Y-98514870D01*
X132670680Y-98508498D01*
X132660833Y-98498975D01*
X132660812Y-98498952D01*
X132646834Y-98485435D01*
X132643328Y-98481755D01*
X132616038Y-98450636D01*
X132584886Y-98415113D01*
X132473901Y-98317783D01*
X132470541Y-98314836D01*
X132468329Y-98312799D01*
X132463544Y-98308171D01*
X132459439Y-98300943D01*
X132446067Y-98291090D01*
X132446052Y-98291077D01*
X132431891Y-98280643D01*
X132427787Y-98277341D01*
X132364459Y-98221805D01*
X132232252Y-98133466D01*
X132229925Y-98131833D01*
X132228499Y-98130783D01*
X132222596Y-98123023D01*
X132191768Y-98106129D01*
X132187123Y-98103312D01*
X132120684Y-98058919D01*
X132037027Y-98017664D01*
X131976974Y-97988049D01*
X131967104Y-97978969D01*
X131930714Y-97964954D01*
X131925573Y-97962701D01*
X131857736Y-97929247D01*
X131857726Y-97929243D01*
X131703762Y-97876980D01*
X131692179Y-97868835D01*
X131665544Y-97862487D01*
X131665515Y-97862479D01*
X131653321Y-97859572D01*
X131647768Y-97857972D01*
X131580115Y-97835008D01*
X131580111Y-97835007D01*
X131580108Y-97835006D01*
X131559710Y-97830948D01*
X131418241Y-97802807D01*
X131405036Y-97795899D01*
X131364451Y-97791817D01*
X131358570Y-97790938D01*
X131328585Y-97784974D01*
X131292566Y-97777809D01*
X131292540Y-97777806D01*
X131125413Y-97766852D01*
X131110732Y-97761475D01*
X131069211Y-97762864D01*
X131063081Y-97762766D01*
X131000001Y-97758633D01*
X131000000Y-97758633D01*
X130986757Y-97759501D01*
X130830336Y-97769753D01*
X130814384Y-97766183D01*
X130772751Y-97773206D01*
X130766490Y-97773937D01*
X130707459Y-97777806D01*
X130707447Y-97777807D01*
X130707443Y-97777808D01*
X130707435Y-97777809D01*
X130707432Y-97777810D01*
X130538169Y-97811478D01*
X130521184Y-97809958D01*
X130480280Y-97822648D01*
X130474001Y-97824242D01*
X130419893Y-97835005D01*
X130253918Y-97891346D01*
X130236230Y-97892082D01*
X130196972Y-97910299D01*
X130190803Y-97912769D01*
X130142272Y-97929244D01*
X130142264Y-97929247D01*
X129879315Y-98058919D01*
X129635540Y-98221805D01*
X129415113Y-98415113D01*
X129221805Y-98635540D01*
X129058919Y-98879315D01*
X128929247Y-99142263D01*
X128929243Y-99142273D01*
X128835009Y-99419879D01*
X128835004Y-99419899D01*
X128777809Y-99707432D01*
X128777808Y-99707442D01*
X128777808Y-99707443D01*
X128758633Y-100000000D01*
X127000500Y-100000000D01*
X127000500Y-94565000D01*
X157489001Y-94565000D01*
X157489001Y-95662844D01*
X157495402Y-95722372D01*
X157495404Y-95722379D01*
X157545646Y-95857086D01*
X157545650Y-95857093D01*
X157631810Y-95972187D01*
X157631813Y-95972190D01*
X157746907Y-96058350D01*
X157746914Y-96058354D01*
X157881621Y-96108596D01*
X157881628Y-96108598D01*
X157941156Y-96114999D01*
X157941173Y-96115000D01*
X159389001Y-96115000D01*
X159389001Y-95225255D01*
X159408686Y-95158216D01*
X159461490Y-95112461D01*
X159530648Y-95102517D01*
X159570626Y-95115458D01*
X159598332Y-95130000D01*
X159659037Y-95130000D01*
X159659037Y-95129999D01*
X159704451Y-95118806D01*
X159732595Y-95111870D01*
X159733561Y-95115790D01*
X159775879Y-95107311D01*
X159840933Y-95132801D01*
X159881879Y-95189415D01*
X159889001Y-95230833D01*
X159889001Y-96115000D01*
X161336829Y-96115000D01*
X161336845Y-96114999D01*
X161396373Y-96108598D01*
X161396380Y-96108596D01*
X161531087Y-96058354D01*
X161531094Y-96058350D01*
X161646188Y-95972190D01*
X161646191Y-95972187D01*
X161732351Y-95857093D01*
X161732355Y-95857086D01*
X161782597Y-95722379D01*
X161782599Y-95722372D01*
X161789000Y-95662844D01*
X161789001Y-95662827D01*
X161789001Y-95589727D01*
X198636999Y-95589727D01*
X198637000Y-95589744D01*
X198643401Y-95649272D01*
X198643403Y-95649279D01*
X198693645Y-95783986D01*
X198693649Y-95783993D01*
X198779809Y-95899087D01*
X198779812Y-95899090D01*
X198894906Y-95985250D01*
X198894913Y-95985254D01*
X199029620Y-96035496D01*
X199029627Y-96035498D01*
X199089155Y-96041899D01*
X199089172Y-96041900D01*
X200537000Y-96041900D01*
X200537000Y-95152155D01*
X200556685Y-95085116D01*
X200609489Y-95039361D01*
X200678647Y-95029417D01*
X200718625Y-95042358D01*
X200746331Y-95056900D01*
X200807036Y-95056900D01*
X200807036Y-95056899D01*
X200852450Y-95045706D01*
X200880594Y-95038770D01*
X200881560Y-95042690D01*
X200923878Y-95034211D01*
X200988932Y-95059701D01*
X201029878Y-95116315D01*
X201037000Y-95157733D01*
X201037000Y-96041900D01*
X202484828Y-96041900D01*
X202484844Y-96041899D01*
X202544372Y-96035498D01*
X202544379Y-96035496D01*
X202679086Y-95985254D01*
X202679093Y-95985250D01*
X202794187Y-95899090D01*
X202794190Y-95899087D01*
X202880350Y-95783993D01*
X202880354Y-95783986D01*
X202930596Y-95649279D01*
X202930598Y-95649272D01*
X202936999Y-95589744D01*
X202936999Y-95589727D01*
X202937000Y-94491900D01*
X201037000Y-94491900D01*
X201037000Y-94631644D01*
X201017315Y-94698683D01*
X200964511Y-94744438D01*
X200895353Y-94754382D01*
X200855376Y-94741442D01*
X200827669Y-94726900D01*
X200766965Y-94726900D01*
X200766963Y-94726900D01*
X200693406Y-94745030D01*
X200692440Y-94741110D01*
X200650087Y-94749585D01*
X200585040Y-94724076D01*
X200544110Y-94667450D01*
X200537000Y-94626066D01*
X200537000Y-94491900D01*
X198637000Y-94491900D01*
X198636999Y-95589727D01*
X161789001Y-95589727D01*
X161789001Y-94565000D01*
X159889001Y-94565000D01*
X159889001Y-94704744D01*
X159869316Y-94771783D01*
X159816512Y-94817538D01*
X159747354Y-94827482D01*
X159707377Y-94814542D01*
X159679670Y-94800000D01*
X159618966Y-94800000D01*
X159618964Y-94800000D01*
X159545407Y-94818130D01*
X159544441Y-94814210D01*
X159502088Y-94822685D01*
X159437041Y-94797176D01*
X159396111Y-94740550D01*
X159389001Y-94699166D01*
X159389001Y-94565000D01*
X157489001Y-94565000D01*
X127000500Y-94565000D01*
X127000500Y-91440005D01*
X145306357Y-91440005D01*
X145326890Y-91687812D01*
X145326892Y-91687824D01*
X145387936Y-91928881D01*
X145487826Y-92156606D01*
X145623833Y-92364782D01*
X145623836Y-92364785D01*
X145792256Y-92547738D01*
X145988491Y-92700474D01*
X145988493Y-92700475D01*
X146122346Y-92772913D01*
X146207190Y-92818828D01*
X146442386Y-92899571D01*
X146687665Y-92940500D01*
X146936335Y-92940500D01*
X147181614Y-92899571D01*
X147416810Y-92818828D01*
X147635509Y-92700474D01*
X147831744Y-92547738D01*
X147871019Y-92505074D01*
X147893626Y-92480517D01*
X147953513Y-92444526D01*
X147984855Y-92440500D01*
X157549761Y-92440500D01*
X157616800Y-92460185D01*
X157662555Y-92512989D01*
X157672499Y-92582147D01*
X157643474Y-92645703D01*
X157637442Y-92652181D01*
X157631810Y-92657812D01*
X157545650Y-92772906D01*
X157545646Y-92772913D01*
X157495404Y-92907620D01*
X157495402Y-92907627D01*
X157489001Y-92967155D01*
X157489001Y-94065000D01*
X161789001Y-94065000D01*
X161789001Y-92967172D01*
X161789000Y-92967155D01*
X161782599Y-92907627D01*
X161782597Y-92907620D01*
X161732355Y-92772913D01*
X161732351Y-92772906D01*
X161646191Y-92657812D01*
X161640560Y-92652181D01*
X161607075Y-92590858D01*
X161612059Y-92521166D01*
X161653931Y-92465233D01*
X161719395Y-92440816D01*
X161728241Y-92440500D01*
X186787145Y-92440500D01*
X186854184Y-92460185D01*
X186878374Y-92480517D01*
X186940252Y-92547734D01*
X186940256Y-92547738D01*
X187136491Y-92700474D01*
X187136493Y-92700475D01*
X187270346Y-92772913D01*
X187355190Y-92818828D01*
X187590386Y-92899571D01*
X187835665Y-92940500D01*
X188084335Y-92940500D01*
X188329614Y-92899571D01*
X188564810Y-92818828D01*
X188783509Y-92700474D01*
X188979744Y-92547738D01*
X189019019Y-92505074D01*
X189041626Y-92480517D01*
X189101513Y-92444526D01*
X189132855Y-92440500D01*
X198640045Y-92440500D01*
X198707084Y-92460185D01*
X198752839Y-92512989D01*
X198762783Y-92582147D01*
X198739311Y-92638811D01*
X198693649Y-92699806D01*
X198693645Y-92699813D01*
X198643403Y-92834520D01*
X198643401Y-92834527D01*
X198637000Y-92894055D01*
X198636999Y-92894072D01*
X198637000Y-93991900D01*
X202937000Y-93991900D01*
X202936999Y-92894072D01*
X202936999Y-92894055D01*
X202930598Y-92834527D01*
X202930596Y-92834520D01*
X202880354Y-92699813D01*
X202880350Y-92699806D01*
X202834689Y-92638811D01*
X202810271Y-92573347D01*
X202825122Y-92505074D01*
X202874527Y-92455668D01*
X202933955Y-92440500D01*
X203187284Y-92440500D01*
X203276358Y-92442757D01*
X203276358Y-92442756D01*
X203276363Y-92442757D01*
X203336753Y-92431932D01*
X203341412Y-92431280D01*
X203383607Y-92426988D01*
X203402438Y-92425074D01*
X203435227Y-92414786D01*
X203442840Y-92412918D01*
X203476653Y-92406858D01*
X203533621Y-92384101D01*
X203538053Y-92382524D01*
X203596588Y-92364159D01*
X203626627Y-92347484D01*
X203633708Y-92344122D01*
X203665617Y-92331377D01*
X203716854Y-92297608D01*
X203720851Y-92295187D01*
X203774502Y-92265409D01*
X203800568Y-92243030D01*
X203806843Y-92238300D01*
X203835519Y-92219402D01*
X203878892Y-92176027D01*
X203882350Y-92172823D01*
X203885613Y-92170020D01*
X203928895Y-92132866D01*
X203949928Y-92105691D01*
X203955098Y-92099821D01*
X205168468Y-90886451D01*
X205233053Y-90825059D01*
X205268099Y-90774706D01*
X205270938Y-90770941D01*
X205274612Y-90766435D01*
X205309698Y-90723407D01*
X205325601Y-90692960D01*
X205329674Y-90686239D01*
X205334489Y-90679320D01*
X205349295Y-90658049D01*
X205373492Y-90601660D01*
X205375498Y-90597435D01*
X205403909Y-90543049D01*
X205413357Y-90510022D01*
X205415988Y-90502633D01*
X205429540Y-90471058D01*
X205441895Y-90410930D01*
X205442999Y-90406429D01*
X205459886Y-90347418D01*
X205462494Y-90313157D01*
X205463585Y-90305389D01*
X205470500Y-90271743D01*
X205470500Y-90210398D01*
X205470679Y-90205688D01*
X205472671Y-90179526D01*
X205475337Y-90144524D01*
X205470997Y-90110442D01*
X205470500Y-90102603D01*
X205470500Y-88349782D01*
X205490185Y-88282743D01*
X205506819Y-88262101D01*
X209682101Y-84086819D01*
X209743424Y-84053334D01*
X209769782Y-84050500D01*
X209928335Y-84050500D01*
X210173614Y-84009571D01*
X210408810Y-83928828D01*
X210627509Y-83810474D01*
X210823744Y-83657738D01*
X210992164Y-83474785D01*
X211128173Y-83266607D01*
X211228063Y-83038881D01*
X211289108Y-82797821D01*
X211309643Y-82550000D01*
X211289108Y-82302179D01*
X211228063Y-82061119D01*
X211128173Y-81833393D01*
X211128172Y-81833393D01*
X210992166Y-81625217D01*
X210970557Y-81601744D01*
X210823744Y-81442262D01*
X210627509Y-81289526D01*
X210627507Y-81289525D01*
X210627506Y-81289524D01*
X210408811Y-81171172D01*
X210408802Y-81171169D01*
X210173616Y-81090429D01*
X209928335Y-81049500D01*
X209679665Y-81049500D01*
X209434383Y-81090429D01*
X209199197Y-81171169D01*
X209199188Y-81171172D01*
X208980493Y-81289524D01*
X208784257Y-81442261D01*
X208615833Y-81625217D01*
X208479826Y-81833393D01*
X208379936Y-82061118D01*
X208318892Y-82302175D01*
X208318890Y-82302187D01*
X208298357Y-82549994D01*
X208298357Y-82550000D01*
X208300553Y-82576500D01*
X208286471Y-82644936D01*
X208264657Y-82674420D01*
X203771532Y-87167546D01*
X203706946Y-87228942D01*
X203671899Y-87279294D01*
X203669062Y-87283056D01*
X203630302Y-87330592D01*
X203630299Y-87330597D01*
X203614392Y-87361047D01*
X203610324Y-87367761D01*
X203590702Y-87395954D01*
X203566509Y-87452330D01*
X203564488Y-87456584D01*
X203536091Y-87510951D01*
X203536090Y-87510952D01*
X203526640Y-87543975D01*
X203524007Y-87551371D01*
X203510459Y-87582943D01*
X203498113Y-87643019D01*
X203496990Y-87647595D01*
X203480113Y-87706577D01*
X203480113Y-87706579D01*
X203477503Y-87740841D01*
X203476414Y-87748608D01*
X203470980Y-87775052D01*
X203469500Y-87782258D01*
X203469500Y-87843597D01*
X203469321Y-87848306D01*
X203464662Y-87909473D01*
X203469002Y-87943549D01*
X203469499Y-87951389D01*
X203469499Y-89704217D01*
X203449814Y-89771256D01*
X203433180Y-89791898D01*
X202821899Y-90403181D01*
X202760576Y-90436666D01*
X202734218Y-90439500D01*
X189132855Y-90439500D01*
X189065816Y-90419815D01*
X189041626Y-90399483D01*
X188979747Y-90332265D01*
X188979744Y-90332262D01*
X188823173Y-90210398D01*
X188783509Y-90179526D01*
X188783507Y-90179525D01*
X188783506Y-90179524D01*
X188564811Y-90061172D01*
X188564802Y-90061169D01*
X188329616Y-89980429D01*
X188084335Y-89939500D01*
X187835665Y-89939500D01*
X187590383Y-89980429D01*
X187355197Y-90061169D01*
X187355188Y-90061172D01*
X187136493Y-90179524D01*
X186940255Y-90332262D01*
X186940252Y-90332265D01*
X186878374Y-90399483D01*
X186818487Y-90435474D01*
X186787145Y-90439500D01*
X147984855Y-90439500D01*
X147917816Y-90419815D01*
X147893626Y-90399483D01*
X147831747Y-90332265D01*
X147831744Y-90332262D01*
X147675173Y-90210398D01*
X147635509Y-90179526D01*
X147635507Y-90179525D01*
X147635506Y-90179524D01*
X147416811Y-90061172D01*
X147416802Y-90061169D01*
X147181616Y-89980429D01*
X146936335Y-89939500D01*
X146687665Y-89939500D01*
X146442383Y-89980429D01*
X146207197Y-90061169D01*
X146207188Y-90061172D01*
X145988493Y-90179524D01*
X145792257Y-90332261D01*
X145623833Y-90515217D01*
X145487826Y-90723393D01*
X145387936Y-90951118D01*
X145326892Y-91192175D01*
X145326890Y-91192187D01*
X145306357Y-91439994D01*
X145306357Y-91440005D01*
X127000500Y-91440005D01*
X127000500Y-84423683D01*
X148211500Y-84423683D01*
X148250338Y-84631450D01*
X148250339Y-84631452D01*
X148326690Y-84828539D01*
X148326691Y-84828540D01*
X148326692Y-84828542D01*
X148414732Y-84970732D01*
X148437963Y-85008250D01*
X148580355Y-85164448D01*
X148580358Y-85164450D01*
X148749032Y-85291827D01*
X148938237Y-85386040D01*
X148938243Y-85386043D01*
X149112011Y-85435483D01*
X149141536Y-85443884D01*
X149299271Y-85458500D01*
X149299275Y-85458500D01*
X149404725Y-85458500D01*
X149404729Y-85458500D01*
X149562464Y-85443884D01*
X149649350Y-85419162D01*
X149765756Y-85386043D01*
X149765758Y-85386041D01*
X149765761Y-85386041D01*
X149954968Y-85291827D01*
X150123642Y-85164450D01*
X150266038Y-85008249D01*
X150362074Y-84853144D01*
X150414100Y-84806510D01*
X150483082Y-84795406D01*
X150547116Y-84823359D01*
X150585873Y-84881494D01*
X150591500Y-84918423D01*
X150591500Y-85165869D01*
X150591501Y-85165876D01*
X150597908Y-85225483D01*
X150648202Y-85360328D01*
X150648206Y-85360335D01*
X150734452Y-85475544D01*
X150734455Y-85475547D01*
X150849664Y-85561793D01*
X150849671Y-85561797D01*
X150984517Y-85612091D01*
X150984516Y-85612091D01*
X150991444Y-85612835D01*
X151044127Y-85618500D01*
X152739872Y-85618499D01*
X152799483Y-85612091D01*
X152934331Y-85561796D01*
X153049546Y-85475546D01*
X153135796Y-85360331D01*
X153186091Y-85225483D01*
X153189862Y-85190401D01*
X153216599Y-85125855D01*
X153273990Y-85086006D01*
X153343816Y-85083511D01*
X153403905Y-85119163D01*
X153414726Y-85132536D01*
X153431956Y-85157143D01*
X153592858Y-85318045D01*
X153592861Y-85318047D01*
X153779266Y-85448568D01*
X153985504Y-85544739D01*
X154205308Y-85603635D01*
X154367230Y-85617801D01*
X154431998Y-85623468D01*
X154432000Y-85623468D01*
X154432002Y-85623468D01*
X154488807Y-85618498D01*
X154658692Y-85603635D01*
X154878496Y-85544739D01*
X155084734Y-85448568D01*
X155271139Y-85318047D01*
X155432047Y-85157139D01*
X155562568Y-84970734D01*
X155589618Y-84912724D01*
X155635790Y-84860285D01*
X155702983Y-84841133D01*
X155769865Y-84861348D01*
X155814382Y-84912725D01*
X155841429Y-84970728D01*
X155841432Y-84970734D01*
X155971954Y-85157141D01*
X156132858Y-85318045D01*
X156132861Y-85318047D01*
X156319266Y-85448568D01*
X156525504Y-85544739D01*
X156745308Y-85603635D01*
X156907230Y-85617801D01*
X156971998Y-85623468D01*
X156972000Y-85623468D01*
X156972002Y-85623468D01*
X157028807Y-85618498D01*
X157198692Y-85603635D01*
X157418496Y-85544739D01*
X157624734Y-85448568D01*
X157811139Y-85318047D01*
X157972047Y-85157139D01*
X158102568Y-84970734D01*
X158129895Y-84912129D01*
X158176064Y-84859695D01*
X158243257Y-84840542D01*
X158310139Y-84860757D01*
X158354657Y-84912133D01*
X158381865Y-84970482D01*
X158512342Y-85156820D01*
X158673179Y-85317657D01*
X158859517Y-85448134D01*
X159065673Y-85544265D01*
X159065682Y-85544269D01*
X159261999Y-85596872D01*
X159262000Y-85596871D01*
X159262000Y-84930301D01*
X159281685Y-84863262D01*
X159334489Y-84817507D01*
X159403647Y-84807563D01*
X159476237Y-84818000D01*
X159476238Y-84818000D01*
X159547762Y-84818000D01*
X159547763Y-84818000D01*
X159620353Y-84807563D01*
X159689512Y-84817507D01*
X159742315Y-84863262D01*
X159762000Y-84930301D01*
X159762000Y-85596872D01*
X159958317Y-85544269D01*
X159958326Y-85544265D01*
X160164482Y-85448134D01*
X160350820Y-85317657D01*
X160511657Y-85156820D01*
X160642132Y-84970484D01*
X160669341Y-84912134D01*
X160715513Y-84859695D01*
X160782707Y-84840542D01*
X160849588Y-84860757D01*
X160894106Y-84912133D01*
X160921431Y-84970732D01*
X160921432Y-84970734D01*
X161051954Y-85157141D01*
X161212858Y-85318045D01*
X161212861Y-85318047D01*
X161399266Y-85448568D01*
X161605504Y-85544739D01*
X161825308Y-85603635D01*
X161987230Y-85617801D01*
X162051998Y-85623468D01*
X162052000Y-85623468D01*
X162052002Y-85623468D01*
X162108807Y-85618498D01*
X162278692Y-85603635D01*
X162498496Y-85544739D01*
X162704734Y-85448568D01*
X162891139Y-85318047D01*
X163052047Y-85157139D01*
X163182568Y-84970734D01*
X163209618Y-84912724D01*
X163255790Y-84860285D01*
X163322983Y-84841133D01*
X163389865Y-84861348D01*
X163434382Y-84912725D01*
X163461429Y-84970728D01*
X163461432Y-84970734D01*
X163591954Y-85157141D01*
X163752858Y-85318045D01*
X163752861Y-85318047D01*
X163939266Y-85448568D01*
X164145504Y-85544739D01*
X164365308Y-85603635D01*
X164527230Y-85617801D01*
X164591998Y-85623468D01*
X164592000Y-85623468D01*
X164592002Y-85623468D01*
X164648807Y-85618498D01*
X164818692Y-85603635D01*
X165038496Y-85544739D01*
X165244734Y-85448568D01*
X165431139Y-85318047D01*
X165592047Y-85157139D01*
X165722568Y-84970734D01*
X165749618Y-84912724D01*
X165795790Y-84860285D01*
X165862983Y-84841133D01*
X165929865Y-84861348D01*
X165974382Y-84912725D01*
X166001429Y-84970728D01*
X166001432Y-84970734D01*
X166131954Y-85157141D01*
X166292858Y-85318045D01*
X166292861Y-85318047D01*
X166479266Y-85448568D01*
X166685504Y-85544739D01*
X166905308Y-85603635D01*
X167067230Y-85617801D01*
X167131998Y-85623468D01*
X167132000Y-85623468D01*
X167132002Y-85623468D01*
X167188807Y-85618498D01*
X167358692Y-85603635D01*
X167578496Y-85544739D01*
X167784734Y-85448568D01*
X167971139Y-85318047D01*
X168132047Y-85157139D01*
X168262568Y-84970734D01*
X168289618Y-84912724D01*
X168335790Y-84860285D01*
X168402983Y-84841133D01*
X168469865Y-84861348D01*
X168514382Y-84912725D01*
X168541429Y-84970728D01*
X168541432Y-84970734D01*
X168671954Y-85157141D01*
X168832858Y-85318045D01*
X168832861Y-85318047D01*
X169019266Y-85448568D01*
X169225504Y-85544739D01*
X169445308Y-85603635D01*
X169607230Y-85617801D01*
X169671998Y-85623468D01*
X169672000Y-85623468D01*
X169672002Y-85623468D01*
X169728807Y-85618498D01*
X169898692Y-85603635D01*
X170118496Y-85544739D01*
X170324734Y-85448568D01*
X170511139Y-85318047D01*
X170672047Y-85157139D01*
X170802568Y-84970734D01*
X170829618Y-84912724D01*
X170875790Y-84860285D01*
X170942983Y-84841133D01*
X171009865Y-84861348D01*
X171054382Y-84912725D01*
X171081429Y-84970728D01*
X171081432Y-84970734D01*
X171211954Y-85157141D01*
X171372858Y-85318045D01*
X171372861Y-85318047D01*
X171559266Y-85448568D01*
X171765504Y-85544739D01*
X171985308Y-85603635D01*
X172147230Y-85617801D01*
X172211998Y-85623468D01*
X172212000Y-85623468D01*
X172212002Y-85623468D01*
X172268807Y-85618498D01*
X172438692Y-85603635D01*
X172658496Y-85544739D01*
X172864734Y-85448568D01*
X173051139Y-85318047D01*
X173212047Y-85157139D01*
X173342568Y-84970734D01*
X173369618Y-84912724D01*
X173415790Y-84860285D01*
X173482983Y-84841133D01*
X173549865Y-84861348D01*
X173594382Y-84912725D01*
X173621429Y-84970728D01*
X173621432Y-84970734D01*
X173751954Y-85157141D01*
X173912858Y-85318045D01*
X173912861Y-85318047D01*
X174099266Y-85448568D01*
X174305504Y-85544739D01*
X174525308Y-85603635D01*
X174687230Y-85617801D01*
X174751998Y-85623468D01*
X174752000Y-85623468D01*
X174752002Y-85623468D01*
X174808807Y-85618498D01*
X174978692Y-85603635D01*
X175198496Y-85544739D01*
X175404734Y-85448568D01*
X175591139Y-85318047D01*
X175752047Y-85157139D01*
X175882568Y-84970734D01*
X175909618Y-84912724D01*
X175955790Y-84860285D01*
X176022983Y-84841133D01*
X176089865Y-84861348D01*
X176134382Y-84912725D01*
X176161429Y-84970728D01*
X176161432Y-84970734D01*
X176291954Y-85157141D01*
X176452858Y-85318045D01*
X176452861Y-85318047D01*
X176639266Y-85448568D01*
X176845504Y-85544739D01*
X177065308Y-85603635D01*
X177227230Y-85617801D01*
X177291998Y-85623468D01*
X177292000Y-85623468D01*
X177292002Y-85623468D01*
X177348807Y-85618498D01*
X177518692Y-85603635D01*
X177738496Y-85544739D01*
X177944734Y-85448568D01*
X178131139Y-85318047D01*
X178292047Y-85157139D01*
X178422568Y-84970734D01*
X178449618Y-84912724D01*
X178495790Y-84860285D01*
X178562983Y-84841133D01*
X178629865Y-84861348D01*
X178674382Y-84912725D01*
X178701429Y-84970728D01*
X178701432Y-84970734D01*
X178831954Y-85157141D01*
X178992858Y-85318045D01*
X178992861Y-85318047D01*
X179179266Y-85448568D01*
X179385504Y-85544739D01*
X179605308Y-85603635D01*
X179767230Y-85617801D01*
X179831998Y-85623468D01*
X179832000Y-85623468D01*
X179832002Y-85623468D01*
X179888807Y-85618498D01*
X180058692Y-85603635D01*
X180278496Y-85544739D01*
X180484734Y-85448568D01*
X180671139Y-85318047D01*
X180832047Y-85157139D01*
X180962568Y-84970734D01*
X180989618Y-84912724D01*
X181035790Y-84860285D01*
X181102983Y-84841133D01*
X181169865Y-84861348D01*
X181214382Y-84912725D01*
X181241429Y-84970728D01*
X181241432Y-84970734D01*
X181371954Y-85157141D01*
X181532858Y-85318045D01*
X181532861Y-85318047D01*
X181719266Y-85448568D01*
X181925504Y-85544739D01*
X182145308Y-85603635D01*
X182307230Y-85617801D01*
X182371998Y-85623468D01*
X182372000Y-85623468D01*
X182372002Y-85623468D01*
X182428807Y-85618498D01*
X182598692Y-85603635D01*
X182818496Y-85544739D01*
X183024734Y-85448568D01*
X183211139Y-85318047D01*
X183372047Y-85157139D01*
X183502568Y-84970734D01*
X183529618Y-84912724D01*
X183575790Y-84860285D01*
X183642983Y-84841133D01*
X183709865Y-84861348D01*
X183754382Y-84912725D01*
X183781429Y-84970728D01*
X183781432Y-84970734D01*
X183911954Y-85157141D01*
X184072858Y-85318045D01*
X184072861Y-85318047D01*
X184259266Y-85448568D01*
X184465504Y-85544739D01*
X184685308Y-85603635D01*
X184847230Y-85617801D01*
X184911998Y-85623468D01*
X184912000Y-85623468D01*
X184912002Y-85623468D01*
X184968807Y-85618498D01*
X185138692Y-85603635D01*
X185358496Y-85544739D01*
X185564734Y-85448568D01*
X185751139Y-85318047D01*
X185912047Y-85157139D01*
X186042568Y-84970734D01*
X186069618Y-84912724D01*
X186115790Y-84860285D01*
X186182983Y-84841133D01*
X186249865Y-84861348D01*
X186294382Y-84912725D01*
X186321429Y-84970728D01*
X186321432Y-84970734D01*
X186451954Y-85157141D01*
X186612858Y-85318045D01*
X186612861Y-85318047D01*
X186799266Y-85448568D01*
X187005504Y-85544739D01*
X187225308Y-85603635D01*
X187387230Y-85617801D01*
X187451998Y-85623468D01*
X187452000Y-85623468D01*
X187452002Y-85623468D01*
X187508807Y-85618498D01*
X187678692Y-85603635D01*
X187898496Y-85544739D01*
X188104734Y-85448568D01*
X188291139Y-85318047D01*
X188452047Y-85157139D01*
X188582568Y-84970734D01*
X188678739Y-84764496D01*
X188688069Y-84729675D01*
X188724430Y-84670018D01*
X188787276Y-84639487D01*
X188856652Y-84647779D01*
X188910531Y-84692263D01*
X188923469Y-84716974D01*
X188966688Y-84828533D01*
X188966691Y-84828539D01*
X188966692Y-84828542D01*
X189054732Y-84970732D01*
X189077963Y-85008250D01*
X189220355Y-85164448D01*
X189220358Y-85164450D01*
X189389032Y-85291827D01*
X189578237Y-85386040D01*
X189578243Y-85386043D01*
X189752011Y-85435483D01*
X189781536Y-85443884D01*
X189939271Y-85458500D01*
X189939275Y-85458500D01*
X190044725Y-85458500D01*
X190044729Y-85458500D01*
X190202464Y-85443884D01*
X190289350Y-85419162D01*
X190405756Y-85386043D01*
X190405758Y-85386041D01*
X190405761Y-85386041D01*
X190594968Y-85291827D01*
X190763642Y-85164450D01*
X190906038Y-85008249D01*
X191017308Y-84828542D01*
X191093662Y-84631450D01*
X191132500Y-84423683D01*
X191132500Y-84212317D01*
X191093662Y-84004550D01*
X191018477Y-83810475D01*
X191017309Y-83807460D01*
X191017308Y-83807459D01*
X191017308Y-83807458D01*
X190906038Y-83627751D01*
X190886141Y-83605925D01*
X190763644Y-83471551D01*
X190594968Y-83344173D01*
X190405762Y-83249959D01*
X190405756Y-83249956D01*
X190202466Y-83192116D01*
X190202463Y-83192115D01*
X190090472Y-83181738D01*
X190044729Y-83177500D01*
X189939271Y-83177500D01*
X189896619Y-83181452D01*
X189781536Y-83192115D01*
X189781533Y-83192116D01*
X189578243Y-83249956D01*
X189578237Y-83249959D01*
X189389031Y-83344173D01*
X189220355Y-83471551D01*
X189077963Y-83627749D01*
X188966691Y-83807459D01*
X188966687Y-83807466D01*
X188923469Y-83919025D01*
X188880896Y-83974426D01*
X188815129Y-83998016D01*
X188747049Y-83982304D01*
X188698270Y-83932280D01*
X188688069Y-83906326D01*
X188678739Y-83871504D01*
X188582568Y-83665266D01*
X188452047Y-83478861D01*
X188452045Y-83478858D01*
X188291141Y-83317954D01*
X188104734Y-83187432D01*
X188104732Y-83187431D01*
X187898497Y-83091261D01*
X187898488Y-83091258D01*
X187678697Y-83032366D01*
X187678693Y-83032365D01*
X187678692Y-83032365D01*
X187678691Y-83032364D01*
X187678686Y-83032364D01*
X187452002Y-83012532D01*
X187451998Y-83012532D01*
X187225313Y-83032364D01*
X187225302Y-83032366D01*
X187005511Y-83091258D01*
X187005502Y-83091261D01*
X186799267Y-83187431D01*
X186799265Y-83187432D01*
X186612858Y-83317954D01*
X186451954Y-83478858D01*
X186321432Y-83665265D01*
X186321431Y-83665267D01*
X186294382Y-83723275D01*
X186248209Y-83775714D01*
X186181016Y-83794866D01*
X186114135Y-83774650D01*
X186069618Y-83723275D01*
X186042686Y-83665520D01*
X186042568Y-83665266D01*
X185912047Y-83478861D01*
X185912045Y-83478858D01*
X185751141Y-83317954D01*
X185564734Y-83187432D01*
X185564732Y-83187431D01*
X185358497Y-83091261D01*
X185358488Y-83091258D01*
X185138697Y-83032366D01*
X185138693Y-83032365D01*
X185138692Y-83032365D01*
X185138691Y-83032364D01*
X185138686Y-83032364D01*
X184912002Y-83012532D01*
X184911998Y-83012532D01*
X184685313Y-83032364D01*
X184685302Y-83032366D01*
X184465511Y-83091258D01*
X184465502Y-83091261D01*
X184259267Y-83187431D01*
X184259265Y-83187432D01*
X184072858Y-83317954D01*
X183911954Y-83478858D01*
X183781432Y-83665265D01*
X183781431Y-83665267D01*
X183754382Y-83723275D01*
X183708209Y-83775714D01*
X183641016Y-83794866D01*
X183574135Y-83774650D01*
X183529618Y-83723275D01*
X183502686Y-83665520D01*
X183502568Y-83665266D01*
X183372047Y-83478861D01*
X183372045Y-83478858D01*
X183211141Y-83317954D01*
X183024734Y-83187432D01*
X183024732Y-83187431D01*
X182818497Y-83091261D01*
X182818488Y-83091258D01*
X182598697Y-83032366D01*
X182598693Y-83032365D01*
X182598692Y-83032365D01*
X182598691Y-83032364D01*
X182598686Y-83032364D01*
X182372002Y-83012532D01*
X182371998Y-83012532D01*
X182145313Y-83032364D01*
X182145302Y-83032366D01*
X181925511Y-83091258D01*
X181925502Y-83091261D01*
X181719267Y-83187431D01*
X181719265Y-83187432D01*
X181532858Y-83317954D01*
X181371954Y-83478858D01*
X181241432Y-83665265D01*
X181241431Y-83665267D01*
X181214382Y-83723275D01*
X181168209Y-83775714D01*
X181101016Y-83794866D01*
X181034135Y-83774650D01*
X180989618Y-83723275D01*
X180962686Y-83665520D01*
X180962568Y-83665266D01*
X180832047Y-83478861D01*
X180832045Y-83478858D01*
X180671141Y-83317954D01*
X180484734Y-83187432D01*
X180484732Y-83187431D01*
X180278497Y-83091261D01*
X180278488Y-83091258D01*
X180058697Y-83032366D01*
X180058693Y-83032365D01*
X180058692Y-83032365D01*
X180058691Y-83032364D01*
X180058686Y-83032364D01*
X179832002Y-83012532D01*
X179831998Y-83012532D01*
X179605313Y-83032364D01*
X179605302Y-83032366D01*
X179385511Y-83091258D01*
X179385502Y-83091261D01*
X179179267Y-83187431D01*
X179179265Y-83187432D01*
X178992858Y-83317954D01*
X178831954Y-83478858D01*
X178701432Y-83665265D01*
X178701431Y-83665267D01*
X178674382Y-83723275D01*
X178628209Y-83775714D01*
X178561016Y-83794866D01*
X178494135Y-83774650D01*
X178449618Y-83723275D01*
X178422686Y-83665520D01*
X178422568Y-83665266D01*
X178292047Y-83478861D01*
X178292045Y-83478858D01*
X178131141Y-83317954D01*
X177944734Y-83187432D01*
X177944732Y-83187431D01*
X177738497Y-83091261D01*
X177738488Y-83091258D01*
X177518697Y-83032366D01*
X177518693Y-83032365D01*
X177518692Y-83032365D01*
X177518691Y-83032364D01*
X177518686Y-83032364D01*
X177292002Y-83012532D01*
X177291998Y-83012532D01*
X177065313Y-83032364D01*
X177065302Y-83032366D01*
X176845511Y-83091258D01*
X176845502Y-83091261D01*
X176639267Y-83187431D01*
X176639265Y-83187432D01*
X176452858Y-83317954D01*
X176291954Y-83478858D01*
X176161432Y-83665265D01*
X176161431Y-83665267D01*
X176134382Y-83723275D01*
X176088209Y-83775714D01*
X176021016Y-83794866D01*
X175954135Y-83774650D01*
X175909618Y-83723275D01*
X175882686Y-83665520D01*
X175882568Y-83665266D01*
X175752047Y-83478861D01*
X175752045Y-83478858D01*
X175591141Y-83317954D01*
X175404734Y-83187432D01*
X175404732Y-83187431D01*
X175198497Y-83091261D01*
X175198488Y-83091258D01*
X174978697Y-83032366D01*
X174978693Y-83032365D01*
X174978692Y-83032365D01*
X174978691Y-83032364D01*
X174978686Y-83032364D01*
X174752002Y-83012532D01*
X174751998Y-83012532D01*
X174525313Y-83032364D01*
X174525302Y-83032366D01*
X174305511Y-83091258D01*
X174305502Y-83091261D01*
X174099267Y-83187431D01*
X174099265Y-83187432D01*
X173912858Y-83317954D01*
X173751954Y-83478858D01*
X173621432Y-83665265D01*
X173621431Y-83665267D01*
X173594382Y-83723275D01*
X173548209Y-83775714D01*
X173481016Y-83794866D01*
X173414135Y-83774650D01*
X173369618Y-83723275D01*
X173342686Y-83665520D01*
X173342568Y-83665266D01*
X173212047Y-83478861D01*
X173212045Y-83478858D01*
X173051141Y-83317954D01*
X172864734Y-83187432D01*
X172864732Y-83187431D01*
X172658497Y-83091261D01*
X172658488Y-83091258D01*
X172438697Y-83032366D01*
X172438693Y-83032365D01*
X172438692Y-83032365D01*
X172438691Y-83032364D01*
X172438686Y-83032364D01*
X172212002Y-83012532D01*
X172211998Y-83012532D01*
X171985313Y-83032364D01*
X171985302Y-83032366D01*
X171765511Y-83091258D01*
X171765502Y-83091261D01*
X171559267Y-83187431D01*
X171559265Y-83187432D01*
X171372858Y-83317954D01*
X171211954Y-83478858D01*
X171081432Y-83665265D01*
X171081431Y-83665267D01*
X171054382Y-83723275D01*
X171008209Y-83775714D01*
X170941016Y-83794866D01*
X170874135Y-83774650D01*
X170829618Y-83723275D01*
X170802686Y-83665520D01*
X170802568Y-83665266D01*
X170672047Y-83478861D01*
X170672045Y-83478858D01*
X170511141Y-83317954D01*
X170324734Y-83187432D01*
X170324732Y-83187431D01*
X170118497Y-83091261D01*
X170118488Y-83091258D01*
X169898697Y-83032366D01*
X169898693Y-83032365D01*
X169898692Y-83032365D01*
X169898691Y-83032364D01*
X169898686Y-83032364D01*
X169672002Y-83012532D01*
X169671998Y-83012532D01*
X169445313Y-83032364D01*
X169445302Y-83032366D01*
X169225511Y-83091258D01*
X169225502Y-83091261D01*
X169019267Y-83187431D01*
X169019265Y-83187432D01*
X168832858Y-83317954D01*
X168671954Y-83478858D01*
X168541432Y-83665265D01*
X168541431Y-83665267D01*
X168514382Y-83723275D01*
X168468209Y-83775714D01*
X168401016Y-83794866D01*
X168334135Y-83774650D01*
X168289618Y-83723275D01*
X168262686Y-83665520D01*
X168262568Y-83665266D01*
X168132047Y-83478861D01*
X168132045Y-83478858D01*
X167971141Y-83317954D01*
X167784734Y-83187432D01*
X167784732Y-83187431D01*
X167578497Y-83091261D01*
X167578488Y-83091258D01*
X167358697Y-83032366D01*
X167358693Y-83032365D01*
X167358692Y-83032365D01*
X167358691Y-83032364D01*
X167358686Y-83032364D01*
X167132002Y-83012532D01*
X167131998Y-83012532D01*
X166905313Y-83032364D01*
X166905302Y-83032366D01*
X166685511Y-83091258D01*
X166685502Y-83091261D01*
X166479267Y-83187431D01*
X166479265Y-83187432D01*
X166292858Y-83317954D01*
X166131954Y-83478858D01*
X166001432Y-83665265D01*
X166001431Y-83665267D01*
X165974382Y-83723275D01*
X165928209Y-83775714D01*
X165861016Y-83794866D01*
X165794135Y-83774650D01*
X165749618Y-83723275D01*
X165722686Y-83665520D01*
X165722568Y-83665266D01*
X165592047Y-83478861D01*
X165592045Y-83478858D01*
X165431141Y-83317954D01*
X165244734Y-83187432D01*
X165244732Y-83187431D01*
X165038497Y-83091261D01*
X165038488Y-83091258D01*
X164818697Y-83032366D01*
X164818693Y-83032365D01*
X164818692Y-83032365D01*
X164818691Y-83032364D01*
X164818686Y-83032364D01*
X164592002Y-83012532D01*
X164591998Y-83012532D01*
X164365313Y-83032364D01*
X164365302Y-83032366D01*
X164145511Y-83091258D01*
X164145502Y-83091261D01*
X163939267Y-83187431D01*
X163939265Y-83187432D01*
X163752858Y-83317954D01*
X163591954Y-83478858D01*
X163461432Y-83665265D01*
X163461431Y-83665267D01*
X163434382Y-83723275D01*
X163388209Y-83775714D01*
X163321016Y-83794866D01*
X163254135Y-83774650D01*
X163209618Y-83723275D01*
X163182686Y-83665520D01*
X163182568Y-83665266D01*
X163052047Y-83478861D01*
X163052045Y-83478858D01*
X162891141Y-83317954D01*
X162704734Y-83187432D01*
X162704732Y-83187431D01*
X162498497Y-83091261D01*
X162498488Y-83091258D01*
X162278697Y-83032366D01*
X162278693Y-83032365D01*
X162278692Y-83032365D01*
X162278691Y-83032364D01*
X162278686Y-83032364D01*
X162052002Y-83012532D01*
X162051998Y-83012532D01*
X161825313Y-83032364D01*
X161825302Y-83032366D01*
X161605511Y-83091258D01*
X161605502Y-83091261D01*
X161399267Y-83187431D01*
X161399265Y-83187432D01*
X161212858Y-83317954D01*
X161051954Y-83478858D01*
X160947701Y-83627749D01*
X160921432Y-83665266D01*
X160921315Y-83665518D01*
X160894106Y-83723867D01*
X160847933Y-83776306D01*
X160780739Y-83795457D01*
X160713858Y-83775241D01*
X160669342Y-83723865D01*
X160642135Y-83665520D01*
X160642134Y-83665518D01*
X160511657Y-83479179D01*
X160350820Y-83318342D01*
X160164482Y-83187865D01*
X159958328Y-83091734D01*
X159762000Y-83039127D01*
X159762000Y-83705698D01*
X159742315Y-83772737D01*
X159689511Y-83818492D01*
X159620355Y-83828436D01*
X159547766Y-83818000D01*
X159547763Y-83818000D01*
X159476237Y-83818000D01*
X159476233Y-83818000D01*
X159403645Y-83828436D01*
X159334487Y-83818492D01*
X159281684Y-83772736D01*
X159262000Y-83705698D01*
X159262000Y-83039127D01*
X159065671Y-83091734D01*
X158859517Y-83187865D01*
X158673179Y-83318342D01*
X158512342Y-83479179D01*
X158381867Y-83665515D01*
X158354657Y-83723867D01*
X158308484Y-83776306D01*
X158241290Y-83795457D01*
X158174409Y-83775241D01*
X158129893Y-83723865D01*
X158102685Y-83665518D01*
X158102568Y-83665266D01*
X157972047Y-83478861D01*
X157972045Y-83478858D01*
X157811141Y-83317954D01*
X157624734Y-83187432D01*
X157624732Y-83187431D01*
X157418497Y-83091261D01*
X157418488Y-83091258D01*
X157198697Y-83032366D01*
X157198693Y-83032365D01*
X157198692Y-83032365D01*
X157198691Y-83032364D01*
X157198686Y-83032364D01*
X156972002Y-83012532D01*
X156971998Y-83012532D01*
X156745313Y-83032364D01*
X156745302Y-83032366D01*
X156525511Y-83091258D01*
X156525502Y-83091261D01*
X156319267Y-83187431D01*
X156319265Y-83187432D01*
X156132858Y-83317954D01*
X155971954Y-83478858D01*
X155841432Y-83665265D01*
X155841431Y-83665267D01*
X155814382Y-83723275D01*
X155768209Y-83775714D01*
X155701016Y-83794866D01*
X155634135Y-83774650D01*
X155589618Y-83723275D01*
X155562686Y-83665520D01*
X155562568Y-83665266D01*
X155432047Y-83478861D01*
X155432045Y-83478858D01*
X155271141Y-83317954D01*
X155084734Y-83187432D01*
X155084732Y-83187431D01*
X154878497Y-83091261D01*
X154878488Y-83091258D01*
X154658697Y-83032366D01*
X154658693Y-83032365D01*
X154658692Y-83032365D01*
X154658691Y-83032364D01*
X154658686Y-83032364D01*
X154432002Y-83012532D01*
X154431998Y-83012532D01*
X154205313Y-83032364D01*
X154205302Y-83032366D01*
X153985511Y-83091258D01*
X153985502Y-83091261D01*
X153779267Y-83187431D01*
X153779265Y-83187432D01*
X153592858Y-83317954D01*
X153431954Y-83478858D01*
X153414725Y-83503464D01*
X153360147Y-83547088D01*
X153290648Y-83554280D01*
X153228294Y-83522757D01*
X153192882Y-83462526D01*
X153189861Y-83445591D01*
X153186091Y-83410516D01*
X153135797Y-83275671D01*
X153135793Y-83275664D01*
X153049547Y-83160455D01*
X153049544Y-83160452D01*
X152934335Y-83074206D01*
X152934328Y-83074202D01*
X152799482Y-83023908D01*
X152799483Y-83023908D01*
X152739883Y-83017501D01*
X152739881Y-83017500D01*
X152739873Y-83017500D01*
X152739864Y-83017500D01*
X151044129Y-83017500D01*
X151044123Y-83017501D01*
X150984516Y-83023908D01*
X150849671Y-83074202D01*
X150849664Y-83074206D01*
X150734455Y-83160452D01*
X150734452Y-83160455D01*
X150648206Y-83275664D01*
X150648202Y-83275671D01*
X150597908Y-83410517D01*
X150591501Y-83470116D01*
X150591500Y-83470135D01*
X150591500Y-83717575D01*
X150571815Y-83784614D01*
X150519011Y-83830369D01*
X150449853Y-83840313D01*
X150386297Y-83811288D01*
X150362073Y-83782853D01*
X150356994Y-83774650D01*
X150266038Y-83627751D01*
X150246141Y-83605925D01*
X150123644Y-83471551D01*
X149954968Y-83344173D01*
X149765762Y-83249959D01*
X149765756Y-83249956D01*
X149562466Y-83192116D01*
X149562463Y-83192115D01*
X149450472Y-83181738D01*
X149404729Y-83177500D01*
X149299271Y-83177500D01*
X149256619Y-83181452D01*
X149141536Y-83192115D01*
X149141533Y-83192116D01*
X148938243Y-83249956D01*
X148938237Y-83249959D01*
X148749031Y-83344173D01*
X148580355Y-83471551D01*
X148437963Y-83627749D01*
X148326691Y-83807459D01*
X148326690Y-83807460D01*
X148252869Y-83998016D01*
X148250338Y-84004550D01*
X148211500Y-84212317D01*
X148211500Y-84423683D01*
X127000500Y-84423683D01*
X127000500Y-69183683D01*
X148211500Y-69183683D01*
X148250338Y-69391450D01*
X148250339Y-69391452D01*
X148326690Y-69588539D01*
X148326691Y-69588540D01*
X148326692Y-69588542D01*
X148414732Y-69730732D01*
X148437963Y-69768250D01*
X148580355Y-69924448D01*
X148580358Y-69924450D01*
X148749032Y-70051827D01*
X148938237Y-70146040D01*
X148938243Y-70146043D01*
X149112011Y-70195483D01*
X149141536Y-70203884D01*
X149299271Y-70218500D01*
X149299275Y-70218500D01*
X149404725Y-70218500D01*
X149404729Y-70218500D01*
X149562464Y-70203884D01*
X149649350Y-70179162D01*
X149765756Y-70146043D01*
X149765758Y-70146041D01*
X149765761Y-70146041D01*
X149954968Y-70051827D01*
X150123642Y-69924450D01*
X150266038Y-69768249D01*
X150377308Y-69588542D01*
X150420529Y-69476974D01*
X150463102Y-69421574D01*
X150528869Y-69397983D01*
X150596949Y-69413694D01*
X150645728Y-69463718D01*
X150655931Y-69489676D01*
X150665258Y-69524488D01*
X150665261Y-69524497D01*
X150761431Y-69730732D01*
X150761432Y-69730734D01*
X150891954Y-69917141D01*
X151052858Y-70078045D01*
X151052861Y-70078047D01*
X151239266Y-70208568D01*
X151445504Y-70304739D01*
X151665308Y-70363635D01*
X151827230Y-70377801D01*
X151891998Y-70383468D01*
X151892000Y-70383468D01*
X151892002Y-70383468D01*
X151948910Y-70378489D01*
X152118692Y-70363635D01*
X152338496Y-70304739D01*
X152544734Y-70208568D01*
X152731139Y-70078047D01*
X152892047Y-69917139D01*
X153022568Y-69730734D01*
X153049895Y-69672129D01*
X153096064Y-69619695D01*
X153163257Y-69600542D01*
X153230139Y-69620757D01*
X153274657Y-69672133D01*
X153301865Y-69730482D01*
X153432342Y-69916820D01*
X153593179Y-70077657D01*
X153779517Y-70208134D01*
X153985673Y-70304265D01*
X153985682Y-70304269D01*
X154181999Y-70356872D01*
X154182000Y-70356871D01*
X154182000Y-69690301D01*
X154201685Y-69623262D01*
X154254489Y-69577507D01*
X154323647Y-69567563D01*
X154396237Y-69578000D01*
X154396238Y-69578000D01*
X154467762Y-69578000D01*
X154467763Y-69578000D01*
X154540353Y-69567563D01*
X154609512Y-69577507D01*
X154662315Y-69623262D01*
X154682000Y-69690301D01*
X154682000Y-70356872D01*
X154878317Y-70304269D01*
X154878326Y-70304265D01*
X155084482Y-70208134D01*
X155270820Y-70077657D01*
X155431657Y-69916820D01*
X155562132Y-69730484D01*
X155589341Y-69672134D01*
X155635513Y-69619695D01*
X155702707Y-69600542D01*
X155769588Y-69620757D01*
X155814106Y-69672133D01*
X155841431Y-69730732D01*
X155841432Y-69730734D01*
X155971954Y-69917141D01*
X156132858Y-70078045D01*
X156132861Y-70078047D01*
X156319266Y-70208568D01*
X156525504Y-70304739D01*
X156745308Y-70363635D01*
X156907230Y-70377801D01*
X156971998Y-70383468D01*
X156972000Y-70383468D01*
X156972002Y-70383468D01*
X157028910Y-70378489D01*
X157198692Y-70363635D01*
X157418496Y-70304739D01*
X157624734Y-70208568D01*
X157811139Y-70078047D01*
X157972047Y-69917139D01*
X158102568Y-69730734D01*
X158129618Y-69672724D01*
X158175790Y-69620285D01*
X158242983Y-69601133D01*
X158309865Y-69621348D01*
X158354382Y-69672725D01*
X158381429Y-69730728D01*
X158381432Y-69730734D01*
X158511954Y-69917141D01*
X158672858Y-70078045D01*
X158672861Y-70078047D01*
X158859266Y-70208568D01*
X159065504Y-70304739D01*
X159285308Y-70363635D01*
X159447230Y-70377801D01*
X159511998Y-70383468D01*
X159512000Y-70383468D01*
X159512002Y-70383468D01*
X159568910Y-70378489D01*
X159738692Y-70363635D01*
X159958496Y-70304739D01*
X160164734Y-70208568D01*
X160351139Y-70078047D01*
X160512047Y-69917139D01*
X160642568Y-69730734D01*
X160669618Y-69672724D01*
X160715790Y-69620285D01*
X160782983Y-69601133D01*
X160849865Y-69621348D01*
X160894382Y-69672725D01*
X160921429Y-69730728D01*
X160921432Y-69730734D01*
X161051954Y-69917141D01*
X161212858Y-70078045D01*
X161212861Y-70078047D01*
X161399266Y-70208568D01*
X161605504Y-70304739D01*
X161825308Y-70363635D01*
X161987230Y-70377801D01*
X162051998Y-70383468D01*
X162052000Y-70383468D01*
X162052002Y-70383468D01*
X162108910Y-70378489D01*
X162278692Y-70363635D01*
X162498496Y-70304739D01*
X162704734Y-70208568D01*
X162891139Y-70078047D01*
X163052047Y-69917139D01*
X163182568Y-69730734D01*
X163209618Y-69672724D01*
X163255790Y-69620285D01*
X163322983Y-69601133D01*
X163389865Y-69621348D01*
X163434382Y-69672725D01*
X163461429Y-69730728D01*
X163461432Y-69730734D01*
X163591954Y-69917141D01*
X163752858Y-70078045D01*
X163752861Y-70078047D01*
X163939266Y-70208568D01*
X164145504Y-70304739D01*
X164365308Y-70363635D01*
X164527230Y-70377801D01*
X164591998Y-70383468D01*
X164592000Y-70383468D01*
X164592002Y-70383468D01*
X164648910Y-70378489D01*
X164818692Y-70363635D01*
X165038496Y-70304739D01*
X165244734Y-70208568D01*
X165431139Y-70078047D01*
X165592047Y-69917139D01*
X165722568Y-69730734D01*
X165749618Y-69672724D01*
X165795790Y-69620285D01*
X165862983Y-69601133D01*
X165929865Y-69621348D01*
X165974382Y-69672725D01*
X166001429Y-69730728D01*
X166001432Y-69730734D01*
X166131954Y-69917141D01*
X166292858Y-70078045D01*
X166292861Y-70078047D01*
X166479266Y-70208568D01*
X166685504Y-70304739D01*
X166905308Y-70363635D01*
X167067230Y-70377801D01*
X167131998Y-70383468D01*
X167132000Y-70383468D01*
X167132002Y-70383468D01*
X167188910Y-70378489D01*
X167358692Y-70363635D01*
X167578496Y-70304739D01*
X167784734Y-70208568D01*
X167971139Y-70078047D01*
X168132047Y-69917139D01*
X168262568Y-69730734D01*
X168289618Y-69672724D01*
X168335790Y-69620285D01*
X168402983Y-69601133D01*
X168469865Y-69621348D01*
X168514382Y-69672725D01*
X168541429Y-69730728D01*
X168541432Y-69730734D01*
X168671954Y-69917141D01*
X168832858Y-70078045D01*
X168832861Y-70078047D01*
X169019266Y-70208568D01*
X169225504Y-70304739D01*
X169445308Y-70363635D01*
X169607230Y-70377801D01*
X169671998Y-70383468D01*
X169672000Y-70383468D01*
X169672002Y-70383468D01*
X169728910Y-70378489D01*
X169898692Y-70363635D01*
X170118496Y-70304739D01*
X170324734Y-70208568D01*
X170511139Y-70078047D01*
X170672047Y-69917139D01*
X170802568Y-69730734D01*
X170829618Y-69672724D01*
X170875790Y-69620285D01*
X170942983Y-69601133D01*
X171009865Y-69621348D01*
X171054382Y-69672725D01*
X171081429Y-69730728D01*
X171081432Y-69730734D01*
X171211954Y-69917141D01*
X171372858Y-70078045D01*
X171372861Y-70078047D01*
X171559266Y-70208568D01*
X171765504Y-70304739D01*
X171985308Y-70363635D01*
X172147230Y-70377801D01*
X172211998Y-70383468D01*
X172212000Y-70383468D01*
X172212002Y-70383468D01*
X172268910Y-70378489D01*
X172438692Y-70363635D01*
X172658496Y-70304739D01*
X172864734Y-70208568D01*
X173051139Y-70078047D01*
X173212047Y-69917139D01*
X173342568Y-69730734D01*
X173369618Y-69672724D01*
X173415790Y-69620285D01*
X173482983Y-69601133D01*
X173549865Y-69621348D01*
X173594382Y-69672725D01*
X173621429Y-69730728D01*
X173621432Y-69730734D01*
X173751954Y-69917141D01*
X173912858Y-70078045D01*
X173912861Y-70078047D01*
X174099266Y-70208568D01*
X174305504Y-70304739D01*
X174525308Y-70363635D01*
X174687230Y-70377801D01*
X174751998Y-70383468D01*
X174752000Y-70383468D01*
X174752002Y-70383468D01*
X174808910Y-70378489D01*
X174978692Y-70363635D01*
X175198496Y-70304739D01*
X175404734Y-70208568D01*
X175591139Y-70078047D01*
X175752047Y-69917139D01*
X175882568Y-69730734D01*
X175909618Y-69672724D01*
X175955790Y-69620285D01*
X176022983Y-69601133D01*
X176089865Y-69621348D01*
X176134382Y-69672725D01*
X176161429Y-69730728D01*
X176161432Y-69730734D01*
X176291954Y-69917141D01*
X176452858Y-70078045D01*
X176452861Y-70078047D01*
X176639266Y-70208568D01*
X176845504Y-70304739D01*
X177065308Y-70363635D01*
X177227230Y-70377801D01*
X177291998Y-70383468D01*
X177292000Y-70383468D01*
X177292002Y-70383468D01*
X177348910Y-70378489D01*
X177518692Y-70363635D01*
X177738496Y-70304739D01*
X177944734Y-70208568D01*
X178131139Y-70078047D01*
X178292047Y-69917139D01*
X178422568Y-69730734D01*
X178449618Y-69672724D01*
X178495790Y-69620285D01*
X178562983Y-69601133D01*
X178629865Y-69621348D01*
X178674382Y-69672725D01*
X178701429Y-69730728D01*
X178701432Y-69730734D01*
X178831954Y-69917141D01*
X178992858Y-70078045D01*
X178992861Y-70078047D01*
X179179266Y-70208568D01*
X179385504Y-70304739D01*
X179605308Y-70363635D01*
X179767230Y-70377801D01*
X179831998Y-70383468D01*
X179832000Y-70383468D01*
X179832002Y-70383468D01*
X179888910Y-70378489D01*
X180058692Y-70363635D01*
X180278496Y-70304739D01*
X180484734Y-70208568D01*
X180671139Y-70078047D01*
X180832047Y-69917139D01*
X180962568Y-69730734D01*
X180989618Y-69672724D01*
X181035790Y-69620285D01*
X181102983Y-69601133D01*
X181169865Y-69621348D01*
X181214382Y-69672725D01*
X181241429Y-69730728D01*
X181241432Y-69730734D01*
X181371954Y-69917141D01*
X181532858Y-70078045D01*
X181532861Y-70078047D01*
X181719266Y-70208568D01*
X181925504Y-70304739D01*
X182145308Y-70363635D01*
X182307230Y-70377801D01*
X182371998Y-70383468D01*
X182372000Y-70383468D01*
X182372002Y-70383468D01*
X182428910Y-70378489D01*
X182598692Y-70363635D01*
X182818496Y-70304739D01*
X183024734Y-70208568D01*
X183211139Y-70078047D01*
X183372047Y-69917139D01*
X183502568Y-69730734D01*
X183529618Y-69672724D01*
X183575790Y-69620285D01*
X183642983Y-69601133D01*
X183709865Y-69621348D01*
X183754382Y-69672725D01*
X183781429Y-69730728D01*
X183781432Y-69730734D01*
X183911954Y-69917141D01*
X184072858Y-70078045D01*
X184072861Y-70078047D01*
X184259266Y-70208568D01*
X184465504Y-70304739D01*
X184685308Y-70363635D01*
X184847230Y-70377801D01*
X184911998Y-70383468D01*
X184912000Y-70383468D01*
X184912002Y-70383468D01*
X184968910Y-70378489D01*
X185138692Y-70363635D01*
X185358496Y-70304739D01*
X185564734Y-70208568D01*
X185751139Y-70078047D01*
X185912047Y-69917139D01*
X186042568Y-69730734D01*
X186069618Y-69672724D01*
X186115790Y-69620285D01*
X186182983Y-69601133D01*
X186249865Y-69621348D01*
X186294382Y-69672725D01*
X186321429Y-69730728D01*
X186321432Y-69730734D01*
X186451954Y-69917141D01*
X186612858Y-70078045D01*
X186612861Y-70078047D01*
X186799266Y-70208568D01*
X187005504Y-70304739D01*
X187225308Y-70363635D01*
X187387230Y-70377801D01*
X187451998Y-70383468D01*
X187452000Y-70383468D01*
X187452002Y-70383468D01*
X187508910Y-70378489D01*
X187678692Y-70363635D01*
X187898496Y-70304739D01*
X188104734Y-70208568D01*
X188291139Y-70078047D01*
X188452047Y-69917139D01*
X188582568Y-69730734D01*
X188678739Y-69524496D01*
X188688069Y-69489675D01*
X188724430Y-69430018D01*
X188787276Y-69399487D01*
X188856652Y-69407779D01*
X188910531Y-69452263D01*
X188923469Y-69476974D01*
X188966688Y-69588533D01*
X188966691Y-69588539D01*
X188966692Y-69588542D01*
X189054732Y-69730732D01*
X189077963Y-69768250D01*
X189220355Y-69924448D01*
X189220358Y-69924450D01*
X189389032Y-70051827D01*
X189578237Y-70146040D01*
X189578243Y-70146043D01*
X189752011Y-70195483D01*
X189781536Y-70203884D01*
X189939271Y-70218500D01*
X189939275Y-70218500D01*
X190044725Y-70218500D01*
X190044729Y-70218500D01*
X190202464Y-70203884D01*
X190289350Y-70179162D01*
X190405756Y-70146043D01*
X190405758Y-70146041D01*
X190405761Y-70146041D01*
X190594968Y-70051827D01*
X190763642Y-69924450D01*
X190906038Y-69768249D01*
X191017308Y-69588542D01*
X191093662Y-69391450D01*
X191132500Y-69183683D01*
X191132500Y-68972317D01*
X191093662Y-68764550D01*
X191017308Y-68567458D01*
X190906038Y-68387751D01*
X190886141Y-68365925D01*
X190763644Y-68231551D01*
X190594968Y-68104173D01*
X190405762Y-68009959D01*
X190405756Y-68009956D01*
X190202466Y-67952116D01*
X190202463Y-67952115D01*
X190090472Y-67941738D01*
X190044729Y-67937500D01*
X189939271Y-67937500D01*
X189896619Y-67941452D01*
X189781536Y-67952115D01*
X189781533Y-67952116D01*
X189578243Y-68009956D01*
X189578237Y-68009959D01*
X189389031Y-68104173D01*
X189220355Y-68231551D01*
X189077963Y-68387749D01*
X188966691Y-68567459D01*
X188966687Y-68567466D01*
X188923469Y-68679025D01*
X188880896Y-68734426D01*
X188815129Y-68758016D01*
X188747049Y-68742304D01*
X188698270Y-68692280D01*
X188688069Y-68666326D01*
X188678739Y-68631504D01*
X188582568Y-68425266D01*
X188452047Y-68238861D01*
X188452045Y-68238858D01*
X188291141Y-68077954D01*
X188104734Y-67947432D01*
X188104732Y-67947431D01*
X187898497Y-67851261D01*
X187898488Y-67851258D01*
X187678697Y-67792366D01*
X187678693Y-67792365D01*
X187678692Y-67792365D01*
X187678691Y-67792364D01*
X187678686Y-67792364D01*
X187452002Y-67772532D01*
X187451998Y-67772532D01*
X187225313Y-67792364D01*
X187225302Y-67792366D01*
X187005511Y-67851258D01*
X187005502Y-67851261D01*
X186799267Y-67947431D01*
X186799265Y-67947432D01*
X186612858Y-68077954D01*
X186451954Y-68238858D01*
X186321432Y-68425265D01*
X186321431Y-68425267D01*
X186294382Y-68483275D01*
X186248209Y-68535714D01*
X186181016Y-68554866D01*
X186114135Y-68534650D01*
X186069618Y-68483275D01*
X186042686Y-68425520D01*
X186042568Y-68425266D01*
X185912047Y-68238861D01*
X185912045Y-68238858D01*
X185751141Y-68077954D01*
X185564734Y-67947432D01*
X185564732Y-67947431D01*
X185358497Y-67851261D01*
X185358488Y-67851258D01*
X185138697Y-67792366D01*
X185138693Y-67792365D01*
X185138692Y-67792365D01*
X185138691Y-67792364D01*
X185138686Y-67792364D01*
X184912002Y-67772532D01*
X184911998Y-67772532D01*
X184685313Y-67792364D01*
X184685302Y-67792366D01*
X184465511Y-67851258D01*
X184465502Y-67851261D01*
X184259267Y-67947431D01*
X184259265Y-67947432D01*
X184072858Y-68077954D01*
X183911954Y-68238858D01*
X183781432Y-68425265D01*
X183781431Y-68425267D01*
X183754382Y-68483275D01*
X183708209Y-68535714D01*
X183641016Y-68554866D01*
X183574135Y-68534650D01*
X183529618Y-68483275D01*
X183502686Y-68425520D01*
X183502568Y-68425266D01*
X183372047Y-68238861D01*
X183372045Y-68238858D01*
X183211141Y-68077954D01*
X183024734Y-67947432D01*
X183024732Y-67947431D01*
X182818497Y-67851261D01*
X182818488Y-67851258D01*
X182598697Y-67792366D01*
X182598693Y-67792365D01*
X182598692Y-67792365D01*
X182598691Y-67792364D01*
X182598686Y-67792364D01*
X182372002Y-67772532D01*
X182371998Y-67772532D01*
X182145313Y-67792364D01*
X182145302Y-67792366D01*
X181925511Y-67851258D01*
X181925502Y-67851261D01*
X181719267Y-67947431D01*
X181719265Y-67947432D01*
X181532858Y-68077954D01*
X181371954Y-68238858D01*
X181241432Y-68425265D01*
X181241431Y-68425267D01*
X181214382Y-68483275D01*
X181168209Y-68535714D01*
X181101016Y-68554866D01*
X181034135Y-68534650D01*
X180989618Y-68483275D01*
X180962686Y-68425520D01*
X180962568Y-68425266D01*
X180832047Y-68238861D01*
X180832045Y-68238858D01*
X180671141Y-68077954D01*
X180484734Y-67947432D01*
X180484732Y-67947431D01*
X180278497Y-67851261D01*
X180278488Y-67851258D01*
X180058697Y-67792366D01*
X180058693Y-67792365D01*
X180058692Y-67792365D01*
X180058691Y-67792364D01*
X180058686Y-67792364D01*
X179832002Y-67772532D01*
X179831998Y-67772532D01*
X179605313Y-67792364D01*
X179605302Y-67792366D01*
X179385511Y-67851258D01*
X179385502Y-67851261D01*
X179179267Y-67947431D01*
X179179265Y-67947432D01*
X178992858Y-68077954D01*
X178831954Y-68238858D01*
X178701432Y-68425265D01*
X178701431Y-68425267D01*
X178674382Y-68483275D01*
X178628209Y-68535714D01*
X178561016Y-68554866D01*
X178494135Y-68534650D01*
X178449618Y-68483275D01*
X178422686Y-68425520D01*
X178422568Y-68425266D01*
X178292047Y-68238861D01*
X178292045Y-68238858D01*
X178131141Y-68077954D01*
X177944734Y-67947432D01*
X177944732Y-67947431D01*
X177738497Y-67851261D01*
X177738488Y-67851258D01*
X177518697Y-67792366D01*
X177518693Y-67792365D01*
X177518692Y-67792365D01*
X177518691Y-67792364D01*
X177518686Y-67792364D01*
X177292002Y-67772532D01*
X177291998Y-67772532D01*
X177065313Y-67792364D01*
X177065302Y-67792366D01*
X176845511Y-67851258D01*
X176845502Y-67851261D01*
X176639267Y-67947431D01*
X176639265Y-67947432D01*
X176452858Y-68077954D01*
X176291954Y-68238858D01*
X176161432Y-68425265D01*
X176161431Y-68425267D01*
X176134382Y-68483275D01*
X176088209Y-68535714D01*
X176021016Y-68554866D01*
X175954135Y-68534650D01*
X175909618Y-68483275D01*
X175882686Y-68425520D01*
X175882568Y-68425266D01*
X175752047Y-68238861D01*
X175752045Y-68238858D01*
X175591141Y-68077954D01*
X175404734Y-67947432D01*
X175404732Y-67947431D01*
X175198497Y-67851261D01*
X175198488Y-67851258D01*
X174978697Y-67792366D01*
X174978693Y-67792365D01*
X174978692Y-67792365D01*
X174978691Y-67792364D01*
X174978686Y-67792364D01*
X174752002Y-67772532D01*
X174751998Y-67772532D01*
X174525313Y-67792364D01*
X174525302Y-67792366D01*
X174305511Y-67851258D01*
X174305502Y-67851261D01*
X174099267Y-67947431D01*
X174099265Y-67947432D01*
X173912858Y-68077954D01*
X173751954Y-68238858D01*
X173621432Y-68425265D01*
X173621431Y-68425267D01*
X173594382Y-68483275D01*
X173548209Y-68535714D01*
X173481016Y-68554866D01*
X173414135Y-68534650D01*
X173369618Y-68483275D01*
X173342686Y-68425520D01*
X173342568Y-68425266D01*
X173212047Y-68238861D01*
X173212045Y-68238858D01*
X173051141Y-68077954D01*
X172864734Y-67947432D01*
X172864732Y-67947431D01*
X172658497Y-67851261D01*
X172658488Y-67851258D01*
X172438697Y-67792366D01*
X172438693Y-67792365D01*
X172438692Y-67792365D01*
X172438691Y-67792364D01*
X172438686Y-67792364D01*
X172212002Y-67772532D01*
X172211998Y-67772532D01*
X171985313Y-67792364D01*
X171985302Y-67792366D01*
X171765511Y-67851258D01*
X171765502Y-67851261D01*
X171559267Y-67947431D01*
X171559265Y-67947432D01*
X171372858Y-68077954D01*
X171211954Y-68238858D01*
X171081432Y-68425265D01*
X171081431Y-68425267D01*
X171054382Y-68483275D01*
X171008209Y-68535714D01*
X170941016Y-68554866D01*
X170874135Y-68534650D01*
X170829618Y-68483275D01*
X170802686Y-68425520D01*
X170802568Y-68425266D01*
X170672047Y-68238861D01*
X170672045Y-68238858D01*
X170511141Y-68077954D01*
X170324734Y-67947432D01*
X170324732Y-67947431D01*
X170118497Y-67851261D01*
X170118488Y-67851258D01*
X169898697Y-67792366D01*
X169898693Y-67792365D01*
X169898692Y-67792365D01*
X169898691Y-67792364D01*
X169898686Y-67792364D01*
X169672002Y-67772532D01*
X169671998Y-67772532D01*
X169445313Y-67792364D01*
X169445302Y-67792366D01*
X169225511Y-67851258D01*
X169225502Y-67851261D01*
X169019267Y-67947431D01*
X169019265Y-67947432D01*
X168832858Y-68077954D01*
X168671954Y-68238858D01*
X168541432Y-68425265D01*
X168541431Y-68425267D01*
X168514382Y-68483275D01*
X168468209Y-68535714D01*
X168401016Y-68554866D01*
X168334135Y-68534650D01*
X168289618Y-68483275D01*
X168262686Y-68425520D01*
X168262568Y-68425266D01*
X168132047Y-68238861D01*
X168132045Y-68238858D01*
X167971141Y-68077954D01*
X167784734Y-67947432D01*
X167784732Y-67947431D01*
X167578497Y-67851261D01*
X167578488Y-67851258D01*
X167358697Y-67792366D01*
X167358693Y-67792365D01*
X167358692Y-67792365D01*
X167358691Y-67792364D01*
X167358686Y-67792364D01*
X167132002Y-67772532D01*
X167131998Y-67772532D01*
X166905313Y-67792364D01*
X166905302Y-67792366D01*
X166685511Y-67851258D01*
X166685502Y-67851261D01*
X166479267Y-67947431D01*
X166479265Y-67947432D01*
X166292858Y-68077954D01*
X166131954Y-68238858D01*
X166001432Y-68425265D01*
X166001431Y-68425267D01*
X165974382Y-68483275D01*
X165928209Y-68535714D01*
X165861016Y-68554866D01*
X165794135Y-68534650D01*
X165749618Y-68483275D01*
X165722686Y-68425520D01*
X165722568Y-68425266D01*
X165592047Y-68238861D01*
X165592045Y-68238858D01*
X165431141Y-68077954D01*
X165244734Y-67947432D01*
X165244732Y-67947431D01*
X165038497Y-67851261D01*
X165038488Y-67851258D01*
X164818697Y-67792366D01*
X164818693Y-67792365D01*
X164818692Y-67792365D01*
X164818691Y-67792364D01*
X164818686Y-67792364D01*
X164592002Y-67772532D01*
X164591998Y-67772532D01*
X164365313Y-67792364D01*
X164365302Y-67792366D01*
X164145511Y-67851258D01*
X164145502Y-67851261D01*
X163939267Y-67947431D01*
X163939265Y-67947432D01*
X163752858Y-68077954D01*
X163591954Y-68238858D01*
X163461432Y-68425265D01*
X163461431Y-68425267D01*
X163434382Y-68483275D01*
X163388209Y-68535714D01*
X163321016Y-68554866D01*
X163254135Y-68534650D01*
X163209618Y-68483275D01*
X163182686Y-68425520D01*
X163182568Y-68425266D01*
X163052047Y-68238861D01*
X163052045Y-68238858D01*
X162891141Y-68077954D01*
X162704734Y-67947432D01*
X162704732Y-67947431D01*
X162498497Y-67851261D01*
X162498488Y-67851258D01*
X162278697Y-67792366D01*
X162278693Y-67792365D01*
X162278692Y-67792365D01*
X162278691Y-67792364D01*
X162278686Y-67792364D01*
X162052002Y-67772532D01*
X162051998Y-67772532D01*
X161825313Y-67792364D01*
X161825302Y-67792366D01*
X161605511Y-67851258D01*
X161605502Y-67851261D01*
X161399267Y-67947431D01*
X161399265Y-67947432D01*
X161212858Y-68077954D01*
X161051954Y-68238858D01*
X160921432Y-68425265D01*
X160921431Y-68425267D01*
X160894382Y-68483275D01*
X160848209Y-68535714D01*
X160781016Y-68554866D01*
X160714135Y-68534650D01*
X160669618Y-68483275D01*
X160642686Y-68425520D01*
X160642568Y-68425266D01*
X160512047Y-68238861D01*
X160512045Y-68238858D01*
X160351141Y-68077954D01*
X160164734Y-67947432D01*
X160164732Y-67947431D01*
X159958497Y-67851261D01*
X159958488Y-67851258D01*
X159738697Y-67792366D01*
X159738693Y-67792365D01*
X159738692Y-67792365D01*
X159738691Y-67792364D01*
X159738686Y-67792364D01*
X159512002Y-67772532D01*
X159511998Y-67772532D01*
X159285313Y-67792364D01*
X159285302Y-67792366D01*
X159065511Y-67851258D01*
X159065502Y-67851261D01*
X158859267Y-67947431D01*
X158859265Y-67947432D01*
X158672858Y-68077954D01*
X158511954Y-68238858D01*
X158381432Y-68425265D01*
X158381431Y-68425267D01*
X158354382Y-68483275D01*
X158308209Y-68535714D01*
X158241016Y-68554866D01*
X158174135Y-68534650D01*
X158129618Y-68483275D01*
X158102686Y-68425520D01*
X158102568Y-68425266D01*
X157972047Y-68238861D01*
X157972045Y-68238858D01*
X157811141Y-68077954D01*
X157624734Y-67947432D01*
X157624732Y-67947431D01*
X157418497Y-67851261D01*
X157418488Y-67851258D01*
X157198697Y-67792366D01*
X157198693Y-67792365D01*
X157198692Y-67792365D01*
X157198691Y-67792364D01*
X157198686Y-67792364D01*
X156972002Y-67772532D01*
X156971998Y-67772532D01*
X156745313Y-67792364D01*
X156745302Y-67792366D01*
X156525511Y-67851258D01*
X156525502Y-67851261D01*
X156319267Y-67947431D01*
X156319265Y-67947432D01*
X156132858Y-68077954D01*
X155971954Y-68238858D01*
X155866663Y-68389232D01*
X155841432Y-68425266D01*
X155841315Y-68425518D01*
X155814106Y-68483867D01*
X155767933Y-68536306D01*
X155700739Y-68555457D01*
X155633858Y-68535241D01*
X155589342Y-68483865D01*
X155562135Y-68425520D01*
X155562134Y-68425518D01*
X155431657Y-68239179D01*
X155270820Y-68078342D01*
X155084482Y-67947865D01*
X154878328Y-67851734D01*
X154682000Y-67799127D01*
X154682000Y-68465698D01*
X154662315Y-68532737D01*
X154609511Y-68578492D01*
X154540355Y-68588436D01*
X154467766Y-68578000D01*
X154467763Y-68578000D01*
X154396237Y-68578000D01*
X154396233Y-68578000D01*
X154323645Y-68588436D01*
X154254487Y-68578492D01*
X154201684Y-68532736D01*
X154182000Y-68465698D01*
X154182000Y-67799127D01*
X153985671Y-67851734D01*
X153779517Y-67947865D01*
X153593179Y-68078342D01*
X153432342Y-68239179D01*
X153301867Y-68425515D01*
X153274657Y-68483867D01*
X153228484Y-68536306D01*
X153161290Y-68555457D01*
X153094409Y-68535241D01*
X153049893Y-68483865D01*
X153022685Y-68425518D01*
X153022568Y-68425266D01*
X152892047Y-68238861D01*
X152892045Y-68238858D01*
X152731141Y-68077954D01*
X152544734Y-67947432D01*
X152544732Y-67947431D01*
X152338497Y-67851261D01*
X152338488Y-67851258D01*
X152118697Y-67792366D01*
X152118693Y-67792365D01*
X152118692Y-67792365D01*
X152118691Y-67792364D01*
X152118686Y-67792364D01*
X151892002Y-67772532D01*
X151891998Y-67772532D01*
X151665313Y-67792364D01*
X151665302Y-67792366D01*
X151445511Y-67851258D01*
X151445502Y-67851261D01*
X151239267Y-67947431D01*
X151239265Y-67947432D01*
X151052858Y-68077954D01*
X150891954Y-68238858D01*
X150761432Y-68425265D01*
X150761431Y-68425267D01*
X150665261Y-68631502D01*
X150665258Y-68631511D01*
X150655931Y-68666323D01*
X150619566Y-68725984D01*
X150556719Y-68756513D01*
X150487344Y-68748218D01*
X150433466Y-68703733D01*
X150420529Y-68679024D01*
X150377309Y-68567460D01*
X150377308Y-68567459D01*
X150377308Y-68567458D01*
X150266038Y-68387751D01*
X150246141Y-68365925D01*
X150123644Y-68231551D01*
X149954968Y-68104173D01*
X149765762Y-68009959D01*
X149765756Y-68009956D01*
X149562466Y-67952116D01*
X149562463Y-67952115D01*
X149450472Y-67941738D01*
X149404729Y-67937500D01*
X149299271Y-67937500D01*
X149256619Y-67941452D01*
X149141536Y-67952115D01*
X149141533Y-67952116D01*
X148938243Y-68009956D01*
X148938237Y-68009959D01*
X148749031Y-68104173D01*
X148580355Y-68231551D01*
X148437963Y-68387749D01*
X148326691Y-68567459D01*
X148326690Y-68567460D01*
X148252869Y-68758016D01*
X148250338Y-68764550D01*
X148211500Y-68972317D01*
X148211500Y-69183683D01*
X127000500Y-69183683D01*
X127000500Y-67056004D01*
X215380732Y-67056004D01*
X215399777Y-67310154D01*
X215399778Y-67310157D01*
X215456492Y-67558637D01*
X215549607Y-67795888D01*
X215677041Y-68016612D01*
X215835950Y-68215877D01*
X216022783Y-68389232D01*
X216233366Y-68532805D01*
X216233369Y-68532806D01*
X216233370Y-68532807D01*
X216415010Y-68620280D01*
X216466869Y-68667102D01*
X216485182Y-68734529D01*
X216464134Y-68801153D01*
X216410408Y-68845822D01*
X216361208Y-68856000D01*
X215838155Y-68856000D01*
X215778627Y-68862401D01*
X215778620Y-68862403D01*
X215643913Y-68912645D01*
X215643906Y-68912649D01*
X215528812Y-68998809D01*
X215528809Y-68998812D01*
X215442649Y-69113906D01*
X215442645Y-69113913D01*
X215392403Y-69248620D01*
X215392401Y-69248627D01*
X215386000Y-69308155D01*
X215386000Y-70306000D01*
X216372342Y-70306000D01*
X216439381Y-70325685D01*
X216485136Y-70378489D01*
X216495280Y-70446183D01*
X216480823Y-70556000D01*
X216495280Y-70665816D01*
X216484516Y-70734849D01*
X216438136Y-70787105D01*
X216372342Y-70806000D01*
X215386000Y-70806000D01*
X215386000Y-71803844D01*
X215392401Y-71863372D01*
X215392403Y-71863379D01*
X215442645Y-71998086D01*
X215442649Y-71998093D01*
X215528809Y-72113187D01*
X215528812Y-72113190D01*
X215643906Y-72199350D01*
X215643913Y-72199354D01*
X215778620Y-72249596D01*
X215778627Y-72249598D01*
X215838155Y-72255999D01*
X215838172Y-72256000D01*
X216836000Y-72256000D01*
X216836000Y-71269658D01*
X216855685Y-71202619D01*
X216908489Y-71156864D01*
X216976184Y-71146719D01*
X217046677Y-71156000D01*
X217046684Y-71156000D01*
X217125316Y-71156000D01*
X217125323Y-71156000D01*
X217195815Y-71146719D01*
X217264849Y-71157484D01*
X217317105Y-71203864D01*
X217336000Y-71269658D01*
X217336000Y-72256000D01*
X218333828Y-72256000D01*
X218333844Y-72255999D01*
X218393372Y-72249598D01*
X218393379Y-72249596D01*
X218528086Y-72199354D01*
X218528093Y-72199350D01*
X218643187Y-72113190D01*
X218643190Y-72113187D01*
X218729350Y-71998093D01*
X218729354Y-71998086D01*
X218779596Y-71863379D01*
X218779598Y-71863372D01*
X218785999Y-71803844D01*
X218786000Y-71803827D01*
X218786000Y-70806000D01*
X217799658Y-70806000D01*
X217732619Y-70786315D01*
X217686864Y-70733511D01*
X217676719Y-70665816D01*
X217691177Y-70556000D01*
X217676719Y-70446183D01*
X217687484Y-70377151D01*
X217733864Y-70324895D01*
X217799658Y-70306000D01*
X218786000Y-70306000D01*
X218786000Y-69308172D01*
X218785999Y-69308155D01*
X218779598Y-69248627D01*
X218779596Y-69248620D01*
X218729354Y-69113913D01*
X218729350Y-69113906D01*
X218643190Y-68998812D01*
X218643187Y-68998809D01*
X218528093Y-68912649D01*
X218528086Y-68912645D01*
X218393379Y-68862403D01*
X218393372Y-68862401D01*
X218333844Y-68856000D01*
X217810792Y-68856000D01*
X217743753Y-68836315D01*
X217697998Y-68783511D01*
X217688054Y-68714353D01*
X217717079Y-68650797D01*
X217756990Y-68620280D01*
X217823115Y-68588436D01*
X217938634Y-68532805D01*
X218149217Y-68389232D01*
X218336050Y-68215877D01*
X218494959Y-68016612D01*
X218622393Y-67795888D01*
X218715508Y-67558637D01*
X218772222Y-67310157D01*
X218791268Y-67056000D01*
X218772222Y-66801843D01*
X218715508Y-66553363D01*
X218622393Y-66316112D01*
X218494959Y-66095388D01*
X218336050Y-65896123D01*
X218149217Y-65722768D01*
X217938634Y-65579195D01*
X217938630Y-65579193D01*
X217938627Y-65579191D01*
X217938626Y-65579190D01*
X217709006Y-65468612D01*
X217709008Y-65468612D01*
X217465466Y-65393489D01*
X217465462Y-65393488D01*
X217465458Y-65393487D01*
X217344231Y-65375214D01*
X217213440Y-65355500D01*
X217213435Y-65355500D01*
X216958565Y-65355500D01*
X216958559Y-65355500D01*
X216801609Y-65379157D01*
X216706542Y-65393487D01*
X216706538Y-65393488D01*
X216706539Y-65393488D01*
X216706533Y-65393489D01*
X216462992Y-65468612D01*
X216233373Y-65579190D01*
X216233372Y-65579191D01*
X216022782Y-65722768D01*
X215835952Y-65896121D01*
X215835950Y-65896123D01*
X215677041Y-66095388D01*
X215549608Y-66316109D01*
X215456492Y-66553362D01*
X215456490Y-66553369D01*
X215399777Y-66801845D01*
X215380732Y-67055995D01*
X215380732Y-67056004D01*
X127000500Y-67056004D01*
X127000500Y-61388000D01*
X140947227Y-61388000D01*
X140966286Y-61605849D01*
X140966288Y-61605859D01*
X141022884Y-61817082D01*
X141022886Y-61817086D01*
X141022887Y-61817090D01*
X141058501Y-61893465D01*
X141115307Y-62015286D01*
X141140394Y-62051114D01*
X141240742Y-62194425D01*
X141395376Y-62349059D01*
X141574514Y-62474493D01*
X141772711Y-62566914D01*
X141983947Y-62623514D01*
X142158230Y-62638761D01*
X142201800Y-62642574D01*
X142201801Y-62642574D01*
X142201802Y-62642574D01*
X142238110Y-62639397D01*
X142419655Y-62623514D01*
X142630891Y-62566914D01*
X142829088Y-62474493D01*
X143008226Y-62349059D01*
X143162860Y-62194425D01*
X143288294Y-62015287D01*
X143380715Y-61817090D01*
X143437315Y-61605854D01*
X143456375Y-61388000D01*
X149947227Y-61388000D01*
X149966286Y-61605849D01*
X149966288Y-61605859D01*
X150022884Y-61817082D01*
X150022886Y-61817086D01*
X150022887Y-61817090D01*
X150058501Y-61893465D01*
X150115307Y-62015286D01*
X150140394Y-62051114D01*
X150240742Y-62194425D01*
X150395376Y-62349059D01*
X150574514Y-62474493D01*
X150772711Y-62566914D01*
X150983947Y-62623514D01*
X151158230Y-62638761D01*
X151201800Y-62642574D01*
X151201801Y-62642574D01*
X151201802Y-62642574D01*
X151238110Y-62639397D01*
X151419655Y-62623514D01*
X151630891Y-62566914D01*
X151829088Y-62474493D01*
X152008226Y-62349059D01*
X152162860Y-62194425D01*
X152288294Y-62015287D01*
X152380715Y-61817090D01*
X152437315Y-61605854D01*
X152456375Y-61388000D01*
X158947227Y-61388000D01*
X158966286Y-61605849D01*
X158966288Y-61605859D01*
X159022884Y-61817082D01*
X159022886Y-61817086D01*
X159022887Y-61817090D01*
X159058501Y-61893465D01*
X159115307Y-62015286D01*
X159140394Y-62051114D01*
X159240742Y-62194425D01*
X159395376Y-62349059D01*
X159574514Y-62474493D01*
X159772711Y-62566914D01*
X159983947Y-62623514D01*
X160158230Y-62638761D01*
X160201800Y-62642574D01*
X160201801Y-62642574D01*
X160201802Y-62642574D01*
X160238110Y-62639397D01*
X160419655Y-62623514D01*
X160630891Y-62566914D01*
X160829088Y-62474493D01*
X161008226Y-62349059D01*
X161162860Y-62194425D01*
X161288294Y-62015287D01*
X161380715Y-61817090D01*
X161437315Y-61605854D01*
X161456375Y-61388000D01*
X168417426Y-61388000D01*
X168436485Y-61605849D01*
X168436487Y-61605859D01*
X168493083Y-61817082D01*
X168493085Y-61817086D01*
X168493086Y-61817090D01*
X168528700Y-61893465D01*
X168585506Y-62015286D01*
X168610593Y-62051114D01*
X168710941Y-62194425D01*
X168865575Y-62349059D01*
X169044713Y-62474493D01*
X169242910Y-62566914D01*
X169454146Y-62623514D01*
X169628429Y-62638761D01*
X169671999Y-62642574D01*
X169672000Y-62642574D01*
X169672001Y-62642574D01*
X169708309Y-62639397D01*
X169889854Y-62623514D01*
X170101090Y-62566914D01*
X170299287Y-62474493D01*
X170478425Y-62349059D01*
X170633059Y-62194425D01*
X170758493Y-62015287D01*
X170850914Y-61817090D01*
X170907514Y-61605854D01*
X170919575Y-61468000D01*
X177777227Y-61468000D01*
X177796286Y-61685849D01*
X177796288Y-61685859D01*
X177852884Y-61897082D01*
X177852886Y-61897086D01*
X177852887Y-61897090D01*
X177889684Y-61976001D01*
X177945307Y-62095286D01*
X177945308Y-62095287D01*
X178070742Y-62274425D01*
X178225376Y-62429059D01*
X178404514Y-62554493D01*
X178602711Y-62646914D01*
X178813947Y-62703514D01*
X178988230Y-62718761D01*
X179031800Y-62722574D01*
X179031801Y-62722574D01*
X179031802Y-62722574D01*
X179068109Y-62719397D01*
X179249655Y-62703514D01*
X179460891Y-62646914D01*
X179659088Y-62554493D01*
X179838226Y-62429059D01*
X179992860Y-62274425D01*
X180118294Y-62095287D01*
X180210715Y-61897090D01*
X180267315Y-61685854D01*
X180286375Y-61468000D01*
X186777227Y-61468000D01*
X186796286Y-61685849D01*
X186796288Y-61685859D01*
X186852884Y-61897082D01*
X186852886Y-61897086D01*
X186852887Y-61897090D01*
X186889684Y-61976001D01*
X186945307Y-62095286D01*
X186945308Y-62095287D01*
X187070742Y-62274425D01*
X187225376Y-62429059D01*
X187404514Y-62554493D01*
X187602711Y-62646914D01*
X187813947Y-62703514D01*
X187988230Y-62718761D01*
X188031800Y-62722574D01*
X188031801Y-62722574D01*
X188031802Y-62722574D01*
X188068109Y-62719397D01*
X188249655Y-62703514D01*
X188460891Y-62646914D01*
X188659088Y-62554493D01*
X188838226Y-62429059D01*
X188992860Y-62274425D01*
X189118294Y-62095287D01*
X189210715Y-61897090D01*
X189267315Y-61685854D01*
X189286375Y-61468000D01*
X195777227Y-61468000D01*
X195796286Y-61685849D01*
X195796288Y-61685859D01*
X195852884Y-61897082D01*
X195852886Y-61897086D01*
X195852887Y-61897090D01*
X195889684Y-61976001D01*
X195945307Y-62095286D01*
X195945308Y-62095287D01*
X196070742Y-62274425D01*
X196225376Y-62429059D01*
X196404514Y-62554493D01*
X196602711Y-62646914D01*
X196813947Y-62703514D01*
X196988230Y-62718761D01*
X197031800Y-62722574D01*
X197031801Y-62722574D01*
X197031802Y-62722574D01*
X197068109Y-62719397D01*
X197249655Y-62703514D01*
X197460891Y-62646914D01*
X197659088Y-62554493D01*
X197838226Y-62429059D01*
X197992860Y-62274425D01*
X198118294Y-62095287D01*
X198210715Y-61897090D01*
X198267315Y-61685854D01*
X198286375Y-61468000D01*
X205247426Y-61468000D01*
X205266485Y-61685849D01*
X205266487Y-61685859D01*
X205323083Y-61897082D01*
X205323085Y-61897086D01*
X205323086Y-61897090D01*
X205359883Y-61976001D01*
X205415506Y-62095286D01*
X205415507Y-62095287D01*
X205540941Y-62274425D01*
X205695575Y-62429059D01*
X205874713Y-62554493D01*
X206072910Y-62646914D01*
X206284146Y-62703514D01*
X206458429Y-62718761D01*
X206501999Y-62722574D01*
X206502000Y-62722574D01*
X206502001Y-62722574D01*
X206538309Y-62719397D01*
X206719854Y-62703514D01*
X206931090Y-62646914D01*
X207129287Y-62554493D01*
X207308425Y-62429059D01*
X207463059Y-62274425D01*
X207588493Y-62095287D01*
X207644119Y-61975998D01*
X211815426Y-61975998D01*
X211817389Y-61998453D01*
X211817563Y-62006643D01*
X211816411Y-62032291D01*
X211816412Y-62032300D01*
X211827338Y-62112972D01*
X211827663Y-62115888D01*
X211834486Y-62193855D01*
X211841167Y-62218790D01*
X211842720Y-62226520D01*
X211846608Y-62255224D01*
X211846610Y-62255232D01*
X211852848Y-62274429D01*
X211870761Y-62329561D01*
X211871677Y-62332653D01*
X211891086Y-62405091D01*
X211903387Y-62431471D01*
X211906164Y-62438520D01*
X211916130Y-62469191D01*
X211951600Y-62535106D01*
X211953192Y-62538278D01*
X211983507Y-62603287D01*
X211997669Y-62623512D01*
X212002085Y-62629819D01*
X212005894Y-62635999D01*
X212021819Y-62665593D01*
X212022733Y-62667292D01*
X212022734Y-62667294D01*
X212067373Y-62723269D01*
X212069688Y-62726365D01*
X212108942Y-62782427D01*
X212134157Y-62807642D01*
X212138793Y-62812829D01*
X212162997Y-62843180D01*
X212189153Y-62866031D01*
X212214456Y-62888138D01*
X212217498Y-62890982D01*
X212263575Y-62937059D01*
X212278595Y-62947576D01*
X212295483Y-62959402D01*
X212300717Y-62963501D01*
X212332417Y-62991197D01*
X212388273Y-63024569D01*
X212392002Y-63026984D01*
X212442713Y-63062493D01*
X212453445Y-63067497D01*
X212480980Y-63080337D01*
X212486582Y-63083306D01*
X212525540Y-63106583D01*
X212583375Y-63128288D01*
X212587780Y-63130139D01*
X212611290Y-63141102D01*
X212640910Y-63154914D01*
X212684866Y-63166691D01*
X212690600Y-63168531D01*
X212736154Y-63185628D01*
X212736157Y-63185629D01*
X212736163Y-63185631D01*
X212793716Y-63196075D01*
X212798690Y-63197191D01*
X212814847Y-63201520D01*
X212852146Y-63211514D01*
X212900766Y-63215767D01*
X212906389Y-63216521D01*
X212957516Y-63225800D01*
X213012727Y-63225800D01*
X213018129Y-63226035D01*
X213070000Y-63230574D01*
X213122941Y-63225942D01*
X213126095Y-63225800D01*
X213126132Y-63225800D01*
X213177299Y-63221194D01*
X213180661Y-63220892D01*
X213188905Y-63220170D01*
X213287854Y-63211514D01*
X213287876Y-63211507D01*
X213288362Y-63211423D01*
X213293579Y-63210729D01*
X213294062Y-63210686D01*
X213398014Y-63181996D01*
X213499090Y-63154914D01*
X213499106Y-63154906D01*
X213505979Y-63152404D01*
X213510693Y-63150899D01*
X213510923Y-63150836D01*
X213605251Y-63105410D01*
X213697287Y-63062493D01*
X213697299Y-63062484D01*
X213701970Y-63059788D01*
X213702044Y-63059917D01*
X213712799Y-63053618D01*
X213713611Y-63053227D01*
X213713611Y-63053226D01*
X213713613Y-63053226D01*
X213795810Y-62993505D01*
X213876425Y-62937059D01*
X213877285Y-62936198D01*
X213892088Y-62923555D01*
X213895616Y-62920993D01*
X213920100Y-62895383D01*
X213980655Y-62860530D01*
X214050441Y-62863947D01*
X214107301Y-62904551D01*
X214108995Y-62906761D01*
X214164756Y-62981247D01*
X214279965Y-63067493D01*
X214279972Y-63067497D01*
X214414818Y-63117791D01*
X214414817Y-63117791D01*
X214421745Y-63118535D01*
X214474428Y-63124200D01*
X215865573Y-63124199D01*
X215925184Y-63117791D01*
X216060032Y-63067496D01*
X216175247Y-62981246D01*
X216252851Y-62877580D01*
X216308783Y-62835711D01*
X216378475Y-62830727D01*
X216435654Y-62860256D01*
X216454659Y-62877582D01*
X216475091Y-62896208D01*
X216475093Y-62896210D01*
X216656008Y-63008228D01*
X216656014Y-63008231D01*
X216698049Y-63024515D01*
X216854435Y-63085099D01*
X217063605Y-63124200D01*
X217063607Y-63124200D01*
X217276395Y-63124200D01*
X217276397Y-63124200D01*
X217485567Y-63085099D01*
X217683990Y-63008230D01*
X217864910Y-62896209D01*
X218022166Y-62752851D01*
X218071049Y-62688119D01*
X218127155Y-62646486D01*
X218196867Y-62641793D01*
X218258049Y-62675535D01*
X218268955Y-62688121D01*
X218317838Y-62752853D01*
X218475092Y-62896208D01*
X218475094Y-62896210D01*
X218656009Y-63008228D01*
X218656015Y-63008231D01*
X218698050Y-63024515D01*
X218854436Y-63085099D01*
X219063606Y-63124200D01*
X219063608Y-63124200D01*
X219276396Y-63124200D01*
X219276398Y-63124200D01*
X219485568Y-63085099D01*
X219683991Y-63008230D01*
X219864911Y-62896209D01*
X220022167Y-62752851D01*
X220056619Y-62707228D01*
X220112728Y-62665593D01*
X220182440Y-62660902D01*
X220243622Y-62694644D01*
X220252519Y-62704642D01*
X220267374Y-62723269D01*
X220269689Y-62726365D01*
X220308943Y-62782427D01*
X220334158Y-62807642D01*
X220338794Y-62812829D01*
X220362998Y-62843180D01*
X220389154Y-62866031D01*
X220414457Y-62888138D01*
X220417499Y-62890982D01*
X220463576Y-62937059D01*
X220478596Y-62947576D01*
X220495484Y-62959402D01*
X220500718Y-62963501D01*
X220532418Y-62991197D01*
X220588274Y-63024569D01*
X220592003Y-63026984D01*
X220642714Y-63062493D01*
X220653446Y-63067497D01*
X220680981Y-63080337D01*
X220686583Y-63083306D01*
X220725541Y-63106583D01*
X220783376Y-63128288D01*
X220787781Y-63130139D01*
X220811291Y-63141102D01*
X220840911Y-63154914D01*
X220884867Y-63166691D01*
X220890601Y-63168531D01*
X220936155Y-63185628D01*
X220936158Y-63185629D01*
X220936164Y-63185631D01*
X220993717Y-63196075D01*
X220998691Y-63197191D01*
X221014848Y-63201520D01*
X221052147Y-63211514D01*
X221100767Y-63215767D01*
X221106390Y-63216521D01*
X221157517Y-63225800D01*
X221212728Y-63225800D01*
X221218130Y-63226035D01*
X221270001Y-63230574D01*
X221322942Y-63225942D01*
X221326096Y-63225800D01*
X221326133Y-63225800D01*
X221377300Y-63221194D01*
X221380662Y-63220892D01*
X221388906Y-63220170D01*
X221487855Y-63211514D01*
X221487877Y-63211507D01*
X221488363Y-63211423D01*
X221493580Y-63210729D01*
X221494063Y-63210686D01*
X221598015Y-63181996D01*
X221699091Y-63154914D01*
X221699107Y-63154906D01*
X221705980Y-63152404D01*
X221710694Y-63150899D01*
X221710924Y-63150836D01*
X221805252Y-63105410D01*
X221897288Y-63062493D01*
X221897300Y-63062484D01*
X221901971Y-63059788D01*
X221902045Y-63059917D01*
X221912800Y-63053618D01*
X221913612Y-63053227D01*
X221913612Y-63053226D01*
X221913614Y-63053226D01*
X221995811Y-62993505D01*
X222076426Y-62937059D01*
X222077286Y-62936198D01*
X222092089Y-62923555D01*
X222095617Y-62920993D01*
X222137122Y-62877582D01*
X222163670Y-62849814D01*
X222231055Y-62782430D01*
X222231055Y-62782429D01*
X222231060Y-62782425D01*
X222233737Y-62778600D01*
X222245691Y-62764027D01*
X222251084Y-62758387D01*
X222303615Y-62678805D01*
X222328985Y-62642574D01*
X222356490Y-62603293D01*
X222356490Y-62603292D01*
X222356494Y-62603287D01*
X222359922Y-62595932D01*
X222368813Y-62580032D01*
X222375018Y-62570635D01*
X222411267Y-62485824D01*
X222448915Y-62405090D01*
X222451903Y-62393934D01*
X222457659Y-62377286D01*
X222463436Y-62363771D01*
X222483266Y-62276885D01*
X222505515Y-62193854D01*
X222507193Y-62174664D01*
X222508510Y-62166284D01*
X222513496Y-62144443D01*
X222517354Y-62058534D01*
X222524575Y-61976000D01*
X222522609Y-61953545D01*
X222522436Y-61945357D01*
X222523589Y-61919701D01*
X222512659Y-61839014D01*
X222512335Y-61836101D01*
X222509838Y-61807558D01*
X222505515Y-61758146D01*
X222498830Y-61733198D01*
X222497279Y-61725474D01*
X222496721Y-61721356D01*
X222493391Y-61696769D01*
X222489844Y-61685854D01*
X222469242Y-61622449D01*
X222468328Y-61619366D01*
X222448915Y-61546910D01*
X222436612Y-61520526D01*
X222433838Y-61513486D01*
X222423872Y-61482812D01*
X222388392Y-61416879D01*
X222386807Y-61413720D01*
X222356494Y-61348713D01*
X222356493Y-61348711D01*
X222356491Y-61348708D01*
X222337917Y-61322182D01*
X222334104Y-61315995D01*
X222328464Y-61305514D01*
X222317267Y-61284706D01*
X222272620Y-61228720D01*
X222270323Y-61225649D01*
X222231060Y-61169575D01*
X222205843Y-61144358D01*
X222201205Y-61139169D01*
X222187800Y-61122360D01*
X222177002Y-61108819D01*
X222125544Y-61063861D01*
X222122501Y-61061016D01*
X222076426Y-61014941D01*
X222076425Y-61014940D01*
X222044514Y-60992596D01*
X222039288Y-60988502D01*
X222007587Y-60960805D01*
X222004427Y-60958917D01*
X221951734Y-60927434D01*
X221947984Y-60925005D01*
X221897294Y-60889510D01*
X221897289Y-60889508D01*
X221897290Y-60889508D01*
X221897288Y-60889507D01*
X221859003Y-60871654D01*
X221853425Y-60868697D01*
X221816423Y-60846589D01*
X221814462Y-60845417D01*
X221756629Y-60823712D01*
X221752210Y-60821856D01*
X221699097Y-60797088D01*
X221699084Y-60797084D01*
X221655132Y-60785306D01*
X221649391Y-60783465D01*
X221603839Y-60766369D01*
X221546281Y-60755923D01*
X221541306Y-60754807D01*
X221514104Y-60747519D01*
X221487855Y-60740486D01*
X221465748Y-60738551D01*
X221439249Y-60736233D01*
X221433581Y-60735472D01*
X221382489Y-60726200D01*
X221382485Y-60726200D01*
X221327274Y-60726200D01*
X221321871Y-60725964D01*
X221290257Y-60723198D01*
X221270002Y-60721426D01*
X221269999Y-60721426D01*
X221217097Y-60726054D01*
X221213882Y-60726199D01*
X221213871Y-60726200D01*
X221213869Y-60726200D01*
X221159340Y-60731107D01*
X221052147Y-60740486D01*
X221052145Y-60740486D01*
X221052138Y-60740487D01*
X221051599Y-60740582D01*
X221046424Y-60741270D01*
X221045940Y-60741313D01*
X221045934Y-60741314D01*
X220941986Y-60770003D01*
X220840902Y-60797088D01*
X220833991Y-60799603D01*
X220829307Y-60801099D01*
X220829100Y-60801156D01*
X220829073Y-60801166D01*
X220734749Y-60846589D01*
X220642716Y-60889505D01*
X220638020Y-60892217D01*
X220637947Y-60892091D01*
X220627222Y-60898372D01*
X220626393Y-60898770D01*
X220626379Y-60898779D01*
X220544190Y-60958494D01*
X220463576Y-61014940D01*
X220462704Y-61015813D01*
X220447924Y-61028435D01*
X220444391Y-61031001D01*
X220444379Y-61031012D01*
X220376331Y-61102185D01*
X220308942Y-61169575D01*
X220308929Y-61169591D01*
X220306250Y-61173416D01*
X220294325Y-61187956D01*
X220288919Y-61193610D01*
X220288916Y-61193614D01*
X220259231Y-61238585D01*
X220205870Y-61283689D01*
X220136595Y-61292784D01*
X220073400Y-61262983D01*
X220056791Y-61244998D01*
X220022168Y-61199150D01*
X220022166Y-61199147D01*
X219864911Y-61055791D01*
X219864909Y-61055789D01*
X219683994Y-60943771D01*
X219683988Y-60943768D01*
X219497860Y-60871663D01*
X219485568Y-60866901D01*
X219276398Y-60827800D01*
X219063606Y-60827800D01*
X218854436Y-60866901D01*
X218854433Y-60866901D01*
X218854433Y-60866902D01*
X218656015Y-60943768D01*
X218656009Y-60943771D01*
X218475094Y-61055789D01*
X218475092Y-61055791D01*
X218317837Y-61199147D01*
X218268954Y-61263879D01*
X218212845Y-61305514D01*
X218143133Y-61310205D01*
X218081951Y-61276462D01*
X218071047Y-61263878D01*
X218070371Y-61262983D01*
X218040923Y-61223987D01*
X218022164Y-61199146D01*
X217864910Y-61055791D01*
X217864908Y-61055789D01*
X217683993Y-60943771D01*
X217683987Y-60943768D01*
X217497859Y-60871663D01*
X217485567Y-60866901D01*
X217276397Y-60827800D01*
X217063605Y-60827800D01*
X216854435Y-60866901D01*
X216854432Y-60866901D01*
X216854432Y-60866902D01*
X216656014Y-60943768D01*
X216656008Y-60943771D01*
X216475093Y-61055789D01*
X216475091Y-61055791D01*
X216435654Y-61091743D01*
X216372850Y-61122360D01*
X216303463Y-61114162D01*
X216252850Y-61074417D01*
X216175248Y-60970755D01*
X216175245Y-60970752D01*
X216060036Y-60884506D01*
X216060029Y-60884502D01*
X215925183Y-60834208D01*
X215925184Y-60834208D01*
X215865584Y-60827801D01*
X215865582Y-60827800D01*
X215865574Y-60827800D01*
X215865565Y-60827800D01*
X214474430Y-60827800D01*
X214474424Y-60827801D01*
X214414817Y-60834208D01*
X214279972Y-60884502D01*
X214279965Y-60884506D01*
X214164756Y-60970752D01*
X214108168Y-61046344D01*
X214052234Y-61088214D01*
X213982542Y-61093198D01*
X213927081Y-61065206D01*
X213926913Y-61065058D01*
X213925374Y-61063707D01*
X213922444Y-61060960D01*
X213876425Y-61014941D01*
X213876424Y-61014940D01*
X213844513Y-60992596D01*
X213839287Y-60988502D01*
X213807586Y-60960805D01*
X213804426Y-60958917D01*
X213751733Y-60927434D01*
X213747983Y-60925005D01*
X213697293Y-60889510D01*
X213697288Y-60889508D01*
X213697289Y-60889508D01*
X213697287Y-60889507D01*
X213659002Y-60871654D01*
X213653424Y-60868697D01*
X213616422Y-60846589D01*
X213614461Y-60845417D01*
X213556628Y-60823712D01*
X213552209Y-60821856D01*
X213499096Y-60797088D01*
X213499083Y-60797084D01*
X213455131Y-60785306D01*
X213449390Y-60783465D01*
X213403838Y-60766369D01*
X213346280Y-60755923D01*
X213341305Y-60754807D01*
X213314103Y-60747519D01*
X213287854Y-60740486D01*
X213265747Y-60738551D01*
X213239248Y-60736233D01*
X213233580Y-60735472D01*
X213182488Y-60726200D01*
X213182484Y-60726200D01*
X213127273Y-60726200D01*
X213121870Y-60725964D01*
X213090256Y-60723198D01*
X213070001Y-60721426D01*
X213069998Y-60721426D01*
X213017096Y-60726054D01*
X213013881Y-60726199D01*
X213013870Y-60726200D01*
X213013868Y-60726200D01*
X212959339Y-60731107D01*
X212852146Y-60740486D01*
X212852144Y-60740486D01*
X212852137Y-60740487D01*
X212851598Y-60740582D01*
X212846423Y-60741270D01*
X212845939Y-60741313D01*
X212845933Y-60741314D01*
X212741985Y-60770003D01*
X212640901Y-60797088D01*
X212633990Y-60799603D01*
X212629306Y-60801099D01*
X212629099Y-60801156D01*
X212629072Y-60801166D01*
X212534748Y-60846589D01*
X212442715Y-60889505D01*
X212438019Y-60892217D01*
X212437946Y-60892091D01*
X212427221Y-60898372D01*
X212426392Y-60898770D01*
X212426378Y-60898779D01*
X212344189Y-60958494D01*
X212263575Y-61014940D01*
X212262703Y-61015813D01*
X212247923Y-61028435D01*
X212244390Y-61031001D01*
X212244378Y-61031012D01*
X212176330Y-61102185D01*
X212108941Y-61169575D01*
X212108928Y-61169591D01*
X212106249Y-61173416D01*
X212094324Y-61187956D01*
X212088918Y-61193610D01*
X212088914Y-61193616D01*
X212036385Y-61273194D01*
X211983505Y-61348715D01*
X211980073Y-61356074D01*
X211971188Y-61371963D01*
X211964983Y-61381363D01*
X211964982Y-61381366D01*
X211928732Y-61466175D01*
X211891088Y-61546903D01*
X211888093Y-61558079D01*
X211882345Y-61574704D01*
X211876566Y-61588226D01*
X211876564Y-61588232D01*
X211856734Y-61675115D01*
X211834485Y-61758147D01*
X211834484Y-61758151D01*
X211832806Y-61777328D01*
X211831487Y-61785721D01*
X211826506Y-61807549D01*
X211826505Y-61807558D01*
X211822646Y-61893465D01*
X211815426Y-61975997D01*
X211815426Y-61975998D01*
X207644119Y-61975998D01*
X207680914Y-61897090D01*
X207737514Y-61685854D01*
X207756574Y-61468000D01*
X207737514Y-61250146D01*
X207680914Y-61038910D01*
X207588493Y-60840713D01*
X207463059Y-60661575D01*
X207308425Y-60506941D01*
X207165114Y-60406593D01*
X207129286Y-60381506D01*
X207019056Y-60330105D01*
X206966617Y-60283932D01*
X206947465Y-60216739D01*
X206967681Y-60149858D01*
X207019057Y-60105340D01*
X207129037Y-60054056D01*
X207191069Y-60010621D01*
X206757680Y-59577233D01*
X206724195Y-59515910D01*
X206729179Y-59446219D01*
X206766831Y-59395920D01*
X206765830Y-59394765D01*
X206772533Y-59388957D01*
X206880172Y-59295688D01*
X206915551Y-59240635D01*
X206968352Y-59194882D01*
X207037511Y-59184937D01*
X207101067Y-59213961D01*
X207107547Y-59219994D01*
X207544621Y-59657069D01*
X207588057Y-59595035D01*
X207680440Y-59396919D01*
X207680444Y-59396910D01*
X207737018Y-59185771D01*
X207737020Y-59185761D01*
X207756072Y-58968001D01*
X207756072Y-58967998D01*
X207737020Y-58750238D01*
X207737018Y-58750228D01*
X207680444Y-58539089D01*
X207680440Y-58539080D01*
X207588055Y-58340960D01*
X207544622Y-58278930D01*
X207544621Y-58278929D01*
X207107547Y-58716004D01*
X207046224Y-58749489D01*
X206976532Y-58744505D01*
X206920599Y-58702633D01*
X206915550Y-58695362D01*
X206880172Y-58640312D01*
X206772533Y-58547043D01*
X206772532Y-58547042D01*
X206765830Y-58541235D01*
X206767948Y-58538790D01*
X206732569Y-58497967D01*
X206722621Y-58428809D01*
X206751641Y-58365251D01*
X206757679Y-58358766D01*
X207191069Y-57925377D01*
X207191068Y-57925376D01*
X207129038Y-57881943D01*
X207129036Y-57881942D01*
X207019057Y-57830658D01*
X206966617Y-57784486D01*
X206947465Y-57717292D01*
X206967681Y-57650411D01*
X207019057Y-57605894D01*
X207129287Y-57554493D01*
X207308425Y-57429059D01*
X207463059Y-57274425D01*
X207588493Y-57095287D01*
X207680914Y-56897090D01*
X207737514Y-56685854D01*
X207756574Y-56468000D01*
X207737514Y-56250146D01*
X207680914Y-56038910D01*
X207588493Y-55840713D01*
X207463059Y-55661575D01*
X207308425Y-55506941D01*
X207129287Y-55381507D01*
X207129288Y-55381507D01*
X207129286Y-55381506D01*
X207030188Y-55335296D01*
X206931090Y-55289086D01*
X206931086Y-55289085D01*
X206931082Y-55289083D01*
X206719859Y-55232487D01*
X206719849Y-55232485D01*
X206502001Y-55213426D01*
X206501999Y-55213426D01*
X206284150Y-55232485D01*
X206284140Y-55232487D01*
X206072917Y-55289083D01*
X206072908Y-55289087D01*
X205874713Y-55381506D01*
X205786215Y-55443474D01*
X205695575Y-55506941D01*
X205695573Y-55506942D01*
X205695570Y-55506945D01*
X205540945Y-55661570D01*
X205415506Y-55840713D01*
X205323087Y-56038908D01*
X205323083Y-56038917D01*
X205266487Y-56250140D01*
X205266485Y-56250150D01*
X205247426Y-56467999D01*
X205247426Y-56468000D01*
X205266485Y-56685849D01*
X205266487Y-56685859D01*
X205323083Y-56897082D01*
X205323085Y-56897086D01*
X205323086Y-56897090D01*
X205343601Y-56941084D01*
X205415506Y-57095286D01*
X205415507Y-57095287D01*
X205540941Y-57274425D01*
X205695575Y-57429059D01*
X205874712Y-57554492D01*
X205874713Y-57554493D01*
X205984943Y-57605894D01*
X206037382Y-57652066D01*
X206056534Y-57719260D01*
X206036318Y-57786141D01*
X205984943Y-57830658D01*
X205874964Y-57881942D01*
X205812930Y-57925377D01*
X206246319Y-58358766D01*
X206279804Y-58420089D01*
X206274820Y-58489781D01*
X206237167Y-58540077D01*
X206238170Y-58541235D01*
X206231467Y-58547042D01*
X206231467Y-58547043D01*
X206216152Y-58560314D01*
X206123826Y-58640314D01*
X206123824Y-58640316D01*
X206088448Y-58695363D01*
X206035644Y-58741118D01*
X205966486Y-58751062D01*
X205902930Y-58722037D01*
X205896452Y-58716005D01*
X205459377Y-58278930D01*
X205415942Y-58340964D01*
X205323559Y-58539080D01*
X205323555Y-58539089D01*
X205266981Y-58750228D01*
X205266979Y-58750238D01*
X205247928Y-58967998D01*
X205247928Y-58968001D01*
X205266979Y-59185761D01*
X205266981Y-59185771D01*
X205323555Y-59396910D01*
X205323559Y-59396919D01*
X205415944Y-59595039D01*
X205459376Y-59657068D01*
X205459377Y-59657069D01*
X205896451Y-59219994D01*
X205957774Y-59186509D01*
X206027465Y-59191493D01*
X206083399Y-59233364D01*
X206088447Y-59240635D01*
X206123826Y-59295685D01*
X206123828Y-59295688D01*
X206231467Y-59388957D01*
X206238170Y-59394765D01*
X206236050Y-59397210D01*
X206271426Y-59438028D01*
X206281377Y-59507185D01*
X206252358Y-59570744D01*
X206246318Y-59577232D01*
X205812929Y-60010620D01*
X205812930Y-60010622D01*
X205874961Y-60054056D01*
X205874962Y-60054057D01*
X205984942Y-60105341D01*
X206037382Y-60151513D01*
X206056534Y-60218706D01*
X206036319Y-60285587D01*
X205984944Y-60330105D01*
X205874711Y-60381508D01*
X205809827Y-60426941D01*
X205695575Y-60506941D01*
X205695573Y-60506942D01*
X205695570Y-60506945D01*
X205540945Y-60661570D01*
X205415506Y-60840713D01*
X205323087Y-61038908D01*
X205323083Y-61038917D01*
X205266487Y-61250140D01*
X205266485Y-61250150D01*
X205247426Y-61467999D01*
X205247426Y-61468000D01*
X198286375Y-61468000D01*
X198267315Y-61250146D01*
X198210715Y-61038910D01*
X198118294Y-60840713D01*
X197992860Y-60661575D01*
X197838226Y-60506941D01*
X197694915Y-60406593D01*
X197659087Y-60381506D01*
X197548857Y-60330105D01*
X197496418Y-60283932D01*
X197477266Y-60216739D01*
X197497482Y-60149858D01*
X197548858Y-60105340D01*
X197658838Y-60054056D01*
X197720870Y-60010621D01*
X197287481Y-59577233D01*
X197253996Y-59515910D01*
X197258980Y-59446219D01*
X197296632Y-59395920D01*
X197295631Y-59394765D01*
X197302334Y-59388957D01*
X197409973Y-59295688D01*
X197445352Y-59240635D01*
X197498153Y-59194882D01*
X197567312Y-59184937D01*
X197630868Y-59213961D01*
X197637348Y-59219994D01*
X198074422Y-59657069D01*
X198117858Y-59595035D01*
X198210241Y-59396919D01*
X198210245Y-59396910D01*
X198266819Y-59185771D01*
X198266821Y-59185761D01*
X198285873Y-58968001D01*
X198285873Y-58967998D01*
X198266821Y-58750238D01*
X198266819Y-58750228D01*
X198210245Y-58539089D01*
X198210241Y-58539080D01*
X198117856Y-58340960D01*
X198074423Y-58278930D01*
X198074422Y-58278929D01*
X197637348Y-58716004D01*
X197576025Y-58749489D01*
X197506333Y-58744505D01*
X197450400Y-58702633D01*
X197445351Y-58695362D01*
X197409973Y-58640312D01*
X197302334Y-58547043D01*
X197302333Y-58547042D01*
X197295631Y-58541235D01*
X197297749Y-58538790D01*
X197262370Y-58497967D01*
X197252422Y-58428809D01*
X197281442Y-58365251D01*
X197287480Y-58358766D01*
X197720870Y-57925377D01*
X197720869Y-57925376D01*
X197658839Y-57881943D01*
X197658837Y-57881942D01*
X197548858Y-57830658D01*
X197496418Y-57784486D01*
X197477266Y-57717292D01*
X197497482Y-57650411D01*
X197548858Y-57605894D01*
X197659088Y-57554493D01*
X197838226Y-57429059D01*
X197992860Y-57274425D01*
X198118294Y-57095287D01*
X198210715Y-56897090D01*
X198267315Y-56685854D01*
X198286375Y-56468000D01*
X198267315Y-56250146D01*
X198210715Y-56038910D01*
X198118294Y-55840713D01*
X197992860Y-55661575D01*
X197838226Y-55506941D01*
X197659088Y-55381507D01*
X197659089Y-55381507D01*
X197659087Y-55381506D01*
X197559989Y-55335296D01*
X197460891Y-55289086D01*
X197460887Y-55289085D01*
X197460883Y-55289083D01*
X197249660Y-55232487D01*
X197249650Y-55232485D01*
X197031802Y-55213426D01*
X197031800Y-55213426D01*
X196813951Y-55232485D01*
X196813941Y-55232487D01*
X196602718Y-55289083D01*
X196602709Y-55289087D01*
X196404514Y-55381506D01*
X196316016Y-55443474D01*
X196225376Y-55506941D01*
X196225374Y-55506942D01*
X196225371Y-55506945D01*
X196070746Y-55661570D01*
X195945307Y-55840713D01*
X195852888Y-56038908D01*
X195852884Y-56038917D01*
X195796288Y-56250140D01*
X195796286Y-56250150D01*
X195777227Y-56467999D01*
X195777227Y-56468000D01*
X195796286Y-56685849D01*
X195796288Y-56685859D01*
X195852884Y-56897082D01*
X195852886Y-56897086D01*
X195852887Y-56897090D01*
X195873402Y-56941084D01*
X195945307Y-57095286D01*
X195945308Y-57095287D01*
X196070742Y-57274425D01*
X196225376Y-57429059D01*
X196404513Y-57554492D01*
X196404514Y-57554493D01*
X196514744Y-57605894D01*
X196567183Y-57652066D01*
X196586335Y-57719260D01*
X196566119Y-57786141D01*
X196514744Y-57830658D01*
X196404765Y-57881942D01*
X196342731Y-57925377D01*
X196776120Y-58358766D01*
X196809605Y-58420089D01*
X196804621Y-58489781D01*
X196766968Y-58540077D01*
X196767971Y-58541235D01*
X196761268Y-58547042D01*
X196761268Y-58547043D01*
X196745953Y-58560314D01*
X196653627Y-58640314D01*
X196653625Y-58640316D01*
X196618249Y-58695363D01*
X196565445Y-58741118D01*
X196496287Y-58751062D01*
X196432731Y-58722037D01*
X196426253Y-58716005D01*
X195989178Y-58278930D01*
X195945743Y-58340964D01*
X195853360Y-58539080D01*
X195853356Y-58539089D01*
X195796782Y-58750228D01*
X195796780Y-58750238D01*
X195777729Y-58967998D01*
X195777729Y-58968001D01*
X195796780Y-59185761D01*
X195796782Y-59185771D01*
X195853356Y-59396910D01*
X195853360Y-59396919D01*
X195945745Y-59595039D01*
X195989177Y-59657068D01*
X195989178Y-59657069D01*
X196426252Y-59219994D01*
X196487575Y-59186509D01*
X196557266Y-59191493D01*
X196613200Y-59233364D01*
X196618248Y-59240635D01*
X196653627Y-59295685D01*
X196653629Y-59295688D01*
X196761268Y-59388957D01*
X196767971Y-59394765D01*
X196765851Y-59397210D01*
X196801227Y-59438028D01*
X196811178Y-59507185D01*
X196782159Y-59570744D01*
X196776119Y-59577232D01*
X196342730Y-60010620D01*
X196342731Y-60010622D01*
X196404762Y-60054056D01*
X196404763Y-60054057D01*
X196514743Y-60105341D01*
X196567183Y-60151513D01*
X196586335Y-60218706D01*
X196566120Y-60285587D01*
X196514745Y-60330105D01*
X196404512Y-60381508D01*
X196339628Y-60426941D01*
X196225376Y-60506941D01*
X196225374Y-60506942D01*
X196225371Y-60506945D01*
X196070746Y-60661570D01*
X195945307Y-60840713D01*
X195852888Y-61038908D01*
X195852884Y-61038917D01*
X195796288Y-61250140D01*
X195796286Y-61250150D01*
X195777227Y-61467999D01*
X195777227Y-61468000D01*
X189286375Y-61468000D01*
X189267315Y-61250146D01*
X189210715Y-61038910D01*
X189118294Y-60840713D01*
X188992860Y-60661575D01*
X188838226Y-60506941D01*
X188694915Y-60406593D01*
X188659087Y-60381506D01*
X188548857Y-60330105D01*
X188496418Y-60283932D01*
X188477266Y-60216739D01*
X188497482Y-60149858D01*
X188548858Y-60105340D01*
X188658838Y-60054056D01*
X188720870Y-60010621D01*
X188287481Y-59577233D01*
X188253996Y-59515910D01*
X188258980Y-59446219D01*
X188296632Y-59395920D01*
X188295631Y-59394765D01*
X188302334Y-59388957D01*
X188409973Y-59295688D01*
X188445352Y-59240635D01*
X188498153Y-59194882D01*
X188567312Y-59184937D01*
X188630868Y-59213961D01*
X188637348Y-59219994D01*
X189074422Y-59657069D01*
X189117858Y-59595035D01*
X189210241Y-59396919D01*
X189210245Y-59396910D01*
X189266819Y-59185771D01*
X189266821Y-59185761D01*
X189285873Y-58968001D01*
X189285873Y-58967998D01*
X189266821Y-58750238D01*
X189266819Y-58750228D01*
X189210245Y-58539089D01*
X189210241Y-58539080D01*
X189117856Y-58340960D01*
X189074423Y-58278930D01*
X189074422Y-58278929D01*
X188637348Y-58716004D01*
X188576025Y-58749489D01*
X188506333Y-58744505D01*
X188450400Y-58702633D01*
X188445351Y-58695362D01*
X188409973Y-58640312D01*
X188302334Y-58547043D01*
X188302333Y-58547042D01*
X188295631Y-58541235D01*
X188297749Y-58538790D01*
X188262370Y-58497967D01*
X188252422Y-58428809D01*
X188281442Y-58365251D01*
X188287480Y-58358766D01*
X188720870Y-57925377D01*
X188720869Y-57925376D01*
X188658839Y-57881943D01*
X188658837Y-57881942D01*
X188548858Y-57830658D01*
X188496418Y-57784486D01*
X188477266Y-57717292D01*
X188497482Y-57650411D01*
X188548858Y-57605894D01*
X188659088Y-57554493D01*
X188838226Y-57429059D01*
X188992860Y-57274425D01*
X189118294Y-57095287D01*
X189210715Y-56897090D01*
X189267315Y-56685854D01*
X189286375Y-56468000D01*
X189267315Y-56250146D01*
X189210715Y-56038910D01*
X189118294Y-55840713D01*
X188992860Y-55661575D01*
X188838226Y-55506941D01*
X188659088Y-55381507D01*
X188659089Y-55381507D01*
X188659087Y-55381506D01*
X188559989Y-55335296D01*
X188460891Y-55289086D01*
X188460887Y-55289085D01*
X188460883Y-55289083D01*
X188249660Y-55232487D01*
X188249650Y-55232485D01*
X188031802Y-55213426D01*
X188031800Y-55213426D01*
X187813951Y-55232485D01*
X187813941Y-55232487D01*
X187602718Y-55289083D01*
X187602709Y-55289087D01*
X187404514Y-55381506D01*
X187316016Y-55443474D01*
X187225376Y-55506941D01*
X187225374Y-55506942D01*
X187225371Y-55506945D01*
X187070746Y-55661570D01*
X186945307Y-55840713D01*
X186852888Y-56038908D01*
X186852884Y-56038917D01*
X186796288Y-56250140D01*
X186796286Y-56250150D01*
X186777227Y-56467999D01*
X186777227Y-56468000D01*
X186796286Y-56685849D01*
X186796288Y-56685859D01*
X186852884Y-56897082D01*
X186852886Y-56897086D01*
X186852887Y-56897090D01*
X186873402Y-56941084D01*
X186945307Y-57095286D01*
X186945308Y-57095287D01*
X187070742Y-57274425D01*
X187225376Y-57429059D01*
X187404513Y-57554492D01*
X187404514Y-57554493D01*
X187514744Y-57605894D01*
X187567183Y-57652066D01*
X187586335Y-57719260D01*
X187566119Y-57786141D01*
X187514744Y-57830658D01*
X187404765Y-57881942D01*
X187342731Y-57925377D01*
X187776120Y-58358766D01*
X187809605Y-58420089D01*
X187804621Y-58489781D01*
X187766968Y-58540077D01*
X187767971Y-58541235D01*
X187761268Y-58547042D01*
X187761268Y-58547043D01*
X187745953Y-58560314D01*
X187653627Y-58640314D01*
X187653625Y-58640316D01*
X187618249Y-58695363D01*
X187565445Y-58741118D01*
X187496287Y-58751062D01*
X187432731Y-58722037D01*
X187426253Y-58716005D01*
X186989178Y-58278930D01*
X186945743Y-58340964D01*
X186853360Y-58539080D01*
X186853356Y-58539089D01*
X186796782Y-58750228D01*
X186796780Y-58750238D01*
X186777729Y-58967998D01*
X186777729Y-58968001D01*
X186796780Y-59185761D01*
X186796782Y-59185771D01*
X186853356Y-59396910D01*
X186853360Y-59396919D01*
X186945745Y-59595039D01*
X186989177Y-59657068D01*
X186989178Y-59657069D01*
X187426252Y-59219994D01*
X187487575Y-59186509D01*
X187557266Y-59191493D01*
X187613200Y-59233364D01*
X187618248Y-59240635D01*
X187653627Y-59295685D01*
X187653629Y-59295688D01*
X187761268Y-59388957D01*
X187767971Y-59394765D01*
X187765851Y-59397210D01*
X187801227Y-59438028D01*
X187811178Y-59507185D01*
X187782159Y-59570744D01*
X187776119Y-59577232D01*
X187342730Y-60010620D01*
X187342731Y-60010622D01*
X187404762Y-60054056D01*
X187404763Y-60054057D01*
X187514743Y-60105341D01*
X187567183Y-60151513D01*
X187586335Y-60218706D01*
X187566120Y-60285587D01*
X187514745Y-60330105D01*
X187404512Y-60381508D01*
X187339628Y-60426941D01*
X187225376Y-60506941D01*
X187225374Y-60506942D01*
X187225371Y-60506945D01*
X187070746Y-60661570D01*
X186945307Y-60840713D01*
X186852888Y-61038908D01*
X186852884Y-61038917D01*
X186796288Y-61250140D01*
X186796286Y-61250150D01*
X186777227Y-61467999D01*
X186777227Y-61468000D01*
X180286375Y-61468000D01*
X180267315Y-61250146D01*
X180210715Y-61038910D01*
X180118294Y-60840713D01*
X179992860Y-60661575D01*
X179838226Y-60506941D01*
X179694915Y-60406593D01*
X179659087Y-60381506D01*
X179548857Y-60330105D01*
X179496418Y-60283932D01*
X179477266Y-60216739D01*
X179497482Y-60149858D01*
X179548858Y-60105340D01*
X179658838Y-60054056D01*
X179720870Y-60010621D01*
X179287481Y-59577233D01*
X179253996Y-59515910D01*
X179258980Y-59446219D01*
X179296632Y-59395920D01*
X179295631Y-59394765D01*
X179302334Y-59388957D01*
X179409973Y-59295688D01*
X179445352Y-59240635D01*
X179498153Y-59194882D01*
X179567312Y-59184937D01*
X179630868Y-59213961D01*
X179637348Y-59219994D01*
X180074422Y-59657069D01*
X180117858Y-59595035D01*
X180210241Y-59396919D01*
X180210245Y-59396910D01*
X180266819Y-59185771D01*
X180266821Y-59185761D01*
X180285873Y-58968001D01*
X180285873Y-58967998D01*
X180266821Y-58750238D01*
X180266819Y-58750228D01*
X180210245Y-58539089D01*
X180210241Y-58539080D01*
X180117856Y-58340960D01*
X180074423Y-58278930D01*
X180074422Y-58278929D01*
X179637348Y-58716004D01*
X179576025Y-58749489D01*
X179506333Y-58744505D01*
X179450400Y-58702633D01*
X179445351Y-58695362D01*
X179409973Y-58640312D01*
X179302334Y-58547043D01*
X179302333Y-58547042D01*
X179295631Y-58541235D01*
X179297749Y-58538790D01*
X179262370Y-58497967D01*
X179252422Y-58428809D01*
X179281442Y-58365251D01*
X179287480Y-58358766D01*
X179720870Y-57925377D01*
X179720869Y-57925376D01*
X179658839Y-57881943D01*
X179658837Y-57881942D01*
X179548858Y-57830658D01*
X179496418Y-57784486D01*
X179477266Y-57717292D01*
X179497482Y-57650411D01*
X179548858Y-57605894D01*
X179659088Y-57554493D01*
X179838226Y-57429059D01*
X179992860Y-57274425D01*
X180118294Y-57095287D01*
X180210715Y-56897090D01*
X180267315Y-56685854D01*
X180286375Y-56468000D01*
X180267315Y-56250146D01*
X180210715Y-56038910D01*
X180118294Y-55840713D01*
X179992860Y-55661575D01*
X179838226Y-55506941D01*
X179659088Y-55381507D01*
X179659089Y-55381507D01*
X179659087Y-55381506D01*
X179559989Y-55335296D01*
X179460891Y-55289086D01*
X179460887Y-55289085D01*
X179460883Y-55289083D01*
X179249660Y-55232487D01*
X179249650Y-55232485D01*
X179031802Y-55213426D01*
X179031800Y-55213426D01*
X178813951Y-55232485D01*
X178813941Y-55232487D01*
X178602718Y-55289083D01*
X178602709Y-55289087D01*
X178404514Y-55381506D01*
X178316016Y-55443474D01*
X178225376Y-55506941D01*
X178225374Y-55506942D01*
X178225371Y-55506945D01*
X178070746Y-55661570D01*
X177945307Y-55840713D01*
X177852888Y-56038908D01*
X177852884Y-56038917D01*
X177796288Y-56250140D01*
X177796286Y-56250150D01*
X177777227Y-56467999D01*
X177777227Y-56468000D01*
X177796286Y-56685849D01*
X177796288Y-56685859D01*
X177852884Y-56897082D01*
X177852886Y-56897086D01*
X177852887Y-56897090D01*
X177873402Y-56941084D01*
X177945307Y-57095286D01*
X177945308Y-57095287D01*
X178070742Y-57274425D01*
X178225376Y-57429059D01*
X178404514Y-57554492D01*
X178404514Y-57554493D01*
X178514744Y-57605894D01*
X178567183Y-57652066D01*
X178586335Y-57719260D01*
X178566119Y-57786141D01*
X178514744Y-57830658D01*
X178404765Y-57881942D01*
X178342731Y-57925377D01*
X178776120Y-58358766D01*
X178809605Y-58420089D01*
X178804621Y-58489781D01*
X178766968Y-58540077D01*
X178767971Y-58541235D01*
X178761268Y-58547042D01*
X178761268Y-58547043D01*
X178745953Y-58560314D01*
X178653627Y-58640314D01*
X178653625Y-58640316D01*
X178618249Y-58695363D01*
X178565445Y-58741118D01*
X178496287Y-58751062D01*
X178432731Y-58722037D01*
X178426253Y-58716005D01*
X177989178Y-58278930D01*
X177945743Y-58340964D01*
X177853360Y-58539080D01*
X177853356Y-58539089D01*
X177796782Y-58750228D01*
X177796780Y-58750238D01*
X177777729Y-58967998D01*
X177777729Y-58968001D01*
X177796780Y-59185761D01*
X177796782Y-59185771D01*
X177853356Y-59396910D01*
X177853360Y-59396919D01*
X177945745Y-59595039D01*
X177989177Y-59657068D01*
X177989178Y-59657069D01*
X178426252Y-59219994D01*
X178487575Y-59186509D01*
X178557266Y-59191493D01*
X178613200Y-59233364D01*
X178618248Y-59240635D01*
X178653627Y-59295685D01*
X178653629Y-59295688D01*
X178761268Y-59388957D01*
X178767971Y-59394765D01*
X178765851Y-59397210D01*
X178801227Y-59438028D01*
X178811178Y-59507185D01*
X178782159Y-59570744D01*
X178776119Y-59577232D01*
X178342730Y-60010620D01*
X178342731Y-60010622D01*
X178404762Y-60054056D01*
X178404763Y-60054057D01*
X178514743Y-60105341D01*
X178567183Y-60151513D01*
X178586335Y-60218706D01*
X178566120Y-60285587D01*
X178514745Y-60330105D01*
X178404512Y-60381508D01*
X178339628Y-60426941D01*
X178225376Y-60506941D01*
X178225374Y-60506942D01*
X178225371Y-60506945D01*
X178070746Y-60661570D01*
X177945307Y-60840713D01*
X177852888Y-61038908D01*
X177852884Y-61038917D01*
X177796288Y-61250140D01*
X177796286Y-61250150D01*
X177777227Y-61467999D01*
X177777227Y-61468000D01*
X170919575Y-61468000D01*
X170926574Y-61388000D01*
X170907514Y-61170146D01*
X170850914Y-60958910D01*
X170758493Y-60760713D01*
X170633059Y-60581575D01*
X170478425Y-60426941D01*
X170335114Y-60326593D01*
X170299286Y-60301506D01*
X170189056Y-60250105D01*
X170136617Y-60203932D01*
X170117465Y-60136739D01*
X170137681Y-60069858D01*
X170189057Y-60025340D01*
X170299037Y-59974056D01*
X170361069Y-59930621D01*
X169927680Y-59497233D01*
X169894195Y-59435910D01*
X169899179Y-59366219D01*
X169936831Y-59315920D01*
X169935830Y-59314765D01*
X169957846Y-59295688D01*
X170050172Y-59215688D01*
X170085551Y-59160635D01*
X170138352Y-59114882D01*
X170207511Y-59104937D01*
X170271067Y-59133961D01*
X170277547Y-59139994D01*
X170714621Y-59577069D01*
X170758057Y-59515035D01*
X170850440Y-59316919D01*
X170850444Y-59316910D01*
X170907018Y-59105771D01*
X170907020Y-59105761D01*
X170926072Y-58888001D01*
X170926072Y-58887998D01*
X170907020Y-58670238D01*
X170907018Y-58670228D01*
X170850444Y-58459089D01*
X170850440Y-58459080D01*
X170758055Y-58260960D01*
X170714622Y-58198930D01*
X170714621Y-58198929D01*
X170277547Y-58636004D01*
X170216224Y-58669489D01*
X170146532Y-58664505D01*
X170090599Y-58622633D01*
X170085550Y-58615362D01*
X170050172Y-58560312D01*
X169942533Y-58467043D01*
X169942532Y-58467042D01*
X169935830Y-58461235D01*
X169937948Y-58458790D01*
X169902569Y-58417967D01*
X169892621Y-58348809D01*
X169921641Y-58285251D01*
X169927679Y-58278766D01*
X170361069Y-57845377D01*
X170361068Y-57845376D01*
X170299038Y-57801943D01*
X170299036Y-57801942D01*
X170189057Y-57750658D01*
X170136617Y-57704486D01*
X170117465Y-57637292D01*
X170137681Y-57570411D01*
X170189057Y-57525894D01*
X170299287Y-57474493D01*
X170478425Y-57349059D01*
X170633059Y-57194425D01*
X170758493Y-57015287D01*
X170850914Y-56817090D01*
X170907514Y-56605854D01*
X170926574Y-56388000D01*
X170924205Y-56360928D01*
X170915979Y-56266903D01*
X170907514Y-56170146D01*
X170856728Y-55980608D01*
X170850916Y-55958917D01*
X170850915Y-55958916D01*
X170850914Y-55958910D01*
X170758493Y-55760713D01*
X170633059Y-55581575D01*
X170478425Y-55426941D01*
X170299287Y-55301507D01*
X170299288Y-55301507D01*
X170299286Y-55301506D01*
X170151269Y-55232485D01*
X170101090Y-55209086D01*
X170101086Y-55209085D01*
X170101082Y-55209083D01*
X169889859Y-55152487D01*
X169889849Y-55152485D01*
X169672001Y-55133426D01*
X169671999Y-55133426D01*
X169454150Y-55152485D01*
X169454140Y-55152487D01*
X169242917Y-55209083D01*
X169242908Y-55209087D01*
X169044713Y-55301506D01*
X168930463Y-55381506D01*
X168865575Y-55426941D01*
X168865573Y-55426942D01*
X168865570Y-55426945D01*
X168710945Y-55581570D01*
X168585506Y-55760713D01*
X168493087Y-55958908D01*
X168493083Y-55958917D01*
X168436487Y-56170140D01*
X168436485Y-56170150D01*
X168417426Y-56387999D01*
X168417426Y-56388000D01*
X168436485Y-56605849D01*
X168436487Y-56605859D01*
X168493083Y-56817082D01*
X168493085Y-56817086D01*
X168493086Y-56817090D01*
X168517422Y-56869278D01*
X168585506Y-57015286D01*
X168585507Y-57015287D01*
X168710941Y-57194425D01*
X168865575Y-57349059D01*
X168979827Y-57429059D01*
X169044713Y-57474493D01*
X169154943Y-57525894D01*
X169207382Y-57572066D01*
X169226534Y-57639260D01*
X169206318Y-57706141D01*
X169154943Y-57750658D01*
X169044964Y-57801942D01*
X168982930Y-57845377D01*
X169416319Y-58278766D01*
X169449804Y-58340089D01*
X169444820Y-58409781D01*
X169407167Y-58460077D01*
X169408170Y-58461235D01*
X169401467Y-58467042D01*
X169401467Y-58467043D01*
X169309142Y-58547043D01*
X169293826Y-58560314D01*
X169293824Y-58560316D01*
X169258448Y-58615363D01*
X169205644Y-58661118D01*
X169136486Y-58671062D01*
X169072930Y-58642037D01*
X169066452Y-58636005D01*
X168629377Y-58198930D01*
X168585942Y-58260964D01*
X168493559Y-58459080D01*
X168493555Y-58459089D01*
X168436981Y-58670228D01*
X168436979Y-58670238D01*
X168417928Y-58887998D01*
X168417928Y-58888001D01*
X168436979Y-59105761D01*
X168436981Y-59105771D01*
X168493555Y-59316910D01*
X168493559Y-59316919D01*
X168585944Y-59515039D01*
X168629376Y-59577068D01*
X168629377Y-59577069D01*
X169066451Y-59139994D01*
X169127774Y-59106509D01*
X169197465Y-59111493D01*
X169253399Y-59153364D01*
X169258447Y-59160635D01*
X169278279Y-59191493D01*
X169293828Y-59215688D01*
X169386154Y-59295688D01*
X169408170Y-59314765D01*
X169406050Y-59317210D01*
X169441426Y-59358028D01*
X169451377Y-59427185D01*
X169422358Y-59490744D01*
X169416318Y-59497232D01*
X168982929Y-59930620D01*
X168982930Y-59930622D01*
X169044961Y-59974056D01*
X169044962Y-59974057D01*
X169154942Y-60025341D01*
X169207382Y-60071513D01*
X169226534Y-60138706D01*
X169206319Y-60205587D01*
X169154944Y-60250105D01*
X169044711Y-60301508D01*
X169003871Y-60330105D01*
X168865575Y-60426941D01*
X168865573Y-60426942D01*
X168865570Y-60426945D01*
X168710945Y-60581570D01*
X168585506Y-60760713D01*
X168493087Y-60958908D01*
X168493083Y-60958917D01*
X168436487Y-61170140D01*
X168436485Y-61170150D01*
X168417426Y-61387999D01*
X168417426Y-61388000D01*
X161456375Y-61388000D01*
X161437315Y-61170146D01*
X161380715Y-60958910D01*
X161288294Y-60760713D01*
X161162860Y-60581575D01*
X161008226Y-60426941D01*
X160864915Y-60326593D01*
X160829087Y-60301506D01*
X160718857Y-60250105D01*
X160666418Y-60203932D01*
X160647266Y-60136739D01*
X160667482Y-60069858D01*
X160718858Y-60025340D01*
X160828838Y-59974056D01*
X160890870Y-59930621D01*
X160457481Y-59497233D01*
X160423996Y-59435910D01*
X160428980Y-59366219D01*
X160466632Y-59315920D01*
X160465631Y-59314765D01*
X160487647Y-59295688D01*
X160579973Y-59215688D01*
X160615352Y-59160635D01*
X160668153Y-59114882D01*
X160737312Y-59104937D01*
X160800868Y-59133961D01*
X160807348Y-59139994D01*
X161244422Y-59577069D01*
X161287858Y-59515035D01*
X161380241Y-59316919D01*
X161380245Y-59316910D01*
X161436819Y-59105771D01*
X161436821Y-59105761D01*
X161455873Y-58888001D01*
X161455873Y-58887998D01*
X161436821Y-58670238D01*
X161436819Y-58670228D01*
X161380245Y-58459089D01*
X161380241Y-58459080D01*
X161287856Y-58260960D01*
X161244423Y-58198930D01*
X161244422Y-58198929D01*
X160807348Y-58636004D01*
X160746025Y-58669489D01*
X160676333Y-58664505D01*
X160620400Y-58622633D01*
X160615351Y-58615362D01*
X160579973Y-58560312D01*
X160472334Y-58467043D01*
X160472333Y-58467042D01*
X160465631Y-58461235D01*
X160467749Y-58458790D01*
X160432370Y-58417967D01*
X160422422Y-58348809D01*
X160451442Y-58285251D01*
X160457480Y-58278766D01*
X160890870Y-57845377D01*
X160890869Y-57845376D01*
X160828839Y-57801943D01*
X160828837Y-57801942D01*
X160718858Y-57750658D01*
X160666418Y-57704486D01*
X160647266Y-57637292D01*
X160667482Y-57570411D01*
X160718858Y-57525894D01*
X160829088Y-57474493D01*
X161008226Y-57349059D01*
X161162860Y-57194425D01*
X161288294Y-57015287D01*
X161380715Y-56817090D01*
X161437315Y-56605854D01*
X161456375Y-56388000D01*
X161454006Y-56360928D01*
X161445780Y-56266903D01*
X161437315Y-56170146D01*
X161386529Y-55980608D01*
X161380717Y-55958917D01*
X161380716Y-55958916D01*
X161380715Y-55958910D01*
X161288294Y-55760713D01*
X161162860Y-55581575D01*
X161008226Y-55426941D01*
X160829088Y-55301507D01*
X160829089Y-55301507D01*
X160829087Y-55301506D01*
X160681070Y-55232485D01*
X160630891Y-55209086D01*
X160630887Y-55209085D01*
X160630883Y-55209083D01*
X160419660Y-55152487D01*
X160419650Y-55152485D01*
X160201802Y-55133426D01*
X160201800Y-55133426D01*
X159983951Y-55152485D01*
X159983941Y-55152487D01*
X159772718Y-55209083D01*
X159772709Y-55209087D01*
X159574514Y-55301506D01*
X159460264Y-55381506D01*
X159395376Y-55426941D01*
X159395374Y-55426942D01*
X159395371Y-55426945D01*
X159240746Y-55581570D01*
X159115307Y-55760713D01*
X159022888Y-55958908D01*
X159022884Y-55958917D01*
X158966288Y-56170140D01*
X158966286Y-56170150D01*
X158947227Y-56387999D01*
X158947227Y-56388000D01*
X158966286Y-56605849D01*
X158966288Y-56605859D01*
X159022884Y-56817082D01*
X159022886Y-56817086D01*
X159022887Y-56817090D01*
X159047223Y-56869278D01*
X159115307Y-57015286D01*
X159115308Y-57015287D01*
X159240742Y-57194425D01*
X159395376Y-57349059D01*
X159509628Y-57429059D01*
X159574514Y-57474493D01*
X159684744Y-57525894D01*
X159737183Y-57572066D01*
X159756335Y-57639260D01*
X159736119Y-57706141D01*
X159684744Y-57750658D01*
X159574765Y-57801942D01*
X159512731Y-57845377D01*
X159946120Y-58278766D01*
X159979605Y-58340089D01*
X159974621Y-58409781D01*
X159936968Y-58460077D01*
X159937971Y-58461235D01*
X159931268Y-58467042D01*
X159931268Y-58467043D01*
X159838943Y-58547043D01*
X159823627Y-58560314D01*
X159823625Y-58560316D01*
X159788249Y-58615363D01*
X159735445Y-58661118D01*
X159666287Y-58671062D01*
X159602731Y-58642037D01*
X159596253Y-58636005D01*
X159159178Y-58198930D01*
X159115743Y-58260964D01*
X159023360Y-58459080D01*
X159023356Y-58459089D01*
X158966782Y-58670228D01*
X158966780Y-58670238D01*
X158947729Y-58887998D01*
X158947729Y-58888001D01*
X158966780Y-59105761D01*
X158966782Y-59105771D01*
X159023356Y-59316910D01*
X159023360Y-59316919D01*
X159115745Y-59515039D01*
X159159177Y-59577068D01*
X159159178Y-59577069D01*
X159596252Y-59139994D01*
X159657575Y-59106509D01*
X159727266Y-59111493D01*
X159783200Y-59153364D01*
X159788248Y-59160635D01*
X159808080Y-59191493D01*
X159823629Y-59215688D01*
X159915955Y-59295688D01*
X159937971Y-59314765D01*
X159935851Y-59317210D01*
X159971227Y-59358028D01*
X159981178Y-59427185D01*
X159952159Y-59490744D01*
X159946119Y-59497232D01*
X159512730Y-59930620D01*
X159512731Y-59930622D01*
X159574762Y-59974056D01*
X159574763Y-59974057D01*
X159684743Y-60025341D01*
X159737183Y-60071513D01*
X159756335Y-60138706D01*
X159736120Y-60205587D01*
X159684745Y-60250105D01*
X159574512Y-60301508D01*
X159533672Y-60330105D01*
X159395376Y-60426941D01*
X159395374Y-60426942D01*
X159395371Y-60426945D01*
X159240746Y-60581570D01*
X159115307Y-60760713D01*
X159022888Y-60958908D01*
X159022884Y-60958917D01*
X158966288Y-61170140D01*
X158966286Y-61170150D01*
X158947227Y-61387999D01*
X158947227Y-61388000D01*
X152456375Y-61388000D01*
X152437315Y-61170146D01*
X152380715Y-60958910D01*
X152288294Y-60760713D01*
X152162860Y-60581575D01*
X152008226Y-60426941D01*
X151864915Y-60326593D01*
X151829087Y-60301506D01*
X151718857Y-60250105D01*
X151666418Y-60203932D01*
X151647266Y-60136739D01*
X151667482Y-60069858D01*
X151718858Y-60025340D01*
X151828838Y-59974056D01*
X151890870Y-59930621D01*
X151457481Y-59497233D01*
X151423996Y-59435910D01*
X151428980Y-59366219D01*
X151466632Y-59315920D01*
X151465631Y-59314765D01*
X151487647Y-59295688D01*
X151579973Y-59215688D01*
X151615352Y-59160635D01*
X151668153Y-59114882D01*
X151737312Y-59104937D01*
X151800868Y-59133961D01*
X151807348Y-59139994D01*
X152244422Y-59577069D01*
X152287858Y-59515035D01*
X152380241Y-59316919D01*
X152380245Y-59316910D01*
X152436819Y-59105771D01*
X152436821Y-59105761D01*
X152455873Y-58888001D01*
X152455873Y-58887998D01*
X152436821Y-58670238D01*
X152436819Y-58670228D01*
X152380245Y-58459089D01*
X152380241Y-58459080D01*
X152287856Y-58260960D01*
X152244423Y-58198930D01*
X152244422Y-58198929D01*
X151807348Y-58636004D01*
X151746025Y-58669489D01*
X151676333Y-58664505D01*
X151620400Y-58622633D01*
X151615351Y-58615362D01*
X151579973Y-58560312D01*
X151472334Y-58467043D01*
X151472333Y-58467042D01*
X151465631Y-58461235D01*
X151467749Y-58458790D01*
X151432370Y-58417967D01*
X151422422Y-58348809D01*
X151451442Y-58285251D01*
X151457480Y-58278766D01*
X151890870Y-57845377D01*
X151890869Y-57845376D01*
X151828839Y-57801943D01*
X151828837Y-57801942D01*
X151718858Y-57750658D01*
X151666418Y-57704486D01*
X151647266Y-57637292D01*
X151667482Y-57570411D01*
X151718858Y-57525894D01*
X151829088Y-57474493D01*
X152008226Y-57349059D01*
X152162860Y-57194425D01*
X152288294Y-57015287D01*
X152380715Y-56817090D01*
X152437315Y-56605854D01*
X152456375Y-56388000D01*
X152454006Y-56360928D01*
X152445780Y-56266903D01*
X152437315Y-56170146D01*
X152386529Y-55980608D01*
X152380717Y-55958917D01*
X152380716Y-55958916D01*
X152380715Y-55958910D01*
X152288294Y-55760713D01*
X152162860Y-55581575D01*
X152008226Y-55426941D01*
X151829088Y-55301507D01*
X151829089Y-55301507D01*
X151829087Y-55301506D01*
X151681070Y-55232485D01*
X151630891Y-55209086D01*
X151630887Y-55209085D01*
X151630883Y-55209083D01*
X151419660Y-55152487D01*
X151419650Y-55152485D01*
X151201802Y-55133426D01*
X151201800Y-55133426D01*
X150983951Y-55152485D01*
X150983941Y-55152487D01*
X150772718Y-55209083D01*
X150772709Y-55209087D01*
X150574514Y-55301506D01*
X150460264Y-55381506D01*
X150395376Y-55426941D01*
X150395374Y-55426942D01*
X150395371Y-55426945D01*
X150240746Y-55581570D01*
X150115307Y-55760713D01*
X150022888Y-55958908D01*
X150022884Y-55958917D01*
X149966288Y-56170140D01*
X149966286Y-56170150D01*
X149947227Y-56387999D01*
X149947227Y-56388000D01*
X149966286Y-56605849D01*
X149966288Y-56605859D01*
X150022884Y-56817082D01*
X150022886Y-56817086D01*
X150022887Y-56817090D01*
X150047223Y-56869278D01*
X150115307Y-57015286D01*
X150115308Y-57015287D01*
X150240742Y-57194425D01*
X150395376Y-57349059D01*
X150509628Y-57429059D01*
X150574514Y-57474493D01*
X150684744Y-57525894D01*
X150737183Y-57572066D01*
X150756335Y-57639260D01*
X150736119Y-57706141D01*
X150684744Y-57750658D01*
X150574765Y-57801942D01*
X150512731Y-57845377D01*
X150946120Y-58278766D01*
X150979605Y-58340089D01*
X150974621Y-58409781D01*
X150936968Y-58460077D01*
X150937971Y-58461235D01*
X150931268Y-58467042D01*
X150931268Y-58467043D01*
X150838943Y-58547043D01*
X150823627Y-58560314D01*
X150823625Y-58560316D01*
X150788249Y-58615363D01*
X150735445Y-58661118D01*
X150666287Y-58671062D01*
X150602731Y-58642037D01*
X150596253Y-58636005D01*
X150159178Y-58198930D01*
X150115743Y-58260964D01*
X150023360Y-58459080D01*
X150023356Y-58459089D01*
X149966782Y-58670228D01*
X149966780Y-58670238D01*
X149947729Y-58887998D01*
X149947729Y-58888001D01*
X149966780Y-59105761D01*
X149966782Y-59105771D01*
X150023356Y-59316910D01*
X150023360Y-59316919D01*
X150115745Y-59515039D01*
X150159177Y-59577068D01*
X150159178Y-59577069D01*
X150596252Y-59139994D01*
X150657575Y-59106509D01*
X150727266Y-59111493D01*
X150783200Y-59153364D01*
X150788248Y-59160635D01*
X150808080Y-59191493D01*
X150823629Y-59215688D01*
X150915955Y-59295688D01*
X150937971Y-59314765D01*
X150935851Y-59317210D01*
X150971227Y-59358028D01*
X150981178Y-59427185D01*
X150952159Y-59490744D01*
X150946119Y-59497232D01*
X150512730Y-59930620D01*
X150512731Y-59930622D01*
X150574762Y-59974056D01*
X150574763Y-59974057D01*
X150684743Y-60025341D01*
X150737183Y-60071513D01*
X150756335Y-60138706D01*
X150736120Y-60205587D01*
X150684745Y-60250105D01*
X150574512Y-60301508D01*
X150533672Y-60330105D01*
X150395376Y-60426941D01*
X150395374Y-60426942D01*
X150395371Y-60426945D01*
X150240746Y-60581570D01*
X150115307Y-60760713D01*
X150022888Y-60958908D01*
X150022884Y-60958917D01*
X149966288Y-61170140D01*
X149966286Y-61170150D01*
X149947227Y-61387999D01*
X149947227Y-61388000D01*
X143456375Y-61388000D01*
X143437315Y-61170146D01*
X143380715Y-60958910D01*
X143288294Y-60760713D01*
X143162860Y-60581575D01*
X143008226Y-60426941D01*
X142864915Y-60326593D01*
X142829087Y-60301506D01*
X142718857Y-60250105D01*
X142666418Y-60203932D01*
X142647266Y-60136739D01*
X142667482Y-60069858D01*
X142718858Y-60025340D01*
X142828838Y-59974056D01*
X142890870Y-59930621D01*
X142457481Y-59497233D01*
X142423996Y-59435910D01*
X142428980Y-59366219D01*
X142466632Y-59315920D01*
X142465631Y-59314765D01*
X142487647Y-59295688D01*
X142579973Y-59215688D01*
X142615352Y-59160635D01*
X142668153Y-59114882D01*
X142737312Y-59104937D01*
X142800868Y-59133961D01*
X142807348Y-59139994D01*
X143244422Y-59577069D01*
X143287858Y-59515035D01*
X143380241Y-59316919D01*
X143380245Y-59316910D01*
X143436819Y-59105771D01*
X143436821Y-59105761D01*
X143455873Y-58888001D01*
X143455873Y-58887998D01*
X143436821Y-58670238D01*
X143436819Y-58670228D01*
X143380245Y-58459089D01*
X143380241Y-58459080D01*
X143287856Y-58260960D01*
X143244423Y-58198930D01*
X143244422Y-58198929D01*
X142807348Y-58636004D01*
X142746025Y-58669489D01*
X142676333Y-58664505D01*
X142620400Y-58622633D01*
X142615351Y-58615362D01*
X142579973Y-58560312D01*
X142472334Y-58467043D01*
X142472333Y-58467042D01*
X142465631Y-58461235D01*
X142467749Y-58458790D01*
X142432370Y-58417967D01*
X142422422Y-58348809D01*
X142451442Y-58285251D01*
X142457480Y-58278766D01*
X142890870Y-57845377D01*
X142890869Y-57845376D01*
X142828839Y-57801943D01*
X142828837Y-57801942D01*
X142718858Y-57750658D01*
X142666418Y-57704486D01*
X142647266Y-57637292D01*
X142667482Y-57570411D01*
X142718858Y-57525894D01*
X142829088Y-57474493D01*
X143008226Y-57349059D01*
X143162860Y-57194425D01*
X143288294Y-57015287D01*
X143380715Y-56817090D01*
X143437315Y-56605854D01*
X143456375Y-56388000D01*
X143454006Y-56360928D01*
X143445780Y-56266903D01*
X143437315Y-56170146D01*
X143386529Y-55980608D01*
X143380717Y-55958917D01*
X143380716Y-55958916D01*
X143380715Y-55958910D01*
X143288294Y-55760713D01*
X143162860Y-55581575D01*
X143008226Y-55426941D01*
X142829088Y-55301507D01*
X142829089Y-55301507D01*
X142829087Y-55301506D01*
X142681070Y-55232485D01*
X142630891Y-55209086D01*
X142630887Y-55209085D01*
X142630883Y-55209083D01*
X142419660Y-55152487D01*
X142419650Y-55152485D01*
X142201802Y-55133426D01*
X142201800Y-55133426D01*
X141983951Y-55152485D01*
X141983941Y-55152487D01*
X141772718Y-55209083D01*
X141772709Y-55209087D01*
X141574514Y-55301506D01*
X141460264Y-55381506D01*
X141395376Y-55426941D01*
X141395374Y-55426942D01*
X141395371Y-55426945D01*
X141240746Y-55581570D01*
X141115307Y-55760713D01*
X141022888Y-55958908D01*
X141022884Y-55958917D01*
X140966288Y-56170140D01*
X140966286Y-56170150D01*
X140947227Y-56387999D01*
X140947227Y-56388000D01*
X140966286Y-56605849D01*
X140966288Y-56605859D01*
X141022884Y-56817082D01*
X141022886Y-56817086D01*
X141022887Y-56817090D01*
X141047223Y-56869278D01*
X141115307Y-57015286D01*
X141115308Y-57015287D01*
X141240742Y-57194425D01*
X141395376Y-57349059D01*
X141509628Y-57429059D01*
X141574514Y-57474493D01*
X141684744Y-57525894D01*
X141737183Y-57572066D01*
X141756335Y-57639260D01*
X141736119Y-57706141D01*
X141684744Y-57750658D01*
X141574765Y-57801942D01*
X141512731Y-57845377D01*
X141946120Y-58278766D01*
X141979605Y-58340089D01*
X141974621Y-58409781D01*
X141936968Y-58460077D01*
X141937971Y-58461235D01*
X141931268Y-58467042D01*
X141931268Y-58467043D01*
X141838943Y-58547043D01*
X141823627Y-58560314D01*
X141823625Y-58560316D01*
X141788249Y-58615363D01*
X141735445Y-58661118D01*
X141666287Y-58671062D01*
X141602731Y-58642037D01*
X141596253Y-58636005D01*
X141159178Y-58198930D01*
X141115743Y-58260964D01*
X141023360Y-58459080D01*
X141023356Y-58459089D01*
X140966782Y-58670228D01*
X140966780Y-58670238D01*
X140947729Y-58887998D01*
X140947729Y-58888001D01*
X140966780Y-59105761D01*
X140966782Y-59105771D01*
X141023356Y-59316910D01*
X141023360Y-59316919D01*
X141115745Y-59515039D01*
X141159177Y-59577068D01*
X141159178Y-59577069D01*
X141596252Y-59139994D01*
X141657575Y-59106509D01*
X141727266Y-59111493D01*
X141783200Y-59153364D01*
X141788248Y-59160635D01*
X141808080Y-59191493D01*
X141823629Y-59215688D01*
X141915955Y-59295688D01*
X141937971Y-59314765D01*
X141935851Y-59317210D01*
X141971227Y-59358028D01*
X141981178Y-59427185D01*
X141952159Y-59490744D01*
X141946119Y-59497232D01*
X141512730Y-59930620D01*
X141512731Y-59930622D01*
X141574762Y-59974056D01*
X141574763Y-59974057D01*
X141684743Y-60025341D01*
X141737183Y-60071513D01*
X141756335Y-60138706D01*
X141736120Y-60205587D01*
X141684745Y-60250105D01*
X141574512Y-60301508D01*
X141533672Y-60330105D01*
X141395376Y-60426941D01*
X141395374Y-60426942D01*
X141395371Y-60426945D01*
X141240746Y-60581570D01*
X141115307Y-60760713D01*
X141022888Y-60958908D01*
X141022884Y-60958917D01*
X140966288Y-61170140D01*
X140966286Y-61170150D01*
X140947227Y-61387999D01*
X140947227Y-61388000D01*
X127000500Y-61388000D01*
X127000500Y-55000000D01*
X128758633Y-55000000D01*
X128777758Y-55291800D01*
X128777808Y-55292555D01*
X128777809Y-55292567D01*
X128835004Y-55580100D01*
X128835009Y-55580120D01*
X128929243Y-55857726D01*
X128929247Y-55857736D01*
X129058915Y-56120676D01*
X129058922Y-56120689D01*
X129091971Y-56170150D01*
X129219445Y-56360928D01*
X129221805Y-56364459D01*
X129415113Y-56584886D01*
X129568461Y-56719368D01*
X129635542Y-56778196D01*
X129879316Y-56941081D01*
X130021575Y-57011235D01*
X130142249Y-57070745D01*
X130142253Y-57070746D01*
X130142266Y-57070753D01*
X130190813Y-57087232D01*
X130196973Y-57089699D01*
X130230897Y-57105440D01*
X130254044Y-57108696D01*
X130419892Y-57164994D01*
X130474024Y-57175761D01*
X130480275Y-57177349D01*
X130515702Y-57188340D01*
X130538189Y-57188524D01*
X130707443Y-57222192D01*
X130751139Y-57225056D01*
X130766499Y-57226063D01*
X130772761Y-57226794D01*
X130808954Y-57232899D01*
X130830345Y-57230247D01*
X130932914Y-57236970D01*
X130999994Y-57241367D01*
X131000000Y-57241367D01*
X131000003Y-57241367D01*
X131005436Y-57241010D01*
X131063114Y-57237230D01*
X131069206Y-57237133D01*
X131105467Y-57238345D01*
X131125415Y-57233146D01*
X131292557Y-57222192D01*
X131358570Y-57209061D01*
X131364452Y-57208182D01*
X131400032Y-57204603D01*
X131418239Y-57197192D01*
X131580108Y-57164994D01*
X131647780Y-57142022D01*
X131653307Y-57140429D01*
X131663234Y-57138064D01*
X131663236Y-57138063D01*
X131664773Y-57137697D01*
X131664860Y-57137673D01*
X131687539Y-57132268D01*
X131703762Y-57123019D01*
X131857734Y-57070753D01*
X131925607Y-57037281D01*
X131930686Y-57035056D01*
X131942292Y-57030587D01*
X131942297Y-57030584D01*
X131943365Y-57030173D01*
X131943393Y-57030161D01*
X131962890Y-57022651D01*
X131976974Y-57011950D01*
X132120684Y-56941081D01*
X132187143Y-56896674D01*
X132191748Y-56893881D01*
X132204535Y-56886874D01*
X132204541Y-56886869D01*
X132219238Y-56878815D01*
X132228415Y-56869278D01*
X132229970Y-56868132D01*
X132232160Y-56866594D01*
X132364458Y-56778196D01*
X132427803Y-56722643D01*
X132431874Y-56719368D01*
X132445283Y-56709489D01*
X132445286Y-56709485D01*
X132446638Y-56708490D01*
X132446660Y-56708473D01*
X132456820Y-56700986D01*
X132463557Y-56691815D01*
X132468341Y-56687189D01*
X132470536Y-56685168D01*
X132584886Y-56584886D01*
X132643350Y-56518219D01*
X132646797Y-56514600D01*
X132660241Y-56501599D01*
X132660244Y-56501594D01*
X132661245Y-56500627D01*
X132661271Y-56500600D01*
X132668725Y-56493391D01*
X132673238Y-56485139D01*
X132680230Y-56476286D01*
X132682191Y-56473930D01*
X132778196Y-56364458D01*
X132829952Y-56286999D01*
X132832800Y-56283083D01*
X132845571Y-56266912D01*
X132845575Y-56266903D01*
X132845826Y-56266587D01*
X132845848Y-56266557D01*
X132851312Y-56259637D01*
X132853974Y-56252724D01*
X132861879Y-56239378D01*
X132863629Y-56236597D01*
X132941081Y-56120684D01*
X132984293Y-56033057D01*
X132986539Y-56028908D01*
X132997966Y-56009618D01*
X132997967Y-56009615D01*
X133001366Y-56003877D01*
X133002613Y-55998658D01*
X133010267Y-55980608D01*
X133011683Y-55977516D01*
X133070753Y-55857734D01*
X133103668Y-55760768D01*
X133105289Y-55756519D01*
X133114692Y-55734345D01*
X133114692Y-55734342D01*
X133114708Y-55734307D01*
X133114709Y-55734300D01*
X133116287Y-55730580D01*
X133116619Y-55727328D01*
X133122829Y-55704659D01*
X133123891Y-55701191D01*
X133164994Y-55580108D01*
X133185907Y-55474971D01*
X133186905Y-55470744D01*
X133193713Y-55445892D01*
X133193714Y-55445882D01*
X133193898Y-55445212D01*
X133193905Y-55445183D01*
X133194072Y-55444570D01*
X133194038Y-55443474D01*
X133197680Y-55416393D01*
X133198306Y-55412638D01*
X133222192Y-55292557D01*
X133229523Y-55180708D01*
X133229944Y-55176496D01*
X133233570Y-55149532D01*
X133233572Y-55149520D01*
X133234232Y-55109962D01*
X133234353Y-55106999D01*
X133241367Y-55000000D01*
X217522566Y-55000000D01*
X217541691Y-55291800D01*
X217541741Y-55292555D01*
X217541742Y-55292567D01*
X217598937Y-55580100D01*
X217598942Y-55580120D01*
X217693176Y-55857726D01*
X217693180Y-55857736D01*
X217822848Y-56120676D01*
X217822855Y-56120689D01*
X217855904Y-56170150D01*
X217983378Y-56360928D01*
X217985738Y-56364459D01*
X218179046Y-56584886D01*
X218332394Y-56719368D01*
X218399475Y-56778196D01*
X218643249Y-56941081D01*
X218785508Y-57011235D01*
X218906182Y-57070745D01*
X218906186Y-57070746D01*
X218906199Y-57070753D01*
X218954746Y-57087232D01*
X218960906Y-57089699D01*
X218994830Y-57105440D01*
X219017977Y-57108696D01*
X219183825Y-57164994D01*
X219237957Y-57175761D01*
X219244208Y-57177349D01*
X219279635Y-57188340D01*
X219302122Y-57188524D01*
X219471376Y-57222192D01*
X219515072Y-57225056D01*
X219530432Y-57226063D01*
X219536694Y-57226794D01*
X219572887Y-57232899D01*
X219594278Y-57230247D01*
X219696847Y-57236970D01*
X219763927Y-57241367D01*
X219763933Y-57241367D01*
X219763936Y-57241367D01*
X219769369Y-57241010D01*
X219827047Y-57237230D01*
X219833139Y-57237133D01*
X219869400Y-57238345D01*
X219889348Y-57233146D01*
X220056490Y-57222192D01*
X220122503Y-57209061D01*
X220128385Y-57208182D01*
X220163965Y-57204603D01*
X220182172Y-57197192D01*
X220344041Y-57164994D01*
X220411713Y-57142022D01*
X220417240Y-57140429D01*
X220427167Y-57138064D01*
X220427169Y-57138063D01*
X220428706Y-57137697D01*
X220428793Y-57137673D01*
X220451472Y-57132268D01*
X220467695Y-57123019D01*
X220621667Y-57070753D01*
X220689540Y-57037281D01*
X220694619Y-57035056D01*
X220706225Y-57030587D01*
X220706230Y-57030584D01*
X220707298Y-57030173D01*
X220707326Y-57030161D01*
X220726823Y-57022651D01*
X220740907Y-57011950D01*
X220884617Y-56941081D01*
X220951076Y-56896674D01*
X220955681Y-56893881D01*
X220968468Y-56886874D01*
X220968474Y-56886869D01*
X220983171Y-56878815D01*
X220992348Y-56869278D01*
X220993903Y-56868132D01*
X220996093Y-56866594D01*
X221128391Y-56778196D01*
X221191736Y-56722643D01*
X221195807Y-56719368D01*
X221209216Y-56709489D01*
X221209219Y-56709485D01*
X221210571Y-56708490D01*
X221210593Y-56708473D01*
X221220753Y-56700986D01*
X221227490Y-56691815D01*
X221232274Y-56687189D01*
X221234469Y-56685168D01*
X221348819Y-56584886D01*
X221407283Y-56518219D01*
X221410730Y-56514600D01*
X221424174Y-56501599D01*
X221424177Y-56501594D01*
X221425178Y-56500627D01*
X221425204Y-56500600D01*
X221432658Y-56493391D01*
X221437171Y-56485139D01*
X221444163Y-56476286D01*
X221446124Y-56473930D01*
X221542129Y-56364458D01*
X221593885Y-56286999D01*
X221596733Y-56283083D01*
X221609504Y-56266912D01*
X221609508Y-56266903D01*
X221609759Y-56266587D01*
X221609781Y-56266557D01*
X221615245Y-56259637D01*
X221617907Y-56252724D01*
X221625812Y-56239378D01*
X221627562Y-56236597D01*
X221705014Y-56120684D01*
X221748226Y-56033057D01*
X221750472Y-56028908D01*
X221761899Y-56009618D01*
X221761900Y-56009615D01*
X221765299Y-56003877D01*
X221766546Y-55998658D01*
X221774200Y-55980608D01*
X221775616Y-55977516D01*
X221834686Y-55857734D01*
X221867601Y-55760768D01*
X221869222Y-55756519D01*
X221878625Y-55734345D01*
X221878625Y-55734342D01*
X221878641Y-55734307D01*
X221878642Y-55734300D01*
X221880220Y-55730580D01*
X221880552Y-55727328D01*
X221886762Y-55704659D01*
X221887824Y-55701191D01*
X221928927Y-55580108D01*
X221949840Y-55474971D01*
X221950838Y-55470744D01*
X221957646Y-55445892D01*
X221957647Y-55445882D01*
X221957831Y-55445212D01*
X221957838Y-55445183D01*
X221958005Y-55444570D01*
X221957971Y-55443474D01*
X221961613Y-55416393D01*
X221962239Y-55412638D01*
X221986125Y-55292557D01*
X221993456Y-55180708D01*
X221993877Y-55176496D01*
X221997503Y-55149532D01*
X221997505Y-55149520D01*
X221998165Y-55109962D01*
X221998286Y-55106999D01*
X222005300Y-55000000D01*
X221998289Y-54893027D01*
X221998165Y-54890007D01*
X221998109Y-54886679D01*
X221997505Y-54850480D01*
X221993877Y-54823501D01*
X221993456Y-54819290D01*
X221992124Y-54798986D01*
X221986125Y-54707443D01*
X221962243Y-54587382D01*
X221961609Y-54583573D01*
X221957972Y-54556532D01*
X221958092Y-54555745D01*
X221958005Y-54555426D01*
X221957995Y-54555382D01*
X221957646Y-54554108D01*
X221950838Y-54529257D01*
X221949841Y-54525035D01*
X221928927Y-54419892D01*
X221887836Y-54298843D01*
X221886755Y-54295312D01*
X221880553Y-54272670D01*
X221880596Y-54270304D01*
X221869219Y-54243473D01*
X221867589Y-54239196D01*
X221834688Y-54142273D01*
X221834686Y-54142266D01*
X221775655Y-54022562D01*
X221774181Y-54019344D01*
X221766551Y-54001351D01*
X221766101Y-53997475D01*
X221750474Y-53971092D01*
X221748217Y-53966925D01*
X221705014Y-53879317D01*
X221705011Y-53879312D01*
X221627593Y-53763447D01*
X221625799Y-53760599D01*
X221617911Y-53747281D01*
X221616579Y-53742049D01*
X221611153Y-53735177D01*
X221611136Y-53735155D01*
X221596751Y-53716938D01*
X221593857Y-53712958D01*
X221542130Y-53635543D01*
X221446165Y-53526115D01*
X221444121Y-53523660D01*
X221437179Y-53514870D01*
X221434613Y-53508498D01*
X221424766Y-53498975D01*
X221424745Y-53498952D01*
X221410767Y-53485435D01*
X221407261Y-53481755D01*
X221379971Y-53450636D01*
X221348819Y-53415113D01*
X221278763Y-53353676D01*
X221234474Y-53314836D01*
X221232262Y-53312799D01*
X221227477Y-53308171D01*
X221223372Y-53300943D01*
X221210000Y-53291090D01*
X221209985Y-53291077D01*
X221195824Y-53280643D01*
X221191720Y-53277341D01*
X221128392Y-53221805D01*
X220996185Y-53133466D01*
X220993858Y-53131833D01*
X220992432Y-53130783D01*
X220986529Y-53123023D01*
X220955701Y-53106129D01*
X220951056Y-53103312D01*
X220884617Y-53058919D01*
X220884609Y-53058915D01*
X220740907Y-52988049D01*
X220731037Y-52978969D01*
X220694647Y-52964954D01*
X220689506Y-52962701D01*
X220621669Y-52929247D01*
X220621659Y-52929243D01*
X220467695Y-52876980D01*
X220456112Y-52868835D01*
X220429477Y-52862487D01*
X220429448Y-52862479D01*
X220417254Y-52859572D01*
X220411701Y-52857972D01*
X220344048Y-52835008D01*
X220344044Y-52835007D01*
X220344041Y-52835006D01*
X220323643Y-52830948D01*
X220182174Y-52802807D01*
X220168969Y-52795899D01*
X220128384Y-52791817D01*
X220122503Y-52790938D01*
X220092518Y-52784974D01*
X220056499Y-52777809D01*
X220056473Y-52777806D01*
X219889346Y-52766852D01*
X219874665Y-52761475D01*
X219833144Y-52762864D01*
X219827014Y-52762766D01*
X219763934Y-52758633D01*
X219763933Y-52758633D01*
X219728776Y-52760937D01*
X219594269Y-52769753D01*
X219578317Y-52766183D01*
X219536684Y-52773206D01*
X219530423Y-52773937D01*
X219471392Y-52777806D01*
X219471380Y-52777807D01*
X219471376Y-52777808D01*
X219471368Y-52777809D01*
X219471365Y-52777810D01*
X219302102Y-52811478D01*
X219285117Y-52809958D01*
X219244213Y-52822648D01*
X219237934Y-52824242D01*
X219183826Y-52835005D01*
X219017851Y-52891346D01*
X219000163Y-52892082D01*
X218960905Y-52910299D01*
X218954736Y-52912769D01*
X218906205Y-52929244D01*
X218906197Y-52929247D01*
X218643248Y-53058919D01*
X218399473Y-53221805D01*
X218179046Y-53415113D01*
X217985738Y-53635540D01*
X217822852Y-53879315D01*
X217693180Y-54142263D01*
X217693176Y-54142273D01*
X217598942Y-54419879D01*
X217598937Y-54419899D01*
X217541742Y-54707432D01*
X217541741Y-54707442D01*
X217541741Y-54707443D01*
X217522566Y-55000000D01*
X133241367Y-55000000D01*
X133234356Y-54893027D01*
X133234232Y-54890007D01*
X133234176Y-54886679D01*
X133233572Y-54850480D01*
X133229944Y-54823501D01*
X133229523Y-54819290D01*
X133228191Y-54798986D01*
X133222192Y-54707443D01*
X133198310Y-54587382D01*
X133197676Y-54583573D01*
X133194039Y-54556532D01*
X133194159Y-54555745D01*
X133194072Y-54555426D01*
X133194062Y-54555382D01*
X133193713Y-54554108D01*
X133186905Y-54529257D01*
X133185908Y-54525035D01*
X133164994Y-54419892D01*
X133123903Y-54298843D01*
X133122822Y-54295312D01*
X133116620Y-54272670D01*
X133116663Y-54270304D01*
X133105286Y-54243473D01*
X133103656Y-54239196D01*
X133070755Y-54142273D01*
X133070753Y-54142266D01*
X133011722Y-54022562D01*
X133010248Y-54019344D01*
X133002618Y-54001351D01*
X133002168Y-53997475D01*
X132986541Y-53971092D01*
X132984284Y-53966925D01*
X132941081Y-53879317D01*
X132941078Y-53879312D01*
X132863660Y-53763447D01*
X132861866Y-53760599D01*
X132853978Y-53747281D01*
X132852646Y-53742049D01*
X132847220Y-53735177D01*
X132847203Y-53735155D01*
X132832818Y-53716938D01*
X132829924Y-53712958D01*
X132778197Y-53635543D01*
X132682232Y-53526115D01*
X132680188Y-53523660D01*
X132673246Y-53514870D01*
X132670680Y-53508498D01*
X132660833Y-53498975D01*
X132660812Y-53498952D01*
X132646834Y-53485435D01*
X132643328Y-53481755D01*
X132616038Y-53450636D01*
X132584886Y-53415113D01*
X132514830Y-53353676D01*
X132470541Y-53314836D01*
X132468329Y-53312799D01*
X132463544Y-53308171D01*
X132459439Y-53300943D01*
X132446067Y-53291090D01*
X132446052Y-53291077D01*
X132431891Y-53280643D01*
X132427787Y-53277341D01*
X132364459Y-53221805D01*
X132232252Y-53133466D01*
X132229925Y-53131833D01*
X132228499Y-53130783D01*
X132222596Y-53123023D01*
X132191768Y-53106129D01*
X132187123Y-53103312D01*
X132120684Y-53058919D01*
X132120676Y-53058915D01*
X131976974Y-52988049D01*
X131967104Y-52978969D01*
X131930714Y-52964954D01*
X131925573Y-52962701D01*
X131857736Y-52929247D01*
X131857726Y-52929243D01*
X131703762Y-52876980D01*
X131692179Y-52868835D01*
X131665544Y-52862487D01*
X131665515Y-52862479D01*
X131653321Y-52859572D01*
X131647768Y-52857972D01*
X131580115Y-52835008D01*
X131580111Y-52835007D01*
X131580108Y-52835006D01*
X131559710Y-52830948D01*
X131418241Y-52802807D01*
X131405036Y-52795899D01*
X131364451Y-52791817D01*
X131358570Y-52790938D01*
X131328585Y-52784974D01*
X131292566Y-52777809D01*
X131292540Y-52777806D01*
X131125413Y-52766852D01*
X131110732Y-52761475D01*
X131069211Y-52762864D01*
X131063081Y-52762766D01*
X131000001Y-52758633D01*
X131000000Y-52758633D01*
X130964843Y-52760937D01*
X130830336Y-52769753D01*
X130814384Y-52766183D01*
X130772751Y-52773206D01*
X130766490Y-52773937D01*
X130707459Y-52777806D01*
X130707447Y-52777807D01*
X130707443Y-52777808D01*
X130707435Y-52777809D01*
X130707432Y-52777810D01*
X130538169Y-52811478D01*
X130521184Y-52809958D01*
X130480280Y-52822648D01*
X130474001Y-52824242D01*
X130419893Y-52835005D01*
X130253918Y-52891346D01*
X130236230Y-52892082D01*
X130196972Y-52910299D01*
X130190803Y-52912769D01*
X130142272Y-52929244D01*
X130142264Y-52929247D01*
X129879315Y-53058919D01*
X129635540Y-53221805D01*
X129415113Y-53415113D01*
X129221805Y-53635540D01*
X129058919Y-53879315D01*
X128929247Y-54142263D01*
X128929243Y-54142273D01*
X128835009Y-54419879D01*
X128835004Y-54419899D01*
X128777809Y-54707432D01*
X128777808Y-54707442D01*
X128777808Y-54707443D01*
X128758633Y-55000000D01*
X127000500Y-55000000D01*
X127000500Y-50924500D01*
X127020185Y-50857461D01*
X127072989Y-50811706D01*
X127124500Y-50800500D01*
X223395500Y-50800500D01*
X223462539Y-50820185D01*
G37*
G04 #@! TD.AperFunction*
M02*
