%TF.GenerationSoftware,KiCad,Pcbnew,7.0.7*%
%TF.CreationDate,2024-05-14T17:55:08+07:00*%
%TF.ProjectId,frankii round 2,6672616e-6b69-4692-9072-6f756e642032,rev?*%
%TF.SameCoordinates,Original*%
%TF.FileFunction,Drillmap*%
%TF.FilePolarity,Positive*%
%FSLAX45Y45*%
G04 Gerber Fmt 4.5, Leading zero omitted, Abs format (unit mm)*
G04 Created by KiCad (PCBNEW 7.0.7) date 2024-05-14 17:55:08*
%MOMM*%
%LPD*%
G01*
G04 APERTURE LIST*
%ADD10C,0.100000*%
%ADD11C,0.200000*%
%ADD12C,0.178000*%
G04 APERTURE END LIST*
D10*
X13323607Y-10000000D02*
G75*
G03*
X13323607Y-10000000I-223607J0D01*
G01*
X13323607Y-5500000D02*
G75*
G03*
X13323607Y-5500000I-223607J0D01*
G01*
X22200000Y-5500000D02*
G75*
G03*
X22200000Y-5500000I-223607J0D01*
G01*
X22200000Y-10000000D02*
G75*
G03*
X22200000Y-10000000I-223607J0D01*
G01*
X12700000Y-5080000D02*
X22352000Y-5080000D01*
X22352000Y-10414000D01*
X12700000Y-10414000D01*
X12700000Y-5080000D01*
D11*
D12*
X14846200Y-6818800D02*
X15024200Y-6996800D01*
X15024200Y-6818800D02*
X14846200Y-6996800D01*
X14846200Y-8342800D02*
X15024200Y-8520800D01*
X15024200Y-8342800D02*
X14846200Y-8520800D01*
X18910200Y-6818800D02*
X19088200Y-6996800D01*
X19088200Y-6818800D02*
X18910200Y-6996800D01*
X18910200Y-8342800D02*
X19088200Y-8520800D01*
X19088200Y-8342800D02*
X18910200Y-8520800D01*
D11*
X12955777Y-10730484D02*
X12955777Y-10530484D01*
X12955777Y-10530484D02*
X13003396Y-10530484D01*
X13003396Y-10530484D02*
X13031967Y-10540008D01*
X13031967Y-10540008D02*
X13051015Y-10559055D01*
X13051015Y-10559055D02*
X13060539Y-10578103D01*
X13060539Y-10578103D02*
X13070062Y-10616198D01*
X13070062Y-10616198D02*
X13070062Y-10644770D01*
X13070062Y-10644770D02*
X13060539Y-10682865D01*
X13060539Y-10682865D02*
X13051015Y-10701912D01*
X13051015Y-10701912D02*
X13031967Y-10720960D01*
X13031967Y-10720960D02*
X13003396Y-10730484D01*
X13003396Y-10730484D02*
X12955777Y-10730484D01*
X13155777Y-10730484D02*
X13155777Y-10597150D01*
X13155777Y-10635246D02*
X13165301Y-10616198D01*
X13165301Y-10616198D02*
X13174824Y-10606674D01*
X13174824Y-10606674D02*
X13193872Y-10597150D01*
X13193872Y-10597150D02*
X13212920Y-10597150D01*
X13279586Y-10730484D02*
X13279586Y-10597150D01*
X13279586Y-10530484D02*
X13270062Y-10540008D01*
X13270062Y-10540008D02*
X13279586Y-10549531D01*
X13279586Y-10549531D02*
X13289110Y-10540008D01*
X13289110Y-10540008D02*
X13279586Y-10530484D01*
X13279586Y-10530484D02*
X13279586Y-10549531D01*
X13403396Y-10730484D02*
X13384348Y-10720960D01*
X13384348Y-10720960D02*
X13374824Y-10701912D01*
X13374824Y-10701912D02*
X13374824Y-10530484D01*
X13508158Y-10730484D02*
X13489110Y-10720960D01*
X13489110Y-10720960D02*
X13479586Y-10701912D01*
X13479586Y-10701912D02*
X13479586Y-10530484D01*
X13736729Y-10730484D02*
X13736729Y-10530484D01*
X13736729Y-10530484D02*
X13803396Y-10673341D01*
X13803396Y-10673341D02*
X13870062Y-10530484D01*
X13870062Y-10530484D02*
X13870062Y-10730484D01*
X14051015Y-10730484D02*
X14051015Y-10625722D01*
X14051015Y-10625722D02*
X14041491Y-10606674D01*
X14041491Y-10606674D02*
X14022443Y-10597150D01*
X14022443Y-10597150D02*
X13984348Y-10597150D01*
X13984348Y-10597150D02*
X13965301Y-10606674D01*
X14051015Y-10720960D02*
X14031967Y-10730484D01*
X14031967Y-10730484D02*
X13984348Y-10730484D01*
X13984348Y-10730484D02*
X13965301Y-10720960D01*
X13965301Y-10720960D02*
X13955777Y-10701912D01*
X13955777Y-10701912D02*
X13955777Y-10682865D01*
X13955777Y-10682865D02*
X13965301Y-10663817D01*
X13965301Y-10663817D02*
X13984348Y-10654293D01*
X13984348Y-10654293D02*
X14031967Y-10654293D01*
X14031967Y-10654293D02*
X14051015Y-10644770D01*
X14146253Y-10597150D02*
X14146253Y-10797150D01*
X14146253Y-10606674D02*
X14165301Y-10597150D01*
X14165301Y-10597150D02*
X14203396Y-10597150D01*
X14203396Y-10597150D02*
X14222443Y-10606674D01*
X14222443Y-10606674D02*
X14231967Y-10616198D01*
X14231967Y-10616198D02*
X14241491Y-10635246D01*
X14241491Y-10635246D02*
X14241491Y-10692389D01*
X14241491Y-10692389D02*
X14231967Y-10711436D01*
X14231967Y-10711436D02*
X14222443Y-10720960D01*
X14222443Y-10720960D02*
X14203396Y-10730484D01*
X14203396Y-10730484D02*
X14165301Y-10730484D01*
X14165301Y-10730484D02*
X14146253Y-10720960D01*
X14327205Y-10711436D02*
X14336729Y-10720960D01*
X14336729Y-10720960D02*
X14327205Y-10730484D01*
X14327205Y-10730484D02*
X14317682Y-10720960D01*
X14317682Y-10720960D02*
X14327205Y-10711436D01*
X14327205Y-10711436D02*
X14327205Y-10730484D01*
X14327205Y-10606674D02*
X14336729Y-10616198D01*
X14336729Y-10616198D02*
X14327205Y-10625722D01*
X14327205Y-10625722D02*
X14317682Y-10616198D01*
X14317682Y-10616198D02*
X14327205Y-10606674D01*
X14327205Y-10606674D02*
X14327205Y-10625722D01*
D12*
X12517000Y-10970000D02*
X12695000Y-11148000D01*
X12695000Y-10970000D02*
X12517000Y-11148000D01*
D11*
X13060539Y-11150484D02*
X12946253Y-11150484D01*
X13003396Y-11150484D02*
X13003396Y-10950484D01*
X13003396Y-10950484D02*
X12984348Y-10979055D01*
X12984348Y-10979055D02*
X12965301Y-10998103D01*
X12965301Y-10998103D02*
X12946253Y-11007627D01*
X13146253Y-11131436D02*
X13155777Y-11140960D01*
X13155777Y-11140960D02*
X13146253Y-11150484D01*
X13146253Y-11150484D02*
X13136729Y-11140960D01*
X13136729Y-11140960D02*
X13146253Y-11131436D01*
X13146253Y-11131436D02*
X13146253Y-11150484D01*
X13222443Y-10950484D02*
X13355777Y-10950484D01*
X13355777Y-10950484D02*
X13270062Y-11150484D01*
X13460539Y-11036198D02*
X13441491Y-11026674D01*
X13441491Y-11026674D02*
X13431967Y-11017150D01*
X13431967Y-11017150D02*
X13422443Y-10998103D01*
X13422443Y-10998103D02*
X13422443Y-10988579D01*
X13422443Y-10988579D02*
X13431967Y-10969531D01*
X13431967Y-10969531D02*
X13441491Y-10960008D01*
X13441491Y-10960008D02*
X13460539Y-10950484D01*
X13460539Y-10950484D02*
X13498634Y-10950484D01*
X13498634Y-10950484D02*
X13517682Y-10960008D01*
X13517682Y-10960008D02*
X13527205Y-10969531D01*
X13527205Y-10969531D02*
X13536729Y-10988579D01*
X13536729Y-10988579D02*
X13536729Y-10998103D01*
X13536729Y-10998103D02*
X13527205Y-11017150D01*
X13527205Y-11017150D02*
X13517682Y-11026674D01*
X13517682Y-11026674D02*
X13498634Y-11036198D01*
X13498634Y-11036198D02*
X13460539Y-11036198D01*
X13460539Y-11036198D02*
X13441491Y-11045722D01*
X13441491Y-11045722D02*
X13431967Y-11055246D01*
X13431967Y-11055246D02*
X13422443Y-11074293D01*
X13422443Y-11074293D02*
X13422443Y-11112389D01*
X13422443Y-11112389D02*
X13431967Y-11131436D01*
X13431967Y-11131436D02*
X13441491Y-11140960D01*
X13441491Y-11140960D02*
X13460539Y-11150484D01*
X13460539Y-11150484D02*
X13498634Y-11150484D01*
X13498634Y-11150484D02*
X13517682Y-11140960D01*
X13517682Y-11140960D02*
X13527205Y-11131436D01*
X13527205Y-11131436D02*
X13536729Y-11112389D01*
X13536729Y-11112389D02*
X13536729Y-11074293D01*
X13536729Y-11074293D02*
X13527205Y-11055246D01*
X13527205Y-11055246D02*
X13517682Y-11045722D01*
X13517682Y-11045722D02*
X13498634Y-11036198D01*
X13660539Y-10950484D02*
X13679586Y-10950484D01*
X13679586Y-10950484D02*
X13698634Y-10960008D01*
X13698634Y-10960008D02*
X13708158Y-10969531D01*
X13708158Y-10969531D02*
X13717682Y-10988579D01*
X13717682Y-10988579D02*
X13727205Y-11026674D01*
X13727205Y-11026674D02*
X13727205Y-11074293D01*
X13727205Y-11074293D02*
X13717682Y-11112389D01*
X13717682Y-11112389D02*
X13708158Y-11131436D01*
X13708158Y-11131436D02*
X13698634Y-11140960D01*
X13698634Y-11140960D02*
X13679586Y-11150484D01*
X13679586Y-11150484D02*
X13660539Y-11150484D01*
X13660539Y-11150484D02*
X13641491Y-11140960D01*
X13641491Y-11140960D02*
X13631967Y-11131436D01*
X13631967Y-11131436D02*
X13622443Y-11112389D01*
X13622443Y-11112389D02*
X13612920Y-11074293D01*
X13612920Y-11074293D02*
X13612920Y-11026674D01*
X13612920Y-11026674D02*
X13622443Y-10988579D01*
X13622443Y-10988579D02*
X13631967Y-10969531D01*
X13631967Y-10969531D02*
X13641491Y-10960008D01*
X13641491Y-10960008D02*
X13660539Y-10950484D01*
X13812920Y-11150484D02*
X13812920Y-11017150D01*
X13812920Y-11036198D02*
X13822443Y-11026674D01*
X13822443Y-11026674D02*
X13841491Y-11017150D01*
X13841491Y-11017150D02*
X13870063Y-11017150D01*
X13870063Y-11017150D02*
X13889110Y-11026674D01*
X13889110Y-11026674D02*
X13898634Y-11045722D01*
X13898634Y-11045722D02*
X13898634Y-11150484D01*
X13898634Y-11045722D02*
X13908158Y-11026674D01*
X13908158Y-11026674D02*
X13927205Y-11017150D01*
X13927205Y-11017150D02*
X13955777Y-11017150D01*
X13955777Y-11017150D02*
X13974824Y-11026674D01*
X13974824Y-11026674D02*
X13984348Y-11045722D01*
X13984348Y-11045722D02*
X13984348Y-11150484D01*
X14079586Y-11150484D02*
X14079586Y-11017150D01*
X14079586Y-11036198D02*
X14089110Y-11026674D01*
X14089110Y-11026674D02*
X14108158Y-11017150D01*
X14108158Y-11017150D02*
X14136729Y-11017150D01*
X14136729Y-11017150D02*
X14155777Y-11026674D01*
X14155777Y-11026674D02*
X14165301Y-11045722D01*
X14165301Y-11045722D02*
X14165301Y-11150484D01*
X14165301Y-11045722D02*
X14174824Y-11026674D01*
X14174824Y-11026674D02*
X14193872Y-11017150D01*
X14193872Y-11017150D02*
X14222443Y-11017150D01*
X14222443Y-11017150D02*
X14241491Y-11026674D01*
X14241491Y-11026674D02*
X14251015Y-11045722D01*
X14251015Y-11045722D02*
X14251015Y-11150484D01*
X14641491Y-10940960D02*
X14470063Y-11198103D01*
X14898634Y-10950484D02*
X14917682Y-10950484D01*
X14917682Y-10950484D02*
X14936729Y-10960008D01*
X14936729Y-10960008D02*
X14946253Y-10969531D01*
X14946253Y-10969531D02*
X14955777Y-10988579D01*
X14955777Y-10988579D02*
X14965301Y-11026674D01*
X14965301Y-11026674D02*
X14965301Y-11074293D01*
X14965301Y-11074293D02*
X14955777Y-11112389D01*
X14955777Y-11112389D02*
X14946253Y-11131436D01*
X14946253Y-11131436D02*
X14936729Y-11140960D01*
X14936729Y-11140960D02*
X14917682Y-11150484D01*
X14917682Y-11150484D02*
X14898634Y-11150484D01*
X14898634Y-11150484D02*
X14879586Y-11140960D01*
X14879586Y-11140960D02*
X14870063Y-11131436D01*
X14870063Y-11131436D02*
X14860539Y-11112389D01*
X14860539Y-11112389D02*
X14851015Y-11074293D01*
X14851015Y-11074293D02*
X14851015Y-11026674D01*
X14851015Y-11026674D02*
X14860539Y-10988579D01*
X14860539Y-10988579D02*
X14870063Y-10969531D01*
X14870063Y-10969531D02*
X14879586Y-10960008D01*
X14879586Y-10960008D02*
X14898634Y-10950484D01*
X15051015Y-11131436D02*
X15060539Y-11140960D01*
X15060539Y-11140960D02*
X15051015Y-11150484D01*
X15051015Y-11150484D02*
X15041491Y-11140960D01*
X15041491Y-11140960D02*
X15051015Y-11131436D01*
X15051015Y-11131436D02*
X15051015Y-11150484D01*
X15184348Y-10950484D02*
X15203396Y-10950484D01*
X15203396Y-10950484D02*
X15222444Y-10960008D01*
X15222444Y-10960008D02*
X15231967Y-10969531D01*
X15231967Y-10969531D02*
X15241491Y-10988579D01*
X15241491Y-10988579D02*
X15251015Y-11026674D01*
X15251015Y-11026674D02*
X15251015Y-11074293D01*
X15251015Y-11074293D02*
X15241491Y-11112389D01*
X15241491Y-11112389D02*
X15231967Y-11131436D01*
X15231967Y-11131436D02*
X15222444Y-11140960D01*
X15222444Y-11140960D02*
X15203396Y-11150484D01*
X15203396Y-11150484D02*
X15184348Y-11150484D01*
X15184348Y-11150484D02*
X15165301Y-11140960D01*
X15165301Y-11140960D02*
X15155777Y-11131436D01*
X15155777Y-11131436D02*
X15146253Y-11112389D01*
X15146253Y-11112389D02*
X15136729Y-11074293D01*
X15136729Y-11074293D02*
X15136729Y-11026674D01*
X15136729Y-11026674D02*
X15146253Y-10988579D01*
X15146253Y-10988579D02*
X15155777Y-10969531D01*
X15155777Y-10969531D02*
X15165301Y-10960008D01*
X15165301Y-10960008D02*
X15184348Y-10950484D01*
X15317682Y-10950484D02*
X15451015Y-10950484D01*
X15451015Y-10950484D02*
X15365301Y-11150484D01*
X15565301Y-10950484D02*
X15584348Y-10950484D01*
X15584348Y-10950484D02*
X15603396Y-10960008D01*
X15603396Y-10960008D02*
X15612920Y-10969531D01*
X15612920Y-10969531D02*
X15622444Y-10988579D01*
X15622444Y-10988579D02*
X15631967Y-11026674D01*
X15631967Y-11026674D02*
X15631967Y-11074293D01*
X15631967Y-11074293D02*
X15622444Y-11112389D01*
X15622444Y-11112389D02*
X15612920Y-11131436D01*
X15612920Y-11131436D02*
X15603396Y-11140960D01*
X15603396Y-11140960D02*
X15584348Y-11150484D01*
X15584348Y-11150484D02*
X15565301Y-11150484D01*
X15565301Y-11150484D02*
X15546253Y-11140960D01*
X15546253Y-11140960D02*
X15536729Y-11131436D01*
X15536729Y-11131436D02*
X15527206Y-11112389D01*
X15527206Y-11112389D02*
X15517682Y-11074293D01*
X15517682Y-11074293D02*
X15517682Y-11026674D01*
X15517682Y-11026674D02*
X15527206Y-10988579D01*
X15527206Y-10988579D02*
X15536729Y-10969531D01*
X15536729Y-10969531D02*
X15546253Y-10960008D01*
X15546253Y-10960008D02*
X15565301Y-10950484D01*
X15822444Y-11150484D02*
X15708158Y-11150484D01*
X15765301Y-11150484D02*
X15765301Y-10950484D01*
X15765301Y-10950484D02*
X15746253Y-10979055D01*
X15746253Y-10979055D02*
X15727206Y-10998103D01*
X15727206Y-10998103D02*
X15708158Y-11007627D01*
X15898634Y-10950484D02*
X15898634Y-10988579D01*
X15974825Y-10950484D02*
X15974825Y-10988579D01*
X16270063Y-11226674D02*
X16260539Y-11217150D01*
X16260539Y-11217150D02*
X16241491Y-11188579D01*
X16241491Y-11188579D02*
X16231968Y-11169531D01*
X16231968Y-11169531D02*
X16222444Y-11140960D01*
X16222444Y-11140960D02*
X16212920Y-11093341D01*
X16212920Y-11093341D02*
X16212920Y-11055246D01*
X16212920Y-11055246D02*
X16222444Y-11007627D01*
X16222444Y-11007627D02*
X16231968Y-10979055D01*
X16231968Y-10979055D02*
X16241491Y-10960008D01*
X16241491Y-10960008D02*
X16260539Y-10931436D01*
X16260539Y-10931436D02*
X16270063Y-10921912D01*
X16431968Y-11017150D02*
X16431968Y-11150484D01*
X16384348Y-10940960D02*
X16336729Y-11083817D01*
X16336729Y-11083817D02*
X16460539Y-11083817D01*
X16689110Y-11150484D02*
X16689110Y-10950484D01*
X16774825Y-11150484D02*
X16774825Y-11045722D01*
X16774825Y-11045722D02*
X16765301Y-11026674D01*
X16765301Y-11026674D02*
X16746253Y-11017150D01*
X16746253Y-11017150D02*
X16717682Y-11017150D01*
X16717682Y-11017150D02*
X16698634Y-11026674D01*
X16698634Y-11026674D02*
X16689110Y-11036198D01*
X16898634Y-11150484D02*
X16879587Y-11140960D01*
X16879587Y-11140960D02*
X16870063Y-11131436D01*
X16870063Y-11131436D02*
X16860539Y-11112389D01*
X16860539Y-11112389D02*
X16860539Y-11055246D01*
X16860539Y-11055246D02*
X16870063Y-11036198D01*
X16870063Y-11036198D02*
X16879587Y-11026674D01*
X16879587Y-11026674D02*
X16898634Y-11017150D01*
X16898634Y-11017150D02*
X16927206Y-11017150D01*
X16927206Y-11017150D02*
X16946253Y-11026674D01*
X16946253Y-11026674D02*
X16955777Y-11036198D01*
X16955777Y-11036198D02*
X16965301Y-11055246D01*
X16965301Y-11055246D02*
X16965301Y-11112389D01*
X16965301Y-11112389D02*
X16955777Y-11131436D01*
X16955777Y-11131436D02*
X16946253Y-11140960D01*
X16946253Y-11140960D02*
X16927206Y-11150484D01*
X16927206Y-11150484D02*
X16898634Y-11150484D01*
X17079587Y-11150484D02*
X17060539Y-11140960D01*
X17060539Y-11140960D02*
X17051015Y-11121912D01*
X17051015Y-11121912D02*
X17051015Y-10950484D01*
X17231968Y-11140960D02*
X17212920Y-11150484D01*
X17212920Y-11150484D02*
X17174825Y-11150484D01*
X17174825Y-11150484D02*
X17155777Y-11140960D01*
X17155777Y-11140960D02*
X17146253Y-11121912D01*
X17146253Y-11121912D02*
X17146253Y-11045722D01*
X17146253Y-11045722D02*
X17155777Y-11026674D01*
X17155777Y-11026674D02*
X17174825Y-11017150D01*
X17174825Y-11017150D02*
X17212920Y-11017150D01*
X17212920Y-11017150D02*
X17231968Y-11026674D01*
X17231968Y-11026674D02*
X17241492Y-11045722D01*
X17241492Y-11045722D02*
X17241492Y-11064770D01*
X17241492Y-11064770D02*
X17146253Y-11083817D01*
X17317682Y-11140960D02*
X17336730Y-11150484D01*
X17336730Y-11150484D02*
X17374825Y-11150484D01*
X17374825Y-11150484D02*
X17393873Y-11140960D01*
X17393873Y-11140960D02*
X17403396Y-11121912D01*
X17403396Y-11121912D02*
X17403396Y-11112389D01*
X17403396Y-11112389D02*
X17393873Y-11093341D01*
X17393873Y-11093341D02*
X17374825Y-11083817D01*
X17374825Y-11083817D02*
X17346253Y-11083817D01*
X17346253Y-11083817D02*
X17327206Y-11074293D01*
X17327206Y-11074293D02*
X17317682Y-11055246D01*
X17317682Y-11055246D02*
X17317682Y-11045722D01*
X17317682Y-11045722D02*
X17327206Y-11026674D01*
X17327206Y-11026674D02*
X17346253Y-11017150D01*
X17346253Y-11017150D02*
X17374825Y-11017150D01*
X17374825Y-11017150D02*
X17393873Y-11026674D01*
X17470063Y-11226674D02*
X17479587Y-11217150D01*
X17479587Y-11217150D02*
X17498634Y-11188579D01*
X17498634Y-11188579D02*
X17508158Y-11169531D01*
X17508158Y-11169531D02*
X17517682Y-11140960D01*
X17517682Y-11140960D02*
X17527206Y-11093341D01*
X17527206Y-11093341D02*
X17527206Y-11055246D01*
X17527206Y-11055246D02*
X17517682Y-11007627D01*
X17517682Y-11007627D02*
X17508158Y-10979055D01*
X17508158Y-10979055D02*
X17498634Y-10960008D01*
X17498634Y-10960008D02*
X17479587Y-10931436D01*
X17479587Y-10931436D02*
X17470063Y-10921912D01*
X17831968Y-11226674D02*
X17822444Y-11217150D01*
X17822444Y-11217150D02*
X17803396Y-11188579D01*
X17803396Y-11188579D02*
X17793873Y-11169531D01*
X17793873Y-11169531D02*
X17784349Y-11140960D01*
X17784349Y-11140960D02*
X17774825Y-11093341D01*
X17774825Y-11093341D02*
X17774825Y-11055246D01*
X17774825Y-11055246D02*
X17784349Y-11007627D01*
X17784349Y-11007627D02*
X17793873Y-10979055D01*
X17793873Y-10979055D02*
X17803396Y-10960008D01*
X17803396Y-10960008D02*
X17822444Y-10931436D01*
X17822444Y-10931436D02*
X17831968Y-10921912D01*
X17908158Y-11017150D02*
X17908158Y-11150484D01*
X17908158Y-11036198D02*
X17917682Y-11026674D01*
X17917682Y-11026674D02*
X17936730Y-11017150D01*
X17936730Y-11017150D02*
X17965301Y-11017150D01*
X17965301Y-11017150D02*
X17984349Y-11026674D01*
X17984349Y-11026674D02*
X17993873Y-11045722D01*
X17993873Y-11045722D02*
X17993873Y-11150484D01*
X18117682Y-11150484D02*
X18098634Y-11140960D01*
X18098634Y-11140960D02*
X18089111Y-11131436D01*
X18089111Y-11131436D02*
X18079587Y-11112389D01*
X18079587Y-11112389D02*
X18079587Y-11055246D01*
X18079587Y-11055246D02*
X18089111Y-11036198D01*
X18089111Y-11036198D02*
X18098634Y-11026674D01*
X18098634Y-11026674D02*
X18117682Y-11017150D01*
X18117682Y-11017150D02*
X18146254Y-11017150D01*
X18146254Y-11017150D02*
X18165301Y-11026674D01*
X18165301Y-11026674D02*
X18174825Y-11036198D01*
X18174825Y-11036198D02*
X18184349Y-11055246D01*
X18184349Y-11055246D02*
X18184349Y-11112389D01*
X18184349Y-11112389D02*
X18174825Y-11131436D01*
X18174825Y-11131436D02*
X18165301Y-11140960D01*
X18165301Y-11140960D02*
X18146254Y-11150484D01*
X18146254Y-11150484D02*
X18117682Y-11150484D01*
X18241492Y-11017150D02*
X18317682Y-11017150D01*
X18270063Y-10950484D02*
X18270063Y-11121912D01*
X18270063Y-11121912D02*
X18279587Y-11140960D01*
X18279587Y-11140960D02*
X18298634Y-11150484D01*
X18298634Y-11150484D02*
X18317682Y-11150484D01*
X18536730Y-11017150D02*
X18536730Y-11217150D01*
X18536730Y-11026674D02*
X18555777Y-11017150D01*
X18555777Y-11017150D02*
X18593873Y-11017150D01*
X18593873Y-11017150D02*
X18612920Y-11026674D01*
X18612920Y-11026674D02*
X18622444Y-11036198D01*
X18622444Y-11036198D02*
X18631968Y-11055246D01*
X18631968Y-11055246D02*
X18631968Y-11112389D01*
X18631968Y-11112389D02*
X18622444Y-11131436D01*
X18622444Y-11131436D02*
X18612920Y-11140960D01*
X18612920Y-11140960D02*
X18593873Y-11150484D01*
X18593873Y-11150484D02*
X18555777Y-11150484D01*
X18555777Y-11150484D02*
X18536730Y-11140960D01*
X18746254Y-11150484D02*
X18727206Y-11140960D01*
X18727206Y-11140960D02*
X18717682Y-11121912D01*
X18717682Y-11121912D02*
X18717682Y-10950484D01*
X18908158Y-11150484D02*
X18908158Y-11045722D01*
X18908158Y-11045722D02*
X18898635Y-11026674D01*
X18898635Y-11026674D02*
X18879587Y-11017150D01*
X18879587Y-11017150D02*
X18841492Y-11017150D01*
X18841492Y-11017150D02*
X18822444Y-11026674D01*
X18908158Y-11140960D02*
X18889111Y-11150484D01*
X18889111Y-11150484D02*
X18841492Y-11150484D01*
X18841492Y-11150484D02*
X18822444Y-11140960D01*
X18822444Y-11140960D02*
X18812920Y-11121912D01*
X18812920Y-11121912D02*
X18812920Y-11102865D01*
X18812920Y-11102865D02*
X18822444Y-11083817D01*
X18822444Y-11083817D02*
X18841492Y-11074293D01*
X18841492Y-11074293D02*
X18889111Y-11074293D01*
X18889111Y-11074293D02*
X18908158Y-11064770D01*
X18974825Y-11017150D02*
X19051015Y-11017150D01*
X19003396Y-10950484D02*
X19003396Y-11121912D01*
X19003396Y-11121912D02*
X19012920Y-11140960D01*
X19012920Y-11140960D02*
X19031968Y-11150484D01*
X19031968Y-11150484D02*
X19051015Y-11150484D01*
X19193873Y-11140960D02*
X19174825Y-11150484D01*
X19174825Y-11150484D02*
X19136730Y-11150484D01*
X19136730Y-11150484D02*
X19117682Y-11140960D01*
X19117682Y-11140960D02*
X19108158Y-11121912D01*
X19108158Y-11121912D02*
X19108158Y-11045722D01*
X19108158Y-11045722D02*
X19117682Y-11026674D01*
X19117682Y-11026674D02*
X19136730Y-11017150D01*
X19136730Y-11017150D02*
X19174825Y-11017150D01*
X19174825Y-11017150D02*
X19193873Y-11026674D01*
X19193873Y-11026674D02*
X19203396Y-11045722D01*
X19203396Y-11045722D02*
X19203396Y-11064770D01*
X19203396Y-11064770D02*
X19108158Y-11083817D01*
X19374825Y-11150484D02*
X19374825Y-10950484D01*
X19374825Y-11140960D02*
X19355777Y-11150484D01*
X19355777Y-11150484D02*
X19317682Y-11150484D01*
X19317682Y-11150484D02*
X19298635Y-11140960D01*
X19298635Y-11140960D02*
X19289111Y-11131436D01*
X19289111Y-11131436D02*
X19279587Y-11112389D01*
X19279587Y-11112389D02*
X19279587Y-11055246D01*
X19279587Y-11055246D02*
X19289111Y-11036198D01*
X19289111Y-11036198D02*
X19298635Y-11026674D01*
X19298635Y-11026674D02*
X19317682Y-11017150D01*
X19317682Y-11017150D02*
X19355777Y-11017150D01*
X19355777Y-11017150D02*
X19374825Y-11026674D01*
X19451016Y-11226674D02*
X19460539Y-11217150D01*
X19460539Y-11217150D02*
X19479587Y-11188579D01*
X19479587Y-11188579D02*
X19489111Y-11169531D01*
X19489111Y-11169531D02*
X19498635Y-11140960D01*
X19498635Y-11140960D02*
X19508158Y-11093341D01*
X19508158Y-11093341D02*
X19508158Y-11055246D01*
X19508158Y-11055246D02*
X19498635Y-11007627D01*
X19498635Y-11007627D02*
X19489111Y-10979055D01*
X19489111Y-10979055D02*
X19479587Y-10960008D01*
X19479587Y-10960008D02*
X19460539Y-10931436D01*
X19460539Y-10931436D02*
X19451016Y-10921912D01*
M02*
