G04 #@! TF.GenerationSoftware,KiCad,Pcbnew,7.0.7*
G04 #@! TF.CreationDate,2024-05-14T17:55:04+07:00*
G04 #@! TF.ProjectId,frankii round 2,6672616e-6b69-4692-9072-6f756e642032,rev?*
G04 #@! TF.SameCoordinates,Original*
G04 #@! TF.FileFunction,Soldermask,Bot*
G04 #@! TF.FilePolarity,Negative*
%FSLAX46Y46*%
G04 Gerber Fmt 4.6, Leading zero omitted, Abs format (unit mm)*
G04 Created by KiCad (PCBNEW 7.0.7) date 2024-05-14 17:55:04*
%MOMM*%
%LPD*%
G01*
G04 APERTURE LIST*
%ADD10R,2.400000X2.400000*%
%ADD11C,2.400000*%
%ADD12C,1.498600*%
%ADD13C,0.770000*%
%ADD14C,1.780000*%
%ADD15R,1.600000X1.600000*%
%ADD16O,1.600000X1.600000*%
%ADD17R,1.295400X1.295400*%
%ADD18C,1.295400*%
G04 APERTURE END LIST*
D10*
X139446000Y-99460000D03*
D11*
X142946000Y-99460000D03*
D12*
X151201801Y-56388000D03*
X151201801Y-58888000D03*
X151201801Y-61388000D03*
X206502000Y-56468000D03*
X206502000Y-58968000D03*
X206502000Y-61468000D03*
D13*
X202087000Y-93591900D03*
X200787000Y-93591900D03*
X199487000Y-93591900D03*
X202087000Y-94891900D03*
X200787000Y-94891900D03*
X199487000Y-94891900D03*
D12*
X142201801Y-56388000D03*
X142201801Y-58888000D03*
X142201801Y-61388000D03*
X160201801Y-56388000D03*
X160201801Y-58888000D03*
X160201801Y-61388000D03*
D14*
X149352000Y-84318000D03*
X189992000Y-84318000D03*
X149352000Y-69078000D03*
X189992000Y-69078000D03*
D15*
X151892000Y-84318000D03*
D16*
X154432000Y-84318000D03*
X156972000Y-84318000D03*
X159512000Y-84318000D03*
X162052000Y-84318000D03*
X164592000Y-84318000D03*
X167132000Y-84318000D03*
X169672000Y-84318000D03*
X172212000Y-84318000D03*
X174752000Y-84318000D03*
X177292000Y-84318000D03*
X179832000Y-84318000D03*
X182372000Y-84318000D03*
X184912000Y-84318000D03*
X187452000Y-84318000D03*
X187452000Y-69078000D03*
X184912000Y-69078000D03*
X182372000Y-69078000D03*
X179832000Y-69078000D03*
X177292000Y-69078000D03*
X174752000Y-69078000D03*
X172212000Y-69078000D03*
X169672000Y-69078000D03*
X167132000Y-69078000D03*
X164592000Y-69078000D03*
X162052000Y-69078000D03*
X159512000Y-69078000D03*
X156972000Y-69078000D03*
X154432000Y-69078000D03*
X151892000Y-69078000D03*
D17*
X215170001Y-61976000D03*
D18*
X217170001Y-61976000D03*
X219170002Y-61976000D03*
D12*
X213070000Y-61976000D03*
X221270001Y-61976000D03*
X179031801Y-56468000D03*
X179031801Y-58968000D03*
X179031801Y-61468000D03*
D13*
X160939001Y-93665000D03*
X159639001Y-93665000D03*
X158339001Y-93665000D03*
X160939001Y-94965000D03*
X159639001Y-94965000D03*
X158339001Y-94965000D03*
D10*
X217086000Y-70556000D03*
D11*
X217086000Y-67056000D03*
D12*
X169672000Y-56388000D03*
X169672000Y-58888000D03*
X169672000Y-61388000D03*
D10*
X210312000Y-99020000D03*
D11*
X213812000Y-99020000D03*
D12*
X188031801Y-56468000D03*
X188031801Y-58968000D03*
X188031801Y-61468000D03*
X197031801Y-56468000D03*
X197031801Y-58968000D03*
X197031801Y-61468000D03*
M02*
